<?xml version="1.0" encoding="utf-8"?>
<!-- Generator: Adobe Illustrator 16.0.0, SVG Export Plug-In . SVG Version: 6.00 Build 0)  -->
<!DOCTYPE svg PUBLIC "-//W3C//DTD SVG 1.1//EN" "http://www.w3.org/Graphics/SVG/1.1/DTD/svg11.dtd">
<svg version="1.1" id="Calque_1" xmlns="http://www.w3.org/2000/svg" xmlns:xlink="http://www.w3.org/1999/xlink" x="0px" y="0px"
	 width="20px" height="260px" viewBox="0 0 20 260" enable-background="new 0 0 20 260" xml:space="preserve">
<g>
	<path d="M14.694,11.44v1.089H7.729v3.697H6.75V11.44H14.694z"/>
	<path d="M9.325,18.018c-1.144-0.022-1.991,0.451-1.991,1.584c0,0.671,0.352,1.21,1.144,1.298v1.034
		c-0.275-0.033-0.726-0.077-1.155-0.473c-0.275-0.242-0.737-0.792-0.737-1.903c0-1.738,1.078-2.563,2.828-2.563
		c1.089,0,1.991,0.22,2.596,1.089c0.374,0.528,0.407,1.188,0.407,1.507c0,2.476-2.189,2.42-3.092,2.398V18.018z M10.051,20.934
		c0.528,0.011,1.628-0.088,1.628-1.364c0-0.671-0.407-1.485-1.628-1.507V20.934z"/>
	<path d="M8.39,24.101c-0.418-0.011-1.001,0.209-1.001,1.21c0,0.429,0.077,0.748,0.352,0.968c0.143,0.11,0.33,0.176,0.517,0.176
		c0.539,0,0.638-0.385,0.825-1.21c0.264-1.155,0.495-2.124,1.65-2.124c1.012,0,1.672,0.88,1.672,2.156
		c0,0.693-0.198,1.662-0.858,1.991c-0.308,0.143-0.572,0.143-0.803,0.143v-1.056c0.836,0.033,0.902-0.693,0.902-1.067
		c0-0.154,0-1.122-0.792-1.122c-0.506,0-0.627,0.495-0.704,0.781c-0.363,1.529-0.451,1.859-0.759,2.189
		c-0.286,0.308-0.671,0.418-1.023,0.418c-0.616,0-1.144-0.341-1.397-0.748c-0.297-0.484-0.374-1.067-0.374-1.639
		c0-1.122,0.462-2.167,1.793-2.156V24.101z"/>
	<path d="M8.555,32.857c-0.77,0.022-1.078,0.693-1.078,1.265c0,1.331,1.254,1.507,1.75,1.507c1.034,0,1.639-0.561,1.639-1.441
		c0-0.44-0.165-0.792-0.396-1.023c-0.231-0.231-0.462-0.297-0.638-0.352v-1.001l4.533,0.198v4.28h-0.891v-3.333l-2.464-0.143
		c0.231,0.231,0.704,0.715,0.704,1.606c0,1.529-1.199,2.277-2.509,2.277c-1.496,0-2.629-1.056-2.629-2.717
		c0-1.232,0.682-2.211,1.98-2.266V32.857z"/>
	<path d="M14.518,40.25c0,2.277-2.442,2.552-3.873,2.552c-1.804,0-2.816-0.363-3.465-1.056c-0.506-0.539-0.583-1.177-0.583-1.518
		c0-1.012,0.594-1.706,1.265-2.036c0.506-0.253,1.243-0.495,2.607-0.495C11.602,37.697,14.518,37.829,14.518,40.25z M7.51,40.238
		c0,1.276,1.672,1.496,3.036,1.496c1.826,0,3.092-0.319,3.092-1.474c0-1.331-1.75-1.507-3.114-1.507
		C8.83,38.753,7.51,39.083,7.51,40.238z"/>
	<path d="M11.151,47.41c0.374,0,0.759-0.022,1.122-0.055V48.4l-1.067,0.022c0.77,0.198,1.023,0.858,1.089,1.32
		c0.044,0.308,0.033,0.539,0.022,0.715h-1.012c0.022-0.055,0.033-0.121,0.044-0.198c0.011-0.077,0.011-0.176,0.011-0.297
		c0-1.221-0.726-1.507-1.672-1.507H6.75V47.41H11.151z"/>
	<path d="M9.325,52.261c-1.144-0.022-1.991,0.451-1.991,1.584c0,0.671,0.352,1.21,1.144,1.298v1.034
		c-0.275-0.033-0.726-0.077-1.155-0.473c-0.275-0.242-0.737-0.792-0.737-1.903c0-1.738,1.078-2.563,2.828-2.563
		c1.089,0,1.991,0.22,2.596,1.089c0.374,0.528,0.407,1.188,0.407,1.507c0,2.476-2.189,2.42-3.092,2.398V52.261z M10.051,55.177
		c0.528,0.011,1.628-0.088,1.628-1.364c0-0.671-0.407-1.485-1.628-1.507V55.177z M14.892,53.46l-1.584,0.924v-0.682l1.584-1.485
		V53.46z"/>
	<path d="M6.321,58.74c-0.616,0.044-1.078,0.308-1.078,1.287c0,1.441,1.045,1.463,2.542,1.463c-0.913-0.44-0.935-1.485-0.935-1.815
		c0-0.506,0.11-1.232,0.682-1.694c0.561-0.473,1.298-0.627,2.035-0.627c1.87,0,2.783,1.1,2.783,2.453
		c0,1.111-0.55,1.518-0.836,1.738l0.759,0.011v1.001l-1.001-0.022l-3.454-0.011c-1.332,0-1.871-0.044-2.289-0.264
		c-0.88-0.462-0.99-1.541-0.99-2.299c0-2.211,1.034-2.277,1.782-2.322V58.74z M8.17,61.149c0.286,0.22,0.583,0.374,1.584,0.374
		c0.693,0,1.089-0.154,1.375-0.429c0.297-0.275,0.484-0.715,0.484-1.188c0-1.309-1.32-1.485-2.024-1.485
		c-0.847,0-1.969,0.253-1.969,1.518C7.62,60.544,7.84,60.896,8.17,61.149z"/>
	<path d="M14.683,64.493v1.034H6.75v-1.034H14.683z"/>
	<path d="M9.325,68.156c-1.144-0.022-1.991,0.451-1.991,1.584c0,0.671,0.352,1.21,1.144,1.298v1.034
		C8.203,72.04,7.751,71.996,7.323,71.6c-0.275-0.242-0.737-0.792-0.737-1.903c0-1.738,1.078-2.563,2.828-2.563
		c1.089,0,1.991,0.22,2.596,1.089c0.374,0.528,0.407,1.188,0.407,1.507c0,2.476-2.189,2.42-3.092,2.398V68.156z M10.051,71.072
		c0.528,0.011,1.628-0.088,1.628-1.364c0-0.671-0.407-1.485-1.628-1.507V71.072z"/>
	<path d="M8.39,74.239c-0.418-0.011-1.001,0.209-1.001,1.21c0,0.429,0.077,0.748,0.352,0.968c0.143,0.11,0.33,0.176,0.517,0.176
		c0.539,0,0.638-0.385,0.825-1.21c0.264-1.155,0.495-2.124,1.65-2.124c1.012,0,1.672,0.88,1.672,2.156
		c0,0.693-0.198,1.662-0.858,1.991c-0.308,0.143-0.572,0.143-0.803,0.143v-1.056c0.836,0.033,0.902-0.693,0.902-1.067
		c0-0.154,0-1.122-0.792-1.122c-0.506,0-0.627,0.495-0.704,0.781c-0.363,1.529-0.451,1.859-0.759,2.189
		c-0.286,0.308-0.671,0.418-1.023,0.418c-0.616,0-1.144-0.341-1.397-0.748c-0.297-0.484-0.374-1.067-0.374-1.639
		c0-1.122,0.462-2.167,1.793-2.156V74.239z"/>
	<path d="M14.683,86.032v1.034H7.631c-0.121,0-0.594,0.022-0.88,0.044v-1.034l0.88-0.022c-0.154-0.088-0.385-0.209-0.583-0.495
		c-0.308-0.451-0.407-0.99-0.407-1.364c0-0.737,0.385-2.376,2.805-2.376c2.102,0,3.015,1.199,3.015,2.498
		c0,1.188-0.704,1.584-0.935,1.716H14.683z M11.129,85.646c0.286-0.22,0.562-0.627,0.562-1.21c0-1.519-1.837-1.519-2.211-1.519
		c-0.979,0-2.112,0.253-2.112,1.519c0,1.628,1.793,1.628,2.222,1.628C10.392,86.064,10.832,85.877,11.129,85.646z"/>
	<path d="M14.694,90.453l-2.707-1.232v-0.748l2.707,0.715V90.453z"/>
	<path d="M12.417,94.38c0,2.211-1.738,2.706-2.894,2.706c-1.617,0-2.959-0.913-2.959-2.794c0-1.826,1.265-2.717,2.882-2.717
		C10.81,91.575,12.417,92.213,12.417,94.38z M7.333,94.314c0,0.781,0.561,1.672,2.222,1.672c1.375,0,2.102-0.638,2.102-1.606
		c0-0.66-0.418-1.728-2.146-1.728C8.379,92.653,7.333,93.137,7.333,94.314z"/>
	<path d="M11.151,98.758c0.374,0,0.759-0.022,1.122-0.055v1.045l-1.067,0.022c0.77,0.198,1.023,0.858,1.089,1.32
		c0.044,0.308,0.033,0.539,0.022,0.715h-1.012c0.022-0.055,0.033-0.121,0.044-0.198c0.011-0.077,0.011-0.176,0.011-0.297
		c0-1.221-0.726-1.507-1.672-1.507H6.75v-1.045H11.151z"/>
	<path d="M14.683,109.869v1.034H7.631c-0.121,0-0.594,0.022-0.88,0.044v-1.034l0.88-0.022c-0.154-0.088-0.385-0.209-0.583-0.495
		c-0.308-0.451-0.407-0.99-0.407-1.364c0-0.737,0.385-2.376,2.805-2.376c2.102,0,3.015,1.199,3.015,2.498
		c0,1.188-0.704,1.584-0.935,1.716H14.683z M11.129,109.483c0.286-0.22,0.562-0.627,0.562-1.21c0-1.519-1.837-1.519-2.211-1.519
		c-0.979,0-2.112,0.253-2.112,1.519c0,1.628,1.793,1.628,2.222,1.628C10.392,109.901,10.832,109.714,11.129,109.483z"/>
	<path d="M9.325,113.388c-1.144-0.022-1.991,0.451-1.991,1.584c0,0.671,0.352,1.21,1.144,1.298v1.034
		c-0.275-0.033-0.726-0.077-1.155-0.473c-0.275-0.242-0.737-0.792-0.737-1.903c0-1.738,1.078-2.563,2.828-2.563
		c1.089,0,1.991,0.22,2.596,1.089c0.374,0.528,0.407,1.188,0.407,1.507c0,2.476-2.189,2.42-3.092,2.398V113.388z M10.051,116.303
		c0.528,0.011,1.628-0.088,1.628-1.364c0-0.671-0.407-1.485-1.628-1.507V116.303z"/>
	<path fill="#7099A4" d="M16.85,122.505v1.316H6.75v-1.316H16.85z"/>
	<path fill="#7099A4" d="M16.864,128.316l-3.446-1.569v-0.953l3.446,0.911V128.316z"/>
	<path fill="#7099A4" d="M10.028,131.06c-1.457-0.028-2.536,0.574-2.536,2.017c0,0.854,0.448,1.541,1.457,1.653v1.316
		c-0.35-0.042-0.924-0.098-1.471-0.602c-0.35-0.308-0.938-1.009-0.938-2.423c0-2.213,1.373-3.264,3.6-3.264
		c1.387,0,2.536,0.28,3.306,1.387c0.476,0.672,0.518,1.513,0.518,1.919c0,3.152-2.788,3.082-3.936,3.054V131.06z M10.953,134.771
		c0.672,0.014,2.073-0.112,2.073-1.737c0-0.854-0.518-1.891-2.073-1.919V134.771z M17.116,134.701l-2.017-1.695v-0.91l2.017,1.148
		V134.701z"/>
	<path fill="#7099A4" d="M16.85,142.92v1.316H7.871c-0.154,0-0.756,0.028-1.121,0.056v-1.316l1.121-0.028
		c-0.196-0.112-0.49-0.266-0.742-0.63c-0.393-0.574-0.519-1.261-0.519-1.737c0-0.938,0.49-3.026,3.572-3.026
		c2.676,0,3.838,1.527,3.838,3.18c0,1.513-0.896,2.017-1.191,2.185H16.85z M12.326,142.43c0.364-0.28,0.714-0.798,0.714-1.541
		c0-1.933-2.339-1.933-2.815-1.933c-1.247,0-2.689,0.322-2.689,1.933c0,2.073,2.283,2.073,2.829,2.073
		C11.387,142.962,11.947,142.724,12.326,142.43z"/>
	<path fill="#7099A4" d="M13.782,147.804H9.258c-0.687,0-1.555,0.154-1.555,1.499c0,0.658,0.224,1.275,0.784,1.653
		c0.42,0.294,0.967,0.294,1.317,0.294h3.978v1.358H8.067c-0.14,0-0.925,0.028-1.317,0.042v-1.373l1.205-0.028
		c-0.49-0.252-1.274-0.729-1.274-2.241c0-1.737,0.994-2.549,2.381-2.549h4.721V147.804z"/>
	<path fill="#7099A4" d="M11.527,159.159c0.322-0.028,1.471-0.126,1.471-1.401c0-1.821-2.115-1.821-2.647-1.821
		c-1.443,0-2.788,0.35-2.788,1.751c0,1.121,0.84,1.499,1.527,1.527v1.331c-1.373-0.084-2.521-1.106-2.521-2.843
		c0-0.477,0.098-1.569,0.911-2.312c0.49-0.42,1.232-0.84,2.689-0.84c2.927,0,3.796,1.793,3.796,3.194
		c0,0.462-0.098,1.513-0.869,2.157c-0.602,0.518-1.176,0.56-1.569,0.588V159.159z"/>
	<path fill="#7099A4" d="M6.75,166.439c0.35-0.098,0.687-0.126,1.051-0.126c-1.163-0.63-1.275-1.583-1.275-2.171
		c0-1.611,0.911-2.479,2.073-2.479c0.56,0,1.457,0.196,2.059,1.233c0.42,0.756,0.462,1.877,0.462,2.438
		c0,0.336-0.014,0.546-0.042,0.952c0.869,0,1.247,0,1.555-0.252c0.35-0.266,0.462-0.84,0.462-1.219c0-1.331-0.91-1.401-1.19-1.415
		v-1.317c0.364,0.042,0.854,0.084,1.331,0.49c0.588,0.532,0.756,1.527,0.756,2.269c0,1.023-0.322,2.115-1.036,2.494
		c-0.42,0.224-0.757,0.238-1.079,0.238l-3.362-0.056c-0.112,0-1.051,0.014-1.765,0.112V166.439z M10.21,165.529
		c0-0.532,0-2.535-1.429-2.535c-0.448,0-1.219,0.28-1.219,1.457c0,0.672,0.266,1.177,0.756,1.499
		c0.476,0.294,0.869,0.308,1.849,0.336C10.196,166.047,10.21,165.851,10.21,165.529z"/>
	<path fill="#7099A4" d="M13.811,168.858v1.247h1.471l0.42,1.303h-1.891v1.569h-0.967v-1.569H8.627c-0.35,0-0.938,0-0.938,0.938
		c0,0.266,0.042,0.518,0.07,0.63H6.736c-0.042-0.238-0.084-0.617-0.084-1.093c0-1.205,0.35-1.779,1.499-1.779h4.692v-1.247H13.811z"
		/>
	<path fill="#7099A4" d="M13.782,174.613v1.317H6.75v-1.317H13.782z M16.836,174.473v1.583h-1.443v-1.583H16.836z"/>
	<path fill="#7099A4" d="M13.964,181.544c0,2.816-2.213,3.446-3.684,3.446c-2.059,0-3.768-1.163-3.768-3.558
		c0-2.325,1.611-3.46,3.67-3.46C11.919,177.973,13.964,178.785,13.964,181.544z M7.493,181.46c0,0.995,0.714,2.129,2.83,2.129
		c1.751,0,2.676-0.813,2.676-2.045c0-0.84-0.532-2.199-2.731-2.199C8.824,179.345,7.493,179.962,7.493,181.46z"/>
	<path fill="#7099A4" d="M12.97,187.087l0.813-0.014v1.316l-1.135,0.014c0.294,0.154,1.275,0.659,1.275,2.255
		c0,0.63-0.238,2.549-2.396,2.549H6.75v-1.345h4.468c0.462,0,0.883-0.056,1.205-0.378c0.322-0.336,0.477-0.798,0.477-1.247
		c0-0.953-0.687-1.835-2.101-1.835H6.75v-1.316H12.97z"/>
	<path fill="#7099A4" d="M12.634,199.448c0.308,0,0.476-0.014,1.148-0.042v1.331l-1.163,0.028c1.106,0.658,1.275,1.821,1.275,2.396
		c0,1.513-1.037,2.956-3.642,2.956c-2.62,0-3.768-1.527-3.768-3.208c0-1.022,0.434-1.779,1.051-2.157H4.047v-1.303H12.634z
		 M7.451,202.684c0,0.336,0.07,1.037,0.687,1.485c0.687,0.504,1.695,0.574,2.199,0.574c1.261,0,2.578-0.378,2.578-1.933
		c0-2.101-2.228-2.101-2.858-2.101C9.202,200.709,7.451,200.835,7.451,202.684z"/>
	<path fill="#7099A4" d="M13.964,211.098c0,2.816-2.213,3.446-3.684,3.446c-2.059,0-3.768-1.163-3.768-3.558
		c0-2.325,1.611-3.46,3.67-3.46C11.919,207.526,13.964,208.339,13.964,211.098z M7.493,211.014c0,0.995,0.714,2.129,2.83,2.129
		c1.751,0,2.676-0.813,2.676-2.045c0-0.84-0.532-2.199-2.731-2.199C8.824,208.899,7.493,209.516,7.493,211.014z"/>
	<path fill="#7099A4" d="M8.837,217.355c-0.532-0.014-1.274,0.266-1.274,1.541c0,0.546,0.098,0.953,0.448,1.233
		c0.182,0.14,0.42,0.224,0.658,0.224c0.687,0,0.813-0.49,1.051-1.541c0.336-1.471,0.63-2.704,2.101-2.704
		c1.289,0,2.129,1.121,2.129,2.746c0,0.882-0.252,2.115-1.092,2.536c-0.392,0.182-0.729,0.182-1.022,0.182v-1.345
		c1.064,0.042,1.148-0.883,1.148-1.359c0-0.196,0-1.429-1.009-1.429c-0.644,0-0.798,0.63-0.896,0.995
		c-0.462,1.947-0.574,2.367-0.966,2.787c-0.364,0.393-0.854,0.533-1.303,0.533c-0.784,0-1.457-0.435-1.779-0.953
		c-0.378-0.617-0.477-1.359-0.477-2.087c0-1.429,0.588-2.759,2.283-2.745V217.355z"/>
	<path fill="#7099A4" d="M13.782,223.612v1.317H6.75v-1.317H13.782z M16.836,223.472v1.583h-1.443v-1.583H16.836z"/>
	<path fill="#7099A4" d="M13.811,226.412v1.247h1.471l0.42,1.303h-1.891v1.569h-0.967v-1.569H8.627c-0.35,0-0.938,0-0.938,0.938
		c0,0.266,0.042,0.518,0.07,0.63H6.736c-0.042-0.238-0.084-0.617-0.084-1.093c0-1.205,0.35-1.779,1.499-1.779h4.692v-1.247H13.811z"
		/>
	<path fill="#7099A4" d="M13.782,232.166v1.317H6.75v-1.317H13.782z M16.836,232.026v1.583h-1.443v-1.583H16.836z"/>
	<path fill="#7099A4" d="M13.782,235.259v1.471l-5.575,2.241l5.575,2.186v1.457l-7.032-3.082v-1.331L13.782,235.259z"/>
	<path fill="#7099A4" d="M10.028,244.907c-1.457-0.028-2.536,0.574-2.536,2.017c0,0.854,0.448,1.541,1.457,1.653v1.316
		c-0.35-0.042-0.924-0.098-1.471-0.602c-0.35-0.308-0.938-1.009-0.938-2.423c0-2.213,1.373-3.264,3.6-3.264
		c1.387,0,2.536,0.28,3.306,1.387c0.476,0.672,0.518,1.513,0.518,1.919c0,3.152-2.788,3.082-3.936,3.054V244.907z M10.953,248.619
		c0.672,0.014,2.073-0.112,2.073-1.737c0-0.854-0.518-1.891-2.073-1.919V248.619z"/>
</g>
</svg>
