<?xml version="1.0" encoding="utf-8"?>
<!-- Generator: Adobe Illustrator 16.0.0, SVG Export Plug-In . SVG Version: 6.00 Build 0)  -->
<!DOCTYPE svg PUBLIC "-//W3C//DTD SVG 1.1//EN" "http://www.w3.org/Graphics/SVG/1.1/DTD/svg11.dtd">
<svg version="1.1" id="Calque_1" xmlns="http://www.w3.org/2000/svg" xmlns:xlink="http://www.w3.org/1999/xlink" x="0px" y="0px"
	 width="20px" height="260px" viewBox="0 0 20 260" enable-background="new 0 0 20 260" xml:space="preserve">
<g>
	<path fill="#B93760" d="M6.938,10.746h7.833v1.529H8.302v3.554H6.938V10.746z"/>
	<path fill="#B93760" d="M9.358,18.083c-0.737,0-1.276,0.451-1.276,1.254c0,0.627,0.176,0.935,0.539,1.298l-0.847,0.869
		c-0.583-0.583-0.902-1.144-0.902-2.178c0-1.353,0.616-2.651,2.938-2.651c1.87,0,2.926,1.012,2.926,2.498
		c0,1.595-1.166,2.497-2.739,2.497H9.358V18.083z M10.953,20.13c0.341-0.154,0.594-0.473,0.594-0.957
		c0-0.484-0.253-0.803-0.594-0.958c-0.209-0.088-0.363-0.121-0.616-0.132v2.178C10.59,20.251,10.744,20.218,10.953,20.13z"/>
	<path fill="#B93760" d="M6.872,24.871c0-0.902,0.099-1.716,0.825-2.442l0.935,0.935c-0.473,0.473-0.539,1.089-0.539,1.529
		c0,0.495,0.165,1.012,0.594,1.012c0.286,0,0.484-0.154,0.528-0.605l0.088-0.902c0.099-1.034,0.55-1.672,1.606-1.672
		c1.188,0,1.826,1.045,1.826,2.211c0,0.891-0.154,1.639-0.671,2.189l-0.891-0.88c0.297-0.33,0.385-0.836,0.385-1.331
		c0-0.572-0.264-0.814-0.55-0.814c-0.209,0-0.451,0.088-0.495,0.594l-0.088,0.902c-0.11,1.133-0.715,1.705-1.683,1.705
		C7.477,27.302,6.872,26.224,6.872,24.871z"/>
	<path fill="#B93760" d="M6.938,31.052h5.732v1.43H6.938V31.052z M13.648,31.03h1.166v1.463h-1.166V31.03z"/>
	<path fill="#B93760" d="M6.938,37.41h3.465c0.781,0,1.045-0.495,1.045-0.946s-0.264-0.957-1.045-0.957H6.938v-1.43h5.732v1.397
		h-0.528c0.396,0.374,0.594,0.902,0.594,1.43c0,0.572-0.187,1.034-0.506,1.354c-0.462,0.462-1.001,0.583-1.628,0.583H6.938V37.41z"
		/>
	<path fill="#B93760" d="M9.358,41.502c-0.737,0-1.276,0.451-1.276,1.254c0,0.627,0.176,0.935,0.539,1.298l-0.847,0.869
		c-0.583-0.583-0.902-1.144-0.902-2.178c0-1.353,0.616-2.651,2.938-2.651c1.87,0,2.926,1.012,2.926,2.498
		c0,1.595-1.166,2.497-2.739,2.497H9.358V41.502z M10.953,43.548c0.341-0.154,0.594-0.473,0.594-0.957
		c0-0.484-0.253-0.803-0.594-0.958c-0.209-0.088-0.363-0.121-0.616-0.132v2.178C10.59,43.669,10.744,43.636,10.953,43.548z
		 M13.583,42.976v-0.957l1.87,0.704v1.507L13.583,42.976z"/>
	<path fill="#B93760" d="M4.77,48.388c0-0.88,0.176-1.485,0.748-2.079L6.42,47.2c-0.308,0.319-0.44,0.638-0.44,1.122
		c0,0.858,0.605,1.155,1.188,1.155h0.583c-0.418-0.374-0.572-0.803-0.572-1.364s0.187-1.045,0.506-1.364
		c0.539-0.539,1.276-0.583,2.277-0.583s1.728,0.044,2.267,0.583c0.319,0.319,0.506,0.814,0.506,1.375
		c0,0.605-0.165,1.001-0.605,1.397h0.539v1.386H7.146C5.771,50.907,4.77,49.928,4.77,48.388z M11.448,48.531
		c0-0.847-0.726-0.935-1.485-0.935s-1.496,0.088-1.496,0.935s0.737,0.946,1.496,0.946S11.448,49.378,11.448,48.531z"/>
	<path fill="#B93760" d="M6.938,55.45h0.495c-0.385-0.385-0.55-0.748-0.55-1.408c0-0.649,0.165-1.123,0.506-1.463
		c0.319-0.308,0.781-0.473,1.287-0.473c0.913,0,1.661,0.627,1.661,1.958v1.353h0.286c0.627,0,0.902-0.308,0.902-1.067
		c0-0.55-0.132-0.803-0.473-1.1l0.891-0.913c0.616,0.561,0.792,1.111,0.792,2.068c0,1.606-0.682,2.442-2.024,2.442H6.938V55.45z
		 M9.358,55.417v-1.133c0-0.517-0.242-0.803-0.649-0.803c-0.396,0-0.66,0.264-0.66,0.825c0,0.396,0.033,0.649,0.275,0.902
		c0.143,0.154,0.374,0.209,0.726,0.209H9.358z"/>
	<path fill="#B93760" d="M6.938,60.004c0-1.177,0.825-1.672,1.639-1.672h6.194v1.43H8.665c-0.341,0-0.517,0.143-0.517,0.506v0.55
		h-1.21V60.004z"/>
	<path fill="#B93760" d="M6.938,61.961h5.732v1.43H6.938V61.961z M13.648,61.939h1.166v1.463h-1.166V61.939z"/>
	<path fill="#B93760" d="M6.938,66.779c0-1.166,0.825-1.661,1.639-1.661h2.838v-0.605h1.089v0.605h1.694v1.43h-1.694v1.012h-1.089
		v-1.012h-2.75c-0.33,0-0.517,0.154-0.517,0.495v0.517h-1.21V66.779z"/>
	<path fill="#B93760" d="M9.358,69.98c-0.737,0-1.276,0.451-1.276,1.254c0,0.627,0.176,0.935,0.539,1.298l-0.847,0.869
		c-0.583-0.583-0.902-1.144-0.902-2.178c0-1.353,0.616-2.651,2.938-2.651c1.87,0,2.926,1.012,2.926,2.498
		c0,1.595-1.166,2.497-2.739,2.497H9.358V69.98z M10.953,72.027c0.341-0.154,0.594-0.473,0.594-0.957
		c0-0.484-0.253-0.803-0.594-0.958c-0.209-0.088-0.363-0.121-0.616-0.132v2.178C10.59,72.148,10.744,72.115,10.953,72.027z
		 M13.583,71.455v-0.957l1.87,0.704v1.507L13.583,71.455z"/>
	<path fill="#B93760" d="M6.872,76.768c0-0.902,0.099-1.716,0.825-2.442l0.935,0.935c-0.473,0.473-0.539,1.089-0.539,1.529
		c0,0.495,0.165,1.012,0.594,1.012c0.286,0,0.484-0.154,0.528-0.605l0.088-0.902c0.099-1.034,0.55-1.672,1.606-1.672
		c1.188,0,1.826,1.045,1.826,2.211c0,0.891-0.154,1.639-0.671,2.189l-0.891-0.88c0.297-0.33,0.385-0.836,0.385-1.331
		c0-0.572-0.264-0.814-0.55-0.814c-0.209,0-0.451,0.088-0.495,0.594l-0.088,0.902c-0.11,1.133-0.715,1.705-1.683,1.705
		C7.477,79.199,6.872,78.121,6.872,76.768z"/>
	<path fill="#B93760" d="M6.938,86.118h0.539c-0.44-0.396-0.605-0.814-0.605-1.419c0-0.561,0.198-1.089,0.517-1.408
		c0.572-0.572,1.562-0.583,2.42-0.583c0.858,0,1.837,0.011,2.409,0.583c0.319,0.319,0.517,0.836,0.517,1.397
		c0,0.583-0.154,1.023-0.572,1.397h2.607v1.43H6.938V86.118z M11.448,85.105c0-0.858-0.704-0.968-1.639-0.968s-1.65,0.11-1.65,0.968
		c0,0.858,0.715,0.979,1.65,0.979S11.448,85.963,11.448,85.105z"/>
	<path fill="#B93760" d="M12.273,89.065h2.497v1.496h-1.364L12.273,89.065z"/>
	<path fill="#B93760" d="M6.938,95.061h0.495c-0.385-0.385-0.55-0.748-0.55-1.408c0-0.649,0.165-1.123,0.506-1.463
		c0.319-0.308,0.781-0.473,1.287-0.473c0.913,0,1.661,0.627,1.661,1.958v1.353h0.286c0.627,0,0.902-0.308,0.902-1.067
		c0-0.55-0.132-0.803-0.473-1.1l0.891-0.913c0.616,0.561,0.792,1.111,0.792,2.068c0,1.606-0.682,2.442-2.024,2.442H6.938V95.061z
		 M9.358,95.027v-1.133c0-0.517-0.242-0.803-0.649-0.803c-0.396,0-0.66,0.264-0.66,0.825c0,0.396,0.033,0.649,0.275,0.902
		c0.143,0.154,0.374,0.209,0.726,0.209H9.358z"/>
	<path fill="#B93760" d="M7.389,102.21c-0.319-0.319-0.517-0.836-0.517-1.397c0-0.583,0.154-1.012,0.572-1.386H4.836v-1.43h7.833
		v1.386H12.13c0.44,0.396,0.605,0.825,0.605,1.43c0,0.561-0.198,1.078-0.517,1.397c-0.572,0.572-1.551,0.583-2.409,0.583
		C8.951,102.793,7.96,102.783,7.389,102.21z M11.448,100.396c0-0.858-0.704-0.968-1.639-0.968s-1.65,0.11-1.65,0.968
		c0,0.858,0.715,0.968,1.65,0.968S11.448,101.253,11.448,100.396z"/>
	<path fill="#B93760" d="M7.389,108.37c-0.319-0.319-0.517-0.836-0.517-1.397c0-0.583,0.154-1.012,0.572-1.386H4.836v-1.43h7.833
		v1.386H12.13c0.44,0.396,0.605,0.825,0.605,1.43c0,0.561-0.198,1.078-0.517,1.397c-0.572,0.572-1.551,0.583-2.409,0.583
		C8.951,108.953,7.96,108.942,7.389,108.37z M11.448,106.555c0-0.858-0.704-0.968-1.639-0.968s-1.65,0.11-1.65,0.968
		c0,0.858,0.715,0.968,1.65,0.968S11.448,107.413,11.448,106.555z"/>
	<path fill="#B93760" d="M11.107,113.43c0.22-0.22,0.341-0.407,0.341-0.759c0-0.44-0.33-0.924-1.056-0.924H6.938v-1.43h5.732v1.397
		h-0.55c0.33,0.275,0.616,0.825,0.616,1.441c0,0.561-0.143,0.957-0.539,1.353L11.107,113.43z"/>
	<path fill="#B93760" d="M9.358,116.103c-0.737,0-1.276,0.451-1.276,1.254c0,0.627,0.176,0.935,0.539,1.298l-0.847,0.869
		c-0.583-0.583-0.902-1.144-0.902-2.178c0-1.353,0.616-2.651,2.938-2.651c1.87,0,2.926,1.012,2.926,2.498
		c0,1.595-1.166,2.497-2.739,2.497H9.358V116.103z M10.953,118.149c0.341-0.154,0.594-0.473,0.594-0.957
		c0-0.484-0.253-0.803-0.594-0.958c-0.209-0.088-0.363-0.121-0.616-0.132v2.178C10.59,118.271,10.744,118.237,10.953,118.149z"/>
	<path fill="#B93760" d="M6.938,124.342h3.465c0.781,0,1.045-0.495,1.045-0.946s-0.264-0.957-1.045-0.957H6.938v-1.43h5.732v1.397
		h-0.528c0.396,0.374,0.594,0.902,0.594,1.43c0,0.572-0.187,1.034-0.506,1.354c-0.462,0.462-1.001,0.583-1.628,0.583H6.938V124.342z
		"/>
	<path fill="#B93760" d="M6.938,129.104c0-1.166,0.825-1.661,1.639-1.661h2.838v-0.605h1.089v0.605h1.694v1.43h-1.694v1.012h-1.089
		v-1.012h-2.75c-0.33,0-0.517,0.154-0.517,0.495v0.517h-1.21V129.104z"/>
	<path fill="#B93760" d="M6.938,131.184h5.732v1.43H6.938V131.184z M13.648,131.162h1.166v1.463h-1.166V131.162z"/>
	<path fill="#B93760" d="M6.872,136.09c0-0.902,0.099-1.717,0.825-2.442l0.935,0.935c-0.473,0.474-0.539,1.09-0.539,1.529
		c0,0.496,0.165,1.013,0.594,1.013c0.286,0,0.484-0.154,0.528-0.605l0.088-0.901c0.099-1.035,0.55-1.673,1.606-1.673
		c1.188,0,1.826,1.045,1.826,2.212c0,0.891-0.154,1.639-0.671,2.189l-0.891-0.881c0.297-0.33,0.385-0.836,0.385-1.331
		c0-0.572-0.264-0.814-0.55-0.814c-0.209,0-0.451,0.089-0.495,0.595l-0.088,0.902c-0.11,1.133-0.715,1.705-1.683,1.705
		C7.477,138.521,6.872,137.443,6.872,136.09z"/>
	<path fill="#B93760" d="M6.872,141.535c0-0.902,0.099-1.717,0.825-2.443l0.935,0.936c-0.473,0.473-0.539,1.089-0.539,1.529
		c0,0.495,0.165,1.012,0.594,1.012c0.286,0,0.484-0.154,0.528-0.605l0.088-0.901c0.099-1.034,0.55-1.673,1.606-1.673
		c1.188,0,1.826,1.046,1.826,2.212c0,0.892-0.154,1.64-0.671,2.189l-0.891-0.88c0.297-0.33,0.385-0.836,0.385-1.332
		c0-0.572-0.264-0.814-0.55-0.814c-0.209,0-0.451,0.089-0.495,0.595l-0.088,0.902c-0.11,1.133-0.715,1.705-1.683,1.705
		C7.477,143.966,6.872,142.888,6.872,141.535z"/>
	<path fill="#B93760" d="M6.938,148.102h0.495c-0.385-0.385-0.55-0.748-0.55-1.408c0-0.648,0.165-1.122,0.506-1.463
		c0.319-0.309,0.781-0.473,1.287-0.473c0.913,0,1.661,0.627,1.661,1.958v1.353h0.286c0.627,0,0.902-0.308,0.902-1.066
		c0-0.551-0.132-0.803-0.473-1.101l0.891-0.913c0.616,0.561,0.792,1.111,0.792,2.068c0,1.606-0.682,2.442-2.024,2.442H6.938V148.102
		z M9.358,148.068v-1.133c0-0.518-0.242-0.803-0.649-0.803c-0.396,0-0.66,0.264-0.66,0.824c0,0.396,0.033,0.65,0.275,0.902
		c0.143,0.154,0.374,0.209,0.726,0.209H9.358z"/>
	<path fill="#B93760" d="M4.77,153.018c0-0.879,0.176-1.484,0.748-2.078l0.902,0.891c-0.308,0.318-0.44,0.639-0.44,1.122
		c0,0.858,0.605,1.155,1.188,1.155h0.583c-0.418-0.374-0.572-0.803-0.572-1.364s0.187-1.045,0.506-1.364
		c0.539-0.539,1.276-0.583,2.277-0.583s1.728,0.044,2.267,0.583c0.319,0.319,0.506,0.814,0.506,1.375
		c0,0.605-0.165,1.002-0.605,1.397h0.539v1.386H7.146C5.771,155.537,4.77,154.559,4.77,153.018z M11.448,153.161
		c0-0.847-0.726-0.935-1.485-0.935s-1.496,0.088-1.496,0.935s0.737,0.946,1.496,0.946S11.448,154.008,11.448,153.161z"/>
	<path fill="#B93760" d="M9.358,158.266c-0.737,0-1.276,0.451-1.276,1.254c0,0.627,0.176,0.936,0.539,1.298l-0.847,0.869
		c-0.583-0.583-0.902-1.144-0.902-2.179c0-1.353,0.616-2.65,2.938-2.65c1.87,0,2.926,1.012,2.926,2.497
		c0,1.595-1.166,2.497-2.739,2.497H9.358V158.266z M10.953,160.312c0.341-0.154,0.594-0.474,0.594-0.957
		c0-0.484-0.253-0.804-0.594-0.958c-0.209-0.088-0.363-0.12-0.616-0.131v2.178C10.59,160.433,10.744,160.399,10.953,160.312z"/>
</g>
<g>
	<path fill="#9BC31C" d="M6.938,171.996h5.693v3.75h-0.992v-2.639h-1.335v2.248H9.312v-2.248H7.929v2.639H6.938V171.996z
		 M13.182,174.06v-0.696l1.359,0.512v1.096L13.182,174.06z"/>
	<path fill="#9BC31C" d="M6.938,176.717h1.184v1.191H6.938V176.717z"/>
	<path fill="#9BC31C" d="M6.938,183.355v-2.383h5.693v2.286c0,1.111-0.624,1.759-1.599,1.759c-0.632,0-1.04-0.416-1.175-0.703
		c-0.16,0.344-0.52,0.783-1.279,0.783C7.513,185.098,6.938,184.37,6.938,183.355z M9.328,183.243v-1.159H7.929v1.159
		c0,0.503,0.32,0.743,0.704,0.743S9.328,183.746,9.328,183.243z M11.639,183.171v-1.087h-1.311v1.087
		c0,0.472,0.264,0.735,0.656,0.735C11.375,183.906,11.639,183.643,11.639,183.171z"/>
	<path fill="#9BC31C" d="M6.938,189.475l1.007-0.336v-2.023l-1.007-0.344v-1.158l5.693,2.07v0.871l-5.693,2.079V189.475z
		 M10.951,188.147l-2.071-0.72v1.415L10.951,188.147z"/>
	<path fill="#9BC31C" d="M6.89,193.348c0-1.168,0.792-2.096,1.999-2.096h3.742v1.111H8.928c-0.655,0-1.047,0.385-1.047,0.984
		s0.392,0.991,1.047,0.991h3.702v1.104H8.889C7.681,195.442,6.89,194.515,6.89,193.348z"/>
	<path fill="#9BC31C" d="M11.639,198.859H6.938v-1.111h4.701v-1.488h0.992v4.086h-0.992V198.859z"/>
	<path fill="#9BC31C" d="M6.938,201.252h5.693v1.111H6.938V201.252z"/>
	<path fill="#9BC31C" d="M6.938,203.691h5.693v3.75h-0.992v-2.639h-1.335v2.248H9.312v-2.248H7.929v2.639H6.938V203.691z"/>
	<path fill="#9BC31C" d="M6.938,211.555l2.271-1.111v-0.8H6.938v-1.111h5.693v2.231c0,1.158-0.792,1.846-1.743,1.846
		c-0.799,0-1.295-0.487-1.495-1.039l-2.455,1.271V211.555z M11.639,210.691v-1.048h-1.503v1.048c0,0.487,0.312,0.807,0.751,0.807
		C11.327,211.498,11.639,211.179,11.639,210.691z"/>
	<path fill="#9BC31C" d="M6.346,215.932v-0.975l6.876,2.278v0.976L6.346,215.932z"/>
	<path fill="#9BC31C" d="M9.08,222.906v-1.096H6.938v-1.111h5.693v2.207c0,1.176-0.808,1.879-1.775,1.879
		C9.888,224.785,9.08,224.082,9.08,222.906z M11.639,222.851v-1.04H10.08v1.04c0,0.504,0.312,0.823,0.776,0.823
		S11.639,223.354,11.639,222.851z"/>
	<path fill="#9BC31C" d="M6.938,224.725h1.184v1.191H6.938V224.725z"/>
	<path fill="#9BC31C" d="M6.938,232.002l2.271-1.111v-0.799H6.938v-1.111h5.693v2.23c0,1.159-0.792,1.847-1.743,1.847
		c-0.799,0-1.295-0.487-1.495-1.039l-2.455,1.271V232.002z M11.639,231.139v-1.047h-1.503v1.047c0,0.488,0.312,0.808,0.751,0.808
		C11.327,231.946,11.639,231.627,11.639,231.139z"/>
	<path fill="#9BC31C" d="M6.938,237.45l1.007-0.336v-2.022l-1.007-0.344v-1.16l5.693,2.071v0.872l-5.693,2.078V237.45z
		 M10.951,236.123l-2.071-0.72v1.415L10.951,236.123z"/>
	<path fill="#9BC31C" d="M9.272,241.211H6.938v-1.104h2.335l3.358-1.711v1.207l-2.295,1.063l2.295,1.048v1.207L9.272,241.211z"/>
	<path fill="#9BC31C" d="M7.513,246.979c-0.4-0.4-0.624-0.889-0.624-1.535c0-0.648,0.224-1.145,0.624-1.544
		c0.576-0.575,1.287-0.56,2.271-0.56c0.983,0,1.695-0.016,2.271,0.56c0.4,0.399,0.624,0.896,0.624,1.544
		c0,0.646-0.224,1.135-0.624,1.535c-0.576,0.575-1.287,0.566-2.271,0.566C8.8,247.545,8.089,247.554,7.513,246.979z M11.383,246.154
		c0.184-0.16,0.304-0.408,0.304-0.711c0-0.305-0.12-0.561-0.304-0.721c-0.24-0.215-0.503-0.271-1.599-0.271
		c-1.096,0-1.359,0.057-1.6,0.271c-0.184,0.16-0.304,0.416-0.304,0.721c0,0.303,0.12,0.551,0.304,0.711
		c0.24,0.216,0.504,0.279,1.6,0.279C10.879,246.434,11.143,246.37,11.383,246.154z"/>
	<path fill="#9BC31C" d="M6.89,250.69c0-1.167,0.792-2.095,1.999-2.095h3.742v1.111H8.928c-0.655,0-1.047,0.384-1.047,0.983
		s0.392,0.991,1.047,0.991h3.702v1.104H8.889C7.681,252.785,6.89,251.857,6.89,250.69z"/>
</g>
</svg>
