<?xml version="1.0" encoding="utf-8"?>
<!-- Generator: Adobe Illustrator 16.0.0, SVG Export Plug-In . SVG Version: 6.00 Build 0)  -->
<!DOCTYPE svg PUBLIC "-//W3C//DTD SVG 1.1//EN" "http://www.w3.org/Graphics/SVG/1.1/DTD/svg11.dtd">
<svg version="1.1" id="Calque_1" xmlns="http://www.w3.org/2000/svg" xmlns:xlink="http://www.w3.org/1999/xlink" x="0px" y="0px"
	 width="20px" height="260px" viewBox="0 0 20 260" enable-background="new 0 0 20 260" xml:space="preserve">
<g>
	<path fill="#4F5820" d="M8.764,16.778l-2.557-0.274v-6.467h0.199v0.241c0,0.212,0.037,0.382,0.112,0.511
		c0.05,0.093,0.136,0.165,0.258,0.215c0.086,0.039,0.312,0.06,0.677,0.06h4.791c0.373,0,0.605-0.021,0.698-0.06
		s0.175-0.119,0.244-0.239c0.07-0.12,0.104-0.281,0.104-0.486v-0.241h0.199v3.884h-0.199v-0.317c0-0.211-0.037-0.382-0.112-0.511
		c-0.05-0.093-0.136-0.166-0.258-0.22c-0.086-0.039-0.312-0.06-0.677-0.06H7.604c-0.373,0-0.609,0.021-0.712,0.064
		c-0.102,0.043-0.178,0.128-0.228,0.253c-0.033,0.09-0.049,0.306-0.049,0.649v0.607c0,0.387,0.068,0.709,0.204,0.967
		s0.351,0.48,0.645,0.669c0.294,0.188,0.728,0.366,1.3,0.534V16.778z"/>
	<path fill="#4F5820" d="M13.071,20.167h-2.965v0.146c0,0.461,0.146,0.796,0.435,1.004c0.291,0.208,0.719,0.34,1.284,0.397v0.204
		H8.012v-0.204c0.416-0.043,0.756-0.134,1.021-0.271s0.443-0.298,0.534-0.48c0.092-0.183,0.137-0.447,0.137-0.795H7.652
		c-0.401,0-0.646,0.017-0.736,0.051s-0.163,0.098-0.221,0.19c-0.057,0.094-0.086,0.244-0.086,0.451v0.436
		c0,0.681,0.158,1.226,0.473,1.636c0.315,0.41,0.795,0.704,1.439,0.884v0.198l-2.314-0.327v-6.295h0.199v0.241
		c0,0.211,0.037,0.382,0.112,0.511c0.05,0.093,0.136,0.164,0.258,0.215c0.086,0.039,0.312,0.059,0.677,0.059h4.791
		c0.33,0,0.531-0.009,0.607-0.027c0.125-0.035,0.222-0.102,0.289-0.198c0.101-0.136,0.15-0.322,0.15-0.559v-0.241h0.199v6.096
		h-2.154v-0.204c0.527-0.104,0.904-0.25,1.134-0.438c0.229-0.188,0.397-0.454,0.505-0.798c0.064-0.2,0.097-0.576,0.097-1.128V20.167
		z"/>
	<path fill="#4F5820" d="M13.656,29.674l-2.428,0.06v-0.221c0.609-0.104,1.099-0.359,1.47-0.766c0.37-0.406,0.556-0.846,0.556-1.318
		c0-0.365-0.098-0.654-0.293-0.867s-0.42-0.32-0.674-0.32c-0.161,0-0.305,0.038-0.43,0.113c-0.168,0.104-0.335,0.271-0.5,0.5
		c-0.117,0.168-0.327,0.557-0.628,1.165c-0.419,0.853-0.814,1.427-1.187,1.724c-0.373,0.294-0.799,0.441-1.279,0.441
		c-0.608,0-1.132-0.237-1.57-0.712c-0.439-0.475-0.658-1.077-0.658-1.808c0-0.229,0.023-0.445,0.07-0.65
		c0.046-0.203,0.134-0.46,0.263-0.768c0.071-0.172,0.107-0.313,0.107-0.424c0-0.094-0.036-0.192-0.107-0.296
		s-0.181-0.188-0.327-0.253v-0.198h2.75v0.198c-0.773,0.158-1.363,0.462-1.771,0.911c-0.406,0.449-0.609,0.934-0.609,1.452
		c0,0.401,0.109,0.721,0.327,0.959c0.219,0.238,0.473,0.357,0.764,0.357c0.172,0,0.338-0.046,0.499-0.137
		c0.161-0.092,0.314-0.23,0.459-0.416c0.146-0.187,0.334-0.516,0.567-0.988c0.325-0.663,0.604-1.139,0.832-1.43
		c0.229-0.289,0.485-0.513,0.768-0.668c0.283-0.156,0.595-0.234,0.936-0.234c0.58,0,1.074,0.214,1.482,0.64s0.611,0.963,0.611,1.611
		c0,0.236-0.028,0.466-0.086,0.688c-0.043,0.168-0.122,0.373-0.238,0.615c-0.117,0.241-0.175,0.411-0.175,0.507
		c0,0.094,0.028,0.167,0.086,0.221s0.195,0.104,0.413,0.15V29.674z"/>
	<path fill="#4F5820" d="M8.28,37.344v-2.572l-0.709-0.307c-0.236-0.101-0.432-0.15-0.585-0.15c-0.205,0-0.355,0.082-0.451,0.247
		c-0.058,0.097-0.101,0.335-0.129,0.714H6.207v-2.422h0.199c0.039,0.262,0.147,0.477,0.324,0.645
		c0.178,0.168,0.543,0.376,1.099,0.623l5.812,2.605v0.102l-5.973,2.627c-0.566,0.25-0.922,0.456-1.068,0.617
		c-0.111,0.122-0.176,0.294-0.193,0.516H6.207v-3.523h0.199v0.145c0,0.283,0.039,0.482,0.117,0.597
		c0.058,0.079,0.141,0.118,0.248,0.118c0.064,0,0.131-0.011,0.198-0.032c0.032-0.007,0.167-0.061,0.403-0.161L8.28,37.344z
		 M8.678,37.161l2.508-1.085l-2.508-1.117V37.161z"/>
	<path fill="#4F5820" d="M13.656,48.054h-2.523v-0.209c0.658-0.157,1.163-0.451,1.514-0.881c0.352-0.43,0.527-0.917,0.527-1.461
		c0-0.455-0.131-0.872-0.393-1.252c-0.262-0.379-0.604-0.656-1.025-0.832c-0.541-0.226-1.143-0.338-1.805-0.338
		c-0.652,0-1.246,0.082-1.781,0.246c-0.535,0.165-0.939,0.423-1.214,0.773c-0.273,0.352-0.411,0.807-0.411,1.365
		c0,0.458,0.101,0.878,0.301,1.259c0.201,0.382,0.547,0.783,1.037,1.206H7.254c-0.426-0.408-0.734-0.833-0.926-1.275
		s-0.287-0.959-0.287-1.55c0-0.777,0.155-1.467,0.467-2.07s0.76-1.069,1.343-1.396c0.583-0.328,1.205-0.491,1.864-0.491
		c0.694,0,1.354,0.182,1.977,0.545s1.105,0.854,1.449,1.472c0.344,0.617,0.516,1.273,0.516,1.968c0,0.513-0.11,1.053-0.332,1.623
		c-0.129,0.329-0.193,0.538-0.193,0.628c0,0.114,0.041,0.214,0.126,0.298c0.084,0.084,0.218,0.139,0.399,0.164V48.054z"/>
	<path fill="#4F5820" d="M13.656,55.997h-2.523v-0.209c0.658-0.157,1.163-0.451,1.514-0.881c0.352-0.43,0.527-0.917,0.527-1.461
		c0-0.455-0.131-0.872-0.393-1.252c-0.262-0.379-0.604-0.656-1.025-0.832c-0.541-0.226-1.143-0.338-1.805-0.338
		c-0.652,0-1.246,0.082-1.781,0.246c-0.535,0.165-0.939,0.423-1.214,0.773c-0.273,0.352-0.411,0.807-0.411,1.365
		c0,0.458,0.101,0.878,0.301,1.259c0.201,0.382,0.547,0.783,1.037,1.206H7.254c-0.426-0.408-0.734-0.833-0.926-1.275
		s-0.287-0.959-0.287-1.55c0-0.777,0.155-1.467,0.467-2.07s0.76-1.069,1.343-1.396c0.583-0.328,1.205-0.491,1.864-0.491
		c0.694,0,1.354,0.182,1.977,0.545s1.105,0.854,1.449,1.472c0.344,0.617,0.516,1.273,0.516,1.968c0,0.513-0.11,1.053-0.332,1.623
		c-0.129,0.329-0.193,0.538-0.193,0.628c0,0.114,0.041,0.214,0.126,0.298c0.084,0.084,0.218,0.139,0.399,0.164V55.997z"/>
	<path fill="#4F5820" d="M6.406,60.627H6.207v-3.808h0.199v0.241c0,0.211,0.037,0.382,0.112,0.511
		c0.05,0.093,0.136,0.164,0.258,0.215c0.086,0.039,0.312,0.059,0.677,0.059h4.791c0.373,0,0.605-0.02,0.698-0.059
		c0.093-0.04,0.175-0.119,0.244-0.239c0.07-0.12,0.104-0.282,0.104-0.486v-0.241h0.199v3.808h-0.199v-0.241
		c0-0.212-0.037-0.382-0.112-0.511c-0.05-0.093-0.136-0.167-0.258-0.22c-0.086-0.04-0.312-0.06-0.677-0.06H7.453
		c-0.373,0-0.605,0.021-0.698,0.062s-0.175,0.122-0.244,0.242c-0.07,0.12-0.104,0.281-0.104,0.486V60.627z"/>
	<path fill="#4F5820" d="M6.207,61.024h0.199v0.242c0,0.211,0.033,0.373,0.099,0.486c0.066,0.112,0.157,0.195,0.271,0.25
		c0.075,0.031,0.301,0.048,0.677,0.048h4.791c0.373,0,0.605-0.02,0.698-0.06c0.093-0.039,0.175-0.118,0.244-0.238
		c0.07-0.12,0.104-0.282,0.104-0.486v-0.242h0.199v3.261c0,0.87-0.118,1.57-0.354,2.101c-0.29,0.647-0.729,1.139-1.315,1.474
		c-0.588,0.335-1.252,0.503-1.993,0.503c-0.513,0-0.983-0.083-1.415-0.248c-0.432-0.164-0.788-0.377-1.069-0.639
		c-0.28-0.262-0.507-0.563-0.677-0.905s-0.301-0.76-0.395-1.254c-0.043-0.219-0.064-0.563-0.064-1.031V61.024z M13.076,63.802H7.395
		c-0.301,0-0.486,0.015-0.554,0.043s-0.12,0.077-0.155,0.145c-0.055,0.098-0.081,0.236-0.081,0.42c0,0.598,0.204,1.054,0.612,1.369
		c0.551,0.43,1.407,0.645,2.567,0.645c0.935,0,1.681-0.146,2.239-0.44c0.438-0.232,0.734-0.532,0.893-0.897
		C13.026,64.827,13.08,64.399,13.076,63.802z"/>
	<path fill="#4F5820" d="M13.071,71.82h-2.965v0.146c0,0.461,0.146,0.796,0.435,1.004c0.291,0.208,0.719,0.34,1.284,0.397v0.204
		H8.012v-0.204c0.416-0.043,0.756-0.134,1.021-0.271s0.443-0.298,0.534-0.48c0.092-0.183,0.137-0.447,0.137-0.795H7.652
		c-0.401,0-0.646,0.017-0.736,0.051s-0.163,0.098-0.221,0.19c-0.057,0.094-0.086,0.244-0.086,0.451v0.436
		c0,0.681,0.158,1.226,0.473,1.636c0.315,0.41,0.795,0.704,1.439,0.884v0.198l-2.314-0.327v-6.295h0.199v0.241
		c0,0.211,0.037,0.382,0.112,0.511c0.05,0.093,0.136,0.164,0.258,0.215c0.086,0.039,0.312,0.059,0.677,0.059h4.791
		c0.33,0,0.531-0.009,0.607-0.027c0.125-0.035,0.222-0.102,0.289-0.198c0.101-0.136,0.15-0.322,0.15-0.559v-0.241h0.199v6.096
		h-2.154v-0.204c0.527-0.104,0.904-0.25,1.134-0.438c0.229-0.188,0.397-0.454,0.505-0.798c0.064-0.2,0.097-0.576,0.097-1.128V71.82z
		"/>
	<path fill="#4F5820" d="M13.49,78.9l-4.518,3.593h3.132c0.437,0,0.732-0.063,0.886-0.188c0.208-0.172,0.309-0.46,0.301-0.865h0.199
		v2.406h-0.199c-0.039-0.308-0.09-0.515-0.152-0.62s-0.165-0.188-0.307-0.247c-0.141-0.059-0.384-0.088-0.728-0.088H6.041v-0.184
		l6.063-4.925h-4.63c-0.419,0-0.701,0.096-0.849,0.287s-0.22,0.411-0.22,0.658V78.9H6.207v-2.583h0.199
		c0.003,0.4,0.086,0.68,0.246,0.838c0.162,0.157,0.436,0.236,0.822,0.236h5.141l0.193-0.156c0.193-0.154,0.32-0.29,0.381-0.408
		s0.095-0.288,0.102-0.51h0.199V78.9z"/>
	<path fill="#4F5820" d="M13.49,91.044H11.52v-0.193c0.454-0.114,0.781-0.242,0.979-0.381c0.199-0.141,0.357-0.332,0.476-0.575
		c0.064-0.136,0.097-0.374,0.097-0.714v-0.543H7.453c-0.373,0-0.605,0.021-0.698,0.062s-0.175,0.122-0.244,0.242
		c-0.07,0.12-0.104,0.283-0.104,0.491v0.242H6.207V85.86h0.199v0.242c0,0.211,0.037,0.381,0.112,0.51
		c0.05,0.094,0.136,0.167,0.258,0.221c0.086,0.039,0.312,0.059,0.677,0.059h5.618v-0.525c0-0.491-0.104-0.848-0.312-1.069
		c-0.29-0.312-0.703-0.509-1.24-0.591v-0.204h1.971V91.044z"/>
	<path fill="#4F5820" d="M13.071,94.438h-2.965v0.146c0,0.461,0.146,0.796,0.435,1.004c0.291,0.208,0.719,0.34,1.284,0.397v0.204
		H8.012v-0.204c0.416-0.043,0.756-0.134,1.021-0.271s0.443-0.298,0.534-0.48c0.092-0.183,0.137-0.447,0.137-0.795H7.652
		c-0.401,0-0.646,0.017-0.736,0.051s-0.163,0.098-0.221,0.19c-0.057,0.094-0.086,0.244-0.086,0.451v0.436
		c0,0.681,0.158,1.226,0.473,1.636c0.315,0.41,0.795,0.704,1.439,0.884v0.198l-2.314-0.327v-6.295h0.199v0.241
		c0,0.211,0.037,0.382,0.112,0.511c0.05,0.093,0.136,0.164,0.258,0.215c0.086,0.039,0.312,0.059,0.677,0.059h4.791
		c0.33,0,0.531-0.009,0.607-0.027c0.125-0.035,0.222-0.102,0.289-0.198c0.101-0.136,0.15-0.322,0.15-0.559v-0.241h0.199v6.096
		h-2.154v-0.204c0.527-0.104,0.904-0.25,1.134-0.438c0.229-0.188,0.397-0.454,0.505-0.798c0.064-0.2,0.097-0.576,0.097-1.128V94.438
		z M15.977,96.737l-1.863-1.778v-0.461l1.863,0.623V96.737z"/>
	<path fill="#4F5820" d="M13.656,103.945l-2.428,0.06v-0.221c0.609-0.104,1.099-0.359,1.47-0.766
		c0.37-0.406,0.556-0.846,0.556-1.318c0-0.365-0.098-0.654-0.293-0.867s-0.42-0.32-0.674-0.32c-0.161,0-0.305,0.038-0.43,0.113
		c-0.168,0.104-0.335,0.271-0.5,0.5c-0.117,0.168-0.327,0.557-0.628,1.165c-0.419,0.853-0.814,1.427-1.187,1.724
		c-0.373,0.294-0.799,0.441-1.279,0.441c-0.608,0-1.132-0.237-1.57-0.712c-0.439-0.475-0.658-1.077-0.658-1.808
		c0-0.229,0.023-0.445,0.07-0.65c0.046-0.203,0.134-0.46,0.263-0.768c0.071-0.172,0.107-0.313,0.107-0.424
		c0-0.094-0.036-0.192-0.107-0.296s-0.181-0.188-0.327-0.253v-0.198h2.75v0.198c-0.773,0.158-1.363,0.462-1.771,0.911
		c-0.406,0.449-0.609,0.934-0.609,1.452c0,0.401,0.109,0.721,0.327,0.959c0.219,0.238,0.473,0.357,0.764,0.357
		c0.172,0,0.338-0.046,0.499-0.137c0.161-0.092,0.314-0.23,0.459-0.416c0.146-0.187,0.334-0.516,0.567-0.988
		c0.325-0.663,0.604-1.139,0.832-1.43c0.229-0.289,0.485-0.513,0.768-0.668c0.283-0.156,0.595-0.234,0.936-0.234
		c0.58,0,1.074,0.214,1.482,0.64s0.611,0.963,0.611,1.611c0,0.236-0.028,0.466-0.086,0.688c-0.043,0.168-0.122,0.373-0.238,0.615
		c-0.117,0.241-0.175,0.411-0.175,0.507c0,0.094,0.028,0.167,0.086,0.221s0.195,0.104,0.413,0.15V103.945z"/>
	<path fill="#4F5820" d="M6.207,107.79h0.199v0.242c0,0.211,0.033,0.373,0.099,0.486c0.066,0.112,0.157,0.195,0.271,0.25
		c0.075,0.031,0.301,0.048,0.677,0.048h4.791c0.373,0,0.605-0.02,0.698-0.06c0.093-0.039,0.175-0.118,0.244-0.238
		c0.07-0.12,0.104-0.282,0.104-0.486v-0.242h0.199v3.261c0,0.87-0.118,1.57-0.354,2.101c-0.29,0.647-0.729,1.139-1.315,1.474
		c-0.588,0.335-1.252,0.503-1.993,0.503c-0.513,0-0.983-0.083-1.415-0.248c-0.432-0.164-0.788-0.377-1.069-0.639
		c-0.28-0.262-0.507-0.563-0.677-0.905s-0.301-0.76-0.395-1.254c-0.043-0.219-0.064-0.563-0.064-1.031V107.79z M13.076,110.567
		H7.395c-0.301,0-0.486,0.015-0.554,0.043s-0.12,0.077-0.155,0.145c-0.055,0.098-0.081,0.236-0.081,0.42
		c0,0.598,0.204,1.054,0.612,1.369c0.551,0.43,1.407,0.645,2.567,0.645c0.935,0,1.681-0.146,2.239-0.44
		c0.438-0.232,0.734-0.532,0.893-0.897C13.026,111.593,13.08,111.165,13.076,110.567z"/>
	<path fill="#4F5820" d="M13.071,118.587h-2.965v0.146c0,0.461,0.146,0.796,0.435,1.004c0.291,0.208,0.719,0.34,1.284,0.397v0.204
		H8.012v-0.204c0.416-0.043,0.756-0.134,1.021-0.271s0.443-0.298,0.534-0.48c0.092-0.183,0.137-0.447,0.137-0.795H7.652
		c-0.401,0-0.646,0.017-0.736,0.051s-0.163,0.098-0.221,0.19c-0.057,0.094-0.086,0.244-0.086,0.451v0.436
		c0,0.681,0.158,1.226,0.473,1.636c0.315,0.41,0.795,0.704,1.439,0.884v0.198l-2.314-0.327v-6.295h0.199v0.241
		c0,0.211,0.037,0.382,0.112,0.511c0.05,0.093,0.136,0.164,0.258,0.215c0.086,0.039,0.312,0.059,0.677,0.059h4.791
		c0.33,0,0.531-0.009,0.607-0.027c0.125-0.035,0.222-0.102,0.289-0.198c0.101-0.136,0.15-0.322,0.15-0.559v-0.241h0.199v6.096
		h-2.154v-0.204c0.527-0.104,0.904-0.25,1.134-0.438c0.229-0.188,0.397-0.454,0.505-0.798c0.064-0.2,0.097-0.576,0.097-1.128
		V118.587z"/>
	<path fill="#4F5820" d="M8.764,132.622l-2.557-0.274v-6.467h0.199v0.241c0,0.212,0.037,0.382,0.112,0.511
		c0.05,0.093,0.136,0.165,0.258,0.215c0.086,0.039,0.312,0.06,0.677,0.06h4.791c0.373,0,0.605-0.021,0.698-0.06
		s0.175-0.119,0.244-0.239c0.07-0.12,0.104-0.281,0.104-0.486v-0.241h0.199v3.884h-0.199v-0.317c0-0.211-0.037-0.382-0.112-0.511
		c-0.05-0.093-0.136-0.166-0.258-0.22c-0.086-0.039-0.312-0.06-0.677-0.06H7.604c-0.373,0-0.609,0.021-0.712,0.064
		c-0.102,0.043-0.178,0.128-0.228,0.253c-0.033,0.09-0.049,0.306-0.049,0.649v0.607c0,0.387,0.068,0.709,0.204,0.967
		s0.351,0.48,0.645,0.669c0.294,0.188,0.728,0.366,1.3,0.534V132.622z"/>
	<path fill="#4F5820" d="M10.08,133.014h0.236c0.179,0.415,0.41,0.717,0.695,0.905c0.284,0.188,0.577,0.282,0.878,0.282
		c0.058,0,0.103-0.013,0.134-0.038c0.029-0.025,0.043-0.05,0.043-0.075c0-0.021-0.012-0.054-0.037-0.097
		c-0.061-0.104-0.092-0.232-0.092-0.387c0-0.211,0.083-0.395,0.248-0.551c0.164-0.155,0.357-0.233,0.58-0.233
		c0.236,0,0.443,0.09,0.623,0.269c0.179,0.179,0.268,0.396,0.268,0.649c0,0.309-0.119,0.571-0.356,0.79
		c-0.238,0.219-0.565,0.327-0.98,0.327c-0.513,0-0.967-0.154-1.364-0.464S10.266,133.622,10.08,133.014z"/>
	<path fill="#4F5820" d="M13.071,138.664h-2.965v0.146c0,0.461,0.146,0.796,0.435,1.004c0.291,0.208,0.719,0.34,1.284,0.397v0.204
		H8.012v-0.204c0.416-0.043,0.756-0.134,1.021-0.271s0.443-0.298,0.534-0.48c0.092-0.183,0.137-0.447,0.137-0.795H7.652
		c-0.401,0-0.646,0.017-0.736,0.051s-0.163,0.098-0.221,0.19c-0.057,0.094-0.086,0.244-0.086,0.451v0.436
		c0,0.681,0.158,1.226,0.473,1.636c0.315,0.41,0.795,0.704,1.439,0.884v0.198l-2.314-0.327v-6.295h0.199v0.241
		c0,0.211,0.037,0.382,0.112,0.511c0.05,0.093,0.136,0.164,0.258,0.215c0.086,0.039,0.312,0.059,0.677,0.059h4.791
		c0.33,0,0.531-0.009,0.607-0.027c0.125-0.035,0.222-0.102,0.289-0.198c0.101-0.136,0.15-0.322,0.15-0.559v-0.241h0.199v6.096
		h-2.154v-0.204c0.527-0.104,0.904-0.25,1.134-0.438c0.229-0.188,0.397-0.454,0.505-0.798c0.064-0.2,0.097-0.576,0.097-1.128
		V138.664z M15.977,140.963l-1.863-1.778v-0.461l1.863,0.623V140.963z"/>
	<path fill="#4F5820" d="M13.656,150.346h-2.523v-0.209c0.658-0.157,1.163-0.451,1.514-0.881c0.352-0.43,0.527-0.917,0.527-1.461
		c0-0.455-0.131-0.872-0.393-1.252c-0.262-0.379-0.604-0.656-1.025-0.832c-0.541-0.226-1.143-0.338-1.805-0.338
		c-0.652,0-1.246,0.082-1.781,0.246c-0.535,0.165-0.939,0.423-1.214,0.773c-0.273,0.352-0.411,0.807-0.411,1.365
		c0,0.458,0.101,0.878,0.301,1.259c0.201,0.382,0.547,0.783,1.037,1.206H7.254c-0.426-0.408-0.734-0.833-0.926-1.275
		s-0.287-0.959-0.287-1.55c0-0.777,0.155-1.467,0.467-2.07s0.76-1.069,1.343-1.396c0.583-0.328,1.205-0.491,1.864-0.491
		c0.694,0,1.354,0.182,1.977,0.545s1.105,0.854,1.449,1.472c0.344,0.617,0.516,1.273,0.516,1.968c0,0.513-0.11,1.053-0.332,1.623
		c-0.129,0.329-0.193,0.538-0.193,0.628c0,0.114,0.041,0.214,0.126,0.298c0.084,0.084,0.218,0.139,0.399,0.164V150.346z"/>
	<path fill="#4F5820" d="M13.592,155.196c0.043,1.16-0.295,2.104-1.015,2.828c-0.72,0.726-1.62,1.088-2.702,1.088
		c-0.924,0-1.736-0.271-2.438-0.811c-0.932-0.717-1.396-1.729-1.396-3.035c0-1.311,0.443-2.324,1.332-3.04
		c0.701-0.565,1.533-0.849,2.497-0.849c1.081,0,1.983,0.368,2.704,1.104C13.296,153.218,13.635,154.122,13.592,155.196z
		 M13.248,155.261c0-0.666-0.34-1.172-1.02-1.52c-0.559-0.283-1.361-0.424-2.406-0.424c-1.243,0-2.162,0.218-2.756,0.654
		c-0.416,0.305-0.623,0.73-0.623,1.279c0,0.368,0.09,0.676,0.269,0.924c0.229,0.314,0.595,0.56,1.099,0.735
		c0.503,0.176,1.159,0.263,1.969,0.263c0.963,0,1.684-0.089,2.161-0.268c0.479-0.18,0.815-0.408,1.013-0.686
		S13.248,155.623,13.248,155.261z"/>
	<path fill="#4F5820" d="M8.764,166.449l-2.557-0.274v-6.467h0.199v0.241c0,0.212,0.037,0.382,0.112,0.511
		c0.05,0.093,0.136,0.165,0.258,0.215c0.086,0.039,0.312,0.06,0.677,0.06h4.791c0.373,0,0.605-0.021,0.698-0.06
		s0.175-0.119,0.244-0.239c0.07-0.12,0.104-0.281,0.104-0.486v-0.241h0.199v3.884h-0.199v-0.317c0-0.211-0.037-0.382-0.112-0.511
		c-0.05-0.093-0.136-0.166-0.258-0.22c-0.086-0.039-0.312-0.06-0.677-0.06H7.604c-0.373,0-0.609,0.021-0.712,0.064
		c-0.102,0.043-0.178,0.128-0.228,0.253c-0.033,0.09-0.049,0.306-0.049,0.649v0.607c0,0.387,0.068,0.709,0.204,0.967
		s0.351,0.48,0.645,0.669c0.294,0.188,0.728,0.366,1.3,0.534V166.449z"/>
	<path fill="#4F5820" d="M13.071,169.838h-2.965v0.146c0,0.461,0.146,0.796,0.435,1.004c0.291,0.208,0.719,0.34,1.284,0.397v0.204
		H8.012v-0.204c0.416-0.043,0.756-0.134,1.021-0.271s0.443-0.298,0.534-0.48c0.092-0.183,0.137-0.447,0.137-0.795H7.652
		c-0.401,0-0.646,0.017-0.736,0.051s-0.163,0.098-0.221,0.19c-0.057,0.094-0.086,0.244-0.086,0.451v0.436
		c0,0.681,0.158,1.226,0.473,1.636c0.315,0.41,0.795,0.704,1.439,0.884v0.198l-2.314-0.327v-6.295h0.199v0.241
		c0,0.211,0.037,0.382,0.112,0.511c0.05,0.093,0.136,0.164,0.258,0.215c0.086,0.039,0.312,0.059,0.677,0.059h4.791
		c0.33,0,0.531-0.009,0.607-0.027c0.125-0.035,0.222-0.102,0.289-0.198c0.101-0.136,0.15-0.322,0.15-0.559v-0.241h0.199v6.096
		h-2.154v-0.204c0.527-0.104,0.904-0.25,1.134-0.438c0.229-0.188,0.397-0.454,0.505-0.798c0.064-0.2,0.097-0.576,0.097-1.128
		V169.838z"/>
</g>
<g>
	<path fill="#575756" d="M12.979,188.399h-2.334v-0.181c0.638-0.218,1.123-0.545,1.455-0.981s0.498-0.913,0.498-1.431
		c0-0.495-0.14-0.906-0.417-1.235c-0.279-0.329-0.667-0.562-1.165-0.698s-1.009-0.205-1.533-0.205c-0.635,0-1.191,0.075-1.67,0.225
		s-0.83,0.392-1.055,0.725c-0.225,0.334-0.337,0.73-0.337,1.189c0,0.159,0.018,0.323,0.051,0.49c0.035,0.168,0.084,0.34,0.149,0.516
		h1.377c0.261,0,0.429-0.018,0.505-0.054c0.077-0.036,0.146-0.11,0.208-0.222c0.062-0.113,0.093-0.249,0.093-0.408v-0.171h0.181
		v3.218H8.805c-0.016-0.244-0.05-0.414-0.1-0.51c-0.051-0.097-0.135-0.171-0.252-0.223c-0.063-0.029-0.213-0.044-0.454-0.044H6.622
		c-0.188-0.423-0.331-0.863-0.427-1.321c-0.097-0.457-0.145-0.932-0.145-1.423c0-0.628,0.086-1.149,0.256-1.565
		c0.172-0.414,0.396-0.781,0.674-1.098c0.279-0.318,0.592-0.566,0.94-0.745c0.449-0.228,0.952-0.342,1.509-0.342
		c0.996,0,1.838,0.35,2.524,1.05s1.03,1.58,1.03,2.642c0,0.329-0.025,0.625-0.078,0.889c-0.025,0.144-0.1,0.375-0.223,0.696
		c-0.121,0.32-0.183,0.51-0.183,0.568c0,0.091,0.033,0.176,0.101,0.254c0.066,0.078,0.192,0.149,0.378,0.215V188.399z"/>
	<path fill="#575756" d="M10.772,191.397H7.154c-0.322,0-0.528,0.037-0.617,0.112c-0.09,0.075-0.141,0.222-0.154,0.439H6.207v-2.466
		h0.176c0.006,0.202,0.064,0.352,0.176,0.449c0.074,0.065,0.273,0.098,0.596,0.098H9.82c0.322,0,0.528-0.037,0.617-0.112
		c0.09-0.075,0.141-0.22,0.154-0.435h0.181V191.397z M12.984,190.714c0,0.212-0.074,0.391-0.223,0.537
		c-0.147,0.146-0.326,0.22-0.534,0.22s-0.386-0.074-0.532-0.222c-0.146-0.148-0.22-0.327-0.22-0.535s0.073-0.386,0.22-0.532
		s0.324-0.22,0.532-0.22s0.387,0.073,0.534,0.22C12.91,190.328,12.984,190.506,12.984,190.714z"/>
	<path fill="#575756" d="M12.828,194.181H7.154c-0.322,0-0.528,0.037-0.617,0.112c-0.09,0.075-0.141,0.222-0.154,0.439H6.207v-2.466
		h0.176c0.006,0.202,0.064,0.352,0.176,0.449c0.074,0.065,0.273,0.098,0.596,0.098h4.727c0.318,0,0.523-0.037,0.613-0.112
		c0.089-0.075,0.141-0.22,0.153-0.435h0.181V194.181z"/>
	<path fill="#575756" d="M12.828,196.959H7.154c-0.322,0-0.528,0.037-0.617,0.112c-0.09,0.075-0.141,0.222-0.154,0.439H6.207v-2.466
		h0.176c0.006,0.202,0.064,0.352,0.176,0.449c0.074,0.065,0.273,0.098,0.596,0.098h4.727c0.318,0,0.523-0.037,0.613-0.112
		c0.089-0.075,0.141-0.22,0.153-0.435h0.181V196.959z"/>
	<path fill="#575756" d="M8.653,201.817v-2.505c-0.605,0.029-1.084,0.19-1.436,0.483c-0.271,0.225-0.405,0.495-0.405,0.811
		c0,0.195,0.055,0.373,0.164,0.532c0.108,0.159,0.305,0.33,0.588,0.513l-0.107,0.166c-0.504-0.247-0.861-0.521-1.072-0.82
		c-0.209-0.3-0.314-0.646-0.314-1.04c0-0.677,0.26-1.189,0.781-1.538c0.42-0.28,0.941-0.42,1.563-0.42
		c0.762,0,1.368,0.206,1.818,0.618c0.451,0.411,0.677,0.894,0.677,1.447c0,0.462-0.189,0.863-0.569,1.203
		C9.961,201.608,9.398,201.791,8.653,201.817z M8.98,200.616c0.523,0,0.884-0.028,1.079-0.085c0.195-0.058,0.343-0.146,0.444-0.267
		c0.059-0.068,0.088-0.159,0.088-0.273c0-0.169-0.083-0.308-0.249-0.415c-0.29-0.192-0.687-0.288-1.191-0.288H8.98V200.616z"/>
	<path fill="#575756" d="M10.899,205.274l-1.558,0.073v-0.166c0.463-0.198,0.777-0.404,0.947-0.618
		c0.17-0.213,0.254-0.425,0.254-0.637c0-0.134-0.045-0.247-0.135-0.342c-0.089-0.095-0.192-0.142-0.31-0.142
		c-0.088,0-0.173,0.032-0.254,0.098c-0.134,0.104-0.362,0.396-0.687,0.874c-0.323,0.479-0.599,0.793-0.824,0.945
		c-0.227,0.15-0.48,0.227-0.76,0.227c-0.254,0-0.503-0.063-0.747-0.19s-0.431-0.306-0.562-0.537s-0.195-0.486-0.195-0.767
		c0-0.218,0.068-0.51,0.205-0.874c0.035-0.098,0.054-0.164,0.054-0.2c0-0.107-0.081-0.197-0.244-0.269v-0.161l1.641-0.078v0.166
		c-0.43,0.146-0.752,0.348-0.967,0.604c-0.215,0.255-0.322,0.497-0.322,0.725c0,0.156,0.048,0.284,0.144,0.383
		c0.097,0.1,0.213,0.149,0.35,0.149c0.156,0,0.291-0.049,0.405-0.146s0.286-0.315,0.518-0.654c0.345-0.498,0.608-0.82,0.791-0.967
		c0.267-0.215,0.562-0.322,0.884-0.322c0.352,0,0.67,0.121,0.955,0.364c0.284,0.242,0.427,0.593,0.427,1.052
		c0,0.247-0.06,0.486-0.181,0.718c-0.049,0.088-0.073,0.159-0.073,0.215c0,0.059,0.013,0.105,0.036,0.142
		c0.025,0.036,0.094,0.093,0.208,0.171V205.274z"/>
	<path fill="#575756" d="M9.718,212.892c-0.146,0.628-0.323,1.069-0.532,1.323c-0.297,0.364-0.68,0.547-1.152,0.547
		c-0.498,0-0.91-0.2-1.235-0.601c-0.394-0.491-0.591-1.206-0.591-2.144v-3.364h0.181c0,0.306,0.028,0.514,0.085,0.622
		c0.058,0.109,0.131,0.186,0.223,0.23c0.092,0.043,0.316,0.065,0.674,0.065h4.297c0.357,0,0.584-0.022,0.676-0.065
		c0.094-0.045,0.168-0.122,0.223-0.232s0.083-0.317,0.083-0.62h0.181v3.174c0,0.759-0.067,1.296-0.203,1.611
		c-0.135,0.315-0.336,0.564-0.605,0.747c-0.268,0.183-0.554,0.273-0.856,0.273c-0.319,0-0.603-0.115-0.853-0.347
		C10.063,213.881,9.864,213.475,9.718,212.892z M9.469,211.114H7.345l-0.244-0.005c-0.176,0-0.309,0.045-0.397,0.135
		c-0.09,0.089-0.135,0.222-0.135,0.397c0,0.261,0.058,0.501,0.174,0.72c0.115,0.221,0.283,0.389,0.502,0.506
		c0.221,0.117,0.465,0.176,0.735,0.176c0.31,0,0.587-0.071,0.833-0.215c0.245-0.144,0.417-0.34,0.515-0.591
		S9.473,211.612,9.469,211.114z M9.85,211.114c0,0.462,0.053,0.804,0.156,1.022c0.104,0.221,0.25,0.389,0.439,0.506
		s0.43,0.176,0.723,0.176s0.533-0.058,0.721-0.174c0.187-0.115,0.329-0.28,0.427-0.495s0.146-0.56,0.142-1.035H9.85z"/>
	<path fill="#575756" d="M10.772,217.345H9.737c0.472,0.303,0.785,0.568,0.94,0.796c0.154,0.228,0.231,0.447,0.231,0.659
		c0,0.183-0.056,0.328-0.169,0.437c-0.111,0.109-0.271,0.164-0.476,0.164c-0.218,0-0.388-0.053-0.508-0.158
		c-0.12-0.106-0.181-0.234-0.181-0.384c0-0.173,0.055-0.322,0.166-0.449s0.172-0.202,0.186-0.225c0.02-0.032,0.029-0.07,0.029-0.112
		c0-0.095-0.035-0.184-0.107-0.269c-0.111-0.134-0.269-0.234-0.474-0.303c-0.315-0.104-0.664-0.156-1.045-0.156h-1.05l-0.273,0.005
		c-0.186,0-0.305,0.012-0.356,0.034c-0.088,0.039-0.152,0.097-0.192,0.173c-0.041,0.077-0.066,0.206-0.076,0.389H6.207v-2.466h0.176
		c0.016,0.198,0.07,0.333,0.164,0.403c0.092,0.069,0.338,0.104,0.734,0.104h2.524c0.261,0,0.427-0.013,0.498-0.039
		c0.091-0.032,0.157-0.08,0.2-0.142s0.072-0.171,0.088-0.327h0.181V217.345z"/>
	<path fill="#575756" d="M6.881,222.408c-0.492-0.557-0.737-1.057-0.737-1.499c0-0.261,0.085-0.477,0.257-0.649
		c0.17-0.173,0.385-0.259,0.642-0.259c0.349,0,0.661,0.149,0.94,0.449c0.277,0.3,0.648,0.952,1.11,1.958h0.459
		c0.345,0,0.563-0.019,0.651-0.056c0.09-0.038,0.168-0.108,0.234-0.213c0.067-0.104,0.101-0.222,0.101-0.352
		c0-0.212-0.048-0.386-0.142-0.522c-0.059-0.085-0.127-0.127-0.205-0.127c-0.068,0-0.152,0.046-0.254,0.137
		c-0.141,0.124-0.275,0.186-0.405,0.186c-0.159,0-0.296-0.06-0.407-0.179c-0.113-0.118-0.169-0.273-0.169-0.466
		c0-0.205,0.062-0.377,0.186-0.515c0.124-0.139,0.269-0.208,0.435-0.208c0.234,0,0.458,0.093,0.672,0.278
		c0.213,0.186,0.377,0.444,0.49,0.776s0.171,0.677,0.171,1.035c0,0.433-0.092,0.775-0.276,1.028
		c-0.184,0.252-0.383,0.415-0.598,0.49c-0.137,0.046-0.451,0.068-0.942,0.068H7.32c-0.209,0-0.34,0.008-0.393,0.024
		c-0.055,0.017-0.094,0.041-0.12,0.073s-0.039,0.07-0.039,0.112c0,0.085,0.06,0.171,0.181,0.259l-0.117,0.146
		c-0.24-0.163-0.416-0.331-0.525-0.506c-0.108-0.174-0.163-0.371-0.163-0.593c0-0.261,0.062-0.464,0.183-0.61
		C6.449,222.53,6.633,222.44,6.881,222.408z M7.237,222.408h1.528c-0.23-0.394-0.479-0.687-0.742-0.879
		c-0.176-0.127-0.354-0.19-0.532-0.19c-0.149,0-0.282,0.054-0.396,0.161c-0.088,0.081-0.132,0.195-0.132,0.342
		C6.964,222.005,7.055,222.193,7.237,222.408z"/>
	<path fill="#575756" d="M10.772,226.754h-0.591c0.254,0.234,0.438,0.459,0.555,0.674c0.115,0.215,0.173,0.446,0.173,0.693
		c0,0.296-0.082,0.542-0.247,0.737c-0.164,0.195-0.368,0.325-0.612,0.391c-0.186,0.052-0.542,0.078-1.069,0.078H7.203
		c-0.352,0-0.57,0.031-0.656,0.096c-0.087,0.063-0.141,0.195-0.164,0.397H6.207v-2.31h0.176c0.023,0.173,0.094,0.296,0.215,0.371
		c0.082,0.052,0.283,0.078,0.605,0.078h2.031c0.375,0,0.61-0.015,0.708-0.044s0.173-0.079,0.228-0.149
		c0.053-0.069,0.08-0.146,0.08-0.231c0-0.28-0.2-0.54-0.601-0.781H7.203c-0.342,0-0.559,0.032-0.649,0.095
		c-0.091,0.064-0.147,0.182-0.171,0.354H6.207v-2.31h0.176c0.02,0.192,0.082,0.329,0.186,0.41c0.072,0.056,0.283,0.083,0.635,0.083
		h2.578c0.346,0,0.561-0.032,0.645-0.095c0.084-0.064,0.141-0.196,0.166-0.398h0.181V226.754z"/>
	<path fill="#575756" d="M12.828,234.889H7.574c-0.355,0-0.564,0.01-0.63,0.029c-0.107,0.026-0.187,0.076-0.239,0.148
		c-0.053,0.074-0.084,0.201-0.098,0.384H6.446l-0.376-1.929h0.723c-0.279-0.231-0.471-0.438-0.571-0.617
		c-0.101-0.182-0.151-0.386-0.151-0.613c0-0.583,0.26-1.043,0.781-1.382c0.424-0.273,0.942-0.41,1.558-0.41
		c0.491,0,0.932,0.085,1.321,0.254c0.389,0.169,0.682,0.401,0.881,0.696c0.199,0.294,0.298,0.61,0.298,0.949
		c0,0.218-0.042,0.412-0.127,0.581s-0.233,0.35-0.444,0.542h1.377c0.348,0,0.559-0.015,0.63-0.044
		c0.095-0.039,0.165-0.098,0.21-0.176s0.068-0.225,0.068-0.439h0.205V234.889z M9.732,233.521c0.463-0.241,0.693-0.535,0.693-0.884
		c0-0.12-0.033-0.22-0.098-0.298c-0.102-0.12-0.278-0.219-0.532-0.295c-0.254-0.077-0.644-0.115-1.167-0.115
		c-0.576,0-1.002,0.042-1.279,0.127s-0.477,0.2-0.601,0.347c-0.062,0.075-0.093,0.178-0.093,0.308c0,0.286,0.225,0.557,0.674,0.811
		H9.732z"/>
	<path fill="#575756" d="M10.772,237.794H7.154c-0.322,0-0.528,0.037-0.617,0.112c-0.09,0.075-0.141,0.222-0.154,0.439H6.207v-2.466
		h0.176c0.006,0.202,0.064,0.352,0.176,0.449c0.074,0.065,0.273,0.098,0.596,0.098H9.82c0.322,0,0.528-0.037,0.617-0.112
		c0.09-0.075,0.141-0.22,0.154-0.435h0.181V237.794z M12.984,237.11c0,0.212-0.074,0.391-0.223,0.537
		c-0.147,0.146-0.326,0.22-0.534,0.22s-0.386-0.074-0.532-0.222c-0.146-0.148-0.22-0.327-0.22-0.535s0.073-0.386,0.22-0.532
		s0.324-0.22,0.532-0.22s0.387,0.073,0.534,0.22C12.91,236.725,12.984,236.902,12.984,237.11z"/>
	<path fill="#575756" d="M12.828,240.558h-2.515c0.397,0.384,0.596,0.804,0.596,1.26c0,0.313-0.092,0.607-0.276,0.884
		c-0.184,0.276-0.445,0.493-0.783,0.649s-0.729,0.234-1.172,0.234c-0.498,0-0.951-0.1-1.357-0.298s-0.717-0.464-0.93-0.796
		c-0.214-0.332-0.32-0.711-0.32-1.138c0-0.247,0.039-0.467,0.117-0.659s0.205-0.381,0.381-0.566l-0.493-0.757v-0.166h5.806
		c0.264,0,0.426-0.012,0.488-0.034c0.092-0.032,0.158-0.084,0.203-0.153c0.043-0.07,0.068-0.188,0.075-0.354h0.181V240.558z
		 M9.879,240.558H7.848c-0.414,0-0.678,0.01-0.791,0.029c-0.191,0.032-0.348,0.11-0.467,0.234c-0.118,0.124-0.178,0.281-0.178,0.474
		c0,0.166,0.047,0.309,0.142,0.428c0.095,0.118,0.282,0.218,0.562,0.297c0.279,0.08,0.785,0.12,1.514,0.12
		c0.699,0,1.18-0.088,1.44-0.264c0.188-0.127,0.283-0.298,0.283-0.513C10.353,241.083,10.195,240.814,9.879,240.558z"/>
	<path fill="#575756" d="M6.881,246.871c-0.492-0.557-0.737-1.057-0.737-1.499c0-0.261,0.085-0.477,0.257-0.649
		c0.17-0.173,0.385-0.259,0.642-0.259c0.349,0,0.661,0.149,0.94,0.449c0.277,0.3,0.648,0.952,1.11,1.958h0.459
		c0.345,0,0.563-0.019,0.651-0.056c0.09-0.038,0.168-0.108,0.234-0.213c0.067-0.104,0.101-0.222,0.101-0.352
		c0-0.212-0.048-0.386-0.142-0.522c-0.059-0.085-0.127-0.127-0.205-0.127c-0.068,0-0.152,0.046-0.254,0.137
		c-0.141,0.124-0.275,0.186-0.405,0.186c-0.159,0-0.296-0.06-0.407-0.179c-0.113-0.118-0.169-0.273-0.169-0.466
		c0-0.205,0.062-0.377,0.186-0.515c0.124-0.139,0.269-0.208,0.435-0.208c0.234,0,0.458,0.093,0.672,0.278
		c0.213,0.186,0.377,0.444,0.49,0.776s0.171,0.677,0.171,1.035c0,0.433-0.092,0.775-0.276,1.028
		c-0.184,0.252-0.383,0.415-0.598,0.49c-0.137,0.046-0.451,0.068-0.942,0.068H7.32c-0.209,0-0.34,0.008-0.393,0.024
		c-0.055,0.017-0.094,0.041-0.12,0.073s-0.039,0.07-0.039,0.112c0,0.085,0.06,0.171,0.181,0.259l-0.117,0.146
		c-0.24-0.163-0.416-0.331-0.525-0.506c-0.108-0.174-0.163-0.371-0.163-0.593c0-0.261,0.062-0.464,0.183-0.61
		C6.449,246.993,6.633,246.903,6.881,246.871z M7.237,246.871h1.528c-0.23-0.394-0.479-0.687-0.742-0.879
		c-0.176-0.127-0.354-0.19-0.532-0.19c-0.149,0-0.282,0.054-0.396,0.161c-0.088,0.081-0.132,0.195-0.132,0.342
		C6.964,246.468,7.055,246.656,7.237,246.871z"/>
	<path fill="#575756" d="M10.899,252.237l-1.558,0.073v-0.166c0.463-0.198,0.777-0.404,0.947-0.618
		c0.17-0.213,0.254-0.425,0.254-0.637c0-0.134-0.045-0.247-0.135-0.342c-0.089-0.095-0.192-0.142-0.31-0.142
		c-0.088,0-0.173,0.032-0.254,0.098c-0.134,0.104-0.362,0.396-0.687,0.874c-0.323,0.479-0.599,0.793-0.824,0.945
		c-0.227,0.15-0.48,0.227-0.76,0.227c-0.254,0-0.503-0.063-0.747-0.19s-0.431-0.306-0.562-0.537s-0.195-0.486-0.195-0.767
		c0-0.218,0.068-0.51,0.205-0.874c0.035-0.098,0.054-0.164,0.054-0.2c0-0.107-0.081-0.197-0.244-0.269v-0.161l1.641-0.078v0.166
		c-0.43,0.146-0.752,0.348-0.967,0.604c-0.215,0.255-0.322,0.497-0.322,0.725c0,0.156,0.048,0.284,0.144,0.383
		c0.097,0.1,0.213,0.149,0.35,0.149c0.156,0,0.291-0.049,0.405-0.146s0.286-0.315,0.518-0.654c0.345-0.498,0.608-0.82,0.791-0.967
		c0.267-0.215,0.562-0.322,0.884-0.322c0.352,0,0.67,0.121,0.955,0.364c0.284,0.242,0.427,0.593,0.427,1.052
		c0,0.247-0.06,0.486-0.181,0.718c-0.049,0.088-0.073,0.159-0.073,0.215c0,0.059,0.013,0.105,0.036,0.142
		c0.025,0.036,0.094,0.093,0.208,0.171V252.237z"/>
</g>
</svg>
