<?xml version="1.0" encoding="utf-8"?>
<!-- Generator: Adobe Illustrator 16.0.0, SVG Export Plug-In . SVG Version: 6.00 Build 0)  -->
<!DOCTYPE svg PUBLIC "-//W3C//DTD SVG 1.1//EN" "http://www.w3.org/Graphics/SVG/1.1/DTD/svg11.dtd">
<svg version="1.1" id="Calque_1" xmlns="http://www.w3.org/2000/svg" xmlns:xlink="http://www.w3.org/1999/xlink" x="0px" y="0px"
	 width="20px" height="260px" viewBox="0 0 20 260" enable-background="new 0 0 20 260" xml:space="preserve">
<g>
	<path fill="#028049" d="M10.154,8.885c2.374,0,4.09,1.847,4.09,4.149c0,1.835-0.96,3.059-1.908,3.059
		c-0.575,0-0.971-0.372-0.971-0.863c0-0.54,0.336-0.912,0.852-0.912c0.156,0,0.312,0.036,0.408,0.084
		c0.18-0.228,0.359-0.684,0.359-1.403c0-1.535-1.176-2.71-2.818-2.71c-1.584,0-2.843,1.104-2.843,2.771
		c0,0.923,0.407,1.679,1.044,2.267l-0.936,0.899c-0.852-0.768-1.367-1.907-1.367-3.166C6.064,10.624,7.695,8.885,10.154,8.885z"/>
	<path fill="#028049" d="M10.154,17.068c2.314,0,4.09,1.679,4.09,4.078c0,2.387-1.787,4.018-4.09,4.018
		c-2.315,0-4.09-1.68-4.09-4.078C6.064,18.699,7.852,17.068,10.154,17.068z M10.154,23.761c1.643,0,2.83-1.115,2.83-2.639
		c0-1.535-1.176-2.65-2.83-2.65c-1.644,0-2.831,1.115-2.831,2.65C7.323,22.646,8.498,23.761,10.154,23.761z"/>
	<path fill="#028049" d="M7.42,25.985v0.936l5.469,0.252v-0.983H14.1v2.158l-4.39,2.423l4.39,2.423v2.146h-1.211v-0.983L7.42,34.608
		v0.936H6.208v-3.238H7.42v0.947l4.065-0.155l-3.958-2.255v-0.18l3.958-2.255L7.42,28.252v0.947H6.208v-3.214H7.42z"/>
	<path fill="#028049" d="M7.42,36.389v0.899h5.469v-0.899H14.1v3.179c0,1.691-0.971,2.986-2.578,2.986
		c-1.812,0-2.699-1.283-2.699-3.143c0-0.371,0-0.6,0.012-0.768H7.42v0.983H6.208v-3.238H7.42z M11.521,41.15
		c0.827,0,1.367-0.684,1.367-1.655v-0.852h-2.855c-0.012,0.145-0.023,0.336-0.023,0.888C10.01,40.551,10.586,41.15,11.521,41.15z"/>
	<path fill="#028049" d="M7.42,43.36v0.9h5.469v-0.9H14.1v3.059c0,1.812-0.779,3.106-2.387,3.106c-1.02,0-1.799-0.624-2.146-1.487
		L7.42,49.249v0.9H6.208v-1.823l2.999-1.583c-0.013-0.168-0.024-0.324-0.024-0.48c0-0.251,0-0.479,0.012-0.647H7.42v0.983H6.208
		V43.36H7.42z M11.665,48.122c0.827,0,1.224-0.684,1.224-1.775v-0.731h-2.531c-0.012,0.145-0.023,0.336-0.023,0.768
		C10.334,47.402,10.838,48.122,11.665,48.122z"/>
	<path fill="#028049" d="M7.42,50.801V51.7h5.469v-0.899H14.1v5.89h-2.255v-1.296H12.9v-2.339h-2.111v2.387h-1.15v-2.387H7.407
		v2.351h1.056v1.296H6.208v-5.901H7.42z"/>
	<path fill="#028049" d="M11.652,59.943H7.42v0.983H6.208v-3.202H7.42v0.899h5.469v-0.899H14.1v2.052l-4.953,3.886h3.742v-0.983
		H14.1v3.166h-1.211v-0.863H6.195l-0.023-0.732L11.652,59.943z"/>
	<path fill="#028049" d="M7.42,66.641v0.899h5.469v-0.899H14.1v2.986c0,2.854-1.487,4.546-3.874,4.546
		c-2.411,0-4.018-1.595-4.018-4.689v-2.843H7.42z M7.42,69.676c0,2.038,1.104,3.094,2.794,3.094c1.728,0,2.675-1.224,2.675-3.19
		v-0.684H7.42V69.676z"/>
	<path fill="#028049" d="M7.42,75.172v0.899h5.469v-0.899H14.1v3.059c0,1.812-0.779,3.106-2.387,3.106
		c-1.02,0-1.799-0.624-2.146-1.487L7.42,81.062v0.899H6.208v-1.823l2.999-1.583c-0.013-0.168-0.024-0.324-0.024-0.48
		c0-0.251,0-0.479,0.012-0.647H7.42v0.983H6.208v-3.238H7.42z M11.665,79.934c0.827,0,1.224-0.684,1.224-1.775v-0.731h-2.531
		c-0.012,0.145-0.023,0.336-0.023,0.768C10.334,79.214,10.838,79.934,11.665,79.934z"/>
	<path fill="#028049" d="M7.42,82.612v0.9h5.469v-0.9H14.1v5.889h-2.255v-1.295H12.9v-2.339h-2.111v2.387h-1.15v-2.387H7.407v2.351
		h1.056v1.296H6.208v-5.901H7.42z"/>
	<path fill="#028049" d="M7.42,92.176v0.899h5.469v-0.899H14.1v3.299h-1.211v-1.044H7.407v2.171h1.116v1.308H6.208v-5.733H7.42z"/>
	<path fill="#028049" d="M7.42,98.752v0.899h5.469v-0.899H14.1v5.89h-2.255v-1.296H12.9v-2.339h-2.111v2.387h-1.15v-2.387H7.407
		v2.351h1.056v1.296H6.208v-5.901H7.42z"/>
	<path fill="#028049" d="M7.898,105.532c0.564,0,0.936,0.336,0.936,0.828c0,0.527-0.395,0.863-0.779,0.863
		c-0.191,0-0.336-0.036-0.479-0.108c-0.204,0.288-0.336,0.732-0.336,1.248c0,0.863,0.384,1.415,1.067,1.415
		c0.648,0,0.959-0.66,1.235-1.451c0.528-1.464,0.995-2.495,2.459-2.495c1.259,0,2.243,1.02,2.243,2.615
		c0,1.475-0.756,2.614-1.703,2.614c-0.564,0-0.889-0.348-0.889-0.804c0-0.552,0.408-0.863,0.805-0.863
		c0.191,0,0.275,0.036,0.371,0.084c0.133-0.216,0.24-0.552,0.24-1.044c0-0.779-0.396-1.235-0.972-1.235
		c-0.647,0-0.936,0.66-1.224,1.451c-0.504,1.416-0.995,2.483-2.458,2.483c-1.499,0-2.351-1.164-2.351-2.783
		C6.064,106.792,6.939,105.532,7.898,105.532z"/>
	<path fill="#24AC92" d="M7.824,118.464v1.201h7.299v-1.201h1.617v3.986c0,3.81-1.984,6.066-5.17,6.066
		c-3.217,0-5.362-2.129-5.362-6.259v-3.794H7.824z M7.824,122.514c0,2.722,1.473,4.13,3.73,4.13c2.305,0,3.568-1.633,3.568-4.258
		v-0.912H7.824V122.514z"/>
	<path fill="#24AC92" d="M7.824,131.696v1.329h2.401l4.897-2.993v-1.057h1.617v3.985h-1.617v-0.928l-3.377,1.937l3.377,1.921v-0.992
		h1.617v3.985h-1.617v-1.057l-4.897-2.993H7.824v1.328H6.208v-4.466H7.824z"/>
	<path fill="#24AC92" d="M8.465,139.248c0.752,0,1.248,0.448,1.248,1.104c0,0.704-0.527,1.152-1.04,1.152
		c-0.256,0-0.448-0.048-0.64-0.145c-0.272,0.385-0.449,0.977-0.449,1.665c0,1.152,0.513,1.889,1.426,1.889
		c0.863,0,1.279-0.881,1.648-1.937c0.704-1.953,1.328-3.33,3.281-3.33c1.68,0,2.992,1.361,2.992,3.49
		c0,1.969-1.008,3.489-2.272,3.489c-0.752,0-1.185-0.465-1.185-1.072c0-0.736,0.545-1.153,1.072-1.153
		c0.257,0,0.369,0.049,0.496,0.112c0.177-0.288,0.32-0.736,0.32-1.393c0-1.04-0.527-1.648-1.296-1.648
		c-0.864,0-1.249,0.88-1.633,1.937c-0.673,1.889-1.329,3.313-3.281,3.313c-2.001,0-3.138-1.553-3.138-3.714
		C6.016,140.929,7.185,139.248,8.465,139.248z"/>
	<path fill="#24AC92" d="M17.821,155.617c-0.071-0.162-0.18-0.324-0.323-0.414c-0.343-0.234-0.829-0.36-1.585-0.36h-1.819v2.053
		h-1.656v-2.053H7.828v1.53h-1.62v-4.663h1.62v1.188h4.609v-1.351h1.656v1.351h1.531c1.44,0,2.34,0.252,3.078,1.008
		c0.541,0.559,0.829,1.278,0.829,2.161c0,1.026-0.54,1.746-1.333,1.746c-0.701,0-1.116-0.504-1.116-1.062
		C17.083,156.14,17.407,155.833,17.821,155.617z"/>
	<path fill="#24AC92" d="M9.484,159.648c-1.224,0.27-1.764,1.278-1.764,2.593c0,0.954,0.306,1.944,0.828,2.862l-1.765-0.162
		c-0.486-0.828-0.72-1.836-0.72-2.988c0-2.575,1.62-4.357,4.068-4.357c2.232,0,4.105,1.566,4.105,3.997
		c0,2.521-1.692,3.835-3.781,3.835c-0.306,0-0.702-0.036-0.973-0.09V159.648z M10.854,159.63v3.836
		c1.08-0.036,1.801-0.738,1.801-1.891C12.654,160.711,12.15,159.847,10.854,159.63z M15.643,160.837l2.701,1.98
		c0.342,0.27,0.559,0.63,0.559,0.99c0,0.486-0.396,0.882-0.919,0.882c-0.342,0-0.702-0.18-0.99-0.558l-1.944-2.684L15.643,160.837z"
		/>
	<path fill="#24AC92" d="M12.941,173.563c-0.666,0-1.224-0.521-1.224-1.17c0-0.595,0.342-0.99,0.702-1.152
		c-0.198-0.559-0.811-1.207-1.494-1.566H7.828v1.368h-1.62v-4.501h1.62v1.17h4.609v-1.17h1.656v3.061h-1.781
		c1.062,0.666,1.926,1.494,1.926,2.503C14.238,173.077,13.645,173.563,12.941,173.563z"/>
	<path fill="#24AC92" d="M9.484,176.208c-1.224,0.27-1.764,1.278-1.764,2.593c0,0.954,0.306,1.944,0.828,2.862l-1.765-0.162
		c-0.486-0.828-0.72-1.836-0.72-2.988c0-2.575,1.62-4.357,4.068-4.357c2.232,0,4.105,1.566,4.105,3.997
		c0,2.521-1.692,3.835-3.781,3.835c-0.306,0-0.702-0.036-0.973-0.09V176.208z M10.854,176.189v3.835
		c1.08-0.035,1.801-0.737,1.801-1.89C12.654,177.271,12.15,176.406,10.854,176.189z"/>
	<path fill="#24AC92" d="M12.834,186.162c0.738,0.756,1.404,1.603,1.404,2.755c0,0.937-0.378,1.62-1.008,2.034
		c-0.433,0.271-0.973,0.414-1.621,0.414H7.828v1.171h-1.62v-4.214h1.62v1.081h3.295c0.324,0,0.613-0.055,0.811-0.162
		c0.342-0.181,0.522-0.504,0.522-0.973c0-0.684-0.396-1.404-0.919-2.034H7.828v1.08h-1.62v-4.213h1.62v1.17h4.609v-1.17h1.656v3.061
		H12.834z"/>
	<path fill="#24AC92" d="M10.223,193.308c2.053,0,4.016,1.656,4.016,3.997c0,2.161-1.404,3.583-2.646,3.583
		c-0.828,0-1.332-0.559-1.332-1.261c0-0.647,0.539-1.188,1.188-1.188c0.234,0,0.504,0.107,0.666,0.252
		c0.199-0.145,0.541-0.631,0.541-1.404c0-0.9-0.738-2.017-2.467-2.017c-1.513,0-2.467,1.152-2.467,2.557
		c0,0.954,0.27,1.782,0.828,2.809l-1.765-0.162c-0.486-0.847-0.72-1.656-0.72-2.809C6.064,195.18,7.685,193.308,10.223,193.308z"/>
	<path fill="#24AC92" d="M9.484,204.217c-1.224,0.27-1.764,1.278-1.764,2.593c0,0.954,0.306,1.944,0.828,2.862l-1.765-0.162
		c-0.486-0.828-0.72-1.836-0.72-2.988c0-2.575,1.62-4.357,4.068-4.357c2.232,0,4.105,1.566,4.105,3.997
		c0,2.521-1.692,3.835-3.781,3.835c-0.306,0-0.702-0.036-0.973-0.09V204.217z M10.854,204.198v3.836
		c1.08-0.036,1.801-0.738,1.801-1.891C12.654,205.279,12.15,204.415,10.854,204.198z"/>
	<path fill="#24AC92" d="M11.285,216.89c0-0.63,0.379-1.063,0.973-1.063c0.126,0,0.234,0,0.342,0.036
		c0.127-0.324,0.198-0.72,0.198-1.116c0-0.883-0.396-1.314-0.81-1.314c-0.451,0-0.685,0.45-1.009,1.656
		c-0.505,1.891-0.972,2.989-2.395,2.989c-1.657,0-2.539-1.549-2.539-3.331c0-1.206,0.433-2.503,0.954-3.025
		c0.324-0.323,0.648-0.449,1.063-0.449c0.576,0,1.063,0.432,1.063,1.044c0,0.54-0.36,1.063-1.045,1.063
		c-0.107,0-0.216-0.019-0.324-0.036c-0.144,0.36-0.252,0.864-0.252,1.422c0,0.793,0.271,1.44,0.847,1.44
		c0.396,0,0.63-0.342,0.954-1.548c0.576-2.179,1.099-3.098,2.449-3.098c1.225,0,2.502,1.009,2.502,3.224
		c0,0.954-0.359,2.106-0.9,2.646c-0.287,0.288-0.629,0.433-1.008,0.433C11.718,217.862,11.285,217.466,11.285,216.89z"/>
</g>
</svg>
