<?xml version="1.0" encoding="utf-8"?>
<!-- Generator: Adobe Illustrator 16.0.0, SVG Export Plug-In . SVG Version: 6.00 Build 0)  -->
<!DOCTYPE svg PUBLIC "-//W3C//DTD SVG 1.1//EN" "http://www.w3.org/Graphics/SVG/1.1/DTD/svg11.dtd">
<svg version="1.1" id="Calque_1" xmlns="http://www.w3.org/2000/svg" xmlns:xlink="http://www.w3.org/1999/xlink" x="0px" y="0px"
	 width="20px" height="260px" viewBox="0 0 20 260" enable-background="new 0 0 20 260" xml:space="preserve">
<g>
	<path fill="#2AA6DF" d="M16.904,13.244c-1.849-1.148-4.202-1.61-6.359-1.61c-2.003,0-4.637,0.49-6.331,1.61l-0.868-1.526
		c1.919-1.471,5-2.031,7.367-2.031c2.312,0,5.169,0.658,7.061,2.031L16.904,13.244z"/>
	<path fill="#2AA6DF" d="M14.551,20.623c0.421-0.504,0.701-1.148,0.701-1.82c0-0.505-0.295-1.177-0.883-1.177
		c-0.616,0-0.854,0.742-1.009,1.219l-0.21,0.7c-0.435,1.471-1.177,2.605-2.886,2.605c-1.05,0-2.129-0.252-2.843-1.093
		c-0.701-0.826-0.995-1.933-0.995-2.998c0-1.33,0.448-2.633,1.205-3.712l2.213,1.177c-0.603,0.687-1.093,1.499-1.093,2.438
		c0,0.645,0.322,1.331,1.064,1.331c0.771,0,1.037-1.079,1.205-1.667c0.49-1.724,0.938-2.857,2.983-2.857
		c2.144,0,3.544,1.526,3.544,3.642c0,1.064-0.336,2.367-0.868,3.306L14.551,20.623z"/>
	<path fill="#2AA6DF" d="M9.873,30.774v-5.365c-1.037,0-1.598,0.547-1.598,1.597c0,0.547,0.183,0.938,0.659,1.219v2.451
		c-0.841-0.195-1.457-0.7-1.863-1.358s-0.603-1.471-0.603-2.297c0-2.382,1.345-4.16,3.824-4.16c2.396,0,3.838,1.639,3.838,3.978
		c0,2.493-1.541,3.937-3.992,3.937H9.873z M11.344,28.407c0.687-0.126,1.135-0.757,1.135-1.443c0-0.742-0.393-1.358-1.135-1.513
		V28.407z"/>
	<path fill="#2AA6DF" d="M17.773,33.305c-1.892,1.373-4.749,2.031-7.061,2.031c-2.367,0-5.448-0.561-7.367-2.031l0.868-1.526
		c1.694,1.12,4.328,1.61,6.331,1.61c2.157,0,4.511-0.462,6.359-1.61L17.773,33.305z"/>
	<path fill="#2AA6DF" d="M17.269,42.881v2.703l-5.645,2.143l5.645,2.27v2.731L6.707,54.324v-2.745l6.079-0.771V50.78l-6.079-2.535
		v-1.093l6.079-2.423v-0.028l-6.079-0.882v-2.731L17.269,42.881z"/>
	<path fill="#2AA6DF" d="M10.293,63.548c-2.438,0-3.824-2.017-3.824-4.328c0-2.298,1.373-4.328,3.824-4.328s3.838,2.017,3.838,4.328
		S12.744,63.548,10.293,63.548z M10.293,57.581c-0.91,0-1.611,0.602-1.611,1.639c0,1.036,0.701,1.639,1.611,1.639
		c0.883,0,1.625-0.603,1.625-1.639C11.918,58.183,11.176,57.581,10.293,57.581z"/>
	<path fill="#2AA6DF" d="M6.707,67.479v-2.55h5.085v-0.826h2.101v0.826h2.157v2.55h-2.157v1.442h-2.101v-1.442H6.707z"/>
	<path fill="#2AA6DF" d="M6.707,72.28v-2.549h7.186v2.549H6.707z M16.652,72.435c-0.784,0-1.429-0.645-1.429-1.429
		s0.645-1.429,1.429-1.429s1.429,0.645,1.429,1.429S17.437,72.435,16.652,72.435z"/>
	<path fill="#2AA6DF" d="M10.209,77.488l3.684,1.709v2.857l-7.186-3.754v-1.625l7.186-3.768v2.857L10.209,77.488z"/>
	<path fill="#2AA6DF" d="M9.873,90.063v-5.365c-1.037,0-1.598,0.547-1.598,1.597c0,0.547,0.183,0.938,0.659,1.219v2.451
		c-0.841-0.195-1.457-0.7-1.863-1.358s-0.603-1.471-0.603-2.297c0-2.382,1.345-4.16,3.824-4.16c2.396,0,3.838,1.639,3.838,3.978
		c0,2.493-1.541,3.937-3.992,3.937H9.873z M11.344,87.695c0.687-0.126,1.135-0.757,1.135-1.443c0-0.742-0.393-1.358-1.135-1.513
		V87.695z"/>
	<path fill="#2AA6DF" d="M12.716,93.77v0.028c0.883,0.49,1.275,1.331,1.275,2.325v0.49H11.54c0.195-0.351,0.237-0.687,0.237-1.078
		c0-1.415-0.938-1.766-2.171-1.766H6.707v-2.549h7.186v2.549H12.716z"/>
	<path fill="#2AA6DF" d="M6.707,110.222v-2.549h0.799v-0.028c-0.715-0.448-1.037-1.33-1.037-2.171c0-2.129,1.779-3.628,3.838-3.628
		c2.06,0,3.824,1.471,3.824,3.6c0,0.827-0.308,1.695-0.938,2.228h0.7v2.549H6.707z M10.293,104.479c-0.91,0-1.611,0.602-1.611,1.639
		c0,1.036,0.701,1.639,1.611,1.639c0.883,0,1.625-0.603,1.625-1.639C11.918,105.081,11.176,104.479,10.293,104.479z M18.193,106.09
		l-2.409,1.976l-0.827-1.135l2.115-2.396L18.193,106.09z"/>
	<path fill="#2AA6DF" d="M6.707,124.571v-2.549h0.799v-0.028c-0.715-0.448-1.037-1.33-1.037-2.171c0-2.129,1.779-3.628,3.838-3.628
		c2.06,0,3.824,1.471,3.824,3.6c0,0.827-0.308,1.695-0.938,2.228h0.7v2.549H6.707z M10.293,118.829c-0.91,0-1.611,0.602-1.611,1.639
		c0,1.036,0.701,1.639,1.611,1.639c0.883,0,1.625-0.603,1.625-1.639C11.918,119.431,11.176,118.829,10.293,118.829z"/>
	<path fill="#2AA6DF" d="M13.08,128.727v0.028c0.715,0.462,1.051,1.33,1.051,2.171c0,2.144-1.793,3.628-3.852,3.628
		c-2.073,0-3.811-1.471-3.811-3.6c0-0.827,0.294-1.681,0.925-2.228H3.121v-2.549h10.771v2.549H13.08z M10.293,128.643
		c-0.91,0-1.611,0.603-1.611,1.639c0,1.037,0.701,1.639,1.611,1.639c0.883,0,1.625-0.602,1.625-1.639
		C11.918,129.245,11.176,128.643,10.293,128.643z"/>
	<path fill="#2AA6DF" d="M13.08,138.274v0.028c0.715,0.462,1.051,1.33,1.051,2.171c0,2.144-1.793,3.628-3.852,3.628
		c-2.073,0-3.811-1.471-3.811-3.6c0-0.826,0.294-1.681,0.925-2.228H3.121v-2.549h10.771v2.549H13.08z M10.293,138.19
		c-0.91,0-1.611,0.603-1.611,1.639c0,1.037,0.701,1.64,1.611,1.64c0.883,0,1.625-0.603,1.625-1.64
		C11.918,138.793,11.176,138.19,10.293,138.19z"/>
	<path fill="#2AA6DF" d="M12.716,147.907v0.028c0.883,0.49,1.275,1.331,1.275,2.325v0.49H11.54c0.195-0.351,0.237-0.687,0.237-1.079
		c0-1.414-0.938-1.765-2.171-1.765H6.707v-2.549h7.186v2.549H12.716z"/>
	<path fill="#2AA6DF" d="M9.873,159.082v-5.365c-1.037,0-1.598,0.547-1.598,1.597c0,0.547,0.183,0.938,0.659,1.219v2.451
		c-0.841-0.195-1.457-0.7-1.863-1.358s-0.603-1.471-0.603-2.297c0-2.382,1.345-4.16,3.824-4.16c2.396,0,3.838,1.639,3.838,3.978
		c0,2.493-1.541,3.937-3.992,3.937H9.873z M11.344,156.715c0.687-0.126,1.135-0.757,1.135-1.443c0-0.742-0.393-1.358-1.135-1.513
		V156.715z"/>
	<path fill="#2AA6DF" d="M12.969,162.788v0.028c0.868,0.588,1.162,1.303,1.162,2.297c0,1.934-1.219,2.704-2.983,2.704h-4.44v-2.55
		h3.502c0.687,0,1.891,0.112,1.891-1.148c0-1.037-0.771-1.331-1.667-1.331H6.707v-2.549h7.186v2.549H12.969z"/>
	<path fill="#2AA6DF" d="M7.506,174.899v-0.027c-0.715-0.448-1.037-1.331-1.037-2.172c0-2.129,1.779-3.628,3.838-3.628
		c2.06,0,3.824,1.471,3.824,3.601c0,0.826-0.308,1.694-0.938,2.227h5.141v2.55H6.707v-2.55H7.506z M10.293,171.706
		c-0.91,0-1.611,0.603-1.611,1.639c0,1.037,0.701,1.639,1.611,1.639c0.883,0,1.625-0.602,1.625-1.639
		C11.918,172.309,11.176,171.706,10.293,171.706z"/>
	<path fill="#2AA6DF" d="M12.716,181.59v0.028c0.883,0.49,1.275,1.331,1.275,2.325v0.49H11.54c0.195-0.351,0.237-0.687,0.237-1.078
		c0-1.415-0.938-1.766-2.171-1.766H6.707v-2.549h7.186v2.549H12.716z"/>
	<path fill="#2AA6DF" d="M9.873,192.765v-5.365c-1.037,0-1.598,0.547-1.598,1.597c0,0.547,0.183,0.938,0.659,1.219v2.451
		c-0.841-0.195-1.457-0.7-1.863-1.358s-0.603-1.471-0.603-2.297c0-2.382,1.345-4.16,3.824-4.16c2.396,0,3.838,1.639,3.838,3.978
		c0,2.493-1.541,3.937-3.992,3.937H9.873z M11.344,190.397c0.687-0.126,1.135-0.757,1.135-1.443c0-0.742-0.393-1.358-1.135-1.513
		V190.397z"/>
</g>
</svg>
