<?xml version="1.0" encoding="utf-8"?>
<!-- Generator: Adobe Illustrator 16.0.0, SVG Export Plug-In . SVG Version: 6.00 Build 0)  -->
<!DOCTYPE svg PUBLIC "-//W3C//DTD SVG 1.1//EN" "http://www.w3.org/Graphics/SVG/1.1/DTD/svg11.dtd">
<svg version="1.1" id="Calque_1" xmlns="http://www.w3.org/2000/svg" xmlns:xlink="http://www.w3.org/1999/xlink" x="0px" y="0px"
	 width="20px" height="260px" viewBox="0 0 20 260" enable-background="new 0 0 20 260" xml:space="preserve">
<g>
	<path fill="#DC0E17" d="M17.382,9.302v1.254H4.73v2.071H3.666V9.302H17.382z"/>
	<path fill="#DC0E17" d="M17.382,12.741v1.406l-3.115-1.064v-1.026L17.382,12.741z"/>
	<path fill="#DC0E17" d="M12.31,18.117c0.627,0,0.874-0.209,0.874-0.684c0-0.665-0.399-0.76-1.007-0.76h-0.969v-1.178h1.216
		c1.064,0,1.709,0.893,1.709,1.976c0,1.14-0.475,1.824-1.805,1.824H3.666v-1.102h0.551v-0.038c-0.399-0.323-0.665-0.665-0.665-1.368
		c0-0.912,0.665-1.406,1.709-1.406h2.812c1.292,0,1.995,0.874,1.995,2.735H12.31z M9.118,18.117c0-0.608-0.247-1.558-1.121-1.558
		H5.642c-0.741,0-1.14,0.114-1.14,0.741c0,0.513,0.38,0.817,1.064,0.817H9.118z"/>
	<path fill="#DC0E17" d="M17.382,20.664v1.178h-3.989v0.038c0.266,0.152,0.456,0.342,0.57,0.57c0.114,0.228,0.171,0.494,0.171,0.779
		c0,0.817-0.684,1.349-1.615,1.349H5.566c-1.558,0-2.014-0.76-2.014-1.52c0-0.703,0.361-0.969,0.76-1.254v-0.038H3.666v-1.102
		H17.382z M11.873,23.399c0.76,0,1.197-0.228,1.197-0.703c0-0.513-0.494-0.855-1.14-0.855H5.642c-0.836,0-1.14,0.399-1.14,0.874
		c0,0.475,0.38,0.684,1.102,0.684H11.873z"/>
	<path fill="#DC0E17" d="M12.48,28.358c0.475,0,0.703-0.228,0.703-0.608c0-0.475-0.342-0.608-0.741-0.608h-1.159
		c-0.304,0-0.589,0.133-1.026,0.437l-2.07,1.481c-0.399,0.285-0.665,0.418-1.14,0.418H5.3c-1.121,0-1.748-0.627-1.748-1.767
		c0-0.969,0.456-1.748,1.615-1.748h1.805v1.178H5.376c-0.475,0-0.874,0.076-0.874,0.589c0,0.475,0.418,0.57,0.893,0.57h1.254
		c0.38,0,0.76-0.152,1.14-0.437l1.843-1.349c0.456-0.342,0.817-0.551,1.387-0.551h1.33c1.14,0,1.786,0.779,1.786,1.842
		c0,1.254-0.854,1.653-1.481,1.653h-1.71v-1.102H12.48z"/>
	<path fill="#DC0E17" d="M7.01,33.602v1.178H5.547c-1.577,0-1.995-0.95-1.995-1.957s0.417-1.957,1.995-1.957h6.592
		c1.577,0,1.995,0.95,1.995,1.957s-0.418,1.957-1.995,1.957h-3.59v-2.735H5.547c-0.76,0-1.045,0.304-1.045,0.779
		s0.285,0.779,1.045,0.779H7.01z M12.139,33.602c0.76,0,1.045-0.304,1.045-0.779s-0.285-0.779-1.045-0.779H9.612v1.558H12.139z"/>
	<path fill="#DC0E17" d="M14.02,36.149v1.102h-0.703v0.038c0.437,0.266,0.817,0.76,0.817,1.368c0,0.969-0.722,1.406-1.558,1.406
		h-8.91v-1.178h8.454c0.551,0,0.95-0.209,0.95-0.741c0-0.551-0.532-0.817-0.95-0.817H3.666v-1.178H14.02z"/>
	<path fill="#DC0E17" d="M15.406,41.621l0.456,1.178H14.02v0.836h-0.95v-0.836H5.205c-0.475,0-0.589,0.247-0.589,0.589v0.247h-0.95
		v-0.57c0-0.988,0.475-1.444,1.273-1.444h8.131v-0.589h0.95v0.589H15.406z"/>
	<path fill="#DC0E17" d="M7.01,47.339v1.178H5.547c-1.577,0-1.995-0.95-1.995-1.957s0.417-1.957,1.995-1.957h6.592
		c1.577,0,1.995,0.95,1.995,1.957s-0.418,1.957-1.995,1.957h-3.59v-2.735H5.547c-0.76,0-1.045,0.304-1.045,0.779
		s0.285,0.779,1.045,0.779H7.01z M12.139,47.339c0.76,0,1.045-0.304,1.045-0.779s-0.285-0.779-1.045-0.779H9.612v1.558H12.139z
		 M17.382,47.966L15.33,46.75V45.8l2.052,0.836V47.966z"/>
	<path fill="#DC0E17" d="M14.02,50.019v1.178H3.666v-1.178H14.02z M17.382,49.98v1.254h-1.444V49.98H17.382z"/>
	<path fill="#DC0E17" d="M12.48,55.11c0.475,0,0.703-0.228,0.703-0.608c0-0.475-0.342-0.608-0.741-0.608h-1.159
		c-0.304,0-0.589,0.133-1.026,0.437l-2.07,1.481c-0.399,0.285-0.665,0.418-1.14,0.418H5.3c-1.121,0-1.748-0.627-1.748-1.767
		c0-0.969,0.456-1.748,1.615-1.748h1.805v1.178H5.376c-0.475,0-0.874,0.076-0.874,0.589c0,0.475,0.418,0.57,0.893,0.57h1.254
		c0.38,0,0.76-0.152,1.14-0.437l1.843-1.349c0.456-0.342,0.817-0.551,1.387-0.551h1.33c1.14,0,1.786,0.779,1.786,1.842
		c0,1.254-0.854,1.653-1.481,1.653h-1.71V55.11H12.48z"/>
	<path fill="#DC0E17" d="M14.02,57.675v1.102h-0.703v0.038c0.532,0.361,0.817,0.741,0.817,1.368c0,0.437-0.228,0.855-0.646,1.102
		c0.399,0.323,0.646,0.703,0.646,1.216c0,0.969-0.722,1.406-1.558,1.406h-8.91v-1.178h8.511c0.57,0,0.893-0.152,0.893-0.589
		c0-0.475-0.437-0.76-0.95-0.76H3.666v-1.178h8.511c0.57,0,0.893-0.152,0.893-0.589c0-0.475-0.437-0.76-0.95-0.76H3.666v-1.178
		H14.02z"/>
	<path fill="#DC0E17" d="M7.01,68.067v1.178H5.547c-1.577,0-1.995-0.95-1.995-1.957s0.417-1.957,1.995-1.957h6.592
		c1.577,0,1.995,0.95,1.995,1.957s-0.418,1.957-1.995,1.957h-3.59V66.51H5.547c-0.76,0-1.045,0.304-1.045,0.779
		s0.285,0.779,1.045,0.779H7.01z M12.139,68.067c0.76,0,1.045-0.304,1.045-0.779s-0.285-0.779-1.045-0.779H9.612v1.558H12.139z"/>
	<path fill="#DC0E17" d="M12.48,75.648c0.475,0,0.703-0.228,0.703-0.608c0-0.475-0.342-0.608-0.741-0.608h-1.159
		c-0.304,0-0.589,0.133-1.026,0.437l-2.07,1.481c-0.399,0.285-0.665,0.418-1.14,0.418H5.3c-1.121,0-1.748-0.627-1.748-1.767
		c0-0.969,0.456-1.748,1.615-1.748h1.805v1.178H5.376c-0.475,0-0.874,0.076-0.874,0.589c0,0.475,0.418,0.57,0.893,0.57h1.254
		c0.38,0,0.76-0.152,1.14-0.437l1.843-1.349c0.456-0.342,0.817-0.551,1.387-0.551h1.33c1.14,0,1.786,0.779,1.786,1.842
		c0,1.254-0.854,1.653-1.481,1.653h-1.71v-1.102H12.48z"/>
	<path fill="#DC0E17" d="M12.329,80.531c0.646,0,0.855-0.171,0.855-0.551c0-0.399-0.266-0.646-0.855-0.646H5.281
		c-0.532,0-0.779,0.152-0.779,0.589s0.304,0.608,0.779,0.608h1.672v1.178H5.3c-1.121,0-1.748-0.627-1.748-1.767
		c0-0.95,0.475-1.786,1.558-1.786h7.029c1.577,0,1.995,0.95,1.995,1.957c0,1.026-0.551,1.596-1.671,1.596h-1.729v-1.178H12.329z"/>
	<path fill="#DC0E17" d="M12.139,83.077c1.577,0,1.995,0.95,1.995,1.957s-0.418,1.957-1.995,1.957H5.547
		c-1.577,0-1.995-0.95-1.995-1.957s0.417-1.957,1.995-1.957H12.139z M12.139,85.813c0.76,0,1.045-0.304,1.045-0.779
		s-0.285-0.779-1.045-0.779H5.547c-0.76,0-1.045,0.304-1.045,0.779s0.285,0.779,1.045,0.779H12.139z"/>
	<path fill="#DC0E17" d="M17.382,88.492v1.178H3.666v-1.178H17.382z"/>
	<path fill="#DC0E17" d="M12.31,93.907c0.627,0,0.874-0.209,0.874-0.684c0-0.665-0.399-0.76-1.007-0.76h-0.969v-1.178h1.216
		c1.064,0,1.709,0.893,1.709,1.976c0,1.14-0.475,1.824-1.805,1.824H3.666v-1.102h0.551v-0.038c-0.399-0.323-0.665-0.665-0.665-1.368
		c0-0.912,0.665-1.406,1.709-1.406h2.812c1.292,0,1.995,0.874,1.995,2.735H12.31z M9.118,93.907c0-0.608-0.247-1.558-1.121-1.558
		H5.642c-0.741,0-1.14,0.114-1.14,0.741c0,0.513,0.38,0.817,1.064,0.817H9.118z"/>
	<path fill="#DC0E17" d="M14.02,96.586v1.178H3.666v-1.178H14.02z M17.382,96.548v1.254h-1.444v-1.254H17.382z"/>
	<path fill="#DC0E17" d="M14.02,99.265v1.102h-0.722v0.038c0.551,0.361,0.836,0.836,0.836,1.577h-1.178
		c0-1.14-0.437-1.539-1.52-1.539h-7.77v-1.178H14.02z"/>
	<path fill="#DC0E17" d="M7.01,105.535v1.178H5.547c-1.577,0-1.995-0.95-1.995-1.957s0.417-1.957,1.995-1.957h6.592
		c1.577,0,1.995,0.95,1.995,1.957s-0.418,1.957-1.995,1.957h-3.59v-2.735H5.547c-0.76,0-1.045,0.304-1.045,0.779
		s0.285,0.779,1.045,0.779H7.01z M12.139,105.535c0.76,0,1.045-0.304,1.045-0.779s-0.285-0.779-1.045-0.779H9.612v1.558H12.139z"/>
</g>
<g>
	<path d="M14.585,172.78v2.674c0,1.247-0.084,2.291-0.948,3.01c-0.552,0.456-1.175,0.528-1.619,0.528
		c-1.007,0-1.859-0.42-2.303-1.104c-0.408-0.636-0.408-1.511-0.408-1.967v-1.259h-3.37v-1.883H14.585z M10.687,174.615v0.744
		c0,0.6,0,1.715,1.319,1.715c1.175,0,1.175-0.996,1.175-1.523v-0.935H10.687z"/>
	<path d="M5.938,183.266c0.372-0.06,0.647-0.06,0.828-0.06c-0.972-0.671-0.972-1.475-0.972-1.811c0-0.875,0.252-1.271,0.48-1.511
		c0.36-0.36,0.852-0.527,1.331-0.527c0.48,0,1.367,0.167,1.883,1.283c0.336,0.744,0.336,1.811,0.336,2.398
		c0.396,0,0.588-0.012,0.804-0.084c0.444-0.156,0.504-0.624,0.504-0.792c0-0.252-0.108-0.516-0.336-0.671
		c-0.204-0.132-0.396-0.132-0.54-0.132v-1.739c0.324,0.012,0.972,0.048,1.427,0.684c0.396,0.552,0.492,1.259,0.492,1.835
		c0,0.504-0.083,1.559-0.779,2.159c-0.492,0.408-1.211,0.42-1.487,0.42l-2.435,0.012c-0.516,0-1.031,0.036-1.535,0.144V183.266z
		 M7.809,181.083c-0.408,0-0.864,0.276-0.864,0.863c0,0.324,0.156,0.588,0.348,0.756c0.384,0.312,0.852,0.335,1.499,0.335
		C8.888,181.898,8.528,181.083,7.809,181.083z"/>
	<path d="M6.021,189.866c-0.156-0.576-0.192-1.092-0.192-1.379c0-1.787,1.127-1.787,1.631-1.787h3.322v-1.163h1.175v1.163h1.188
		l0.647,1.763h-1.835v1.439h-1.175v-1.439H8.048c-0.552,0.012-0.899,0.012-0.899,0.803c0,0.264,0.012,0.384,0.036,0.6H6.021z"/>
	<path d="M10.507,190.972c0.288,0,1.164-0.048,1.511-0.084v1.667l-1.163,0.036c0.516,0.228,1.247,0.624,1.175,2.063h-1.595
		c0.168-1.799-0.755-1.907-1.511-1.907H5.938v-1.775H10.507z"/>
	<path d="M12.006,195.16v1.775H5.938v-1.775H12.006z M14.597,195.1v1.895H13.05V195.1H14.597z"/>
	<path d="M9.847,201.698c0.216-0.024,1.116-0.096,1.116-0.78c0-0.839-1.271-0.936-1.931-0.936c-0.336,0-1.415,0.036-1.859,0.444
		c-0.18,0.168-0.204,0.348-0.204,0.48c0,0.192,0.084,0.743,1.164,0.815v1.751c-0.468-0.024-1.199-0.084-1.787-0.78
		c-0.372-0.432-0.563-0.971-0.563-1.727c0-0.803,0.18-1.511,0.803-2.063c0.612-0.528,1.416-0.768,2.387-0.768
		c2.759,0,3.143,2.027,3.143,2.83c0,1.127-0.624,2.459-2.267,2.471V201.698z"/>
	<path d="M8.516,205.923c-0.396,0-1.619,0-1.619,1.235c0,0.444,0.168,0.888,0.839,1.056v1.619c-0.288-0.024-0.803-0.084-1.319-0.576
		c-0.467-0.444-0.708-1.235-0.708-2.123c0-0.516,0.096-1.499,0.756-2.135c0.576-0.552,1.391-0.779,2.363-0.779
		c0.983,0,2.159,0.24,2.866,1.259c0.312,0.468,0.504,1.043,0.504,1.703c0,0.863-0.336,1.895-1.463,2.446
		c-0.828,0.408-1.715,0.384-2.219,0.36V205.923z M9.631,208.177c0.276,0,1.355-0.024,1.355-1.055c0-0.78-0.648-1.104-1.355-1.14
		V208.177z"/>
	<path d="M14.597,214.551v1.763h-3.43c0.288,0.204,0.912,0.647,0.912,1.751c0,0.899-0.444,1.475-0.815,1.763
		c-0.3,0.216-0.852,0.396-1.643,0.396H5.938v-1.763H9.56c0.348,0,1.319,0,1.319-0.995c0-0.504-0.288-1.14-1.235-1.14l-3.706,0.012
		v-1.787H14.597z"/>
	<path d="M11.994,223.574h-3.61c-0.528,0-1.332,0-1.332,0.948c0,1.139,0.852,1.139,1.883,1.139h3.058v1.823H8
		c-1.308,0.024-1.463,0.036-1.619,0.036c-0.168,0.012-0.276,0.024-0.444,0.048v-1.727l0.804-0.06
		c-0.264-0.18-0.959-0.636-0.959-1.787c0-0.815,0.372-1.487,0.815-1.823c0.492-0.396,1.331-0.396,1.631-0.396h3.766V223.574z"/>
	<path d="M8.516,230.595c-0.396,0-1.619,0-1.619,1.235c0,0.444,0.168,0.888,0.839,1.056v1.619c-0.288-0.024-0.803-0.084-1.319-0.576
		c-0.467-0.444-0.708-1.235-0.708-2.123c0-0.516,0.096-1.499,0.756-2.135c0.576-0.552,1.391-0.779,2.363-0.779
		c0.983,0,2.159,0.24,2.866,1.259c0.312,0.468,0.504,1.043,0.504,1.703c0,0.863-0.336,1.895-1.463,2.446
		c-0.828,0.408-1.715,0.384-2.219,0.36V230.595z M9.631,232.849c0.276,0,1.355-0.024,1.355-1.055c0-0.78-0.648-1.104-1.355-1.14
		V232.849z"/>
	<path d="M10.507,235.839c0.288,0,1.164-0.048,1.511-0.084v1.667l-1.163,0.036c0.516,0.228,1.247,0.624,1.175,2.063h-1.595
		c0.168-1.799-0.755-1.907-1.511-1.907H5.938v-1.775H10.507z"/>
	<path d="M10.507,240.027c0.288,0,1.164-0.048,1.511-0.084v1.667l-1.163,0.036c0.516,0.228,1.247,0.624,1.175,2.063h-1.595
		c0.168-1.799-0.755-1.907-1.511-1.907H5.938v-1.775H10.507z"/>
	<path d="M8.516,245.763c-0.396,0-1.619,0-1.619,1.235c0,0.444,0.168,0.888,0.839,1.056v1.619c-0.288-0.024-0.803-0.084-1.319-0.576
		c-0.467-0.444-0.708-1.235-0.708-2.123c0-0.516,0.096-1.499,0.756-2.135c0.576-0.552,1.391-0.779,2.363-0.779
		c0.983,0,2.159,0.24,2.866,1.259c0.312,0.468,0.504,1.043,0.504,1.703c0,0.863-0.336,1.895-1.463,2.446
		c-0.828,0.408-1.715,0.384-2.219,0.36V245.763z M9.631,248.017c0.276,0,1.355-0.024,1.355-1.055c0-0.78-0.648-1.104-1.355-1.14
		V248.017z"/>
</g>
</svg>
