<?xml version="1.0" encoding="utf-8"?>
<!-- Generator: Adobe Illustrator 16.0.0, SVG Export Plug-In . SVG Version: 6.00 Build 0)  -->
<!DOCTYPE svg PUBLIC "-//W3C//DTD SVG 1.1//EN" "http://www.w3.org/Graphics/SVG/1.1/DTD/svg11.dtd">
<svg version="1.1" id="Calque_1" xmlns="http://www.w3.org/2000/svg" xmlns:xlink="http://www.w3.org/1999/xlink" x="0px" y="0px"
	 width="20px" height="260px" viewBox="0 0 20 260" enable-background="new 0 0 20 260" xml:space="preserve">
<g>
	<path fill="#687B28" d="M9.997,10.478c2.843,0,4.805,2.157,4.805,4.847c0,2.143-1.121,3.572-2.228,3.572
		c-0.672,0-1.134-0.434-1.134-1.009c0-0.63,0.392-1.064,0.994-1.064c0.182,0,0.364,0.042,0.477,0.098
		c0.21-0.266,0.42-0.798,0.42-1.639c0-1.793-1.331-3.166-3.319-3.166c-2.031,0-3.334,1.471-3.334,3.026
		c0,0.966,0.21,1.639,0.588,2.227h1.583v-2.297h1.345v3.852H5.416v-1.513h0.687c-0.504-0.645-0.854-1.471-0.854-2.507
		C5.248,12.635,7.041,10.478,9.997,10.478z"/>
	<path fill="#687B28" d="M6.831,20.515v1.051h6.388v-1.051h1.415v6.878H12V25.88h1.233v-2.731h-2.465v2.788H9.422v-2.788H6.817
		v2.745h1.232v1.513H5.416v-6.892H6.831z M15.908,23.457l2.101,1.541c0.266,0.21,0.434,0.491,0.434,0.771
		c0,0.378-0.308,0.687-0.714,0.687c-0.266,0-0.546-0.14-0.771-0.434l-1.513-2.087L15.908,23.457z"/>
	<path fill="#687B28" d="M11.775,31.185H6.831v1.148H5.416v-3.74h1.415v1.051h6.388v-1.051h1.415v2.396l-5.785,4.539h4.371v-1.149
		h1.415v3.698h-1.415v-1.009H5.402l-0.028-0.854L11.775,31.185z"/>
	<path fill="#687B28" d="M6.831,38.995v1.051h6.388v-1.051h1.415v6.878H12V44.36h1.233v-2.731h-2.465v2.787H9.422v-2.787H6.817
		v2.745h1.232v1.513H5.416v-6.892H6.831z M15.908,41.937l2.101,1.541c0.266,0.21,0.434,0.49,0.434,0.771
		c0,0.378-0.308,0.687-0.714,0.687c-0.266,0-0.546-0.14-0.771-0.434l-1.513-2.087L15.908,41.937z"/>
	<path fill="#687B28" d="M6.831,47.073v1.051h6.388v-1.051h1.415v3.572c0,2.115-0.91,3.628-2.787,3.628
		c-1.191,0-2.102-0.729-2.508-1.737l-2.507,1.415v1.051H5.416v-2.129l3.502-1.849c-0.014-0.196-0.028-0.378-0.028-0.56
		c0-0.294,0-0.561,0.014-0.756H6.831v1.148H5.416v-3.782H6.831z M11.79,52.634c0.966,0,1.429-0.798,1.429-2.073v-0.854h-2.956
		c-0.014,0.168-0.028,0.392-0.028,0.896C10.234,51.793,10.823,52.634,11.79,52.634z"/>
	<path fill="#687B28" d="M6.831,55.417v0.798l6.402,2.297v-1.009h1.4v5.211h-1.4v-1.008l-6.402,2.297v0.799H5.416v-3.544h1.401
		v1.064l1.513-0.519v-3.446L6.817,57.84v1.121H5.416v-3.544H6.831z M9.646,61.37l3.628-1.289l-3.628-1.289V61.37z"/>
	<path fill="#687B28" d="M6.831,66.66v1.148h6.43V66.1h-1.457v-1.499h2.829v7.998h-2.829v-1.499h1.457v-1.709h-6.43v1.148H5.416
		v-3.88H6.831z"/>
	<path fill="#687B28" d="M6.831,73.435v1.121h6.388v-1.121h1.415v3.824h-1.415v-1.121H6.831v1.121H5.416v-3.824H6.831z"/>
	<path fill="#687B28" d="M10.024,78.419c2.704,0,4.777,1.961,4.777,4.762c0,2.788-2.087,4.693-4.777,4.693
		c-2.703,0-4.776-1.961-4.776-4.763C5.248,80.324,7.335,78.419,10.024,78.419z M10.024,86.235c1.919,0,3.306-1.303,3.306-3.082
		c0-1.793-1.373-3.096-3.306-3.096c-1.919,0-3.306,1.303-3.306,3.096C6.719,84.932,8.091,86.235,10.024,86.235z"/>
	<path fill="#687B28" d="M11.775,91.623H6.831v1.148H5.416v-3.74h1.415v1.051h6.388v-1.051h1.415v2.396l-5.785,4.539h4.371v-1.149
		h1.415v3.698h-1.415v-1.009H5.402l-0.028-0.854L11.775,91.623z"/>
	<path fill="#B3C448" d="M6.831,105.592v1.051h6.388v-1.051h1.415v3.488c0,3.333-1.737,5.309-4.524,5.309
		c-2.815,0-4.692-1.863-4.692-5.477v-3.32H6.831z M6.831,109.136c0,2.381,1.289,3.614,3.264,3.614c2.017,0,3.124-1.429,3.124-3.726
		v-0.798H6.831V109.136z"/>
	<path fill="#B3C448" d="M6.831,117.171v1.163h2.102l4.286-2.62v-0.924h1.415v3.488h-1.415v-0.813l-2.956,1.695l2.956,1.681v-0.869
		h1.415v3.488h-1.415v-0.925l-4.286-2.619H6.831v1.163H5.416v-3.908H6.831z"/>
	<path fill="#B3C448" d="M7.391,123.778c0.658,0,1.093,0.392,1.093,0.966c0,0.616-0.462,1.008-0.911,1.008
		c-0.224,0-0.392-0.042-0.561-0.126c-0.238,0.336-0.392,0.854-0.392,1.457c0,1.008,0.448,1.653,1.247,1.653
		c0.756,0,1.121-0.771,1.443-1.695c0.616-1.709,1.163-2.914,2.872-2.914c1.471,0,2.62,1.19,2.62,3.054
		c0,1.723-0.883,3.053-1.989,3.053c-0.658,0-1.037-0.406-1.037-0.938c0-0.644,0.477-1.008,0.938-1.008
		c0.224,0,0.322,0.042,0.435,0.098c0.154-0.252,0.28-0.645,0.28-1.219c0-0.911-0.462-1.443-1.134-1.443
		c-0.757,0-1.093,0.771-1.429,1.695c-0.588,1.653-1.163,2.9-2.872,2.9c-1.75,0-2.745-1.359-2.745-3.25
		C5.248,125.249,6.271,123.778,7.391,123.778z"/>
	<path fill="#B3C448" d="M6.831,131.506v1.051h6.388v-1.051h1.415v3.853h-1.415v-1.219H6.817v2.535H8.12v1.526H5.416v-6.695H6.831z"
		/>
	<path fill="#B3C448" d="M6.831,139.178v1.051h6.388v-1.051h1.415v6.878H12v-1.513h1.233v-2.731h-2.465v2.787H9.422v-2.787H6.817
		v2.745h1.232v1.514H5.416v-6.893H6.831z"/>
	<path fill="#B3C448" d="M10.024,147.103c2.773,0,4.777,2.157,4.777,4.847c0,2.143-1.121,3.572-2.228,3.572
		c-0.672,0-1.134-0.435-1.134-1.01c0-0.63,0.392-1.064,0.994-1.064c0.182,0,0.364,0.043,0.477,0.099
		c0.21-0.267,0.42-0.798,0.42-1.64c0-1.793-1.373-3.165-3.292-3.165c-1.849,0-3.32,1.288-3.32,3.235
		c0,1.079,0.476,1.961,1.219,2.648l-1.093,1.05c-0.995-0.896-1.597-2.228-1.597-3.698C5.248,149.133,7.153,147.103,10.024,147.103z"
		/>
	<path fill="#B3C448" d="M6.831,158.387v1.148h6.43v-1.709h-1.457v-1.498h2.829v7.998h-2.829v-1.498h1.457v-1.709h-6.43v1.148H5.416
		v-3.881H6.831z"/>
	<path fill="#B3C448" d="M6.831,165.162v1.051h6.388v-1.051h1.415v6.877H12v-1.512h1.233v-2.732h-2.465v2.788H9.422v-2.788H6.817
		v2.746h1.232v1.513H5.416v-6.892H6.831z"/>
	<path fill="#B3C448" d="M8.778,173.969h4.44v-1.009h1.415v3.698h-1.415v-1.107H8.862c-1.415,0-2.171,0.715-2.171,1.892
		c0,1.19,0.686,1.905,2.115,1.905h4.413v-1.107h1.415v3.656h-1.415v-1.008H8.806c-2.409,0-3.558-1.416-3.558-3.446
		C5.248,175.383,6.396,173.969,8.778,173.969z"/>
	<path fill="#B3C448" d="M6.831,182.787v1.051h6.388v-1.051h1.415v3.572c0,2.115-0.91,3.629-2.787,3.629
		c-1.191,0-2.102-0.729-2.508-1.737l-2.507,1.415v1.051H5.416v-2.13l3.502-1.849c-0.014-0.196-0.028-0.379-0.028-0.561
		c0-0.295,0-0.561,0.014-0.756H6.831v1.148H5.416v-3.783H6.831z M11.79,188.349c0.966,0,1.429-0.798,1.429-2.073v-0.854h-2.956
		c-0.014,0.168-0.028,0.392-0.028,0.896C10.234,187.508,10.823,188.349,11.79,188.349z"/>
	<path fill="#B3C448" d="M7.391,191.51c0.658,0,1.093,0.393,1.093,0.967c0,0.615-0.462,1.008-0.911,1.008
		c-0.224,0-0.392-0.042-0.561-0.126c-0.238,0.337-0.392,0.854-0.392,1.457c0,1.009,0.448,1.653,1.247,1.653
		c0.756,0,1.121-0.771,1.443-1.695c0.616-1.709,1.163-2.914,2.872-2.914c1.471,0,2.62,1.191,2.62,3.055
		c0,1.723-0.883,3.053-1.989,3.053c-0.658,0-1.037-0.406-1.037-0.938c0-0.644,0.477-1.009,0.938-1.009
		c0.224,0,0.322,0.043,0.435,0.099c0.154-0.253,0.28-0.645,0.28-1.219c0-0.911-0.462-1.442-1.134-1.442
		c-0.757,0-1.093,0.77-1.429,1.694c-0.588,1.653-1.163,2.899-2.872,2.899c-1.75,0-2.745-1.358-2.745-3.25
		C5.248,192.98,6.271,191.51,7.391,191.51z"/>
</g>
</svg>
