<?xml version="1.0" encoding="utf-8"?>
<!-- Generator: Adobe Illustrator 16.0.0, SVG Export Plug-In . SVG Version: 6.00 Build 0)  -->
<!DOCTYPE svg PUBLIC "-//W3C//DTD SVG 1.1//EN" "http://www.w3.org/Graphics/SVG/1.1/DTD/svg11.dtd">
<svg version="1.1" id="Calque_1" xmlns="http://www.w3.org/2000/svg" xmlns:xlink="http://www.w3.org/1999/xlink" x="0px" y="0px"
	 width="20px" height="260px" viewBox="0 0 20 260" enable-background="new 0 0 20 260" xml:space="preserve">
<rect fill="#42271C" width="20" height="260"/>
<g>
	<path fill="#FFFFFF" d="M6.786,17.813c-0.659-0.658-0.952-1.597-0.952-2.633v-3.6h9.973v3.6c0,1.036-0.294,1.975-0.952,2.633
		c-1.12,1.121-2.493,1.009-3.992,1.009S7.906,18.934,6.786,17.813z M13.453,16.454c0.406-0.336,0.617-0.784,0.617-1.457v-1.471h-6.5
		v1.471c0,0.673,0.211,1.121,0.616,1.457c0.448,0.364,1.163,0.42,2.676,0.42S13.006,16.818,13.453,16.454z"/>
	<path fill="#FFFFFF" d="M8.915,22.094c-0.938,0-1.625,0.574-1.625,1.597c0,0.799,0.225,1.191,0.687,1.653L6.898,26.45
		c-0.742-0.742-1.148-1.457-1.148-2.773c0-1.723,0.783-3.376,3.739-3.376c2.382,0,3.726,1.289,3.726,3.18
		c0,2.031-1.484,3.18-3.487,3.18H8.915V22.094z M10.946,24.699c0.435-0.196,0.757-0.603,0.757-1.219s-0.322-1.022-0.757-1.219
		c-0.267-0.111-0.462-0.154-0.784-0.168v2.773C10.484,24.854,10.68,24.812,10.946,24.699z M14.294,23.971v-1.219l2.382,0.896v1.919
		L14.294,23.971z"/>
	<path fill="#FFFFFF" d="M5.75,31.236c0-1.457,0.783-3.264,3.739-3.264s3.726,1.807,3.726,3.264c0,1.009-0.308,1.766-0.98,2.409
		l-1.232-1.232c0.406-0.378,0.574-0.7,0.574-1.177c0-0.434-0.154-0.771-0.476-1.036c-0.351-0.28-0.841-0.406-1.611-0.406
		S8.215,29.92,7.865,30.2c-0.322,0.266-0.477,0.603-0.477,1.036c0,0.477,0.168,0.799,0.574,1.177l-1.219,1.232
		C6.072,33.002,5.75,32.245,5.75,31.236z"/>
	<path fill="#FFFFFF" d="M11.143,39.021c0.279-0.279,0.434-0.518,0.434-0.966c0-0.561-0.42-1.177-1.344-1.177H5.834v-1.821h7.297
		v1.779h-0.699c0.42,0.35,0.783,1.051,0.783,1.835c0,0.714-0.182,1.219-0.686,1.723L11.143,39.021z"/>
	<path fill="#FFFFFF" d="M6.646,46.036c-0.477-0.448-0.896-1.19-0.896-2.27c0-1.078,0.42-1.807,0.896-2.255
		c0.686-0.658,1.512-0.826,2.843-0.826c1.317,0,2.144,0.168,2.829,0.826c0.477,0.448,0.896,1.177,0.896,2.255
		c0,1.079-0.42,1.821-0.896,2.27c-0.686,0.658-1.512,0.826-2.829,0.826C8.158,46.862,7.332,46.694,6.646,46.036z M11.254,44.621
		c0.211-0.21,0.322-0.49,0.322-0.854s-0.111-0.63-0.322-0.84c-0.378-0.379-1.008-0.421-1.765-0.421s-1.4,0.042-1.778,0.421
		c-0.211,0.21-0.322,0.476-0.322,0.84s0.111,0.645,0.322,0.854c0.378,0.378,1.021,0.42,1.778,0.42S10.876,44.999,11.254,44.621z"/>
	<path fill="#FFFFFF" d="M5.75,51.494c0-1.457,0.783-3.264,3.739-3.264s3.726,1.807,3.726,3.264c0,1.009-0.308,1.766-0.98,2.409
		l-1.232-1.232c0.406-0.378,0.574-0.7,0.574-1.177c0-0.434-0.154-0.771-0.476-1.036c-0.351-0.28-0.841-0.406-1.611-0.406
		s-1.274,0.126-1.624,0.406c-0.322,0.266-0.477,0.603-0.477,1.036c0,0.477,0.168,0.799,0.574,1.177l-1.219,1.232
		C6.072,53.26,5.75,52.503,5.75,51.494z"/>
	<path fill="#FFFFFF" d="M5.834,59.504h4.454c0.966,0,1.288-0.616,1.288-1.19s-0.336-1.177-1.288-1.177H5.834v-1.821h9.973v1.821
		h-3.348c0.504,0.49,0.756,1.106,0.756,1.751c0,1.597-1.12,2.438-2.66,2.438H5.834V59.504z"/>
	<path fill="#FFFFFF" d="M8.915,64.71c-0.938,0-1.625,0.574-1.625,1.597c0,0.799,0.225,1.191,0.687,1.653l-1.078,1.106
		c-0.742-0.742-1.148-1.457-1.148-2.773c0-1.723,0.783-3.376,3.739-3.376c2.382,0,3.726,1.289,3.726,3.18
		c0,2.031-1.484,3.18-3.487,3.18H8.915V64.71z M10.946,67.315c0.435-0.196,0.757-0.603,0.757-1.219s-0.322-1.022-0.757-1.219
		c-0.267-0.111-0.462-0.153-0.784-0.168v2.773C10.484,67.47,10.68,67.428,10.946,67.315z"/>
	<path fill="#FFFFFF" d="M5.834,75.155h0.672c-0.504-0.476-0.756-1.148-0.756-1.82c0-0.729,0.238-1.317,0.644-1.724
		c0.589-0.588,1.274-0.742,2.073-0.742h4.664v1.821H8.719c-0.994,0-1.33,0.63-1.33,1.204s0.336,1.219,1.33,1.219h4.412v1.821H5.834
		V75.155z"/>
	<path fill="#FFFFFF" d="M11.143,82.938c0.279-0.28,0.434-0.518,0.434-0.966c0-0.561-0.42-1.177-1.344-1.177H5.834v-1.821h7.297
		v1.779h-0.699c0.42,0.35,0.783,1.051,0.783,1.835c0,0.714-0.182,1.219-0.686,1.723L11.143,82.938z"/>
	<path fill="#FFFFFF" d="M5.75,87.6c0-1.148,0.125-2.186,1.05-3.109l1.19,1.19c-0.602,0.603-0.686,1.387-0.686,1.947
		c0,0.63,0.21,1.288,0.756,1.288c0.364,0,0.617-0.196,0.672-0.771l0.113-1.148c0.125-1.316,0.699-2.129,2.045-2.129
		c1.512,0,2.324,1.331,2.324,2.815c0,1.135-0.195,2.087-0.854,2.787l-1.135-1.12c0.378-0.42,0.49-1.064,0.49-1.695
		c0-0.729-0.336-1.036-0.701-1.036c-0.266,0-0.574,0.112-0.63,0.756l-0.112,1.149c-0.14,1.442-0.91,2.171-2.143,2.171
		C6.52,90.695,5.75,89.322,5.75,87.6z"/>
	<path fill="#F6A015" d="M5.834,100.918h0.783c-0.64-0.576-0.88-1.185-0.88-2.064c0-0.816,0.288-1.585,0.753-2.049
		c0.832-0.833,2.272-0.849,3.521-0.849c1.248,0,2.672,0.016,3.505,0.849c0.464,0.464,0.753,1.216,0.753,2.032
		c0,0.849-0.225,1.489-0.833,2.033h3.794v2.081H5.834V100.918z M12.396,99.445c0-1.248-1.025-1.408-2.385-1.408
		c-1.361,0-2.401,0.16-2.401,1.408c0,1.249,1.04,1.425,2.401,1.425C11.371,100.87,12.396,100.694,12.396,99.445z"/>
	<path fill="#F6A015" d="M13.597,105.204h3.634v2.177h-1.985L13.597,105.204z"/>
	<path fill="#FFFFFF" d="M9.355,111.284c-1.072,0-1.857,0.656-1.857,1.825c0,0.912,0.256,1.36,0.785,1.889l-1.233,1.265
		c-0.849-0.849-1.313-1.665-1.313-3.169c0-1.97,0.896-3.858,4.274-3.858c2.721,0,4.258,1.473,4.258,3.634
		c0,2.321-1.697,3.634-3.986,3.634H9.355V111.284z M11.676,114.262c0.496-0.224,0.864-0.688,0.864-1.393s-0.368-1.168-0.864-1.393
		c-0.305-0.128-0.528-0.176-0.896-0.192v3.17C11.147,114.438,11.371,114.39,11.676,114.262z M15.502,113.43v-1.393l2.721,1.024
		v2.192L15.502,113.43z"/>
	<path fill="#FFFFFF" d="M5.737,121.733c0-1.664,0.896-3.729,4.274-3.729c3.377,0,4.258,2.065,4.258,3.729
		c0,1.153-0.353,2.018-1.121,2.754l-1.408-1.409c0.464-0.432,0.656-0.8,0.656-1.345c0-0.496-0.176-0.88-0.545-1.185
		c-0.4-0.319-0.96-0.464-1.84-0.464c-0.881,0-1.457,0.145-1.857,0.464c-0.368,0.305-0.544,0.688-0.544,1.185
		c0,0.545,0.192,0.913,0.656,1.345l-1.393,1.409C6.105,123.751,5.737,122.887,5.737,121.733z"/>
	<path fill="#FFFFFF" d="M6.762,131.574c-0.544-0.512-1.024-1.36-1.024-2.593s0.48-2.065,1.024-2.577
		c0.785-0.752,1.729-0.944,3.25-0.944c1.504,0,2.448,0.192,3.232,0.944c0.545,0.512,1.025,1.345,1.025,2.577
		s-0.48,2.081-1.025,2.593c-0.784,0.752-1.729,0.944-3.232,0.944C8.49,132.519,7.547,132.326,6.762,131.574z M12.027,129.958
		c0.24-0.24,0.369-0.561,0.369-0.977s-0.129-0.721-0.369-0.961c-0.432-0.432-1.152-0.479-2.016-0.479
		c-0.865,0-1.602,0.048-2.033,0.479c-0.24,0.24-0.368,0.545-0.368,0.961s0.128,0.736,0.368,0.977
		c0.432,0.432,1.168,0.479,2.033,0.479C10.875,130.438,11.596,130.39,12.027,129.958z"/>
	<path fill="#FFFFFF" d="M5.834,136.854c0-1.713,1.2-2.433,2.385-2.433h9.012v2.08H8.347c-0.497,0-0.753,0.208-0.753,0.736v0.801
		h-1.76V136.854z"/>
	<path fill="#FFFFFF" d="M9.355,140.933c-1.072,0-1.857,0.656-1.857,1.825c0,0.912,0.256,1.36,0.785,1.889l-1.233,1.265
		c-0.849-0.849-1.313-1.665-1.313-3.169c0-1.97,0.896-3.858,4.274-3.858c2.721,0,4.258,1.473,4.258,3.634
		c0,2.321-1.697,3.634-3.986,3.634H9.355V140.933z M11.676,143.91c0.496-0.224,0.864-0.688,0.864-1.393s-0.368-1.168-0.864-1.393
		c-0.305-0.128-0.528-0.176-0.896-0.192v3.17C11.147,144.086,11.371,144.038,11.676,143.91z"/>
</g>
<g>
	<path fill="#FFFFFF" d="M7.51,166.7c-0.531-0.513-0.73-1.125-0.73-1.81c0-0.702,0.253-1.278,0.703-1.729
		c0.648-0.648,1.449-0.63,2.557-0.63s1.908-0.019,2.557,0.63c0.45,0.45,0.702,1.009,0.702,1.729c0,1.485-0.972,2.242-2.053,2.413
		v-1.261c0.604-0.144,0.937-0.513,0.937-1.152c0-0.342-0.135-0.621-0.342-0.801c-0.271-0.243-0.567-0.307-1.801-0.307
		s-1.539,0.063-1.81,0.307c-0.207,0.18-0.333,0.459-0.333,0.801c0,0.378,0.135,0.685,0.359,0.892
		c0.234,0.207,0.522,0.288,0.855,0.288h0.243v-1.18h1.044v2.422H9.463C8.535,167.313,7.978,167.15,7.51,166.7z"/>
	<path fill="#FFFFFF" d="M6.834,168.445h1.332v1.341H6.834V168.445z"/>
	<path fill="#FFFFFF" d="M6.834,173.232h6.41v1.252H7.95v2.907H6.834V173.232z"/>
	<path fill="#FFFFFF" d="M7.355,181.559c-0.306-0.288-0.576-0.766-0.576-1.459s0.271-1.161,0.576-1.449
		c0.441-0.423,0.973-0.531,1.828-0.531c0.846,0,1.377,0.108,1.818,0.531c0.307,0.288,0.576,0.756,0.576,1.449
		s-0.27,1.171-0.576,1.459c-0.441,0.423-0.973,0.531-1.818,0.531C8.328,182.09,7.797,181.981,7.355,181.559z M10.318,180.649
		c0.135-0.136,0.207-0.315,0.207-0.55c0-0.233-0.072-0.405-0.207-0.54c-0.243-0.243-0.648-0.27-1.135-0.27s-0.9,0.026-1.143,0.27
		c-0.136,0.135-0.207,0.307-0.207,0.54c0,0.234,0.071,0.414,0.207,0.55c0.242,0.243,0.656,0.27,1.143,0.27
		S10.075,180.893,10.318,180.649z"/>
	<path fill="#FFFFFF" d="M6.834,185.932H9.67c0.639,0,0.855-0.405,0.855-0.774s-0.217-0.783-0.855-0.783H6.834v-1.17h4.69v1.144
		h-0.433c0.324,0.306,0.486,0.738,0.486,1.17c0,0.469-0.152,0.847-0.414,1.107c-0.378,0.378-0.818,0.478-1.332,0.478H6.834V185.932z
		"/>
	<path fill="#FFFFFF" d="M5.061,189.981c0-0.72,0.145-1.215,0.612-1.701l0.737,0.729c-0.252,0.261-0.359,0.521-0.359,0.918
		c0,0.702,0.495,0.945,0.973,0.945H7.5c-0.342-0.306-0.468-0.657-0.468-1.116s0.153-0.855,0.414-1.116
		c0.44-0.441,1.044-0.478,1.863-0.478s1.413,0.036,1.854,0.478c0.262,0.261,0.414,0.666,0.414,1.125
		c0,0.495-0.135,0.819-0.495,1.144h0.441v1.134h-4.52C5.88,192.043,5.061,191.242,5.061,189.981z M10.525,190.099
		c0-0.693-0.595-0.765-1.216-0.765s-1.224,0.071-1.224,0.765s0.603,0.774,1.224,0.774S10.525,190.792,10.525,190.099z"/>
	<path fill="#FFFFFF" d="M6.834,196.048h2.863c0.621,0,0.828-0.396,0.828-0.765s-0.217-0.757-0.828-0.757H6.834v-1.17h6.41v1.17
		h-2.152c0.324,0.315,0.486,0.712,0.486,1.126c0,1.026-0.72,1.566-1.711,1.566H6.834V196.048z"/>
	<path fill="#FFFFFF" d="M6.834,198.478h4.69v1.17h-4.69V198.478z M12.326,198.46h0.953v1.197h-0.953V198.46z"/>
	<path fill="#FFFFFF" d="M6.168,203.481v-1.099l7.742,2.565v1.099L6.168,203.481z"/>
	<path fill="#FFFFFF" d="M6.834,212.635l3.934-2.538H6.834v-1.252h6.41v1.116L9.318,212.5h3.926v1.251h-6.41V212.635z"/>
	<path fill="#FFFFFF" d="M6.834,215.109h1.332v1.341H6.834V215.109z"/>
	<path fill="#FFFFFF" d="M7.51,223.849c-0.531-0.513-0.73-1.125-0.73-1.81c0-0.702,0.253-1.278,0.703-1.729
		c0.648-0.648,1.449-0.63,2.557-0.63s1.908-0.019,2.557,0.63c0.45,0.45,0.702,1.009,0.702,1.729c0,1.485-0.972,2.242-2.053,2.413
		v-1.261c0.604-0.144,0.937-0.513,0.937-1.152c0-0.342-0.135-0.621-0.342-0.801c-0.271-0.243-0.567-0.307-1.801-0.307
		s-1.539,0.063-1.81,0.307c-0.207,0.18-0.333,0.459-0.333,0.801c0,0.378,0.135,0.685,0.359,0.892
		c0.234,0.207,0.522,0.288,0.855,0.288h0.243v-1.18h1.044v2.422H9.463C8.535,224.461,7.978,224.299,7.51,223.849z"/>
	<path fill="#FFFFFF" d="M6.834,228.34h0.432c-0.324-0.307-0.486-0.738-0.486-1.171c0-0.468,0.154-0.846,0.415-1.107
		c0.378-0.378,0.819-0.477,1.332-0.477h2.998v1.17H8.688c-0.64,0-0.854,0.405-0.854,0.774s0.215,0.783,0.854,0.783h2.836v1.17h-4.69
		V228.34z"/>
	<path fill="#FFFFFF" d="M6.834,230.796h4.69v1.17h-4.69V230.796z M12.326,230.778h0.953v1.197h-0.953V230.778z"/>
	<path fill="#FFFFFF" d="M7.203,236.719c-0.262-0.262-0.424-0.685-0.424-1.144c0-0.495,0.136-0.847,0.496-1.17H6.834v-1.135h6.41
		v1.17H11.11c0.342,0.307,0.468,0.657,0.468,1.135c0,0.459-0.162,0.882-0.423,1.144c-0.468,0.468-1.27,0.477-1.972,0.477
		S7.672,237.187,7.203,236.719z M10.525,235.233c0-0.702-0.576-0.793-1.342-0.793s-1.35,0.091-1.35,0.793s0.584,0.792,1.35,0.792
		S10.525,235.936,10.525,235.233z"/>
	<path fill="#FFFFFF" d="M8.814,239.229c-0.604,0-1.044,0.369-1.044,1.026c0,0.514,0.144,0.766,0.44,1.063l-0.693,0.711
		c-0.477-0.477-0.738-0.936-0.738-1.782c0-1.107,0.505-2.17,2.404-2.17c1.531,0,2.395,0.828,2.395,2.044
		c0,1.306-0.954,2.044-2.241,2.044H8.814V239.229z M10.12,240.903c0.278-0.126,0.485-0.387,0.485-0.783s-0.207-0.657-0.485-0.783
		c-0.171-0.072-0.298-0.099-0.505-0.108v1.783C9.822,241.002,9.949,240.976,10.12,240.903z"/>
	<path fill="#FFFFFF" d="M10.246,245.79c0.18-0.181,0.279-0.333,0.279-0.621c0-0.36-0.271-0.757-0.865-0.757H6.834v-1.17h4.69v1.144
		h-0.45c0.27,0.225,0.504,0.675,0.504,1.179c0,0.46-0.117,0.783-0.441,1.107L10.246,245.79z"/>
	<path fill="#FFFFFF" d="M6.834,248.805c0-0.955,0.676-1.359,1.342-1.359h2.322v-0.495h0.891v0.495h1.387v1.17h-1.387v0.828h-0.891
		v-0.828h-2.25c-0.271,0-0.424,0.126-0.424,0.405v0.423h-0.99V248.805z"/>
</g>
</svg>
