<?xml version="1.0" encoding="utf-8"?>
<!-- Generator: Adobe Illustrator 16.0.0, SVG Export Plug-In . SVG Version: 6.00 Build 0)  -->
<!DOCTYPE svg PUBLIC "-//W3C//DTD SVG 1.1//EN" "http://www.w3.org/Graphics/SVG/1.1/DTD/svg11.dtd">
<svg version="1.1" id="Calque_1" xmlns="http://www.w3.org/2000/svg" xmlns:xlink="http://www.w3.org/1999/xlink" x="0px" y="0px"
	 width="20px" height="260px" viewBox="0 0 20 260" enable-background="new 0 0 20 260" xml:space="preserve">
<rect fill="#376C84" width="20" height="260"/>
<g>
	<path fill="#FFFFFF" d="M16.584,12.307v1.846h-8.82v5.52h-1.68v-7.365H16.584z"/>
	<path fill="#FFFFFF" d="M10.014,20.797h0.03c2.265,0,4.124,1.604,4.124,3.87c0,2.52-1.979,3.795-4.26,3.795
		c-0.164,0-0.33-0.016-0.51-0.03v-5.82c-1.289,0.195-2.01,1.11-2.01,2.28c0,0.885,0.33,1.515,0.945,2.145l-0.945,1.065
		c-0.9-0.75-1.484-1.785-1.484-3.24C5.904,22.567,7.568,20.797,10.014,20.797z M10.599,26.662c1.17-0.119,2.085-0.81,2.085-2.01
		c0-1.109-0.855-1.89-2.085-2.055V26.662z"/>
	<path fill="#FFFFFF" d="M7.119,29.647l1.23,0.81c-0.646,0.87-0.976,1.785-0.976,2.595c0,0.78,0.33,1.23,0.854,1.23h0.03
		c0.615,0,0.825-0.84,1.11-1.77c0.33-1.171,0.81-2.476,2.324-2.476h0.03c1.5,0,2.415,1.245,2.415,2.82
		c0,0.989-0.346,2.069-0.9,2.909l-1.289-0.72c0.465-0.765,0.75-1.575,0.75-2.234c0-0.705-0.33-1.11-0.78-1.11h-0.03
		c-0.585,0-0.824,0.855-1.125,1.785c-0.359,1.155-0.885,2.46-2.31,2.46h-0.03c-1.665,0-2.49-1.29-2.49-2.94
		C5.934,31.881,6.339,30.637,7.119,29.647z"/>
	<path fill="#FFFFFF" d="M10.014,41.872h0.03c2.265,0,4.124,1.604,4.124,3.87c0,2.52-1.979,3.795-4.26,3.795
		c-0.164,0-0.33-0.016-0.51-0.03v-5.82c-1.289,0.195-2.01,1.11-2.01,2.28c0,0.885,0.33,1.515,0.945,2.145l-0.945,1.065
		c-0.9-0.75-1.484-1.785-1.484-3.24C5.904,43.641,7.568,41.872,10.014,41.872z M10.599,47.736c1.17-0.119,2.085-0.81,2.085-2.01
		c0-1.109-0.855-1.89-2.085-2.055V47.736z"/>
	<path fill="#FFFFFF" d="M14.004,51.367v1.815h-1.215c0.734,0.51,1.379,1.245,1.379,2.475c0,1.785-1.199,2.82-3.029,2.82H6.084
		v-1.815h4.5c1.23,0,1.935-0.615,1.935-1.694c0-1.051-0.735-1.785-1.965-1.785h-4.47v-1.815H14.004z"/>
	<path fill="#FFFFFF" d="M12.443,61.072v-1.005h1.516v1.005h0.584c0.871,0,1.531,0.225,1.951,0.645
		c0.42,0.421,0.629,1.006,0.629,1.785c0,0.63-0.09,1.065-0.209,1.47h-1.53c0.12-0.359,0.194-0.675,0.194-1.064
		c0-0.69-0.375-1.05-1.199-1.05h-0.436v2.1h-1.5v-2.069H6.084v-1.815H12.443z"/>
	<path fill="#FFFFFF" d="M8.363,65.557h0.031c1.709,0,2.549,1.335,2.549,3.27c0,0.885-0.135,1.515-0.33,2.13h0.195
		c1.125,0,1.725-0.689,1.725-1.965c0-0.885-0.194-1.545-0.494-2.265l1.425-0.48c0.39,0.87,0.646,1.726,0.646,2.985
		c0,1.185-0.316,2.069-0.886,2.625c-0.569,0.585-1.409,0.854-2.444,0.854H6.084v-1.77h0.99c-0.645-0.54-1.155-1.365-1.155-2.58
		C5.919,66.876,6.773,65.557,8.363,65.557z M8.934,70.987h0.54c0.181-0.465,0.315-1.08,0.315-1.8c0-1.17-0.495-1.86-1.32-1.86H8.439
		c-0.766,0-1.201,0.675-1.201,1.545C7.238,70.072,7.929,70.987,8.934,70.987z"/>
	<path fill="#FFFFFF" d="M14.004,74.886v1.815h-1.215c0.734,0.51,1.379,1.245,1.379,2.475c0,1.785-1.199,2.82-3.029,2.82H6.084
		v-1.815h4.5c1.23,0,1.935-0.615,1.935-1.694c0-1.051-0.735-1.785-1.965-1.785h-4.47v-1.815H14.004z"/>
	<path fill="#FFFFFF" d="M8.273,84.561h4.17v-1.005h1.561v1.005h2.175v1.815h-2.175v2.13h-1.561v-2.13H8.559
		c-0.705,0-0.99,0.359-0.99,0.975c0,0.405,0.09,0.765,0.271,1.125H6.354c-0.254-0.45-0.404-0.945-0.404-1.635
		C5.949,85.506,6.534,84.561,8.273,84.561z"/>
	<path fill="#FFFFFF" d="M7.119,89.707l1.23,0.81c-0.646,0.87-0.976,1.785-0.976,2.595c0,0.78,0.33,1.23,0.854,1.23h0.03
		c0.615,0,0.825-0.84,1.11-1.771c0.33-1.17,0.81-2.475,2.324-2.475h0.03c1.5,0,2.415,1.245,2.415,2.82
		c0,0.989-0.346,2.069-0.9,2.909l-1.289-0.72c0.465-0.765,0.75-1.574,0.75-2.234c0-0.705-0.33-1.11-0.78-1.11h-0.03
		c-0.585,0-0.824,0.855-1.125,1.785c-0.359,1.155-0.885,2.46-2.31,2.46h-0.03c-1.665,0-2.49-1.29-2.49-2.94
		C5.934,91.941,6.339,90.697,7.119,89.707z"/>
	<path fill="#FFFFFF" d="M7.119,101.721l1.23,0.81c-0.646,0.87-0.976,1.785-0.976,2.595c0,0.78,0.33,1.23,0.854,1.23h0.03
		c0.615,0,0.825-0.84,1.11-1.77c0.33-1.171,0.81-2.476,2.324-2.476h0.03c1.5,0,2.415,1.245,2.415,2.82
		c0,0.989-0.346,2.069-0.9,2.909l-1.289-0.72c0.465-0.765,0.75-1.575,0.75-2.234c0-0.705-0.33-1.11-0.78-1.11h-0.03
		c-0.585,0-0.824,0.855-1.125,1.785c-0.359,1.155-0.885,2.46-2.31,2.46h-0.03c-1.665,0-2.49-1.29-2.49-2.94
		C5.934,103.956,6.339,102.711,7.119,101.721z"/>
	<path fill="#FFFFFF" d="M8.964,109.791h5.04v1.815h-4.5c-1.23,0-1.92,0.614-1.92,1.694c0,1.05,0.72,1.785,1.949,1.785h4.471v1.83
		h-7.92v-1.83h1.23c-0.75-0.51-1.396-1.245-1.396-2.475C5.919,110.826,7.119,109.791,8.964,109.791z"/>
	<path fill="#FFFFFF" d="M14.004,119.18v1.815h-1.785c1.186,0.495,1.995,1.41,1.936,2.805h-1.92v-0.105
		c0-1.59-1.035-2.699-3.136-2.699H6.084v-1.815H14.004z"/>
	<path fill="#FFFFFF" d="M10.029,124.746h0.029c2.625,0,4.109,1.784,4.109,3.675c0,1.305-0.645,2.13-1.395,2.699h4.26v1.815H6.084
		v-1.815h1.32c-0.825-0.585-1.485-1.409-1.485-2.699C5.919,126.56,7.404,124.746,10.029,124.746z M10.029,131.15h0.029
		c1.53,0,2.535-1.08,2.535-2.295c0-1.245-0.96-2.28-2.535-2.28h-0.029c-1.53,0-2.535,1.051-2.535,2.28
		C7.494,130.07,8.514,131.15,10.029,131.15z"/>
	<path fill="#FFFFFF" d="M9.999,134.781h0.03c2.265,0,4.139,1.8,4.139,4.229s-1.844,4.215-4.109,4.215h-0.029
		c-2.25,0-4.125-1.8-4.125-4.244C5.904,136.566,7.749,134.781,9.999,134.781z M9.999,141.411h0.03c1.395,0,2.549-1.005,2.549-2.43
		c0-1.455-1.139-2.386-2.52-2.386h-0.029c-1.381,0-2.535,1.005-2.535,2.415C7.494,140.48,8.634,141.411,9.999,141.411z"/>
	<path fill="#FFFFFF" d="M8.964,144.98h5.04v1.815h-4.5c-1.23,0-1.92,0.614-1.92,1.694c0,1.05,0.72,1.785,1.949,1.785h4.471v1.83
		h-7.92v-1.83h1.23c-0.75-0.51-1.396-1.245-1.396-2.475C5.919,146.015,7.119,144.98,8.964,144.98z"/>
	<path fill="#FFFFFF" d="M10.014,153.936h0.03c2.265,0,4.124,1.604,4.124,3.87c0,2.52-1.979,3.795-4.26,3.795
		c-0.164,0-0.33-0.016-0.51-0.03v-5.82c-1.289,0.195-2.01,1.11-2.01,2.28c0,0.885,0.33,1.515,0.945,2.145l-0.945,1.065
		c-0.9-0.75-1.484-1.785-1.484-3.24C5.904,155.706,7.568,153.936,10.014,153.936z M10.599,159.8c1.17-0.119,2.085-0.81,2.085-2.01
		c0-1.109-0.855-1.89-2.085-2.055V159.8z M17.469,158.616l-0.735,1.65l-1.725-1.846v-1.364L17.469,158.616z"/>
	<path fill="#FFFFFF" d="M7.119,162.786l1.23,0.81c-0.646,0.87-0.976,1.785-0.976,2.595c0,0.78,0.33,1.23,0.854,1.23h0.03
		c0.615,0,0.825-0.84,1.11-1.77c0.33-1.171,0.81-2.476,2.324-2.476h0.03c1.5,0,2.415,1.245,2.415,2.82
		c0,0.989-0.346,2.069-0.9,2.909l-1.289-0.72c0.465-0.765,0.75-1.575,0.75-2.234c0-0.705-0.33-1.11-0.78-1.11h-0.03
		c-0.585,0-0.824,0.855-1.125,1.785c-0.359,1.155-0.885,2.46-2.31,2.46h-0.03c-1.665,0-2.49-1.29-2.49-2.94
		C5.934,165.02,6.339,163.776,7.119,162.786z"/>
</g>
<g>
	<path fill="#DCA25A" d="M7.011,181.314l0.757,0.729c-0.478,0.369-0.748,0.738-0.748,1.27c0,0.595,0.396,0.999,1.242,0.999h4.123
		v1.144H8.227c-0.748,0-1.306-0.225-1.675-0.594s-0.558-0.9-0.558-1.53C5.994,182.358,6.443,181.728,7.011,181.314z"/>
	<path fill="#DCA25A" d="M7.326,186.642v1.197H6.084v-1.197H7.326z"/>
	<path fill="#DCA25A" d="M9.217,188.622h0.018c1.791,0,3.259,1.341,3.259,3.25c0,1.161-0.405,1.863-0.981,2.467l-0.818-0.711
		c0.468-0.505,0.783-1.045,0.783-1.765c0-1.197-0.99-2.08-2.225-2.08H9.234c-1.233,0-2.232,0.873-2.232,2.08
		c0,0.773,0.306,1.27,0.811,1.81l-0.721,0.711c-0.684-0.657-1.116-1.378-1.116-2.557C5.976,189.99,7.406,188.622,9.217,188.622z"/>
	<path fill="#DCA25A" d="M7.326,195.345v1.197H6.084v-1.197H7.326z"/>
	<path fill="#DCA25A" d="M11.359,202.211v-1.998h1.025v5.113h-1.025v-1.999H6.084v-1.116H11.359z"/>
	<path fill="#DCA25A" d="M8.442,205.083H8.46c1.36,0,2.476,0.964,2.476,2.323c0,1.512-1.188,2.277-2.557,2.277
		c-0.099,0-0.197-0.009-0.306-0.018v-3.493c-0.774,0.117-1.206,0.666-1.206,1.368c0,0.531,0.197,0.909,0.566,1.287l-0.566,0.64
		c-0.541-0.45-0.892-1.071-0.892-1.944C5.976,206.145,6.975,205.083,8.442,205.083z M8.793,208.603
		c0.703-0.072,1.252-0.486,1.252-1.207c0-0.666-0.514-1.134-1.252-1.232V208.603z"/>
	<path fill="#DCA25A" d="M10.837,210.78v1.089H9.766c0.711,0.297,1.197,0.847,1.161,1.684H9.774v-0.063
		c0-0.954-0.621-1.62-1.882-1.62H6.084v-1.089H10.837z"/>
	<path fill="#DCA25A" d="M10.837,214.497v1.089H9.766c0.711,0.297,1.197,0.847,1.161,1.684H9.774v-0.063
		c0-0.954-0.621-1.62-1.882-1.62H6.084v-1.089H10.837z"/>
	<path fill="#DCA25A" d="M7.452,217.673H7.47c1.026,0,1.53,0.801,1.53,1.963c0,0.531-0.08,0.909-0.197,1.278H8.92
		c0.675,0,1.035-0.414,1.035-1.18c0-0.531-0.117-0.927-0.297-1.359l0.854-0.288c0.234,0.522,0.388,1.035,0.388,1.792
		c0,0.711-0.189,1.242-0.531,1.575c-0.342,0.351-0.847,0.513-1.468,0.513H6.084v-1.062h0.594c-0.387-0.324-0.693-0.819-0.693-1.549
		C5.984,218.465,6.498,217.673,7.452,217.673z M7.794,220.932h0.324c0.108-0.279,0.188-0.648,0.188-1.08
		c0-0.702-0.297-1.116-0.791-1.116H7.497c-0.46,0-0.72,0.405-0.72,0.927C6.777,220.383,7.191,220.932,7.794,220.932z"/>
	<path fill="#DCA25A" d="M6.705,222.884l0.738,0.486c-0.388,0.522-0.586,1.071-0.586,1.558c0,0.468,0.198,0.738,0.514,0.738h0.018
		c0.369,0,0.495-0.504,0.666-1.063c0.198-0.702,0.486-1.485,1.396-1.485h0.018c0.9,0,1.449,0.747,1.449,1.692
		c0,0.594-0.207,1.242-0.54,1.746l-0.774-0.432c0.279-0.459,0.45-0.945,0.45-1.342c0-0.423-0.198-0.666-0.468-0.666H9.567
		c-0.351,0-0.495,0.514-0.675,1.071c-0.217,0.693-0.531,1.477-1.387,1.477H7.488c-1,0-1.494-0.774-1.494-1.765
		C5.994,224.226,6.236,223.479,6.705,222.884z"/>
	<path fill="#DCA25A" d="M6.705,227.303l0.738,0.486c-0.388,0.522-0.586,1.071-0.586,1.558c0,0.468,0.198,0.738,0.514,0.738h0.018
		c0.369,0,0.495-0.504,0.666-1.063c0.198-0.702,0.486-1.485,1.396-1.485h0.018c0.9,0,1.449,0.747,1.449,1.692
		c0,0.594-0.207,1.242-0.54,1.746l-0.774-0.432c0.279-0.459,0.45-0.945,0.45-1.342c0-0.423-0.198-0.666-0.468-0.666H9.567
		c-0.351,0-0.495,0.514-0.675,1.071c-0.217,0.693-0.531,1.477-1.387,1.477H7.488c-1,0-1.494-0.774-1.494-1.765
		C5.994,228.645,6.236,227.898,6.705,227.303z"/>
	<path fill="#DCA25A" d="M10.837,232.262v1.09H6.084v-1.09H10.837z M12.602,232.217v1.171h-1.035v-1.171H12.602z"/>
	<path fill="#DCA25A" d="M8.442,234.512H8.46c1.36,0,2.476,0.964,2.476,2.323c0,1.512-1.188,2.277-2.557,2.277
		c-0.099,0-0.197-0.009-0.306-0.018v-3.493c-0.774,0.117-1.206,0.666-1.206,1.368c0,0.531,0.197,0.909,0.566,1.287l-0.566,0.64
		c-0.541-0.45-0.892-1.071-0.892-1.944C5.976,235.575,6.975,234.512,8.442,234.512z M8.793,238.033
		c0.703-0.072,1.252-0.486,1.252-1.207c0-0.666-0.514-1.134-1.252-1.232V238.033z"/>
	<path fill="#DCA25A" d="M10.837,240.209v1.089H9.766c0.711,0.297,1.197,0.847,1.161,1.684H9.774v-0.063
		c0-0.954-0.621-1.62-1.882-1.62H6.084v-1.089H10.837z"/>
</g>
</svg>
