<?xml version="1.0" encoding="utf-8"?>
<!-- Generator: Adobe Illustrator 16.0.0, SVG Export Plug-In . SVG Version: 6.00 Build 0)  -->
<!DOCTYPE svg PUBLIC "-//W3C//DTD SVG 1.1//EN" "http://www.w3.org/Graphics/SVG/1.1/DTD/svg11.dtd">
<svg version="1.1" id="Calque_1" xmlns="http://www.w3.org/2000/svg" xmlns:xlink="http://www.w3.org/1999/xlink" x="0px" y="0px"
	 width="20px" height="260px" viewBox="0 0 20 260" enable-background="new 0 0 20 260" xml:space="preserve">
<g>
	<path fill="#5A3372" d="M6.583,18.067v-2.493l4.259-2.563v-0.028H6.583v-2.059h10.562v2.787c0,2.087-0.924,3.529-3.18,3.529
		c-1.345,0-2.689-0.742-2.928-2.156L6.583,18.067z M12.284,12.982v0.266c0,1.135,0.336,1.934,1.625,1.934
		c1.303,0,1.555-0.826,1.555-1.919v-0.28H12.284z"/>
	<path fill="#5A3372" d="M9.707,20.262c-0.869,0-1.85,0.337-1.85,1.359c0,0.645,0.393,1.051,0.938,1.316l-0.294,1.807
		c-1.373-0.476-2.143-1.68-2.143-3.123c0-2.129,1.513-3.432,3.6-3.432s3.726,1.106,3.726,3.334c0,2.255-1.667,3.264-3.739,3.264
		H9.707V20.262z M10.926,22.938c0.7-0.098,1.387-0.546,1.387-1.303c0-0.784-0.673-1.219-1.387-1.316V22.938z M16.557,23.609
		l-2.102-2.114l0.616-0.995l2.354,1.682L16.557,23.609z"/>
	<path fill="#5A3372" d="M13.461,27.612H9.734c-0.784,0-1.723,0.126-1.723,1.12s0.938,1.121,1.723,1.121h3.727v1.961H9.412
		c-2.003,0-3.053-1.037-3.053-3.082s1.05-3.082,3.053-3.082h4.049V27.612z"/>
	<path fill="#5A3372" d="M11.836,36.713c0.266-0.279,0.477-0.645,0.477-1.036c0-0.322-0.253-0.645-0.589-0.645
		c-0.504,0-0.645,0.714-0.952,1.415c-0.309,0.715-0.784,1.414-1.976,1.414c-1.526,0-2.437-1.232-2.437-2.675
		c0-0.925,0.42-1.821,1.148-2.423L8.67,33.66c-0.42,0.377-0.798,0.882-0.798,1.456c0,0.435,0.294,0.784,0.742,0.784
		c0.603,0,0.742-0.686,1.036-1.373c0.295-0.686,0.7-1.372,1.808-1.372c1.288,0,2.227,0.896,2.227,2.185
		c0,0.729-0.224,1.653-0.714,2.214L11.836,36.713z"/>
	<path fill="#5A3372" d="M11.836,42.453c0.266-0.28,0.477-0.645,0.477-1.037c0-0.322-0.253-0.645-0.589-0.645
		c-0.504,0-0.645,0.715-0.952,1.416c-0.309,0.714-0.784,1.414-1.976,1.414c-1.526,0-2.437-1.232-2.437-2.676
		c0-0.924,0.42-1.82,1.148-2.423l1.162,0.896c-0.42,0.378-0.798,0.882-0.798,1.456c0,0.436,0.294,0.785,0.742,0.785
		c0.603,0,0.742-0.687,1.036-1.373c0.295-0.686,0.7-1.373,1.808-1.373c1.288,0,2.227,0.896,2.227,2.186
		c0,0.729-0.224,1.652-0.714,2.213L11.836,42.453z"/>
	<path fill="#5A3372" d="M6.583,46.722v-1.961h6.878v1.961H6.583z M16.347,46.904c-0.645,0-1.163-0.519-1.163-1.163
		c0-0.644,0.519-1.163,1.163-1.163c0.63,0,1.162,0.52,1.162,1.163C17.509,46.386,16.977,46.904,16.347,46.904z"/>
	<path fill="#5A3372" d="M6.583,50.404v-1.961h5.225v-0.673h1.653v0.673h2.325v1.961h-2.325v1.204h-1.653v-1.204H6.583z"/>
	<path fill="#5A3372" d="M9.707,53.623c-0.869,0-1.85,0.336-1.85,1.359c0,0.644,0.393,1.05,0.938,1.316l-0.294,1.807
		c-1.373-0.477-2.143-1.681-2.143-3.123c0-2.13,1.513-3.433,3.6-3.433s3.726,1.106,3.726,3.334c0,2.255-1.667,3.264-3.739,3.264
		H9.707V53.623z M10.926,56.299c0.7-0.098,1.387-0.547,1.387-1.303c0-0.785-0.673-1.219-1.387-1.316V56.299z"/>
	<path fill="#5A3372" d="M9.707,64.684c-0.869,0-1.85,0.336-1.85,1.358c0,0.644,0.393,1.05,0.938,1.316l-0.294,1.808
		c-1.373-0.477-2.143-1.682-2.143-3.124c0-2.13,1.513-3.433,3.6-3.433s3.726,1.107,3.726,3.334c0,2.256-1.667,3.264-3.739,3.264
		H9.707V64.684z M10.926,67.358c0.7-0.098,1.387-0.546,1.387-1.303c0-0.784-0.673-1.218-1.387-1.316V67.358z"/>
	<path fill="#5A3372" d="M6.583,72.313v-1.961h5.225V69.68h1.653v0.672h2.325v1.961h-2.325v1.205h-1.653v-1.205H6.583z"/>
	<path fill="#5A3372" d="M12.746,79.957v0.027c0.603,0.393,0.938,0.98,0.938,1.709c0,0.281-0.069,0.561-0.168,0.813l-1.821-0.238
		c0.169-0.238,0.253-0.518,0.253-0.813c0-1.358-1.205-1.498-2.27-1.498H6.583v-1.961h6.878v1.961H12.746z"/>
	<path fill="#5A3372" d="M9.707,84.717c-0.869,0-1.85,0.336-1.85,1.358c0,0.644,0.393,1.05,0.938,1.316l-0.294,1.808
		c-1.373-0.477-2.143-1.682-2.143-3.124c0-2.13,1.513-3.433,3.6-3.433s3.726,1.107,3.726,3.334c0,2.256-1.667,3.264-3.739,3.264
		H9.707V84.717z M10.926,87.392c0.7-0.098,1.387-0.546,1.387-1.303c0-0.784-0.673-1.218-1.387-1.316V87.392z M16.557,88.064
		l-2.102-2.115l0.616-0.994l2.354,1.68L16.557,88.064z"/>
	<path fill="#5A3372" d="M11.836,93.678c0.266-0.281,0.477-0.645,0.477-1.037c0-0.322-0.253-0.645-0.589-0.645
		c-0.504,0-0.645,0.715-0.952,1.415c-0.309,0.714-0.784,1.415-1.976,1.415c-1.526,0-2.437-1.233-2.437-2.676
		c0-0.925,0.42-1.821,1.148-2.424l1.162,0.896c-0.42,0.379-0.798,0.883-0.798,1.457c0,0.435,0.294,0.785,0.742,0.785
		c0.603,0,0.742-0.688,1.036-1.373c0.295-0.687,0.7-1.373,1.808-1.373c1.288,0,2.227,0.896,2.227,2.186
		c0,0.729-0.224,1.652-0.714,2.213L11.836,93.678z"/>
	<path fill="#5A3372" d="M6.583,97.946v-1.961h6.878v1.961H6.583z M16.347,98.129c-0.645,0-1.163-0.519-1.163-1.163
		c0-0.644,0.519-1.163,1.163-1.163c0.63,0,1.162,0.52,1.162,1.163C17.509,97.61,16.977,98.129,16.347,98.129z"/>
	<path fill="#5A3372" d="M6.583,101.391v-1.962h11.878v1.962H6.583z"/>
	<path fill="#5A3372" d="M6.583,104.834v-1.961h6.878v1.961H6.583z M16.347,105.016c-0.645,0-1.163-0.518-1.163-1.162
		s0.519-1.162,1.163-1.162c0.63,0,1.162,0.518,1.162,1.162S16.977,105.016,16.347,105.016z"/>
	<path fill="#5A3372" d="M9.707,107.9c-0.869,0-1.85,0.336-1.85,1.358c0,0.644,0.393,1.05,0.938,1.316l-0.294,1.808
		c-1.373-0.477-2.143-1.682-2.143-3.124c0-2.13,1.513-3.433,3.6-3.433s3.726,1.107,3.726,3.334c0,2.256-1.667,3.264-3.739,3.264
		H9.707V107.9z M10.926,110.575c0.7-0.098,1.387-0.546,1.387-1.303c0-0.784-0.673-1.218-1.387-1.316V110.575z"/>
	<path fill="#5A3372" d="M12.83,115.292v0.028c0.616,0.406,0.854,1.092,0.854,1.793c0,1.849-1.303,2.381-2.899,2.381H6.583v-1.961
		h3.642c0.827,0,1.892,0.042,1.892-1.064c0-1.163-1.303-1.177-2.129-1.177H6.583v-1.962h6.878v1.962H12.83z"/>
	<path fill="#5A3372" d="M11.359,125.569c0.421-0.421,0.673-0.841,0.673-1.442c0-1.107-1.037-1.737-2.045-1.737
		c-1.079,0-1.976,0.687-1.976,1.808c0,0.531,0.267,1.021,0.658,1.372H6.779c-0.294-0.532-0.42-1.093-0.42-1.694
		c0-2.031,1.666-3.475,3.642-3.475c2.045,0,3.684,1.499,3.684,3.572c0,0.546-0.14,1.121-0.434,1.597H11.359z"/>
	<path fill="#5A3372" d="M9.707,128.367c-0.869,0-1.85,0.336-1.85,1.359c0,0.644,0.393,1.05,0.938,1.316l-0.294,1.807
		c-1.373-0.477-2.143-1.681-2.143-3.123c0-2.13,1.513-3.433,3.6-3.433s3.726,1.106,3.726,3.334c0,2.255-1.667,3.264-3.739,3.264
		H9.707V128.367z M10.926,131.043c0.7-0.098,1.387-0.547,1.387-1.303c0-0.785-0.673-1.219-1.387-1.316V131.043z"/>
	<path fill="#5A3372" d="M11.836,141.375c0.266-0.281,0.477-0.645,0.477-1.037c0-0.322-0.253-0.645-0.589-0.645
		c-0.504,0-0.645,0.715-0.952,1.415c-0.309,0.714-0.784,1.415-1.976,1.415c-1.526,0-2.437-1.233-2.437-2.676
		c0-0.925,0.42-1.821,1.148-2.424l1.162,0.896c-0.42,0.379-0.798,0.883-0.798,1.457c0,0.435,0.294,0.785,0.742,0.785
		c0.603,0,0.742-0.688,1.036-1.373c0.295-0.687,0.7-1.373,1.808-1.373c1.288,0,2.227,0.896,2.227,2.186
		c0,0.729-0.224,1.652-0.714,2.213L11.836,141.375z"/>
	<path fill="#5A3372" d="M11.359,148.263c0.421-0.421,0.673-0.841,0.673-1.442c0-1.107-1.037-1.737-2.045-1.737
		c-1.079,0-1.976,0.687-1.976,1.808c0,0.531,0.267,1.021,0.658,1.372H6.779c-0.294-0.532-0.42-1.093-0.42-1.694
		c0-2.031,1.666-3.475,3.642-3.475c2.045,0,3.684,1.499,3.684,3.572c0,0.546-0.14,1.121-0.434,1.597H11.359z"/>
	<path fill="#5A3372" d="M10.015,156.229c-2.129,0-3.655-1.457-3.655-3.614s1.526-3.613,3.655-3.613c2.144,0,3.67,1.471,3.67,3.613
		C13.685,154.759,12.158,156.229,10.015,156.229z M10.015,150.99c-0.924,0-1.919,0.617-1.919,1.625c0,1.009,0.995,1.625,1.919,1.625
		c0.953,0,1.934-0.616,1.934-1.625C11.948,151.607,10.968,150.99,10.015,150.99z"/>
	<path fill="#5A3372" d="M6.583,159.11v-1.961h11.878v1.961H6.583z"/>
	<path fill="#5A3372" d="M6.583,166.996v-1.934h0.63v-0.027c-0.546-0.421-0.854-1.149-0.854-1.863c0-2.018,1.835-3.166,3.697-3.166
		c1.821,0,3.628,1.163,3.628,3.138c0,0.715-0.308,1.443-0.868,1.919h0.645v1.934H6.583z M10.029,165.259
		c0.924,0,1.919-0.63,1.919-1.639s-0.995-1.625-1.919-1.625c-0.925,0-1.934,0.616-1.934,1.625S9.104,165.259,10.029,165.259z"/>
	<path fill="#5A3372" d="M6.583,170.465v-1.961h6.878v1.961H6.583z M16.347,170.646c-0.645,0-1.163-0.519-1.163-1.162
		c0-0.645,0.519-1.163,1.163-1.163c0.63,0,1.162,0.519,1.162,1.163C17.509,170.128,16.977,170.646,16.347,170.646z"/>
	<path fill="#5A3372" d="M12.746,173.908v0.028c0.603,0.393,0.938,0.98,0.938,1.709c0,0.28-0.069,0.561-0.168,0.813l-1.821-0.238
		c0.169-0.238,0.253-0.519,0.253-0.813c0-1.358-1.205-1.499-2.27-1.499H6.583v-1.961h6.878v1.961H12.746z"/>
	<path fill="#5A3372" d="M9.707,178.668c-0.869,0-1.85,0.336-1.85,1.358c0,0.645,0.393,1.051,0.938,1.317l-0.294,1.807
		c-1.373-0.477-2.143-1.681-2.143-3.124c0-2.129,1.513-3.432,3.6-3.432s3.726,1.106,3.726,3.334c0,2.255-1.667,3.264-3.739,3.264
		H9.707V178.668z M10.926,181.344c0.7-0.099,1.387-0.547,1.387-1.303c0-0.785-0.673-1.219-1.387-1.317V181.344z"/>
	<path fill="#5A3372" d="M11.836,187.629c0.266-0.28,0.477-0.645,0.477-1.037c0-0.322-0.253-0.644-0.589-0.644
		c-0.504,0-0.645,0.714-0.952,1.414c-0.309,0.715-0.784,1.415-1.976,1.415c-1.526,0-2.437-1.232-2.437-2.676
		c0-0.924,0.42-1.82,1.148-2.423l1.162,0.896c-0.42,0.378-0.798,0.883-0.798,1.457c0,0.434,0.294,0.784,0.742,0.784
		c0.603,0,0.742-0.687,1.036-1.373c0.295-0.687,0.7-1.372,1.808-1.372c1.288,0,2.227,0.896,2.227,2.185
		c0,0.729-0.224,1.653-0.714,2.213L11.836,187.629z"/>
	<path fill="#5A3372" d="M8.456,197.027c0.165-0.165,0.264-0.329,0.264-0.565c0-0.435-0.406-0.682-0.802-0.682
		c-0.423,0-0.774,0.27-0.774,0.709c0,0.209,0.104,0.4,0.258,0.538H6.66c-0.115-0.209-0.165-0.429-0.165-0.665
		c0-0.796,0.653-1.362,1.429-1.362c0.802,0,1.444,0.588,1.444,1.401c0,0.214-0.055,0.439-0.171,0.626H8.456z"/>
	<path fill="#5A3372" d="M11.241,198.277H9.055v0.011c0.22,0.159,0.313,0.429,0.313,0.703c0,0.725-0.511,0.934-1.138,0.934H6.583
		v-0.769h1.429c0.323,0,0.741,0.017,0.741-0.418c0-0.456-0.511-0.461-0.835-0.461H6.583v-0.77h4.658V198.277z"/>
	<path fill="#5A3372" d="M7.808,201.1c-0.34,0-0.725,0.132-0.725,0.532c0,0.253,0.153,0.412,0.368,0.517l-0.115,0.709
		c-0.539-0.187-0.841-0.659-0.841-1.226c0-0.834,0.593-1.346,1.412-1.346c0.818,0,1.461,0.435,1.461,1.308
		c0,0.885-0.653,1.28-1.467,1.28H7.808V201.1z M8.286,202.148c0.274-0.038,0.544-0.214,0.544-0.511c0-0.308-0.264-0.478-0.544-0.517
		V202.148z"/>
	<path fill="#5A3372" d="M7.231,205.514H6.583v-2.561l2.049,1.379v-1.164H9.28v2.434l-2.049-1.368V205.514z"/>
	<path fill="#5A3372" d="M6.583,208.238v-0.77h4.658v0.77H6.583z"/>
	<path fill="#5A3372" d="M10.752,209.976l-1.647-0.791l0.061-0.511l1.67,0.599L10.752,209.976z"/>
	<path fill="#5A3372" d="M7.808,211.032c-0.34,0-0.725,0.132-0.725,0.533c0,0.252,0.153,0.411,0.368,0.516l-0.115,0.709
		c-0.539-0.187-0.841-0.659-0.841-1.225c0-0.836,0.593-1.347,1.412-1.347c0.818,0,1.461,0.435,1.461,1.308
		c0,0.885-0.653,1.28-1.467,1.28H7.808V211.032z M8.286,212.081c0.274-0.038,0.544-0.214,0.544-0.511
		c0-0.308-0.264-0.478-0.544-0.517V212.081z"/>
	<path fill="#5A3372" d="M9.033,213.936v0.011c0.241,0.159,0.335,0.429,0.335,0.703c0,0.725-0.511,0.934-1.138,0.934H6.583v-0.769
		h1.429c0.323,0,0.741,0.017,0.741-0.418c0-0.456-0.511-0.461-0.835-0.461H6.583v-0.77H9.28v0.77H9.033z"/>
	<path fill="#5A3372" d="M6.583,216.934v-0.77h2.049v-0.258H9.28v0.258h0.791c0.659,0,1.235,0.275,1.235,1.017
		c0,0.126-0.027,0.253-0.088,0.368h-0.687c0.05-0.099,0.094-0.198,0.094-0.313c0-0.34-0.445-0.302-0.665-0.302H9.28v0.615H8.632
		v-0.615H6.583z"/>
	<path fill="#5A3372" d="M6.583,220.352v-0.758H6.83v-0.011c-0.214-0.165-0.335-0.451-0.335-0.73c0-0.791,0.72-1.242,1.45-1.242
		c0.714,0,1.423,0.456,1.423,1.23c0,0.28-0.121,0.566-0.341,0.753H9.28v0.758H6.583z M7.935,219.671
		c0.362,0,0.752-0.247,0.752-0.643s-0.39-0.638-0.752-0.638s-0.759,0.242-0.759,0.638S7.572,219.671,7.935,219.671z"/>
	<path fill="#5A3372" d="M9.033,221.68v0.011c0.241,0.159,0.335,0.429,0.335,0.703c0,0.725-0.511,0.934-1.138,0.934H6.583v-0.769
		h1.429c0.323,0,0.741,0.017,0.741-0.418c0-0.456-0.511-0.461-0.835-0.461H6.583v-0.77H9.28v0.77H9.033z"/>
	<path fill="#5A3372" d="M6.583,224.742v-0.769h2.049v-0.264H9.28v0.264h0.912v0.769H9.28v0.473H8.632v-0.473H6.583z"/>
	<path fill="#5A3372" d="M6.836,228.762v-0.011c-0.22-0.159-0.341-0.445-0.341-0.725c0-0.791,0.72-1.242,1.45-1.242
		c0.714,0,1.423,0.456,1.423,1.23c0,0.28-0.121,0.566-0.335,0.736v0.011h2.208v0.77H6.583v-0.77H6.836z M7.935,228.839
		c0.362,0,0.752-0.241,0.752-0.637s-0.39-0.638-0.752-0.638s-0.759,0.242-0.759,0.638S7.572,228.839,7.935,228.839z"/>
	<path fill="#5A3372" d="M7.808,230.705c-0.34,0-0.725,0.132-0.725,0.532c0,0.253,0.153,0.412,0.368,0.517l-0.115,0.709
		c-0.539-0.187-0.841-0.659-0.841-1.226c0-0.834,0.593-1.346,1.412-1.346c0.818,0,1.461,0.435,1.461,1.308
		c0,0.885-0.653,1.28-1.467,1.28H7.808V230.705z M8.286,231.754c0.274-0.038,0.544-0.214,0.544-0.511
		c0-0.308-0.264-0.478-0.544-0.517V231.754z"/>
	<path fill="#5A3372" d="M9.038,235.198v0.011c0.215,0.148,0.33,0.412,0.33,0.659c0,0.335-0.138,0.599-0.423,0.774
		c0.264,0.165,0.423,0.473,0.423,0.786c0,0.687-0.517,0.856-1.104,0.856H6.583v-0.769H8c0.264,0,0.753,0.016,0.753-0.363
		c0-0.417-0.565-0.412-0.846-0.412H6.583v-0.769h1.368c0.264,0,0.802,0.033,0.802-0.368c0-0.429-0.561-0.406-0.846-0.406H6.583
		v-0.77H9.28v0.77H9.038z"/>
	<path fill="#5A3372" d="M6.583,239.647v-0.769H9.28v0.769H6.583z M10.412,239.719c-0.253,0-0.456-0.203-0.456-0.456
		c0-0.252,0.203-0.455,0.456-0.455c0.247,0,0.455,0.203,0.455,0.455C10.867,239.516,10.659,239.719,10.412,239.719z"/>
	<path fill="#5A3372" d="M6.748,242.77c-0.879,0-1.604-0.297-1.604-1.308c0-0.659,0.401-1.323,1.121-1.362v0.813
		c-0.286,0.038-0.473,0.241-0.473,0.532c0,0.544,0.478,0.556,0.885,0.556h0.176v-0.012c-0.22-0.164-0.357-0.45-0.357-0.736
		c0-0.791,0.692-1.214,1.417-1.214c0.742,0,1.456,0.451,1.456,1.253c0,0.27-0.138,0.544-0.347,0.697v0.012H9.28v0.769H6.748z
		 M7.929,242.094c0.362,0,0.758-0.241,0.758-0.637s-0.396-0.638-0.758-0.638s-0.753,0.242-0.753,0.638S7.566,242.094,7.929,242.094z
		"/>
	<path fill="#5A3372" d="M9,244.092v0.011c0.236,0.154,0.368,0.385,0.368,0.67c0,0.11-0.027,0.22-0.066,0.318l-0.714-0.093
		c0.066-0.094,0.099-0.203,0.099-0.318c0-0.533-0.472-0.588-0.89-0.588H6.583v-0.77H9.28v0.77H9z"/>
	<path fill="#5A3372" d="M6.583,247.89v-0.758H6.83v-0.011c-0.214-0.165-0.335-0.45-0.335-0.73c0-0.791,0.72-1.242,1.45-1.242
		c0.714,0,1.423,0.456,1.423,1.23c0,0.28-0.121,0.566-0.341,0.753H9.28v0.758H6.583z M7.935,247.209
		c0.362,0,0.752-0.247,0.752-0.643s-0.39-0.638-0.752-0.638s-0.759,0.242-0.759,0.638S7.572,247.209,7.935,247.209z"/>
	<path fill="#5A3372" d="M9.033,249.218v0.011c0.241,0.159,0.335,0.429,0.335,0.703c0,0.726-0.511,0.934-1.138,0.934H6.583v-0.769
		h1.429c0.323,0,0.741,0.017,0.741-0.418c0-0.456-0.511-0.461-0.835-0.461H6.583v-0.77H9.28v0.77H9.033z"/>
	<path fill="#5A3372" d="M6.583,252.28v-0.769h2.049v-0.264H9.28v0.264h0.912v0.769H9.28v0.473H8.632v-0.473H6.583z"/>
	<path fill="#5A3372" d="M8.643,254.31c0.104-0.11,0.188-0.253,0.188-0.406c0-0.127-0.1-0.253-0.231-0.253
		c-0.197,0-0.252,0.28-0.373,0.555c-0.121,0.28-0.308,0.555-0.774,0.555c-0.599,0-0.956-0.483-0.956-1.049
		c0-0.363,0.165-0.715,0.45-0.95l0.456,0.352c-0.165,0.147-0.313,0.346-0.313,0.57c0,0.171,0.116,0.309,0.292,0.309
		c0.235,0,0.291-0.27,0.406-0.539c0.115-0.269,0.274-0.538,0.708-0.538c0.506,0,0.874,0.352,0.874,0.856
		c0,0.286-0.088,0.648-0.28,0.868L8.643,254.31z"/>
</g>
</svg>
