<?xml version="1.0" encoding="utf-8"?>
<!-- Generator: Adobe Illustrator 16.0.0, SVG Export Plug-In . SVG Version: 6.00 Build 0)  -->
<!DOCTYPE svg PUBLIC "-//W3C//DTD SVG 1.1//EN" "http://www.w3.org/Graphics/SVG/1.1/DTD/svg11.dtd">
<svg version="1.1" id="Calque_1" xmlns="http://www.w3.org/2000/svg" xmlns:xlink="http://www.w3.org/1999/xlink" x="0px" y="0px"
	 width="20px" height="260px" viewBox="0 0 20 260" enable-background="new 0 0 20 260" xml:space="preserve">
<g>
	<path fill="#E5791F" d="M6.604,17.722v1.313h7.348v-1.952h-1.665V15.37h3.232v9.14h-3.232v-1.713h1.665v-1.952H6.604v1.313H4.988
		v-4.435L6.604,17.722L6.604,17.722z"/>
	<path fill="#E5791F" d="M6.604,25.465v1.201h7.3v-1.201h1.615v3.986c0,3.81-1.983,6.066-5.169,6.066
		c-3.218,0-5.362-2.129-5.362-6.259v-3.794L6.604,25.465L6.604,25.465z M6.604,29.515c0,2.722,1.473,4.13,3.729,4.13
		c2.306,0,3.569-1.633,3.569-4.258v-0.912H6.603L6.604,29.515L6.604,29.515z"/>
	<path fill="#E5791F" d="M6.604,36.137v0.912l7.315,2.625v-1.152h1.601v5.955h-1.6v-1.153L6.605,45.95v0.912H4.988v-4.05h1.601
		v1.217l1.729-0.593v-3.938l-1.729-0.592v1.28H4.988v-4.05L6.604,36.137L6.604,36.137z M9.822,42.939l4.146-1.473l-4.146-1.473
		V42.939z"/>
	<path fill="#E5791F" d="M2.219,50.681l14.727,6.547l-0.641,1.425L1.579,52.105L2.219,50.681z"/>
	<path fill="#E5791F" d="M6.604,62.856v1.201h7.3v-1.201h1.615v4.322h-1.615v-1.313h-2.785v4.866h2.785V69.42h1.615v4.321h-1.615
		v-1.2h-7.3v1.2H4.988V69.42h1.616v1.313h2.93v-4.866h-2.93v1.313H4.988v-4.322h1.616V62.856z"/>
</g>
<g>
	<path fill="#7A2210" d="M6.403,88.448v1.093l6.387,0.294v-1.148h1.415v2.521l-5.127,2.829l5.127,2.83v2.507H12.79v-1.148
		L6.403,98.52v1.093H4.988V95.83h1.415v1.106l4.748-0.182L6.529,94.12v-0.21l4.622-2.634l-4.748-0.182V92.2H4.988v-3.754h1.415
		V88.448z"/>
	<path fill="#7A2210" d="M9.597,100.572c2.703,0,4.776,1.961,4.776,4.763c0,2.787-2.087,4.692-4.776,4.692
		c-2.703,0-4.776-1.961-4.776-4.763C4.82,102.478,6.907,100.572,9.597,100.572z M9.597,108.389c1.918,0,3.305-1.303,3.305-3.082
		c0-1.793-1.371-3.096-3.305-3.096c-1.919,0-3.306,1.303-3.306,3.096C6.291,107.086,7.664,108.389,9.597,108.389z"/>
	<path fill="#7A2210" d="M6.403,111.185v1.05h6.387v-1.05h1.415v3.487c0,3.334-1.736,5.31-4.524,5.31
		c-2.815,0-4.692-1.863-4.692-5.478v-3.319H6.403z M6.403,114.729c0,2.381,1.288,3.613,3.264,3.613c2.017,0,3.123-1.429,3.123-3.726
		v-0.799H6.403V114.729z"/>
	<path fill="#7A2210" d="M6.403,121.139v1.051h6.387v-1.051h1.415v6.877h-2.633v-1.513h1.232v-2.731h-2.467v2.788H8.994v-2.788
		H6.389v2.746h1.233v1.513H4.988v-6.892H6.403z"/>
	<path fill="#7A2210" d="M6.403,132.296v1.05h6.387v-1.05h1.415v3.487c0,3.334-1.736,5.311-4.524,5.311
		c-2.815,0-4.692-1.863-4.692-5.479v-3.319H6.403z M6.403,135.84c0,2.381,1.288,3.613,3.264,3.613c2.017,0,3.123-1.43,3.123-3.727
		v-0.799H6.403V135.84z"/>
	<path fill="#7A2210" d="M10.563,141.928c0.701,0.883,1.373,1.316,1.766,1.346c0.141-0.49,0.52-0.813,1.037-0.813
		c0.531,0,1.008,0.478,1.008,1.078c0,0.603-0.434,1.135-1.303,1.135c-0.813,0-2.045-0.573-3.054-2.325L10.563,141.928z"/>
	<path fill="#7A2210" d="M6.403,145.666v1.051h6.387v-1.051h1.415v6.877h-2.633v-1.514h1.232v-2.73h-2.467v2.788H8.994v-2.788H6.389
		v2.746h1.233v1.514H4.988v-6.893H6.403z"/>
	<path fill="#7A2210" d="M6.403,153.674v1.094l6.387,0.293v-1.147h1.415v2.521l-5.127,2.83l5.127,2.83v2.506H12.79v-1.147
		l-6.387,0.294v1.093H4.988v-3.782h1.415v1.106l4.748-0.183l-4.622-2.633v-0.211l4.622-2.634l-4.748-0.183v1.107H4.988v-3.755
		L6.403,153.674L6.403,153.674z"/>
	<path fill="#7A2210" d="M6.403,165.813v1.051h6.387v-1.051h1.415v3.713c0,1.975-1.135,3.486-3.012,3.486
		c-2.115,0-3.151-1.498-3.151-3.67c0-0.434,0-0.699,0.014-0.896H6.403v1.15H4.988v-3.783H6.403L6.403,165.813z M11.193,171.373
		c0.967,0,1.597-0.798,1.597-1.934v-0.994H9.457c-0.015,0.168-0.028,0.393-0.028,1.037C9.429,170.673,10.101,171.373,11.193,171.373
		z"/>
	<path fill="#7A2210" d="M6.403,173.945v1.051h6.387v-1.051h1.415v3.853H12.79v-1.219H6.389v2.536h1.303v1.525H4.988v-6.695H6.403z"
		/>
	<path fill="#7A2210" d="M9.597,181.464c2.703,0,4.776,1.961,4.776,4.763c0,2.787-2.087,4.692-4.776,4.692
		c-2.703,0-4.776-1.961-4.776-4.763C4.82,183.369,6.907,181.464,9.597,181.464z M9.597,189.279c1.918,0,3.305-1.303,3.305-3.082
		c0-1.793-1.371-3.096-3.305-3.096c-1.919,0-3.306,1.303-3.306,3.096C6.291,187.979,7.664,189.279,9.597,189.279z"/>
	<path fill="#7A2210" d="M6.403,192.076v1.119h6.387v-1.119h1.415v3.824H12.79v-1.121H6.403v1.121H4.988v-3.824H6.403z"/>
</g>
</svg>
