<?xml version="1.0" encoding="utf-8"?>
<!-- Generator: Adobe Illustrator 16.0.0, SVG Export Plug-In . SVG Version: 6.00 Build 0)  -->
<!DOCTYPE svg PUBLIC "-//W3C//DTD SVG 1.1//EN" "http://www.w3.org/Graphics/SVG/1.1/DTD/svg11.dtd">
<svg version="1.1" id="Calque_1" xmlns="http://www.w3.org/2000/svg" xmlns:xlink="http://www.w3.org/1999/xlink" x="0px" y="0px"
	 width="20px" height="260px" viewBox="0 0 20 260" enable-background="new 0 0 20 260" xml:space="preserve">
<g>
	<path d="M9.225,15.778l-2.557-0.274V9.037h0.199v0.241c0,0.212,0.037,0.382,0.112,0.511c0.05,0.093,0.136,0.165,0.258,0.215
		c0.086,0.039,0.312,0.06,0.677,0.06h4.791c0.373,0,0.605-0.021,0.698-0.06s0.175-0.119,0.244-0.239
		c0.07-0.12,0.104-0.281,0.104-0.486V9.037h0.199v3.884h-0.199v-0.317c0-0.211-0.037-0.382-0.112-0.511
		c-0.05-0.093-0.136-0.166-0.258-0.22c-0.086-0.039-0.312-0.06-0.677-0.06H8.064c-0.373,0-0.609,0.021-0.712,0.064
		c-0.102,0.043-0.178,0.128-0.228,0.253c-0.033,0.09-0.049,0.306-0.049,0.649v0.607c0,0.387,0.068,0.709,0.204,0.967
		s0.351,0.48,0.645,0.669c0.294,0.188,0.728,0.366,1.3,0.534V15.778z"/>
	<path d="M13.532,19.167h-2.965v0.146c0,0.461,0.146,0.796,0.435,1.004c0.291,0.208,0.719,0.34,1.284,0.397v0.204H8.473v-0.204
		c0.416-0.043,0.756-0.134,1.021-0.271s0.443-0.298,0.534-0.48c0.092-0.183,0.137-0.447,0.137-0.795H8.113
		c-0.401,0-0.646,0.017-0.736,0.051s-0.163,0.098-0.221,0.19C7.1,19.502,7.07,19.652,7.07,19.859v0.436
		c0,0.681,0.158,1.226,0.473,1.636c0.315,0.41,0.795,0.704,1.439,0.884v0.198l-2.314-0.327v-6.295h0.199v0.241
		c0,0.211,0.037,0.382,0.112,0.511c0.05,0.093,0.136,0.164,0.258,0.215c0.086,0.039,0.312,0.059,0.677,0.059h4.791
		c0.33,0,0.531-0.009,0.607-0.027c0.125-0.035,0.222-0.102,0.289-0.198c0.101-0.136,0.15-0.322,0.15-0.559v-0.241h0.199v6.096
		h-2.154v-0.204c0.527-0.104,0.904-0.25,1.134-0.438c0.229-0.188,0.397-0.454,0.505-0.798c0.064-0.2,0.097-0.576,0.097-1.128V19.167
		z"/>
	<path d="M9.987,29.179H7.946c-0.394,0-0.642,0.024-0.744,0.072C7.101,29.3,7.02,29.385,6.958,29.507
		c-0.062,0.121-0.091,0.349-0.091,0.682H6.668v-3.728h0.199c0,0.337,0.031,0.564,0.094,0.685s0.145,0.204,0.244,0.253
		c0.1,0.048,0.348,0.072,0.741,0.072h4.727c0.394,0,0.642-0.024,0.744-0.072c0.102-0.049,0.183-0.134,0.244-0.255
		c0.062-0.122,0.091-0.35,0.091-0.683h0.199v3.384c0,0.881-0.061,1.525-0.183,1.934s-0.347,0.741-0.674,0.999
		c-0.328,0.258-0.712,0.387-1.152,0.387c-0.537,0-0.981-0.193-1.332-0.58c-0.222-0.247-0.389-0.593-0.499-1.036l-2.466,1.75
		c-0.319,0.229-0.518,0.393-0.597,0.489c-0.11,0.146-0.172,0.317-0.182,0.511H6.668v-2.294l3.319-2.347V29.179z M13.559,29.179
		h-3.189v0.307c0,0.497,0.045,0.869,0.137,1.117c0.091,0.246,0.256,0.44,0.494,0.582s0.549,0.213,0.932,0.213
		c0.555,0,0.965-0.13,1.23-0.39c0.265-0.26,0.396-0.678,0.396-1.255V29.179z"/>
	<path d="M13.532,37.197h-2.965v0.146c0,0.461,0.146,0.796,0.435,1.004c0.291,0.208,0.719,0.34,1.284,0.397v0.204H8.473v-0.204
		c0.416-0.043,0.756-0.134,1.021-0.271s0.443-0.298,0.534-0.48c0.092-0.183,0.137-0.447,0.137-0.795H8.113
		c-0.401,0-0.646,0.017-0.736,0.051s-0.163,0.098-0.221,0.19C7.1,37.532,7.07,37.683,7.07,37.89v0.436
		c0,0.681,0.158,1.226,0.473,1.636c0.315,0.41,0.795,0.704,1.439,0.884v0.198l-2.314-0.327v-6.295h0.199v0.241
		c0,0.211,0.037,0.382,0.112,0.511c0.05,0.093,0.136,0.164,0.258,0.215c0.086,0.039,0.312,0.059,0.677,0.059h4.791
		c0.33,0,0.531-0.009,0.607-0.027c0.125-0.035,0.222-0.102,0.289-0.198c0.101-0.136,0.15-0.322,0.15-0.559v-0.241h0.199v6.096
		h-2.154v-0.204c0.527-0.104,0.904-0.25,1.134-0.438c0.229-0.188,0.397-0.454,0.505-0.798c0.064-0.2,0.097-0.576,0.097-1.128V37.197
		z"/>
	<path d="M13.532,44.562h-2.991v0.21c0,0.322,0.048,0.585,0.145,0.79c0.097,0.203,0.26,0.376,0.488,0.518
		c0.229,0.142,0.539,0.234,0.93,0.277v0.188H8.445v-0.188c0.691-0.068,1.147-0.254,1.367-0.557c0.221-0.303,0.33-0.646,0.33-1.028
		v-0.21H7.914c-0.373,0-0.605,0.021-0.698,0.063s-0.175,0.121-0.244,0.241c-0.07,0.12-0.104,0.282-0.104,0.486v0.241H6.668v-3.808
		h0.199v0.241c0,0.212,0.037,0.382,0.112,0.511c0.05,0.093,0.136,0.165,0.258,0.215c0.086,0.039,0.312,0.06,0.677,0.06h4.791
		c0.373,0,0.605-0.021,0.698-0.06s0.175-0.119,0.244-0.239c0.07-0.12,0.104-0.281,0.104-0.486v-0.241h0.199v6.145h-2.09v-0.22
		c0.491-0.051,0.854-0.179,1.091-0.385s0.403-0.504,0.499-0.895c0.055-0.215,0.081-0.611,0.081-1.191V44.562z"/>
	<path d="M13.951,48.515v3.76h-0.199v-0.188c0-0.283-0.029-0.478-0.088-0.583c-0.06-0.105-0.141-0.181-0.244-0.226
		c-0.104-0.045-0.363-0.067-0.779-0.067H9.074c-0.652,0-1.083,0.049-1.295,0.147c-0.211,0.099-0.387,0.261-0.525,0.486
		c-0.141,0.226-0.21,0.51-0.21,0.854c0,0.395,0.089,0.73,0.266,1.008c0.178,0.277,0.422,0.485,0.733,0.623s0.854,0.207,1.627,0.207
		h2.971c0.326,0,0.559-0.034,0.698-0.103s0.236-0.154,0.29-0.258c0.082-0.161,0.123-0.389,0.123-0.683h0.199v2.52h-0.199v-0.15
		c0-0.204-0.041-0.374-0.123-0.51c-0.082-0.137-0.206-0.235-0.371-0.296c-0.114-0.047-0.32-0.069-0.617-0.069H9.875
		c-0.856,0-1.475-0.057-1.854-0.17c-0.379-0.112-0.729-0.388-1.047-0.824c-0.319-0.437-0.479-1.033-0.479-1.789
		c0-0.63,0.084-1.117,0.252-1.461c0.229-0.469,0.523-0.8,0.881-0.993c0.358-0.193,0.84-0.29,1.445-0.29h3.566
		c0.419,0,0.68-0.023,0.781-0.07c0.103-0.046,0.184-0.127,0.244-0.241c0.062-0.114,0.09-0.326,0.086-0.634H13.951z"/>
	<path d="M14.117,61.367l-2.428,0.06v-0.221c0.609-0.104,1.099-0.359,1.47-0.766c0.37-0.406,0.556-0.846,0.556-1.318
		c0-0.365-0.098-0.654-0.293-0.867s-0.42-0.32-0.674-0.32c-0.161,0-0.305,0.038-0.43,0.113c-0.168,0.104-0.335,0.271-0.5,0.5
		c-0.117,0.168-0.327,0.557-0.628,1.165c-0.419,0.853-0.814,1.427-1.187,1.724c-0.373,0.294-0.799,0.441-1.279,0.441
		c-0.608,0-1.132-0.237-1.57-0.712c-0.439-0.475-0.658-1.077-0.658-1.808c0-0.229,0.023-0.445,0.07-0.65
		c0.046-0.203,0.134-0.46,0.263-0.768c0.071-0.172,0.107-0.313,0.107-0.424c0-0.094-0.036-0.192-0.107-0.296
		s-0.181-0.188-0.327-0.253V56.77h2.75v0.198c-0.773,0.158-1.363,0.462-1.771,0.911c-0.406,0.449-0.609,0.934-0.609,1.452
		c0,0.401,0.109,0.721,0.327,0.959c0.219,0.238,0.473,0.357,0.764,0.357c0.172,0,0.338-0.046,0.499-0.137
		c0.161-0.092,0.314-0.23,0.459-0.416c0.146-0.187,0.334-0.516,0.567-0.988c0.325-0.663,0.604-1.139,0.832-1.43
		c0.229-0.289,0.485-0.513,0.768-0.668c0.283-0.156,0.595-0.234,0.936-0.234c0.58,0,1.074,0.214,1.482,0.64s0.611,0.963,0.611,1.611
		c0,0.236-0.028,0.466-0.086,0.688c-0.043,0.168-0.122,0.373-0.238,0.615c-0.117,0.241-0.175,0.411-0.175,0.507
		c0,0.094,0.028,0.167,0.086,0.221s0.195,0.104,0.413,0.15V61.367z"/>
	<path d="M6.668,65.213h0.199v0.242c0,0.211,0.033,0.373,0.099,0.486c0.066,0.112,0.157,0.195,0.271,0.25
		c0.075,0.031,0.301,0.048,0.677,0.048h4.791c0.373,0,0.605-0.02,0.698-0.06c0.093-0.039,0.175-0.118,0.244-0.238
		c0.07-0.12,0.104-0.282,0.104-0.486v-0.242h0.199v3.261c0,0.87-0.118,1.57-0.354,2.101c-0.29,0.647-0.729,1.139-1.315,1.474
		c-0.588,0.335-1.252,0.503-1.993,0.503c-0.513,0-0.983-0.083-1.415-0.248c-0.432-0.164-0.788-0.377-1.069-0.639
		c-0.28-0.262-0.507-0.563-0.677-0.905s-0.301-0.76-0.395-1.254c-0.043-0.219-0.064-0.563-0.064-1.031V65.213z M13.537,67.99H7.855
		c-0.301,0-0.486,0.015-0.554,0.043s-0.12,0.077-0.155,0.145c-0.055,0.098-0.081,0.236-0.081,0.42c0,0.598,0.204,1.054,0.612,1.369
		c0.551,0.43,1.407,0.645,2.567,0.645c0.935,0,1.681-0.146,2.239-0.44c0.438-0.232,0.734-0.532,0.893-0.897
		C13.487,69.016,13.541,68.588,13.537,67.99z"/>
	<path d="M13.532,76.01h-2.965v0.146c0,0.461,0.146,0.796,0.435,1.004c0.291,0.208,0.719,0.34,1.284,0.397v0.204H8.473v-0.204
		c0.416-0.043,0.756-0.134,1.021-0.271s0.443-0.298,0.534-0.48c0.092-0.183,0.137-0.447,0.137-0.795H8.113
		c-0.401,0-0.646,0.017-0.736,0.051s-0.163,0.098-0.221,0.19C7.1,76.345,7.07,76.495,7.07,76.702v0.436
		c0,0.681,0.158,1.226,0.473,1.636c0.315,0.41,0.795,0.704,1.439,0.884v0.198l-2.314-0.327v-6.295h0.199v0.241
		c0,0.211,0.037,0.382,0.112,0.511c0.05,0.093,0.136,0.164,0.258,0.215c0.086,0.039,0.312,0.059,0.677,0.059h4.791
		c0.33,0,0.531-0.009,0.607-0.027c0.125-0.035,0.222-0.102,0.289-0.198c0.101-0.136,0.15-0.322,0.15-0.559v-0.241h0.199v6.096
		h-2.154v-0.204c0.527-0.104,0.904-0.25,1.134-0.438c0.229-0.188,0.397-0.454,0.505-0.798c0.064-0.2,0.097-0.576,0.097-1.128V76.01z
		"/>
	<path d="M9.225,90.044L6.668,89.77v-6.467h0.199v0.241c0,0.212,0.037,0.382,0.112,0.511c0.05,0.093,0.136,0.165,0.258,0.215
		c0.086,0.039,0.312,0.06,0.677,0.06h4.791c0.373,0,0.605-0.021,0.698-0.06s0.175-0.119,0.244-0.239
		c0.07-0.12,0.104-0.281,0.104-0.486v-0.241h0.199v3.884h-0.199v-0.317c0-0.211-0.037-0.382-0.112-0.511
		c-0.05-0.093-0.136-0.166-0.258-0.22c-0.086-0.039-0.312-0.06-0.677-0.06H8.064c-0.373,0-0.609,0.021-0.712,0.064
		c-0.102,0.043-0.178,0.128-0.228,0.253c-0.033,0.09-0.049,0.306-0.049,0.649v0.607c0,0.387,0.068,0.709,0.204,0.967
		s0.351,0.48,0.645,0.669c0.294,0.188,0.728,0.366,1.3,0.534V90.044z"/>
	<path d="M10.541,90.437h0.236c0.179,0.415,0.41,0.717,0.695,0.905c0.284,0.188,0.577,0.282,0.878,0.282
		c0.058,0,0.103-0.013,0.134-0.038c0.029-0.025,0.043-0.05,0.043-0.075c0-0.021-0.012-0.054-0.037-0.097
		c-0.061-0.104-0.092-0.232-0.092-0.387c0-0.211,0.083-0.395,0.248-0.551c0.164-0.155,0.357-0.233,0.58-0.233
		c0.236,0,0.443,0.09,0.623,0.269c0.179,0.179,0.268,0.396,0.268,0.649c0,0.309-0.119,0.571-0.356,0.79
		c-0.238,0.219-0.565,0.327-0.98,0.327c-0.513,0-0.967-0.154-1.364-0.464S10.727,91.045,10.541,90.437z"/>
	<path d="M13.532,96.086h-2.965v0.146c0,0.461,0.146,0.796,0.435,1.004c0.291,0.208,0.719,0.34,1.284,0.397v0.204H8.473v-0.204
		c0.416-0.043,0.756-0.134,1.021-0.271s0.443-0.298,0.534-0.48c0.092-0.183,0.137-0.447,0.137-0.795H8.113
		c-0.401,0-0.646,0.017-0.736,0.051s-0.163,0.098-0.221,0.19C7.1,96.421,7.07,96.571,7.07,96.778v0.436
		c0,0.681,0.158,1.226,0.473,1.636c0.315,0.41,0.795,0.704,1.439,0.884v0.198l-2.314-0.327V93.31h0.199v0.241
		c0,0.211,0.037,0.382,0.112,0.511c0.05,0.093,0.136,0.164,0.258,0.215c0.086,0.039,0.312,0.059,0.677,0.059h4.791
		c0.33,0,0.531-0.009,0.607-0.027c0.125-0.035,0.222-0.102,0.289-0.198c0.101-0.136,0.15-0.322,0.15-0.559V93.31h0.199v6.096h-2.154
		v-0.204c0.527-0.104,0.904-0.25,1.134-0.438c0.229-0.188,0.397-0.454,0.505-0.798c0.064-0.2,0.097-0.576,0.097-1.128V96.086z
		 M16.438,98.385l-1.863-1.778v-0.461l1.863,0.623V98.385z"/>
	<path d="M14.117,107.769h-2.523v-0.209c0.658-0.157,1.163-0.451,1.514-0.881c0.352-0.43,0.527-0.917,0.527-1.461
		c0-0.455-0.131-0.872-0.393-1.252c-0.262-0.379-0.604-0.656-1.025-0.832c-0.541-0.226-1.143-0.338-1.805-0.338
		c-0.652,0-1.246,0.082-1.781,0.246c-0.535,0.165-0.939,0.423-1.214,0.773c-0.273,0.352-0.411,0.807-0.411,1.365
		c0,0.458,0.101,0.878,0.301,1.259c0.201,0.382,0.547,0.783,1.037,1.206H7.715c-0.426-0.408-0.734-0.833-0.926-1.275
		s-0.287-0.959-0.287-1.55c0-0.777,0.155-1.467,0.467-2.07s0.76-1.069,1.343-1.396c0.583-0.328,1.205-0.491,1.864-0.491
		c0.694,0,1.354,0.182,1.977,0.545s1.105,0.854,1.449,1.472c0.344,0.617,0.516,1.273,0.516,1.968c0,0.513-0.11,1.053-0.332,1.623
		c-0.129,0.329-0.193,0.538-0.193,0.628c0,0.114,0.041,0.214,0.126,0.298c0.084,0.084,0.218,0.139,0.399,0.164V107.769z"/>
	<path d="M14.053,112.618c0.043,1.16-0.295,2.104-1.015,2.828c-0.72,0.726-1.62,1.088-2.702,1.088c-0.924,0-1.736-0.271-2.438-0.811
		c-0.932-0.717-1.396-1.729-1.396-3.035c0-1.311,0.443-2.324,1.332-3.04c0.701-0.565,1.533-0.849,2.497-0.849
		c1.081,0,1.983,0.368,2.704,1.104C13.757,110.64,14.096,111.544,14.053,112.618z M13.709,112.683c0-0.666-0.34-1.172-1.02-1.52
		c-0.559-0.283-1.361-0.424-2.406-0.424c-1.243,0-2.162,0.218-2.756,0.654c-0.416,0.305-0.623,0.73-0.623,1.279
		c0,0.368,0.09,0.676,0.269,0.924c0.229,0.314,0.595,0.56,1.099,0.735c0.503,0.176,1.159,0.263,1.969,0.263
		c0.963,0,1.684-0.089,2.161-0.268c0.479-0.18,0.815-0.408,1.013-0.686S13.709,113.045,13.709,112.683z"/>
	<path d="M9.225,123.872l-2.557-0.274v-6.467h0.199v0.241c0,0.212,0.037,0.382,0.112,0.511c0.05,0.093,0.136,0.165,0.258,0.215
		c0.086,0.039,0.312,0.06,0.677,0.06h4.791c0.373,0,0.605-0.021,0.698-0.06s0.175-0.119,0.244-0.239
		c0.07-0.12,0.104-0.281,0.104-0.486v-0.241h0.199v3.884h-0.199v-0.317c0-0.211-0.037-0.382-0.112-0.511
		c-0.05-0.093-0.136-0.166-0.258-0.22c-0.086-0.039-0.312-0.06-0.677-0.06H8.064c-0.373,0-0.609,0.021-0.712,0.064
		c-0.102,0.043-0.178,0.128-0.228,0.253c-0.033,0.09-0.049,0.306-0.049,0.649v0.607c0,0.387,0.068,0.709,0.204,0.967
		s0.351,0.48,0.645,0.669c0.294,0.188,0.728,0.366,1.3,0.534V123.872z"/>
	<path d="M13.532,127.26h-2.965v0.146c0,0.461,0.146,0.796,0.435,1.004c0.291,0.208,0.719,0.34,1.284,0.397v0.204H8.473v-0.204
		c0.416-0.043,0.756-0.134,1.021-0.271s0.443-0.298,0.534-0.48c0.092-0.183,0.137-0.447,0.137-0.795H8.113
		c-0.401,0-0.646,0.017-0.736,0.051s-0.163,0.098-0.221,0.19c-0.057,0.094-0.086,0.244-0.086,0.451v0.436
		c0,0.681,0.158,1.226,0.473,1.636c0.315,0.41,0.795,0.704,1.439,0.884v0.198l-2.314-0.327v-6.295h0.199v0.241
		c0,0.211,0.037,0.382,0.112,0.511c0.05,0.093,0.136,0.164,0.258,0.215c0.086,0.039,0.312,0.059,0.677,0.059h4.791
		c0.33,0,0.531-0.009,0.607-0.027c0.125-0.035,0.222-0.102,0.289-0.198c0.101-0.136,0.15-0.322,0.15-0.559v-0.241h0.199v6.096
		h-2.154v-0.204c0.527-0.104,0.904-0.25,1.134-0.438c0.229-0.188,0.397-0.454,0.505-0.798c0.064-0.2,0.097-0.576,0.097-1.128V127.26
		z"/>
	<path d="M8.322,136.183c0,0.25-0.088,0.462-0.264,0.636c-0.175,0.174-0.387,0.261-0.633,0.261c-0.248,0-0.458-0.088-0.632-0.264
		c-0.173-0.175-0.261-0.387-0.261-0.633c0-0.248,0.088-0.458,0.261-0.632c0.174-0.174,0.384-0.261,0.632-0.261
		c0.246,0,0.458,0.087,0.633,0.261C8.234,135.725,8.322,135.935,8.322,136.183z M11.835,136.188c0,0.247-0.087,0.457-0.261,0.631
		s-0.384,0.261-0.631,0.261s-0.457-0.087-0.631-0.261s-0.261-0.384-0.261-0.631s0.087-0.457,0.261-0.631s0.384-0.261,0.631-0.261
		s0.457,0.087,0.631,0.261S11.835,135.94,11.835,136.188z"/>
	<path d="M14.117,145.93l-2.428,0.06v-0.221c0.609-0.104,1.099-0.359,1.47-0.766c0.37-0.406,0.556-0.846,0.556-1.318
		c0-0.365-0.098-0.654-0.293-0.867s-0.42-0.32-0.674-0.32c-0.161,0-0.305,0.038-0.43,0.113c-0.168,0.104-0.335,0.271-0.5,0.5
		c-0.117,0.168-0.327,0.557-0.628,1.165c-0.419,0.853-0.814,1.427-1.187,1.724c-0.373,0.294-0.799,0.441-1.279,0.441
		c-0.608,0-1.132-0.237-1.57-0.712c-0.439-0.475-0.658-1.077-0.658-1.808c0-0.229,0.023-0.445,0.07-0.65
		c0.046-0.203,0.134-0.46,0.263-0.768c0.071-0.172,0.107-0.313,0.107-0.424c0-0.094-0.036-0.192-0.107-0.296
		s-0.181-0.188-0.327-0.253v-0.198h2.75v0.198c-0.773,0.158-1.363,0.462-1.771,0.911c-0.406,0.449-0.609,0.934-0.609,1.452
		c0,0.401,0.109,0.721,0.327,0.959c0.219,0.238,0.473,0.357,0.764,0.357c0.172,0,0.338-0.046,0.499-0.137
		c0.161-0.092,0.314-0.23,0.459-0.416c0.146-0.187,0.334-0.516,0.567-0.988c0.325-0.663,0.604-1.139,0.832-1.43
		c0.229-0.289,0.485-0.513,0.768-0.668c0.283-0.156,0.595-0.234,0.936-0.234c0.58,0,1.074,0.214,1.482,0.64s0.611,0.963,0.611,1.611
		c0,0.236-0.028,0.466-0.086,0.688c-0.043,0.168-0.122,0.373-0.238,0.615c-0.117,0.241-0.175,0.411-0.175,0.507
		c0,0.094,0.028,0.167,0.086,0.221s0.195,0.104,0.413,0.15V145.93z"/>
	<path d="M6.867,150.909H6.668v-3.808h0.199v0.241c0,0.211,0.037,0.382,0.112,0.511c0.05,0.093,0.136,0.164,0.258,0.215
		c0.086,0.039,0.312,0.059,0.677,0.059h4.791c0.373,0,0.605-0.02,0.698-0.059c0.093-0.04,0.175-0.119,0.244-0.239
		c0.07-0.12,0.104-0.282,0.104-0.486v-0.241h0.199v3.808h-0.199v-0.241c0-0.212-0.037-0.382-0.112-0.511
		c-0.05-0.093-0.136-0.167-0.258-0.22c-0.086-0.04-0.312-0.06-0.677-0.06H7.914c-0.373,0-0.605,0.021-0.698,0.062
		s-0.175,0.122-0.244,0.242c-0.07,0.12-0.104,0.281-0.104,0.486V150.909z"/>
	<path d="M10.938,155.808l-2.98,2.008c-0.494,0.334-0.794,0.57-0.899,0.712c-0.106,0.142-0.169,0.31-0.19,0.503H6.668v-3.551h0.199
		c0.021,0.283,0.064,0.466,0.129,0.548s0.143,0.124,0.236,0.124c0.064,0,0.121-0.013,0.172-0.038
		c0.107-0.05,0.308-0.176,0.602-0.376l1.573-1.063l-1.358-1.112c-0.412-0.332-0.691-0.499-0.838-0.499
		c-0.104,0-0.201,0.043-0.291,0.129c-0.089,0.086-0.153,0.213-0.193,0.382c-0.021,0.074-0.031,0.229-0.031,0.461H6.668v-2.798h0.199
		c0.046,0.318,0.132,0.569,0.258,0.752c0.164,0.24,0.508,0.575,1.031,1.005l1.762,1.444l2.723-1.853
		c0.447-0.305,0.696-0.479,0.746-0.521c0.119-0.097,0.203-0.191,0.253-0.285c0.05-0.093,0.088-0.222,0.112-0.387h0.199v3.615h-0.199
		v-0.183c0-0.208-0.033-0.353-0.099-0.435c-0.066-0.083-0.149-0.124-0.25-0.124c-0.079,0-0.147,0.013-0.204,0.038l-0.559,0.37
		l-1.375,0.902l0.939,0.769c0.484,0.394,0.822,0.59,1.016,0.59c0.097,0,0.186-0.027,0.269-0.083s0.147-0.135,0.193-0.239
		c0.046-0.104,0.069-0.265,0.069-0.482h0.199v2.68h-0.199c-0.003-0.211-0.029-0.381-0.077-0.51c-0.049-0.129-0.14-0.268-0.271-0.414
		c-0.086-0.093-0.353-0.326-0.8-0.698L10.938,155.808z"/>
	<path d="M9.966,164.826h-2.02c-0.394,0-0.642,0.023-0.744,0.072c-0.102,0.048-0.183,0.134-0.244,0.258
		c-0.062,0.123-0.091,0.35-0.091,0.68H6.668v-3.701h0.199c0,0.337,0.031,0.564,0.094,0.685s0.145,0.204,0.244,0.253
		c0.1,0.048,0.348,0.072,0.741,0.072h4.727c0.394,0,0.642-0.024,0.744-0.072c0.102-0.049,0.183-0.134,0.244-0.256
		c0.062-0.121,0.091-0.349,0.091-0.682h0.199v3.174c0,1.046-0.186,1.796-0.559,2.251s-0.838,0.683-1.396,0.683
		c-0.473,0-0.877-0.147-1.214-0.441c-0.337-0.293-0.565-0.697-0.688-1.213C10.009,166.24,9.966,165.652,9.966,164.826z
		 M13.532,164.826h-3.147c-0.008,0.117-0.011,0.207-0.011,0.268c0,0.438,0.13,0.773,0.39,1.01s0.661,0.355,1.205,0.355
		c0.541,0,0.938-0.119,1.188-0.355s0.376-0.589,0.376-1.058V164.826z"/>
	<path d="M14.053,172.823c0.043,1.16-0.295,2.104-1.015,2.828c-0.72,0.726-1.62,1.088-2.702,1.088c-0.924,0-1.736-0.271-2.438-0.811
		c-0.932-0.717-1.396-1.729-1.396-3.035c0-1.311,0.443-2.324,1.332-3.04c0.701-0.565,1.533-0.849,2.497-0.849
		c1.081,0,1.983,0.368,2.704,1.104C13.757,170.845,14.096,171.749,14.053,172.823z M13.709,172.888c0-0.666-0.34-1.172-1.02-1.52
		c-0.559-0.283-1.361-0.424-2.406-0.424c-1.243,0-2.162,0.218-2.756,0.654c-0.416,0.305-0.623,0.73-0.623,1.279
		c0,0.368,0.09,0.676,0.269,0.924c0.229,0.314,0.595,0.56,1.099,0.735c0.503,0.176,1.159,0.263,1.969,0.263
		c0.963,0,1.684-0.089,2.161-0.268c0.479-0.18,0.815-0.408,1.013-0.686S13.709,173.25,13.709,172.888z"/>
	<path d="M6.867,181.159H6.668v-3.808h0.199v0.241c0,0.211,0.037,0.382,0.112,0.511c0.05,0.093,0.136,0.164,0.258,0.215
		c0.086,0.039,0.312,0.059,0.677,0.059h4.791c0.373,0,0.605-0.02,0.698-0.059c0.093-0.04,0.175-0.119,0.244-0.239
		c0.07-0.12,0.104-0.282,0.104-0.486v-0.241h0.199v3.808h-0.199v-0.241c0-0.212-0.037-0.382-0.112-0.511
		c-0.05-0.093-0.136-0.167-0.258-0.22c-0.086-0.04-0.312-0.06-0.677-0.06H7.914c-0.373,0-0.605,0.021-0.698,0.062
		s-0.175,0.122-0.244,0.242c-0.07,0.12-0.104,0.281-0.104,0.486V181.159z"/>
	<path d="M13.951,184.15l-4.518,3.593h3.132c0.437,0,0.732-0.063,0.886-0.188c0.208-0.172,0.309-0.46,0.301-0.865h0.199v2.406
		h-0.199c-0.039-0.308-0.09-0.515-0.152-0.62s-0.165-0.188-0.307-0.247c-0.141-0.059-0.384-0.088-0.728-0.088H6.502v-0.184
		l6.063-4.925h-4.63c-0.419,0-0.701,0.096-0.849,0.287s-0.22,0.411-0.22,0.658v0.172H6.668v-2.583h0.199
		c0.003,0.4,0.086,0.68,0.246,0.838c0.162,0.157,0.436,0.236,0.822,0.236h5.141l0.193-0.156c0.193-0.154,0.32-0.29,0.381-0.408
		s0.095-0.288,0.102-0.51h0.199V184.15z"/>
	<path d="M13.951,196.295H11.98v-0.193c0.454-0.114,0.781-0.242,0.979-0.381c0.199-0.141,0.357-0.332,0.476-0.575
		c0.064-0.136,0.097-0.374,0.097-0.714v-0.543H7.914c-0.373,0-0.605,0.021-0.698,0.062s-0.175,0.122-0.244,0.242
		c-0.07,0.12-0.104,0.283-0.104,0.491v0.242H6.668v-3.814h0.199v0.242c0,0.211,0.037,0.381,0.112,0.51
		c0.05,0.094,0.136,0.167,0.258,0.221c0.086,0.039,0.312,0.059,0.677,0.059h5.618v-0.525c0-0.491-0.104-0.848-0.312-1.069
		c-0.29-0.312-0.703-0.509-1.24-0.591v-0.204h1.971V196.295z"/>
	<path d="M14.117,201.859l-2.428,0.06v-0.221c0.609-0.104,1.099-0.359,1.47-0.766c0.37-0.406,0.556-0.846,0.556-1.318
		c0-0.365-0.098-0.654-0.293-0.867s-0.42-0.32-0.674-0.32c-0.161,0-0.305,0.038-0.43,0.113c-0.168,0.104-0.335,0.271-0.5,0.5
		c-0.117,0.168-0.327,0.557-0.628,1.165c-0.419,0.853-0.814,1.427-1.187,1.724c-0.373,0.294-0.799,0.441-1.279,0.441
		c-0.608,0-1.132-0.237-1.57-0.712c-0.439-0.475-0.658-1.077-0.658-1.808c0-0.229,0.023-0.445,0.07-0.65
		c0.046-0.203,0.134-0.46,0.263-0.768c0.071-0.172,0.107-0.313,0.107-0.424c0-0.094-0.036-0.192-0.107-0.296
		s-0.181-0.188-0.327-0.253v-0.198h2.75v0.198c-0.773,0.158-1.363,0.462-1.771,0.911c-0.406,0.449-0.609,0.934-0.609,1.452
		c0,0.401,0.109,0.721,0.327,0.959c0.219,0.238,0.473,0.357,0.764,0.357c0.172,0,0.338-0.046,0.499-0.137
		c0.161-0.092,0.314-0.23,0.459-0.416c0.146-0.187,0.334-0.516,0.567-0.988c0.325-0.663,0.604-1.139,0.832-1.43
		c0.229-0.289,0.485-0.513,0.768-0.668c0.283-0.156,0.595-0.234,0.936-0.234c0.58,0,1.074,0.214,1.482,0.64s0.611,0.963,0.611,1.611
		c0,0.236-0.028,0.466-0.086,0.688c-0.043,0.168-0.122,0.373-0.238,0.615c-0.117,0.241-0.175,0.411-0.175,0.507
		c0,0.094,0.028,0.167,0.086,0.221s0.195,0.104,0.413,0.15V201.859z"/>
	<path d="M6.668,205.704h0.199v0.242c0,0.211,0.033,0.373,0.099,0.486c0.066,0.112,0.157,0.195,0.271,0.25
		c0.075,0.031,0.301,0.048,0.677,0.048h4.791c0.373,0,0.605-0.02,0.698-0.06c0.093-0.039,0.175-0.118,0.244-0.238
		c0.07-0.12,0.104-0.282,0.104-0.486v-0.242h0.199v3.261c0,0.87-0.118,1.57-0.354,2.101c-0.29,0.647-0.729,1.139-1.315,1.474
		c-0.588,0.335-1.252,0.503-1.993,0.503c-0.513,0-0.983-0.083-1.415-0.248c-0.432-0.164-0.788-0.377-1.069-0.639
		c-0.28-0.262-0.507-0.563-0.677-0.905s-0.301-0.76-0.395-1.254c-0.043-0.219-0.064-0.563-0.064-1.031V205.704z M13.537,208.481
		H7.855c-0.301,0-0.486,0.015-0.554,0.043s-0.12,0.077-0.155,0.145c-0.055,0.098-0.081,0.236-0.081,0.42
		c0,0.598,0.204,1.054,0.612,1.369c0.551,0.43,1.407,0.645,2.567,0.645c0.935,0,1.681-0.146,2.239-0.44
		c0.438-0.232,0.734-0.532,0.893-0.897C13.487,209.507,13.541,209.079,13.537,208.481z"/>
	<path d="M13.532,216.501h-2.965v0.146c0,0.461,0.146,0.796,0.435,1.004c0.291,0.208,0.719,0.34,1.284,0.397v0.204H8.473v-0.204
		c0.416-0.043,0.756-0.134,1.021-0.271s0.443-0.298,0.534-0.48c0.092-0.183,0.137-0.447,0.137-0.795H8.113
		c-0.401,0-0.646,0.017-0.736,0.051s-0.163,0.098-0.221,0.19c-0.057,0.094-0.086,0.244-0.086,0.451v0.436
		c0,0.681,0.158,1.226,0.473,1.636c0.315,0.41,0.795,0.704,1.439,0.884v0.198l-2.314-0.327v-6.295h0.199v0.241
		c0,0.211,0.037,0.382,0.112,0.511c0.05,0.093,0.136,0.164,0.258,0.215c0.086,0.039,0.312,0.059,0.677,0.059h4.791
		c0.33,0,0.531-0.009,0.607-0.027c0.125-0.035,0.222-0.102,0.289-0.198c0.101-0.136,0.15-0.322,0.15-0.559v-0.241h0.199v6.096
		h-2.154v-0.204c0.527-0.104,0.904-0.25,1.134-0.438c0.229-0.188,0.397-0.454,0.505-0.798c0.064-0.2,0.097-0.576,0.097-1.128
		V216.501z"/>
	<path d="M13.951,231.223h-0.199c-0.043-0.265-0.184-0.501-0.424-0.709c-0.18-0.15-0.6-0.374-1.262-0.671l-5.564-2.509v-0.177
		l5.789-2.498c0.699-0.301,1.109-0.502,1.23-0.604c0.121-0.102,0.199-0.294,0.23-0.577h0.199v3.491h-0.199v-0.118
		c0-0.315-0.039-0.53-0.117-0.645c-0.055-0.082-0.133-0.123-0.236-0.123c-0.064,0-0.141,0.014-0.229,0.043
		c-0.088,0.028-0.323,0.125-0.707,0.289l-3.625,1.553l3.229,1.439c0.39,0.172,0.651,0.277,0.783,0.316
		c0.133,0.04,0.246,0.06,0.339,0.06c0.107,0,0.202-0.028,0.284-0.086c0.083-0.058,0.146-0.142,0.188-0.253
		c0.062-0.153,0.091-0.357,0.091-0.611h0.199V231.223z"/>
	<path d="M13.951,231.594v3.76h-0.199v-0.188c0-0.283-0.029-0.478-0.088-0.583c-0.06-0.105-0.141-0.181-0.244-0.226
		c-0.104-0.045-0.363-0.067-0.779-0.067H9.074c-0.652,0-1.083,0.049-1.295,0.147c-0.211,0.099-0.387,0.261-0.525,0.486
		c-0.141,0.226-0.21,0.51-0.21,0.854c0,0.395,0.089,0.73,0.266,1.008c0.178,0.277,0.422,0.485,0.733,0.623s0.854,0.207,1.627,0.207
		h2.971c0.326,0,0.559-0.034,0.698-0.103s0.236-0.154,0.29-0.258c0.082-0.161,0.123-0.389,0.123-0.683h0.199v2.52h-0.199v-0.15
		c0-0.204-0.041-0.374-0.123-0.51c-0.082-0.137-0.206-0.235-0.371-0.296c-0.114-0.047-0.32-0.069-0.617-0.069H9.875
		c-0.856,0-1.475-0.057-1.854-0.17c-0.379-0.112-0.729-0.388-1.047-0.824c-0.319-0.437-0.479-1.033-0.479-1.789
		c0-0.63,0.084-1.117,0.252-1.461c0.229-0.469,0.523-0.8,0.881-0.993c0.358-0.193,0.84-0.29,1.445-0.29h3.566
		c0.419,0,0.68-0.023,0.781-0.07c0.103-0.046,0.184-0.127,0.244-0.241c0.062-0.114,0.09-0.326,0.086-0.634H13.951z"/>
	<path d="M13.532,242.277h-2.965v0.146c0,0.461,0.146,0.796,0.435,1.004c0.291,0.208,0.719,0.34,1.284,0.397v0.204H8.473v-0.204
		c0.416-0.043,0.756-0.134,1.021-0.271s0.443-0.298,0.534-0.48c0.092-0.183,0.137-0.447,0.137-0.795H8.113
		c-0.401,0-0.646,0.017-0.736,0.051s-0.163,0.098-0.221,0.19c-0.057,0.094-0.086,0.244-0.086,0.451v0.436
		c0,0.681,0.158,1.226,0.473,1.636c0.315,0.41,0.795,0.704,1.439,0.884v0.198l-2.314-0.327v-6.295h0.199v0.241
		c0,0.211,0.037,0.382,0.112,0.511c0.05,0.093,0.136,0.164,0.258,0.215c0.086,0.039,0.312,0.059,0.677,0.059h4.791
		c0.33,0,0.531-0.009,0.607-0.027c0.125-0.035,0.222-0.102,0.289-0.198c0.101-0.136,0.15-0.322,0.15-0.559v-0.241h0.199v6.096
		h-2.154v-0.204c0.527-0.104,0.904-0.25,1.134-0.438c0.229-0.188,0.397-0.454,0.505-0.798c0.064-0.2,0.097-0.576,0.097-1.128
		V242.277z"/>
</g>
</svg>
