<?xml version="1.0" encoding="utf-8"?>
<!-- Generator: Adobe Illustrator 16.0.0, SVG Export Plug-In . SVG Version: 6.00 Build 0)  -->
<!DOCTYPE svg PUBLIC "-//W3C//DTD SVG 1.1//EN" "http://www.w3.org/Graphics/SVG/1.1/DTD/svg11.dtd">
<svg version="1.1" id="Calque_1" xmlns="http://www.w3.org/2000/svg" xmlns:xlink="http://www.w3.org/1999/xlink" x="0px" y="0px"
	 width="20px" height="260px" viewBox="0 0 20 260" enable-background="new 0 0 20 260" xml:space="preserve">
<rect fill="#DE9D2F" width="20" height="260"/>
<g>
	<path fill="#FFFFFF" d="M16.105,9.991v3.698c0,0.834-0.064,1.47-0.191,1.907c-0.174,0.588-0.48,1.092-0.923,1.511
		s-0.983,0.738-1.624,0.957c-0.64,0.219-1.43,0.328-2.368,0.328c-0.825,0-1.536-0.103-2.133-0.308
		c-0.729-0.251-1.319-0.608-1.771-1.073c-0.342-0.351-0.608-0.825-0.8-1.422c-0.141-0.446-0.212-1.044-0.212-1.791V9.991H16.105z
		 M14.41,12.015H7.772v1.511c0,0.565,0.032,0.973,0.096,1.224c0.082,0.328,0.221,0.601,0.417,0.816
		c0.196,0.217,0.519,0.394,0.967,0.53s1.061,0.205,1.835,0.205c0.775,0,1.369-0.068,1.784-0.205s0.738-0.328,0.971-0.574
		s0.39-0.559,0.472-0.937c0.064-0.282,0.096-0.836,0.096-1.661V12.015z"/>
	<path fill="#FFFFFF" d="M8.395,24.299l-0.321,1.914c-0.702-0.246-1.236-0.635-1.603-1.166c-0.367-0.53-0.55-1.194-0.55-1.992
		c0-1.263,0.413-2.196,1.237-2.803c0.661-0.479,1.495-0.718,2.502-0.718c1.203,0,2.146,0.314,2.827,0.943
		c0.681,0.629,1.021,1.424,1.021,2.386c0,1.08-0.356,1.933-1.07,2.557c-0.713,0.624-1.805,0.923-3.277,0.896v-4.813
		c-0.57,0.014-1.013,0.169-1.33,0.465s-0.475,0.665-0.475,1.107c0,0.301,0.082,0.554,0.246,0.759S8.03,24.194,8.395,24.299z
		 M10.336,24.408c0.556-0.014,0.979-0.157,1.268-0.431c0.29-0.273,0.435-0.606,0.435-0.998c0-0.419-0.153-0.766-0.458-1.039
		s-0.72-0.408-1.244-0.403V24.408z M14.232,21.954l2.044,0.943v2.153l-2.044-1.88V21.954z"/>
	<path fill="#FFFFFF" d="M11.197,34.211l-0.342-1.894c0.379-0.063,0.663-0.209,0.854-0.434c0.191-0.227,0.287-0.519,0.287-0.879
		c0-0.479-0.165-0.86-0.495-1.145c-0.331-0.285-0.883-0.428-1.658-0.428c-0.861,0-1.47,0.145-1.825,0.434
		c-0.355,0.29-0.533,0.679-0.533,1.166c0,0.364,0.104,0.663,0.311,0.896s0.564,0.396,1.07,0.492l-0.321,1.887
		c-0.866-0.196-1.52-0.572-1.962-1.128S5.92,31.878,5.92,30.943c0-1.062,0.335-1.908,1.005-2.54c0.67-0.631,1.597-0.946,2.782-0.946
		c1.199,0,2.132,0.316,2.799,0.95c0.668,0.634,1.002,1.49,1.002,2.57c0,0.884-0.19,1.587-0.57,2.109
		C12.557,33.608,11.977,33.983,11.197,34.211z"/>
	<path fill="#FFFFFF" d="M6.084,37.506v-1.921h7.26v1.784h-1.032c0.487,0.306,0.81,0.58,0.964,0.824
		c0.154,0.243,0.232,0.521,0.232,0.83c0,0.438-0.121,0.859-0.362,1.265l-1.675-0.595c0.209-0.323,0.314-0.624,0.314-0.902
		c0-0.269-0.074-0.497-0.223-0.684c-0.147-0.187-0.416-0.334-0.803-0.441c-0.387-0.106-1.199-0.16-2.434-0.16H6.084z"/>
	<path fill="#FFFFFF" d="M9.816,40.671c0.638,0,1.256,0.157,1.853,0.472s1.053,0.76,1.367,1.337c0.314,0.576,0.472,1.22,0.472,1.931
		c0,1.099-0.356,1.998-1.07,2.7c-0.713,0.702-1.614,1.053-2.703,1.053c-1.098,0-2.009-0.354-2.731-1.063
		c-0.722-0.709-1.083-1.602-1.083-2.677c0-0.665,0.15-1.3,0.451-1.903c0.301-0.604,0.742-1.063,1.323-1.378
		S8.982,40.671,9.816,40.671z M9.714,42.64c-0.72,0-1.271,0.171-1.654,0.513s-0.574,0.764-0.574,1.265s0.191,0.922,0.574,1.262
		c0.383,0.339,0.939,0.509,1.668,0.509c0.711,0,1.258-0.17,1.641-0.509c0.383-0.34,0.574-0.761,0.574-1.262
		s-0.191-0.923-0.574-1.265S10.434,42.64,9.714,42.64z"/>
	<path fill="#FFFFFF" d="M11.197,55.997l-0.342-1.894c0.379-0.063,0.663-0.209,0.854-0.434c0.191-0.227,0.287-0.519,0.287-0.879
		c0-0.479-0.165-0.86-0.495-1.145c-0.331-0.285-0.883-0.428-1.658-0.428c-0.861,0-1.47,0.145-1.825,0.434
		c-0.355,0.29-0.533,0.679-0.533,1.166c0,0.364,0.104,0.663,0.311,0.896s0.564,0.396,1.07,0.492l-0.321,1.887
		c-0.866-0.196-1.52-0.572-1.962-1.128S5.92,53.664,5.92,52.729c0-1.062,0.335-1.908,1.005-2.54c0.67-0.631,1.597-0.946,2.782-0.946
		c1.199,0,2.132,0.316,2.799,0.95c0.668,0.634,1.002,1.49,1.002,2.57c0,0.884-0.19,1.587-0.57,2.109
		C12.557,55.395,11.977,55.77,11.197,55.997z"/>
	<path fill="#FFFFFF" d="M16.105,59.367h-3.685c0.725,0.62,1.087,1.36,1.087,2.222c0,0.442-0.082,0.841-0.246,1.196
		s-0.373,0.623-0.629,0.804c-0.256,0.18-0.537,0.303-0.848,0.369c-0.311,0.065-0.791,0.099-1.442,0.099H6.084v-1.921h3.835
		c0.761,0,1.244-0.036,1.449-0.109s0.368-0.201,0.489-0.387c0.12-0.184,0.181-0.415,0.181-0.693c0-0.319-0.077-0.604-0.232-0.854
		s-0.389-0.435-0.7-0.55c-0.313-0.117-0.774-0.175-1.385-0.175H6.084v-1.921h10.021V59.367z"/>
	<path fill="#FFFFFF" d="M11.129,67.44l0.314-1.743c0.701,0.196,1.221,0.533,1.559,1.012s0.506,1.189,0.506,2.133
		c0,0.856-0.102,1.495-0.305,1.914c-0.202,0.419-0.46,0.715-0.771,0.885c-0.313,0.172-0.886,0.257-1.72,0.257L8.47,71.877
		c-0.638,0-1.108,0.031-1.412,0.092c-0.303,0.063-0.628,0.177-0.974,0.346v-1.9c0.127-0.05,0.317-0.111,0.567-0.185
		c0.114-0.032,0.189-0.055,0.226-0.068c-0.319-0.328-0.558-0.679-0.718-1.053S5.92,68.336,5.92,67.912
		c0-0.747,0.203-1.336,0.608-1.768c0.406-0.43,0.918-0.646,1.538-0.646c0.41,0,0.776,0.098,1.097,0.294s0.567,0.471,0.738,0.824
		c0.171,0.353,0.32,0.862,0.448,1.527c0.168,0.897,0.326,1.52,0.472,1.866h0.191c0.369,0,0.632-0.091,0.79-0.273
		c0.156-0.183,0.235-0.526,0.235-1.032c0-0.342-0.067-0.608-0.202-0.8C11.702,67.714,11.467,67.559,11.129,67.44z M9.57,70.011
		c-0.082-0.246-0.18-0.636-0.294-1.169s-0.226-0.882-0.335-1.046c-0.178-0.251-0.403-0.376-0.677-0.376
		c-0.269,0-0.501,0.101-0.697,0.301s-0.294,0.456-0.294,0.766c0,0.347,0.114,0.677,0.342,0.991C7.789,69.71,8,69.862,8.251,69.936
		c0.164,0.05,0.476,0.075,0.937,0.075H9.57z"/>
	<path fill="#FFFFFF" d="M5.605,73.613l-0.267,2.194c-0.255,0.036-0.431,0.121-0.526,0.253c-0.137,0.183-0.205,0.47-0.205,0.861
		c0,0.501,0.075,0.877,0.226,1.128c0.1,0.169,0.262,0.296,0.485,0.383c0.16,0.06,0.454,0.089,0.882,0.089h1.06
		c-0.784-0.574-1.176-1.299-1.176-2.174c0-0.976,0.413-1.748,1.237-2.317c0.652-0.446,1.463-0.67,2.434-0.67
		c1.217,0,2.146,0.293,2.789,0.879c0.643,0.585,0.964,1.313,0.964,2.184c0,0.897-0.395,1.639-1.183,2.222h1.019v1.798H6.829
		c-0.857,0-1.497-0.07-1.921-0.212s-0.756-0.34-0.998-0.595s-0.431-0.596-0.567-1.021c-0.137-0.427-0.205-0.966-0.205-1.617
		c0-1.23,0.211-2.104,0.632-2.618s0.956-0.772,1.603-0.772C5.437,73.606,5.514,73.608,5.605,73.613z M9.864,75.329
		c-0.77,0-1.334,0.149-1.692,0.447c-0.358,0.299-0.537,0.667-0.537,1.104c0,0.47,0.184,0.866,0.55,1.189s0.91,0.485,1.63,0.485
		c0.752,0,1.311-0.155,1.675-0.465s0.547-0.702,0.547-1.176c0-0.46-0.179-0.84-0.536-1.139
		C11.144,75.479,10.598,75.329,9.864,75.329z"/>
	<path fill="#FFFFFF" d="M8.395,86.547l-0.321,1.914c-0.702-0.246-1.236-0.635-1.603-1.166c-0.367-0.53-0.55-1.194-0.55-1.992
		c0-1.263,0.413-2.196,1.237-2.803c0.661-0.479,1.495-0.718,2.502-0.718c1.203,0,2.146,0.314,2.827,0.943
		c0.681,0.629,1.021,1.424,1.021,2.386c0,1.08-0.356,1.933-1.07,2.557c-0.713,0.624-1.805,0.923-3.277,0.896v-4.813
		c-0.57,0.014-1.013,0.169-1.33,0.465s-0.475,0.665-0.475,1.107c0,0.301,0.082,0.554,0.246,0.759S8.03,86.442,8.395,86.547z
		 M10.336,86.656c0.556-0.014,0.979-0.157,1.268-0.431c0.29-0.273,0.435-0.606,0.435-0.998c0-0.419-0.153-0.766-0.458-1.039
		s-0.72-0.408-1.244-0.403V86.656z"/>
	<path fill="#FFFFFF" d="M8.155,89.452l0.294,1.928c-0.374,0.082-0.657,0.248-0.851,0.499s-0.291,0.602-0.291,1.053
		c0,0.497,0.091,0.87,0.273,1.121c0.127,0.169,0.298,0.253,0.513,0.253c0.146,0,0.267-0.046,0.362-0.137
		c0.091-0.096,0.175-0.31,0.253-0.643c0.342-1.55,0.654-2.531,0.937-2.946c0.392-0.574,0.937-0.861,1.634-0.861
		c0.629,0,1.158,0.248,1.586,0.745s0.643,1.267,0.643,2.311c0,0.993-0.162,1.731-0.485,2.215s-0.802,0.815-1.436,0.998l-0.335-1.812
		c0.283-0.077,0.499-0.225,0.649-0.44c0.15-0.217,0.226-0.525,0.226-0.927c0-0.506-0.07-0.868-0.212-1.087
		c-0.101-0.146-0.229-0.219-0.39-0.219c-0.137,0-0.253,0.063-0.349,0.191c-0.128,0.173-0.308,0.771-0.54,1.795
		c-0.232,1.022-0.517,1.737-0.854,2.143c-0.342,0.401-0.818,0.602-1.429,0.602c-0.666,0-1.237-0.278-1.716-0.834
		S5.92,94.021,5.92,92.932c0-0.989,0.201-1.771,0.602-2.349C6.922,90.007,7.467,89.63,8.155,89.452z"/>
	<path fill="#FFFFFF" d="M8.155,101.128l0.294,1.928c-0.374,0.082-0.657,0.248-0.851,0.499s-0.291,0.602-0.291,1.053
		c0,0.497,0.091,0.87,0.273,1.121c0.127,0.169,0.298,0.253,0.513,0.253c0.146,0,0.267-0.046,0.362-0.137
		c0.091-0.096,0.175-0.31,0.253-0.643c0.342-1.55,0.654-2.531,0.937-2.946c0.392-0.574,0.937-0.861,1.634-0.861
		c0.629,0,1.158,0.248,1.586,0.745s0.643,1.267,0.643,2.311c0,0.993-0.162,1.731-0.485,2.215s-0.802,0.815-1.436,0.998l-0.335-1.812
		c0.283-0.077,0.499-0.225,0.649-0.44c0.15-0.217,0.226-0.525,0.226-0.927c0-0.506-0.07-0.868-0.212-1.087
		c-0.101-0.146-0.229-0.219-0.39-0.219c-0.137,0-0.253,0.063-0.349,0.191c-0.128,0.173-0.308,0.771-0.54,1.795
		c-0.232,1.022-0.517,1.737-0.854,2.143c-0.342,0.401-0.818,0.602-1.429,0.602c-0.666,0-1.237-0.278-1.716-0.834
		s-0.718-1.379-0.718-2.468c0-0.989,0.201-1.771,0.602-2.349C6.922,101.683,7.467,101.306,8.155,101.128z"/>
	<path fill="#FFFFFF" d="M11.197,115.921l-0.342-1.894c0.379-0.063,0.663-0.209,0.854-0.434c0.191-0.227,0.287-0.519,0.287-0.879
		c0-0.479-0.165-0.86-0.495-1.145c-0.331-0.285-0.883-0.428-1.658-0.428c-0.861,0-1.47,0.145-1.825,0.434
		c-0.355,0.29-0.533,0.679-0.533,1.166c0,0.364,0.104,0.663,0.311,0.896s0.564,0.396,1.07,0.492l-0.321,1.887
		c-0.866-0.196-1.52-0.572-1.962-1.128s-0.663-1.301-0.663-2.235c0-1.062,0.335-1.908,1.005-2.54
		c0.67-0.631,1.597-0.946,2.782-0.946c1.199,0,2.132,0.316,2.799,0.95c0.668,0.634,1.002,1.49,1.002,2.57
		c0,0.884-0.19,1.587-0.57,2.109C12.557,115.318,11.977,115.693,11.197,115.921z"/>
	<path fill="#FFFFFF" d="M9.816,116.933c0.638,0,1.256,0.157,1.853,0.472s1.053,0.76,1.367,1.337
		c0.314,0.576,0.472,1.22,0.472,1.931c0,1.099-0.356,1.998-1.07,2.7c-0.713,0.702-1.614,1.053-2.703,1.053
		c-1.098,0-2.009-0.354-2.731-1.063c-0.722-0.709-1.083-1.602-1.083-2.677c0-0.665,0.15-1.3,0.451-1.903
		c0.301-0.604,0.742-1.063,1.323-1.378S8.982,116.933,9.816,116.933z M9.714,118.901c-0.72,0-1.271,0.171-1.654,0.513
		s-0.574,0.764-0.574,1.265s0.191,0.922,0.574,1.262c0.383,0.339,0.939,0.509,1.668,0.509c0.711,0,1.258-0.17,1.641-0.509
		c0.383-0.34,0.574-0.761,0.574-1.262s-0.191-0.923-0.574-1.265S10.434,118.901,9.714,118.901z"/>
	<path fill="#FFFFFF" d="M6.084,125.929h10.021v1.921H6.084V125.929z"/>
	<path fill="#FFFFFF" d="M11.129,131.254l0.314-1.743c0.701,0.196,1.221,0.533,1.559,1.012s0.506,1.189,0.506,2.133
		c0,0.856-0.102,1.495-0.305,1.914c-0.202,0.419-0.46,0.715-0.771,0.885c-0.313,0.172-0.886,0.257-1.72,0.257L8.47,135.69
		c-0.638,0-1.108,0.031-1.412,0.092c-0.303,0.063-0.628,0.177-0.974,0.346v-1.9c0.127-0.05,0.317-0.111,0.567-0.185
		c0.114-0.032,0.189-0.055,0.226-0.068c-0.319-0.328-0.558-0.679-0.718-1.053s-0.239-0.772-0.239-1.196
		c0-0.747,0.203-1.336,0.608-1.768c0.406-0.43,0.918-0.646,1.538-0.646c0.41,0,0.776,0.098,1.097,0.294s0.567,0.471,0.738,0.824
		c0.171,0.353,0.32,0.862,0.448,1.527c0.168,0.897,0.326,1.52,0.472,1.866h0.191c0.369,0,0.632-0.091,0.79-0.273
		c0.156-0.183,0.235-0.526,0.235-1.032c0-0.342-0.067-0.608-0.202-0.8C11.702,131.527,11.467,131.372,11.129,131.254z M9.57,133.824
		c-0.082-0.246-0.18-0.636-0.294-1.169s-0.226-0.882-0.335-1.046c-0.178-0.251-0.403-0.376-0.677-0.376
		c-0.269,0-0.501,0.101-0.697,0.301s-0.294,0.456-0.294,0.766c0,0.347,0.114,0.677,0.342,0.991c0.173,0.232,0.385,0.385,0.636,0.458
		c0.164,0.05,0.476,0.075,0.937,0.075H9.57z"/>
	<path fill="#FFFFFF" d="M6.084,137.604h7.26v1.921h-7.26V137.604z M14.328,137.604h1.777v1.921h-1.777V137.604z"/>
	<path fill="#FFFFFF" d="M6.084,143.333v-1.921h7.26v1.784h-1.032c0.487,0.306,0.81,0.58,0.964,0.824
		c0.154,0.243,0.232,0.521,0.232,0.83c0,0.438-0.121,0.859-0.362,1.265l-1.675-0.595c0.209-0.323,0.314-0.624,0.314-0.902
		c0-0.269-0.074-0.497-0.223-0.684c-0.147-0.187-0.416-0.334-0.803-0.441c-0.387-0.106-1.199-0.16-2.434-0.16H6.084z"/>
	<path fill="#FFFFFF" d="M8.395,151.146l-0.321,1.914c-0.702-0.246-1.236-0.635-1.603-1.166c-0.367-0.53-0.55-1.194-0.55-1.992
		c0-1.263,0.413-2.196,1.237-2.803c0.661-0.479,1.495-0.718,2.502-0.718c1.203,0,2.146,0.314,2.827,0.943
		c0.681,0.629,1.021,1.424,1.021,2.386c0,1.08-0.356,1.933-1.07,2.557c-0.713,0.624-1.805,0.923-3.277,0.896v-4.813
		c-0.57,0.014-1.013,0.169-1.33,0.465s-0.475,0.665-0.475,1.107c0,0.301,0.082,0.554,0.246,0.759S8.03,151.042,8.395,151.146z
		 M10.336,151.256c0.556-0.014,0.979-0.157,1.268-0.431c0.29-0.273,0.435-0.606,0.435-0.998c0-0.419-0.153-0.766-0.458-1.039
		s-0.72-0.408-1.244-0.403V151.256z"/>
	<path fill="#FFFFFF" d="M8.155,154.052l0.294,1.928c-0.374,0.082-0.657,0.248-0.851,0.499s-0.291,0.602-0.291,1.053
		c0,0.497,0.091,0.87,0.273,1.121c0.127,0.169,0.298,0.253,0.513,0.253c0.146,0,0.267-0.046,0.362-0.137
		c0.091-0.096,0.175-0.31,0.253-0.643c0.342-1.55,0.654-2.531,0.937-2.946c0.392-0.574,0.937-0.861,1.634-0.861
		c0.629,0,1.158,0.248,1.586,0.745s0.643,1.267,0.643,2.311c0,0.993-0.162,1.731-0.485,2.215s-0.802,0.815-1.436,0.998l-0.335-1.812
		c0.283-0.077,0.499-0.225,0.649-0.44c0.15-0.217,0.226-0.525,0.226-0.927c0-0.506-0.07-0.868-0.212-1.087
		c-0.101-0.146-0.229-0.219-0.39-0.219c-0.137,0-0.253,0.063-0.349,0.191c-0.128,0.173-0.308,0.771-0.54,1.795
		c-0.232,1.022-0.517,1.737-0.854,2.143c-0.342,0.401-0.818,0.602-1.429,0.602c-0.666,0-1.237-0.278-1.716-0.834
		s-0.718-1.379-0.718-2.468c0-0.989,0.201-1.771,0.602-2.349C6.922,154.606,7.467,154.229,8.155,154.052z"/>
</g>
<g>
	<path fill="#FFFFFF" d="M8.716,178.288l-0.444,1.401c-0.781-0.215-1.361-0.572-1.741-1.072c-0.379-0.499-0.569-1.133-0.569-1.901
		c0-0.95,0.325-1.731,0.974-2.344s1.537-0.918,2.664-0.918c1.191,0,2.117,0.308,2.776,0.923s0.989,1.424,0.989,2.427
		c0,0.876-0.26,1.587-0.777,2.134c-0.306,0.325-0.745,0.569-1.318,0.732l-0.341-1.431c0.371-0.085,0.664-0.261,0.878-0.53
		c0.215-0.268,0.322-0.595,0.322-0.979c0-0.53-0.189-0.961-0.57-1.291c-0.381-0.331-0.998-0.496-1.851-0.496
		c-0.905,0-1.549,0.163-1.934,0.488s-0.576,0.749-0.576,1.27c0,0.384,0.122,0.715,0.366,0.991S8.192,178.168,8.716,178.288z"/>
	<path fill="#FFFFFF" d="M9.688,181.945l0.225-1.245c0.501,0.14,0.873,0.381,1.113,0.723c0.241,0.342,0.361,0.85,0.361,1.523
		c0,0.612-0.072,1.067-0.217,1.367s-0.329,0.51-0.552,0.633c-0.223,0.121-0.632,0.183-1.228,0.183l-1.602-0.015
		c-0.456,0-0.792,0.021-1.008,0.066c-0.216,0.043-0.448,0.126-0.696,0.246v-1.357c0.091-0.036,0.226-0.08,0.405-0.132
		c0.082-0.022,0.135-0.039,0.161-0.049c-0.228-0.234-0.399-0.485-0.513-0.752s-0.171-0.552-0.171-0.854
		c0-0.534,0.145-0.955,0.435-1.262c0.29-0.309,0.656-0.462,1.099-0.462c0.293,0,0.554,0.07,0.784,0.21s0.405,0.336,0.527,0.588
		c0.122,0.253,0.229,0.616,0.32,1.092c0.121,0.642,0.233,1.086,0.337,1.333h0.137c0.264,0,0.452-0.065,0.564-0.195
		s0.168-0.376,0.168-0.737c0-0.244-0.048-0.435-0.144-0.571S9.929,182.03,9.688,181.945z M8.575,183.781
		c-0.059-0.176-0.128-0.454-0.21-0.835s-0.161-0.63-0.239-0.747c-0.127-0.179-0.288-0.269-0.483-0.269
		c-0.192,0-0.358,0.071-0.498,0.215s-0.21,0.325-0.21,0.547c0,0.247,0.082,0.483,0.244,0.708c0.124,0.166,0.275,0.275,0.454,0.327
		c0.117,0.036,0.34,0.054,0.669,0.054H8.575z"/>
	<path fill="#FFFFFF" d="M11.27,188.859h-1.093v-0.938h-2.09c-0.423,0-0.67,0.009-0.74,0.027c-0.07,0.018-0.128,0.059-0.173,0.121
		c-0.045,0.064-0.068,0.142-0.068,0.232c0,0.127,0.044,0.311,0.132,0.552l-1.064,0.117c-0.137-0.319-0.205-0.681-0.205-1.084
		c0-0.247,0.042-0.471,0.125-0.669s0.19-0.344,0.322-0.438c0.132-0.092,0.31-0.156,0.535-0.192c0.16-0.029,0.482-0.044,0.967-0.044
		h2.261v-0.63h1.093v0.63h1.031l0.801,1.377H11.27V188.859z"/>
	<path fill="#FFFFFF" d="M13.242,191.179h-2.631c0.518,0.442,0.776,0.972,0.776,1.587c0,0.315-0.059,0.601-0.176,0.854
		s-0.267,0.445-0.449,0.573c-0.182,0.129-0.384,0.217-0.605,0.264c-0.221,0.048-0.565,0.071-1.03,0.071H6.084v-1.372h2.739
		c0.543,0,0.889-0.026,1.035-0.078s0.263-0.145,0.349-0.275c0.086-0.133,0.129-0.298,0.129-0.496c0-0.228-0.055-0.432-0.166-0.61
		s-0.277-0.31-0.5-0.394c-0.223-0.082-0.553-0.124-0.989-0.124H6.084v-1.372h7.158V191.179z"/>
	<path fill="#FFFFFF" d="M7.735,198.923l-0.229,1.367c-0.501-0.176-0.883-0.453-1.145-0.832c-0.262-0.38-0.393-0.854-0.393-1.424
		c0-0.901,0.294-1.569,0.884-2.002c0.472-0.342,1.068-0.513,1.787-0.513c0.859,0,1.532,0.225,2.019,0.674
		c0.487,0.449,0.729,1.018,0.729,1.704c0,0.771-0.254,1.38-0.764,1.826c-0.509,0.446-1.29,0.659-2.341,0.64v-3.438
		c-0.407,0.01-0.724,0.12-0.95,0.332s-0.339,0.476-0.339,0.791c0,0.215,0.059,0.396,0.176,0.542S7.475,198.848,7.735,198.923z
		 M9.122,199.001c0.397-0.01,0.699-0.112,0.906-0.308s0.31-0.433,0.31-0.713c0-0.3-0.109-0.547-0.327-0.742
		s-0.514-0.291-0.889-0.288V199.001z"/>
	<path fill="#FFFFFF" d="M6.084,202.795v-1.372h5.185v1.274h-0.737c0.348,0.218,0.578,0.414,0.688,0.588
		c0.111,0.175,0.166,0.372,0.166,0.594c0,0.313-0.086,0.613-0.258,0.903l-1.197-0.425c0.15-0.231,0.225-0.446,0.225-0.645
		c0-0.192-0.053-0.354-0.159-0.488s-0.297-0.238-0.574-0.314c-0.277-0.077-0.856-0.115-1.738-0.115H6.084z"/>
	<path fill="#FFFFFF" d="M6.084,205.373h5.185v1.372H6.084V205.373z M11.973,205.373h1.27v1.372h-1.27V205.373z"/>
	<path fill="#FFFFFF" d="M6.084,212.868v-1.372h2.646c0.56,0,0.922-0.029,1.086-0.088s0.292-0.154,0.383-0.285
		c0.091-0.133,0.137-0.291,0.137-0.477c0-0.237-0.065-0.451-0.195-0.64s-0.303-0.318-0.518-0.388
		c-0.215-0.07-0.612-0.105-1.191-0.105H6.084v-1.372h5.185v1.274h-0.761c0.585,0.452,0.878,1.022,0.878,1.709
		c0,0.303-0.055,0.579-0.163,0.83s-0.248,0.44-0.417,0.568c-0.169,0.129-0.361,0.219-0.576,0.27
		c-0.215,0.05-0.522,0.075-0.923,0.075H6.084z"/>
	<path fill="#FFFFFF" d="M7.735,217.263l-0.229,1.367c-0.501-0.176-0.883-0.453-1.145-0.832c-0.262-0.38-0.393-0.854-0.393-1.424
		c0-0.901,0.294-1.569,0.884-2.002c0.472-0.342,1.068-0.513,1.787-0.513c0.859,0,1.532,0.225,2.019,0.674
		c0.487,0.449,0.729,1.018,0.729,1.704c0,0.771-0.254,1.38-0.764,1.826c-0.509,0.446-1.29,0.659-2.341,0.64v-3.438
		c-0.407,0.01-0.724,0.12-0.95,0.332s-0.339,0.476-0.339,0.791c0,0.215,0.059,0.396,0.176,0.542S7.475,217.188,7.735,217.263z
		 M9.122,217.341c0.397-0.01,0.699-0.112,0.906-0.308s0.31-0.433,0.31-0.713c0-0.3-0.109-0.547-0.327-0.742
		s-0.514-0.291-0.889-0.288V217.341z"/>
	<path fill="#FFFFFF" d="M13.242,222.614v2.861c0,0.566-0.023,0.988-0.07,1.268c-0.047,0.277-0.146,0.527-0.295,0.746
		c-0.15,0.221-0.35,0.403-0.599,0.55s-0.528,0.22-0.837,0.22c-0.336,0-0.644-0.09-0.923-0.271c-0.28-0.18-0.49-0.425-0.63-0.734
		c-0.127,0.437-0.343,0.771-0.649,1.006s-0.666,0.352-1.079,0.352c-0.326,0-0.642-0.076-0.95-0.227
		c-0.308-0.152-0.553-0.358-0.737-0.621c-0.184-0.262-0.297-0.585-0.339-0.969c-0.026-0.241-0.042-0.822-0.049-1.743v-2.437H13.242z
		 M9.205,224.06H7.291v1.338c0,0.521,0.015,0.852,0.044,0.991c0.039,0.215,0.134,0.39,0.286,0.524
		c0.151,0.136,0.354,0.203,0.608,0.203c0.215,0,0.397-0.052,0.547-0.156s0.259-0.255,0.327-0.451
		c0.068-0.197,0.103-0.625,0.103-1.282V224.06z M12.051,224.06h-1.655v0.947c0,0.563,0.008,0.913,0.024,1.05
		c0.029,0.247,0.115,0.442,0.256,0.583c0.142,0.143,0.328,0.213,0.56,0.213c0.221,0,0.4-0.061,0.539-0.184
		c0.139-0.121,0.223-0.303,0.252-0.544c0.016-0.144,0.023-0.555,0.023-1.235V224.06z"/>
	<path fill="#FFFFFF" d="M6.084,229.821h7.158v1.372H6.084V229.821z"/>
	<path fill="#FFFFFF" d="M9.688,233.625l0.225-1.245c0.501,0.14,0.873,0.381,1.113,0.723c0.241,0.342,0.361,0.85,0.361,1.523
		c0,0.612-0.072,1.067-0.217,1.367s-0.329,0.51-0.552,0.633c-0.223,0.121-0.632,0.183-1.228,0.183l-1.602-0.015
		c-0.456,0-0.792,0.021-1.008,0.066c-0.216,0.043-0.448,0.126-0.696,0.246v-1.357c0.091-0.036,0.226-0.08,0.405-0.132
		c0.082-0.022,0.135-0.039,0.161-0.049c-0.228-0.234-0.399-0.485-0.513-0.752s-0.171-0.552-0.171-0.854
		c0-0.534,0.145-0.955,0.435-1.262c0.29-0.309,0.656-0.462,1.099-0.462c0.293,0,0.554,0.07,0.784,0.21s0.405,0.336,0.527,0.588
		c0.122,0.253,0.229,0.616,0.32,1.092c0.121,0.642,0.233,1.086,0.337,1.333h0.137c0.264,0,0.452-0.065,0.564-0.195
		s0.168-0.376,0.168-0.737c0-0.244-0.048-0.435-0.144-0.571S9.929,233.71,9.688,233.625z M8.575,235.461
		c-0.059-0.176-0.128-0.454-0.21-0.835s-0.161-0.63-0.239-0.747c-0.127-0.179-0.288-0.269-0.483-0.269
		c-0.192,0-0.358,0.071-0.498,0.215s-0.21,0.325-0.21,0.547c0,0.247,0.082,0.483,0.244,0.708c0.124,0.166,0.275,0.275,0.454,0.327
		c0.117,0.036,0.34,0.054,0.669,0.054H8.575z"/>
	<path fill="#FFFFFF" d="M11.27,237.512v1.46l-3.681,1.24l3.681,1.211v1.421l-4.99-1.831l-0.903-0.327
		c-0.303-0.12-0.534-0.235-0.693-0.344c-0.16-0.109-0.289-0.234-0.388-0.377c-0.099-0.141-0.177-0.315-0.232-0.521
		c-0.055-0.207-0.083-0.44-0.083-0.701c0-0.264,0.028-0.522,0.083-0.776l1.074-0.122c-0.042,0.215-0.063,0.408-0.063,0.581
		c0,0.319,0.094,0.555,0.281,0.708s0.426,0.271,0.715,0.352L11.27,237.512z"/>
	<path fill="#FFFFFF" d="M9.688,244.748l0.225-1.245c0.501,0.14,0.873,0.381,1.113,0.723c0.241,0.342,0.361,0.85,0.361,1.523
		c0,0.612-0.072,1.067-0.217,1.367s-0.329,0.51-0.552,0.633c-0.223,0.121-0.632,0.183-1.228,0.183l-1.602-0.015
		c-0.456,0-0.792,0.021-1.008,0.066c-0.216,0.043-0.448,0.126-0.696,0.246v-1.357c0.091-0.036,0.226-0.08,0.405-0.132
		c0.082-0.022,0.135-0.039,0.161-0.049c-0.228-0.234-0.399-0.485-0.513-0.752s-0.171-0.552-0.171-0.854
		c0-0.534,0.145-0.955,0.435-1.262c0.29-0.309,0.656-0.462,1.099-0.462c0.293,0,0.554,0.07,0.784,0.21s0.405,0.336,0.527,0.588
		c0.122,0.253,0.229,0.616,0.32,1.092c0.121,0.642,0.233,1.086,0.337,1.333h0.137c0.264,0,0.452-0.065,0.564-0.195
		s0.168-0.376,0.168-0.737c0-0.244-0.048-0.435-0.144-0.571S9.929,244.833,9.688,244.748z M8.575,246.584
		c-0.059-0.176-0.128-0.454-0.21-0.835s-0.161-0.63-0.239-0.747c-0.127-0.179-0.288-0.269-0.483-0.269
		c-0.192,0-0.358,0.071-0.498,0.215s-0.21,0.325-0.21,0.547c0,0.247,0.082,0.483,0.244,0.708c0.124,0.166,0.275,0.275,0.454,0.327
		c0.117,0.036,0.34,0.054,0.669,0.054H8.575z"/>
</g>
</svg>
