<?xml version="1.0" encoding="utf-8"?>
<!-- Generator: Adobe Illustrator 16.0.0, SVG Export Plug-In . SVG Version: 6.00 Build 0)  -->
<!DOCTYPE svg PUBLIC "-//W3C//DTD SVG 1.1//EN" "http://www.w3.org/Graphics/SVG/1.1/DTD/svg11.dtd">
<svg version="1.1" id="Calque_1" xmlns="http://www.w3.org/2000/svg" xmlns:xlink="http://www.w3.org/1999/xlink" x="0px" y="0px"
	 width="20px" height="260px" viewBox="0 0 20 260" enable-background="new 0 0 20 260" xml:space="preserve">
<g>
	<path fill="#CF348A" d="M6.351,11.138v1.125h6.84v-1.125h1.515v4.125H13.19v-1.305H6.336v2.715H7.73v1.635H4.836v-7.17H6.351z"/>
	<path fill="#CF348A" d="M6.351,18.998v0.854l6.855,2.46v-1.08h1.499v5.58h-1.499v-1.08l-6.855,2.46v0.854H4.836v-3.794h1.5v1.14
		l1.62-0.555v-3.69l-1.62-0.555v1.2h-1.5v-3.795H6.351z M9.366,25.372l3.885-1.38l-3.885-1.38V25.372z"/>
	<path fill="#CF348A" d="M6.351,33.098v1.125h6.84v-1.125h1.515v3.825c0,2.265-0.975,3.885-2.984,3.885
		c-1.275,0-2.25-0.78-2.685-1.86l-2.686,1.516v1.125H4.836v-2.28l3.75-1.979c-0.016-0.21-0.03-0.405-0.03-0.601
		c0-0.314,0-0.6,0.015-0.81h-2.22v1.229H4.836v-4.05H6.351z M11.661,39.053c1.034,0,1.529-0.855,1.529-2.22v-0.915h-3.165
		c-0.015,0.18-0.029,0.42-0.029,0.96C9.996,38.152,10.626,39.053,11.661,39.053z"/>
	<path fill="#CF348A" d="M6.351,42.397v1.125h6.84v-1.125h1.515v7.365h-2.819v-1.62h1.32v-2.925h-2.641v2.984H9.126v-2.984h-2.79
		v2.939h1.32v1.62h-2.82v-7.38H6.351z M16.07,45.548l2.25,1.649c0.285,0.226,0.465,0.525,0.465,0.825
		c0,0.405-0.33,0.735-0.765,0.735c-0.285,0-0.585-0.15-0.825-0.465l-1.62-2.235L16.07,45.548z"/>
	<path fill="#CF348A" d="M8.436,51.833h4.755v-1.08h1.515v3.96H13.19v-1.186H8.525c-1.515,0-2.324,0.766-2.324,2.025
		c0,1.274,0.734,2.04,2.265,2.04h4.725v-1.186h1.515v3.915H13.19v-1.08H8.466c-2.58,0-3.81-1.515-3.81-3.689
		C4.656,53.348,5.886,51.833,8.436,51.833z"/>
	<path fill="#CF348A" d="M6.951,61.102c0.705,0,1.17,0.42,1.17,1.035c0,0.66-0.495,1.08-0.976,1.08c-0.239,0-0.42-0.045-0.6-0.135
		c-0.255,0.359-0.42,0.915-0.42,1.56c0,1.08,0.479,1.771,1.335,1.771c0.81,0,1.2-0.825,1.545-1.815c0.66-1.83,1.245-3.12,3.075-3.12
		c1.574,0,2.805,1.275,2.805,3.271c0,1.845-0.945,3.27-2.13,3.27c-0.705,0-1.11-0.435-1.11-1.005c0-0.69,0.51-1.08,1.005-1.08
		c0.24,0,0.346,0.045,0.465,0.105c0.165-0.271,0.301-0.69,0.301-1.306c0-0.975-0.495-1.545-1.216-1.545
		c-0.81,0-1.17,0.825-1.529,1.815c-0.63,1.77-1.245,3.104-3.075,3.104c-1.875,0-2.939-1.455-2.939-3.479
		C4.656,62.677,5.751,61.102,6.951,61.102z"/>
	<path fill="#CF348A" d="M6.951,69.427c0.705,0,1.17,0.42,1.17,1.035c0,0.66-0.495,1.08-0.976,1.08c-0.239,0-0.42-0.045-0.6-0.135
		c-0.255,0.359-0.42,0.915-0.42,1.56c0,1.08,0.479,1.771,1.335,1.771c0.81,0,1.2-0.825,1.545-1.815c0.66-1.83,1.245-3.12,3.075-3.12
		c1.574,0,2.805,1.275,2.805,3.271c0,1.845-0.945,3.27-2.13,3.27c-0.705,0-1.11-0.435-1.11-1.005c0-0.69,0.51-1.08,1.005-1.08
		c0.24,0,0.346,0.045,0.465,0.105c0.165-0.271,0.301-0.69,0.301-1.306c0-0.975-0.495-1.545-1.216-1.545
		c-0.81,0-1.17,0.825-1.529,1.815c-0.63,1.77-1.245,3.104-3.075,3.104c-1.875,0-2.939-1.455-2.939-3.479
		C4.656,71.002,5.751,69.427,6.951,69.427z"/>
	<path fill="#CF348A" d="M6.351,77.707v1.2h6.84v-1.2h1.515v4.095H13.19v-1.199h-6.84v1.199H4.836v-4.095H6.351z"/>
	<path fill="#CF348A" d="M6.351,84.906v1.23h6.885v-1.83h-1.56v-1.605h3.029v8.564h-3.029v-1.604h1.56v-1.83H6.351v1.23H4.836
		v-4.155H6.351z"/>
	<path fill="#CF348A" d="M6.351,92.166v1.125h6.84v-1.125h1.515v7.365h-2.819v-1.62h1.32v-2.925h-2.641v2.984H9.126v-2.984h-2.79
		v2.939h1.32v1.62h-2.82v-7.38H6.351z"/>
	<path fill="#CF348A" d="M6.951,104.166c0.705,0,1.17,0.42,1.17,1.035c0,0.66-0.495,1.08-0.976,1.08c-0.239,0-0.42-0.045-0.6-0.135
		c-0.255,0.359-0.42,0.915-0.42,1.56c0,1.08,0.479,1.771,1.335,1.771c0.81,0,1.2-0.825,1.545-1.815c0.66-1.83,1.245-3.12,3.075-3.12
		c1.574,0,2.805,1.275,2.805,3.271c0,1.845-0.945,3.27-2.13,3.27c-0.705,0-1.11-0.435-1.11-1.005c0-0.69,0.51-1.08,1.005-1.08
		c0.24,0,0.346,0.045,0.465,0.105c0.165-0.271,0.301-0.69,0.301-1.306c0-0.975-0.495-1.545-1.216-1.545
		c-0.81,0-1.17,0.825-1.529,1.815c-0.63,1.77-1.245,3.104-3.075,3.104c-1.875,0-2.939-1.455-2.939-3.479
		C4.656,105.741,5.751,104.166,6.951,104.166z"/>
	<path fill="#CF348A" d="M9.771,112.582c2.97,0,5.115,2.31,5.115,5.189c0,2.295-1.2,3.825-2.385,3.825
		c-0.721,0-1.215-0.466-1.215-1.08c0-0.676,0.42-1.141,1.064-1.141c0.195,0,0.39,0.045,0.51,0.105
		c0.226-0.285,0.45-0.855,0.45-1.755c0-1.92-1.47-3.39-3.524-3.39c-1.98,0-3.556,1.38-3.556,3.465c0,1.154,0.511,2.1,1.306,2.835
		l-1.17,1.124c-1.065-0.96-1.71-2.385-1.71-3.959C4.656,114.757,6.696,112.582,9.771,112.582z"/>
	<path fill="#CF348A" d="M9.771,122.812c2.896,0,5.115,2.1,5.115,5.1c0,2.984-2.235,5.024-5.115,5.024c-2.895,0-5.114-2.1-5.114-5.1
		C4.656,124.851,6.891,122.812,9.771,122.812z M9.771,131.181c2.055,0,3.54-1.395,3.54-3.3c0-1.92-1.47-3.314-3.54-3.314
		c-2.055,0-3.54,1.395-3.54,3.314C6.23,129.786,7.701,131.181,9.771,131.181z"/>
	<path fill="#CF348A" d="M6.351,134.181v1.125h6.84v-1.125h1.515v4.125H13.19v-1.305H6.336v2.715H7.73v1.635H4.836v-7.17H6.351z"/>
	<path fill="#CF348A" d="M6.351,142.042v0.854l6.855,2.46v-1.08h1.499v5.58h-1.499v-1.08l-6.855,2.46v0.854H4.836v-3.794h1.5v1.14
		l1.62-0.555v-3.69l-1.62-0.555v1.2h-1.5v-3.795H6.351z M9.366,148.416l3.885-1.38l-3.885-1.38V148.416z"/>
	<path fill="#CF348A" d="M6.351,152.841v1.2h6.84v-1.2h1.515v4.095H13.19v-1.199h-6.84v1.199H4.836v-4.095H6.351z"/>
	<path fill="#CF348A" d="M6.351,158.046v1.125h6.84v-1.125h1.515v3.825c0,2.265-0.975,3.885-2.984,3.885
		c-1.275,0-2.25-0.78-2.685-1.86l-2.686,1.516v1.125H4.836v-2.28l3.75-1.979c-0.016-0.21-0.03-0.405-0.03-0.601
		c0-0.314,0-0.6,0.015-0.81h-2.22v1.229H4.836v-4.05H6.351z M11.661,164.001c1.034,0,1.529-0.855,1.529-2.22v-0.915h-3.165
		c-0.015,0.18-0.029,0.42-0.029,0.96C9.996,163.101,10.626,164.001,11.661,164.001z"/>
	<path fill="#CF348A" d="M6.351,167.346v1.125h6.84v-1.125h1.515v7.365h-2.819v-1.62h1.32v-2.925h-2.641v2.984H9.126v-2.984h-2.79
		v2.939h1.32v1.62h-2.82v-7.38H6.351z"/>
</g>
</svg>
