<?xml version="1.0" encoding="utf-8"?>
<!-- Generator: Adobe Illustrator 16.0.0, SVG Export Plug-In . SVG Version: 6.00 Build 0)  -->
<!DOCTYPE svg PUBLIC "-//W3C//DTD SVG 1.1//EN" "http://www.w3.org/Graphics/SVG/1.1/DTD/svg11.dtd">
<svg version="1.1" id="Calque_1" xmlns="http://www.w3.org/2000/svg" xmlns:xlink="http://www.w3.org/1999/xlink" x="0px" y="0px"
	 width="20px" height="260px" viewBox="0 0 20 260" enable-background="new 0 0 20 260" xml:space="preserve">
<g>
	<path fill="#451C4A" d="M14.283,10.922v0.869H7.385v4.334H6.582v-5.204H14.283z"/>
	<path fill="#451C4A" d="M14.338,20.581v0.814l-7.756,3.509v-0.935l2.035-0.902v-4.191l-2.035-0.913v-0.891L14.338,20.581z
		 M9.41,22.726l3.917-1.75l-3.917-1.76V22.726z"/>
	<path fill="#451C4A" d="M14.283,29.721v2.882c0,1.738-0.924,2.882-2.442,2.882h-0.022c-1.661,0-2.519-1.386-2.519-3.025v-1.87
		H6.582v-0.869H14.283z M10.091,32.493c0,1.276,0.682,2.112,1.694,2.112h0.022c1.101,0,1.673-0.825,1.673-2.068V30.59h-3.389V32.493
		z"/>
	<path fill="#451C4A" d="M14.283,37.069v5.566h-0.792v-4.697h-2.629v4.202h-0.792v-4.202H7.374v4.752H6.582v-5.622H14.283z
		 M16.385,40.611l-0.396,0.869l-1.023-1.265v-0.704L16.385,40.611z"/>
	<path fill="#451C4A" d="M14.283,44.439v2.673c0,2.42-1.661,4.092-3.829,4.092h-0.022c-2.167,0-3.851-1.672-3.851-4.092v-2.673
		H14.283z M13.48,45.308H7.385v1.804c0,1.947,1.32,3.19,3.025,3.19h0.022c1.705,0,3.048-1.243,3.048-3.19V45.308z"/>
	<path fill="#451C4A" d="M14.338,55.384v0.814l-7.756,3.509v-0.935l2.035-0.902v-4.191l-2.035-0.913v-0.891L14.338,55.384z
		 M9.41,57.53l3.917-1.75L9.41,54.02V57.53z"/>
	<path fill="#451C4A" d="M10.411,60.433h0.022c2.112,0,3.982,1.551,3.982,3.862c0,1.298-0.374,2.101-1.022,2.871l-0.66-0.561
		c0.517-0.594,0.879-1.254,0.879-2.343c0-1.705-1.44-2.926-3.157-2.926h-0.022c-1.837,0-3.202,1.177-3.202,3.047
		c0,0.88,0.341,1.694,0.771,2.222h1.914v-2.343h0.781v3.18h-3.07C6.989,66.726,6.45,65.648,6.45,64.35
		C6.45,61.929,8.21,60.433,10.411,60.433z"/>
	<path fill="#451C4A" d="M10.411,69.057h0.022c2.123,0,3.982,1.595,3.982,3.938s-1.837,3.917-3.96,3.917h-0.022
		c-2.124,0-3.982-1.595-3.982-3.938S8.287,69.057,10.411,69.057z M10.411,76.01h0.022c1.749,0,3.179-1.276,3.179-3.037
		s-1.408-3.014-3.157-3.014h-0.022c-1.75,0-3.18,1.276-3.18,3.036S8.661,76.01,10.411,76.01z"/>
	<path fill="#451C4A" d="M10.411,78.407h0.022c2.112,0,3.982,1.551,3.982,3.862c0,1.298-0.374,2.101-1.022,2.871l-0.66-0.561
		c0.517-0.594,0.879-1.254,0.879-2.343c0-1.705-1.44-2.926-3.157-2.926h-0.022c-1.837,0-3.202,1.177-3.202,3.047
		c0,0.88,0.341,1.694,0.771,2.222h1.914v-2.343h0.781v3.18h-3.07C6.989,84.7,6.45,83.622,6.45,82.323
		C6.45,79.903,8.21,78.407,10.411,78.407z"/>
	<path fill="#451C4A" d="M14.283,87.449v0.869H6.582v-0.869H14.283z"/>
	<path fill="#451C4A" d="M14.283,90.573v5.566h-0.792v-4.697h-2.629v4.202h-0.792v-4.202H7.374v4.752H6.582v-5.622H14.283z"/>
	<path fill="#451C4A" d="M14.283,101.243v2.882c0,1.738-0.924,2.882-2.442,2.882h-0.022c-1.661,0-2.519-1.386-2.519-3.025v-1.87
		H6.582v-0.869H14.283z M10.091,104.015c0,1.276,0.682,2.112,1.694,2.112h0.022c1.101,0,1.673-0.825,1.673-2.068v-1.947h-3.389
		V104.015z"/>
	<path fill="#451C4A" d="M10.411,108.25h0.022c2.123,0,3.982,1.595,3.982,3.938s-1.837,3.917-3.96,3.917h-0.022
		c-2.124,0-3.982-1.595-3.982-3.938S8.287,108.25,10.411,108.25z M10.411,115.203h0.022c1.749,0,3.179-1.276,3.179-3.037
		s-1.408-3.014-3.157-3.014h-0.022c-1.75,0-3.18,1.276-3.18,3.036S8.661,115.203,10.411,115.203z"/>
	<path fill="#451C4A" d="M7.704,117.379l0.638,0.539c-0.726,0.803-1.089,1.573-1.089,2.641c0,1.034,0.55,1.716,1.31,1.716h0.022
		c0.715,0,1.122-0.385,1.463-2.002c0.385-1.771,0.958-2.585,2.222-2.585h0.022c1.21,0,2.101,1.067,2.101,2.53
		c0,1.122-0.318,1.925-0.945,2.707l-0.672-0.506c0.584-0.715,0.836-1.43,0.836-2.222c0-1.001-0.549-1.639-1.242-1.639h-0.022
		c-0.726,0-1.133,0.396-1.496,2.09c-0.374,1.716-1.001,2.508-2.178,2.508H8.65c-1.32,0-2.178-1.1-2.178-2.629
		C6.472,119.305,6.879,118.304,7.704,117.379z"/>
	<path fill="#451C4A" d="M14.283,125.002v0.869H6.582v-0.869H14.283z"/>
	<path fill="#451C4A" d="M13.48,130.162v-2.585h0.803v6.051H13.48v-2.586H6.582v-0.879H13.48z"/>
	<path fill="#451C4A" d="M14.283,135.331v0.869H6.582v-0.869H14.283z"/>
	<path fill="#451C4A" d="M14.283,137.795v0.968l-6.634,2.739l6.634,2.751v0.935l-7.756-3.311v-0.771L14.283,137.795z"/>
	<path fill="#451C4A" d="M14.283,146.705v5.566h-0.792v-4.697h-2.629v4.203h-0.792v-4.203H7.374v4.752H6.582v-5.621H14.283z"/>
</g>
<g>
	<g>
		<path fill="#451C4A" d="M12.93,171.557v0.666l-6.347,2.871v-0.766l1.666-0.737v-3.431l-1.666-0.747v-0.729L12.93,171.557z
			 M8.896,173.312l3.205-1.432l-3.205-1.44V173.312z"/>
		<path fill="#451C4A" d="M7.528,176.137v0.828H6.583v-0.828H7.528z"/>
		<path fill="#451C4A" d="M12.93,183.57v0.666l-6.347,2.873v-0.766l1.666-0.738v-3.43l-1.666-0.748v-0.729L12.93,183.57z
			 M8.896,185.326l3.205-1.432l-3.205-1.44V185.326z"/>
		<path fill="#451C4A" d="M13.154,188.232v0.692H8.618l2.62,2.512v0.864l-1.999-1.953l-2.656,2.016v-0.828l2.169-1.665l-0.954-0.945
			H6.583v-0.692H13.154z"/>
		<path fill="#451C4A" d="M8.888,192.84h0.018c1.314,0,2.43,1.026,2.43,2.431c0,1.396-1.098,2.421-2.412,2.421H8.906
			c-1.314,0-2.431-1.035-2.431-2.439C6.475,193.857,7.573,192.84,8.888,192.84z M8.888,196.98h0.018
			c0.999,0,1.818-0.746,1.818-1.729c0-1.008-0.819-1.701-1.8-1.701H8.906c-1,0-1.81,0.738-1.81,1.72
			C7.096,196.279,7.906,196.98,8.888,196.98z"/>
		<path fill="#451C4A" d="M8.348,198.869h2.89v0.693H8.519c-0.864,0-1.404,0.469-1.404,1.287c0,0.793,0.585,1.396,1.458,1.396h2.665
			v0.684H6.583v-0.684h0.81c-0.504-0.315-0.909-0.793-0.909-1.594C6.484,199.527,7.24,198.869,8.348,198.869z"/>
		<path fill="#451C4A" d="M11.237,204.486v0.692h-0.81c0.504,0.306,0.909,0.792,0.909,1.594c0,1.125-0.756,1.782-1.863,1.782h-2.89
			v-0.693h2.719c0.864,0,1.404-0.468,1.404-1.287c0-0.801-0.585-1.396-1.458-1.396H6.583v-0.692H11.237z"/>
		<path fill="#451C4A" d="M13.768,215.943v0.64l-8.337-4.177v-0.64L13.768,215.943z"/>
		<path fill="#451C4A" d="M12.885,220.182v0.711H6.583v-0.711H12.885z"/>
		<path fill="#451C4A" d="M7.528,222.539v0.828H6.583v-0.828H7.528z"/>
		<path fill="#451C4A" d="M12.885,227.643v2.358c0,1.423-0.756,2.358-1.999,2.358h-0.018c-1.359,0-2.062-1.135-2.062-2.476v-1.53
			H6.583v-0.711H12.885z M9.455,229.911c0,1.044,0.558,1.729,1.386,1.729h0.018c0.9,0,1.368-0.675,1.368-1.692v-1.594H9.455V229.911
			z"/>
		<path fill="#451C4A" d="M7.934,233.096h0.018c0.981,0,1.504,0.811,1.504,1.99c0,0.594-0.081,1.018-0.198,1.432h0.162
			c0.837,0,1.27-0.514,1.27-1.387c0-0.549-0.145-0.981-0.342-1.414l0.567-0.207c0.234,0.514,0.388,1.018,0.388,1.693
			c0,0.656-0.172,1.16-0.514,1.503c-0.315,0.315-0.765,0.478-1.359,0.478H6.583v-0.666h0.702c-0.423-0.324-0.801-0.865-0.801-1.684
			C6.484,233.969,6.979,233.096,7.934,233.096z M8.293,236.525h0.45c0.099-0.342,0.198-0.801,0.198-1.367
			c0-0.874-0.378-1.359-0.963-1.359H7.96c-0.585,0-0.927,0.539-0.927,1.17C7.033,235.824,7.555,236.525,8.293,236.525z"/>
		<path fill="#451C4A" d="M11.237,238.721v0.693H6.583v-0.693H11.237z M13.02,238.676v0.793h-0.765v-0.793H13.02z"/>
		<path fill="#451C4A" d="M13.154,241.088v0.693H6.583v-0.693H13.154z"/>
		<path fill="#451C4A" d="M13.154,243.455v0.693H6.583v-0.693H13.154z"/>
		<path fill="#451C4A" d="M8.888,245.471h0.018c1.314,0,2.43,1.026,2.43,2.431c0,1.396-1.098,2.421-2.412,2.421H8.906
			c-1.314,0-2.431-1.035-2.431-2.439C6.475,246.488,7.573,245.471,8.888,245.471z M8.888,249.611h0.018
			c0.999,0,1.818-0.746,1.818-1.729c0-1.008-0.819-1.701-1.8-1.701H8.906c-1,0-1.81,0.738-1.81,1.72
			C7.096,248.91,7.906,249.611,8.888,249.611z"/>
		<path fill="#451C4A" d="M7.816,251.816h2.809v-0.648h0.612v0.648h1.404v0.693h-1.404v1.477h-0.612v-1.477H7.906
			c-0.567,0-0.774,0.314-0.774,0.783c0,0.234,0.045,0.432,0.162,0.675H6.7c-0.126-0.243-0.198-0.504-0.198-0.837
			C6.502,252.383,6.871,251.816,7.816,251.816z"/>
	</g>
</g>
</svg>
