<svg id="Layer_1" data-name="Layer 1" xmlns="http://www.w3.org/2000/svg" viewBox="0 0 476.98 271.63"><defs><style>.cls-1{fill:#cfe09b;}.cls-2{fill:#6b4d4d;}.cls-3{fill:#a38989;}.cls-4{fill:#dec8a4;}.cls-5{fill:#f2eee5;}.cls-6{fill:#8b575b;}.cls-7{fill:#50969b;}.cls-8{fill:#10564e;}.cls-9{fill:#ffcfb3;}.cls-10{fill:#ffbf99;}.cls-11{fill:#ff625b;}.cls-12{fill:#eb4b4d;}.cls-13{fill:#fcf8ed;}.cls-14{fill:#e8d2be;}.cls-15{fill:#e6d8b8;}.cls-16{fill:#b59598;}.cls-17{fill:#2d5556;}.cls-18{fill:#72e3c5;}.cls-19{fill:#ce0019;}.cls-20{fill:#fcc786;}.cls-21{fill:#b86500;}.cls-22{fill:#fce3af;}.cls-23{fill:#fff0d1;}.cls-24{fill:#f2eee3;}.cls-25{fill:#7c6060;}.cls-26{fill:#302124;}.cls-27{fill:#bfa873;}.cls-28{fill:#faf3e2;}.cls-29{fill:#483e49;}.cls-30{fill:#978299;}.cls-31{fill:#022587;}.cls-32{fill:#ff5254;}.cls-33{fill:#7e97c1;}.cls-34{fill:#a68d53;}.cls-35{fill:#aac4e8;}.cls-36{fill:#728689;}.cls-37{fill:#4b4f4e;}</style></defs><g id="ILLUS"><g id="Layer"><ellipse id="Ellipse_6" data-name="Ellipse 6" class="cls-1" cx="238.49" cy="167.36" rx="238.49" ry="82.02"/></g><g id="Layer_2" data-name="Layer 2"><g id="Groupe_38" data-name="Groupe 38"><g id="Groupe_37" data-name="Groupe 37"><path id="Tracé_241" data-name="Tracé 241" class="cls-2" d="M215.53,168.91l2-1.18,5.95-30.43,22.93-13.23,6,23.55,2-1.18-6.3-25.64L221.82,136Z" transform="translate(0 0)"/></g><path id="Tracé_242" data-name="Tracé 242" class="cls-3" d="M213.8,167.9l1.73,1,6.3-32.92-1.73-1Z" transform="translate(0 0)"/><path id="Tracé_243" data-name="Tracé 243" class="cls-3" d="M252.4,147.61l-1.73-1L245,124.94l1.44-.87Z" transform="translate(0 0)"/><path id="Tracé_244" data-name="Tracé 244" class="cls-4" d="M248.13,120.8l-1.72-1L220.1,135l1.72,1Z" transform="translate(0 0)"/></g><g id="Groupe_40" data-name="Groupe 40"><g id="Groupe_39" data-name="Groupe 39"><path id="Tracé_245" data-name="Tracé 245" class="cls-3" d="M180.55,148.34l2-1.17,6-30.43,22.93-13.23,5.95,36.66,2-1.17-6.3-38.76-26.3,15.19Z" transform="translate(0 0)"/></g><path id="Tracé_246" data-name="Tracé 246" class="cls-5" d="M178.83,147.34l1.72,1,6.3-32.92-1.72-1Z" transform="translate(0 0)"/><path id="Tracé_247" data-name="Tracé 247" class="cls-3" d="M217.42,140.17l-1.72-1L210,104.38l1.44-.87Z" transform="translate(0 0)"/><path id="Tracé_248" data-name="Tracé 248" class="cls-4" d="M213.16,100.24l-1.73-1-26.31,15.19,1.73,1Z" transform="translate(0 0)"/></g><g id="Groupe_41" data-name="Groupe 41"><path id="Tracé_249" data-name="Tracé 249" class="cls-3" d="M249.66,119.87,214.45,99.09l3-33.78,3.79,1.29,33.23,18.47-3,33.78Z" transform="translate(0 0)"/><path id="Tracé_250" data-name="Tracé 250" class="cls-2" d="M252.62,86.09,217.41,65.31l1.6-.9,35.43,20.66Z" transform="translate(0 0)"/><path id="Tracé_251" data-name="Tracé 251" class="cls-2" d="M252.62,86.09l-3,33.78,1.82-1,3-33.78Z" transform="translate(0 0)"/></g><g id="Groupe_42" data-name="Groupe 42"><path id="Tracé_252" data-name="Tracé 252" class="cls-3" d="M219.9,137.2l-35.22-20.85v-1.71l29.77-14,35.38,17.43-.17,1.77Z" transform="translate(0 0)"/><path id="Tracé_253" data-name="Tracé 253" class="cls-2" d="M219.9,135.49l-35.22-20.85,29.93-17.41,35.22,20.85Z" transform="translate(0 0)"/><path id="Tracé_254" data-name="Tracé 254" class="cls-3" d="M219.9,135.49v1.71l29.76-17.35.17-1.77Z" transform="translate(0 0)"/></g><g id="Groupe_43" data-name="Groupe 43"><path id="Tracé_255" data-name="Tracé 255" class="cls-2" d="M252.63,86.08l-5.73,28.09-6.89,9.6,9.82-5.7Z" transform="translate(0 0)"/><path id="Tracé_256" data-name="Tracé 256" class="cls-2" d="M240,123.77l-1.1-.62,6.89-9.6,1.1.62Z" transform="translate(0 0)"/><path id="Tracé_257" data-name="Tracé 257" class="cls-2" d="M246.9,114.17l-1.1-.63,5.73-28.08,1.1.62Z" transform="translate(0 0)"/></g><g id="Groupe_46" data-name="Groupe 46"><g id="Groupe_45" data-name="Groupe 45"><path id="Tracé_258" data-name="Tracé 258" class="cls-6" d="M225.3,48.27a.24.24,0,0,0,0,.22.23.23,0,0,0,.1.12,4.22,4.22,0,0,1,.6,5.2,3.41,3.41,0,0,1,1,1.8,6.78,6.78,0,0,1-.78,5.63c-.55.79-1.05.46-1.65,0a8.91,8.91,0,0,1-1.88-1.85,7,7,0,0,1-1-2.72,1.15,1.15,0,0,0-.31-.7,1.3,1.3,0,0,0-.46-.18A3.26,3.26,0,0,1,219,54.07a6.28,6.28,0,0,1-.58-2.52,3.41,3.41,0,0,1,.67-2.6,1.28,1.28,0,0,0,.29-.36,1.05,1.05,0,0,0,0-.43,12.71,12.71,0,0,1,.34-3.53,3.58,3.58,0,0,1,.58-1.53,2.43,2.43,0,0,1,1.44-.51,3.56,3.56,0,0,1,2.87,1,4.27,4.27,0,0,1,.68,4.57A.2.2,0,0,0,225.3,48.27Z" transform="translate(0 0)"/><path id="Tracé_259" data-name="Tracé 259" class="cls-6" d="M223.85,50.88a2.83,2.83,0,0,1,.41,1.17,3.62,3.62,0,0,1-.1,1.93,1.05,1.05,0,0,1,.63.67,6.9,6.9,0,0,1,.62,3.07,1,1,0,0,1-.39.9,1.08,1.08,0,0,1-.59,0,8.51,8.51,0,0,1-4.61-1.59,6,6,0,0,1-1.18-1.48,12,12,0,0,1-1-8,7.23,7.23,0,0,1,2.07-4.38.93.93,0,0,1,.5-.26.84.84,0,0,1,.46.1c.67.3.94.82,1.43,1.3a4.91,4.91,0,0,1,1.08,1.44,5.45,5.45,0,0,1,.29,3.87.91.91,0,0,0-.06.61,1,1,0,0,0,.24.31A2.26,2.26,0,0,1,223.85,50.88Z" transform="translate(0 0)"/><path id="Tracé_260" data-name="Tracé 260" class="cls-7" d="M204.43,160.91a14.53,14.53,0,0,1-2.31,2.7,18.34,18.34,0,0,0-3.12,4.44,16.58,16.58,0,0,1-1.31,2.37,7.3,7.3,0,0,1-3.95,2.53,5.71,5.71,0,0,1-2,.26l-.33,0a2.9,2.9,0,0,1-2-1.12c-1.43-1.93-.73-4.08.4-5.92a15.37,15.37,0,0,1,1.81-2.28c.76-.81,1.56-1.57,2.3-2.48a13.89,13.89,0,0,0,2.71-5.31c.37-1.42,1-3.48,2.43-4.14a2.83,2.83,0,0,1,1.6-.15,7.45,7.45,0,0,1,.94.19,4.79,4.79,0,0,1,2.18,1,4.24,4.24,0,0,1,1,2A8,8,0,0,1,204.43,160.91Z" transform="translate(0 0)"/><path id="Tracé_261" data-name="Tracé 261" class="cls-8" d="M204.43,160.91a14.53,14.53,0,0,1-2.31,2.7,18.34,18.34,0,0,0-3.12,4.44,16.58,16.58,0,0,1-1.31,2.37,7.3,7.3,0,0,1-3.95,2.53,5.71,5.71,0,0,1-2,.26,8.42,8.42,0,0,1,1.48-5.19,43.14,43.14,0,0,1,3.1-3.64,20.11,20.11,0,0,0,2.17-3.16A14.87,14.87,0,0,0,200,156a16.31,16.31,0,0,1,.59-4,1.82,1.82,0,0,1,.08-.19,7.45,7.45,0,0,1,.94.19,4.79,4.79,0,0,1,2.18,1,4.33,4.33,0,0,1,1,2A8,8,0,0,1,204.43,160.91Z" transform="translate(0 0)"/><path id="Tracé_262" data-name="Tracé 262" class="cls-7" d="M212.29,163.86a8.82,8.82,0,0,0-1.64,1.09c-1.07,1-1.31,2.57-2,3.89a8.64,8.64,0,0,1-1.32,2A13.24,13.24,0,0,1,194.53,175a1.93,1.93,0,0,1-.92-.47,2,2,0,0,1-.44-2,6.33,6.33,0,0,1,1-1.93c2.75-3.9,6.32-7.16,9.35-10.86,1.34-1.63,2.24-3.83,4.56-4.27a4.25,4.25,0,0,1,1.59,0,5.36,5.36,0,0,1,2.74,1.31,4.34,4.34,0,0,1,1.41,2.17C214.3,160.64,213.88,162.9,212.29,163.86Z" transform="translate(0 0)"/><path id="Tracé_263" data-name="Tracé 263" class="cls-8" d="M212.29,163.86a8.82,8.82,0,0,0-1.64,1.09c-1.07,1-1.31,2.57-2,3.89a8.64,8.64,0,0,1-1.32,2A13.24,13.24,0,0,1,194.53,175a1.93,1.93,0,0,1-.92-.47,5.84,5.84,0,0,0,2.46-1.23,24.62,24.62,0,0,0,4-3.86c1.93-2.19,3.8-4.43,5.58-6.73a9.11,9.11,0,0,0,1.39-2.32,23.17,23.17,0,0,1,2.6-4.89,5.42,5.42,0,0,1,2.74,1.3,4.47,4.47,0,0,1,1.41,2.18C214.3,160.64,213.88,162.9,212.29,163.86Z" transform="translate(0 0)"/><path id="Tracé_264" data-name="Tracé 264" class="cls-9" d="M209.9,110a10.83,10.83,0,0,1-1.42,5.24,18.63,18.63,0,0,1-3.39,4.07,59.31,59.31,0,0,1-6.23,5.28,8.06,8.06,0,0,0-2.39,2.3,6.29,6.29,0,0,0-.73,3.12,14.1,14.1,0,0,0,1.6,6.71,23.51,23.51,0,0,1,2.5,6,44.4,44.4,0,0,1,1,7.16c.14,1.61.28,3.2.43,4.8a6.59,6.59,0,0,1-1.68,4.43l-.29.34a17.33,17.33,0,0,1-3.84,3.66,2.4,2.4,0,0,1-.87.41,1,1,0,0,1-.89-.26c-.4-.44-.1-1.14.2-1.66l1.42-2.4A6.49,6.49,0,0,0,196,156a4.28,4.28,0,0,0-1.42-2.85c-.71-.77-1.4-1.55-2.09-2.35-1.36-1.58-2.68-3.2-3.93-4.86A66.74,66.74,0,0,1,182,135.36c-.32-.64-.62-1.28-.9-1.93a15,15,0,0,1-1.11-3.2,8.42,8.42,0,0,1,0-4.4,26.51,26.51,0,0,1,1.7-3.2,30.1,30.1,0,0,1,1.95-3.08,42,42,0,0,1,4-4.88c.37-.4.76-.8,1.14-1.18,2-2,3.88-4.1,5.87-6.11a47.81,47.81,0,0,1,4.6-4.17c1.54-1.18,3-2.18,5.07-1.58a7.39,7.39,0,0,1,3.61,2.42A9.25,9.25,0,0,1,209.9,110Z" transform="translate(0 0)"/><path id="Tracé_265" data-name="Tracé 265" class="cls-10" d="M209.9,110a10.83,10.83,0,0,1-1.42,5.24,18.63,18.63,0,0,1-3.39,4.07,59.31,59.31,0,0,1-6.23,5.28,8.06,8.06,0,0,0-2.39,2.3,6.29,6.29,0,0,0-.73,3.12,14.1,14.1,0,0,0,1.6,6.71,23.51,23.51,0,0,1,2.5,6,44.4,44.4,0,0,1,1,7.16c.14,1.61.28,3.2.43,4.8a6.59,6.59,0,0,1-1.68,4.43,14.67,14.67,0,0,0-.2-3.44,15.51,15.51,0,0,0-2-5.46c-.49-.81-1.1-1.56-1.66-2.33a38,38,0,0,1-5.82-11.74c-.57-1.94-1.29-3.46-.74-5.5a15.19,15.19,0,0,1,2.94-5.32c1.7-2.12,3.71-4,5.17-6.32a2.54,2.54,0,0,0,.47-1.14c.08-1-.95-1.79-1.9-2.2a13.53,13.53,0,0,0-6.59-1.06,7.68,7.68,0,0,1-1.66,0c.37-.4.76-.8,1.14-1.18,2-2,3.88-4.1,5.87-6.12a52,52,0,0,1,4.6-4.17c1.54-1.18,3-2.18,5.07-1.57A7.38,7.38,0,0,1,207.9,104,9.33,9.33,0,0,1,209.9,110Z" transform="translate(0 0)"/><path id="Tracé_266" data-name="Tracé 266" class="cls-9" d="M230.58,116.47c-.19,1.81-1.54,3.28-2.92,4.47a58.8,58.8,0,0,1-9.84,6.39c-2.11,1.19-4.22,2.37-6.34,3.52a10.53,10.53,0,0,0-3.77,2.84c-.81,1.16-.31,2.82,0,4.08.43,1.46,1.05,2.86,1.57,4.3a30.93,30.93,0,0,1,1.79,8.66c0,.78.06,1.57,0,2.35,0,2.78-.08,5.88-1.63,8.29a15.61,15.61,0,0,1-7.22,5.5l-.41.14a2.24,2.24,0,0,1-1.89-.1c-.85-.58-.3-1.73.1-2.45a15.36,15.36,0,0,1,1.21-1.77c.62-.83,1.2-1.67,1.75-2.52a2.55,2.55,0,0,0,.55-1.23,4.91,4.91,0,0,0-.23-1.26,14.23,14.23,0,0,0-1.3-2.55c-3.06-5.46-7-10.42-9.77-16-1-2.16-2.09-5-1.3-7.38.71-2.24,2.3-3.64,3.76-5.39a57.55,57.55,0,0,1,4.7-4.4c1-.94,2-1.86,2.94-2.78l7.42-7a.32.32,0,0,0,.1-.1c3.34-3.14,8.18-2.75,12.75-2.15a12.09,12.09,0,0,1,5.38,1.75A5.4,5.4,0,0,1,230.58,116.47Z" transform="translate(0 0)"/><path id="Tracé_267" data-name="Tracé 267" class="cls-10" d="M230.58,116.47c-.19,1.81-1.54,3.28-2.92,4.47a58.8,58.8,0,0,1-9.84,6.39c-2.11,1.19-4.22,2.37-6.34,3.52a10.53,10.53,0,0,0-3.77,2.84c-.81,1.16-.31,2.82,0,4.08.43,1.46,1.05,2.86,1.57,4.3a30.93,30.93,0,0,1,1.79,8.66c0,.78.06,1.57,0,2.35,0,2.78-.08,5.88-1.63,8.29a15.61,15.61,0,0,1-7.22,5.5l-.41.14,1.21-1a16.54,16.54,0,0,0,5.16-7.63,18,18,0,0,0,.39-7c-.48-4.44-1.84-8.73-2.79-13.08-.47-2.21-.81-4.64.29-6.6s3.35-2.95,5.13-4.25a5.53,5.53,0,0,0,2.14-2.28,2.58,2.58,0,0,0-.77-2.67c-2.71-2.74-6.65-2.38-10-3.27l-.19-.07c2.47-2.35,5-4.67,7.42-7l.1-.1c3.34-3.15,8.18-2.75,12.74-2.16a12.27,12.27,0,0,1,5.39,1.76A5.43,5.43,0,0,1,230.58,116.47Z" transform="translate(0 0)"/><path id="Tracé_268" data-name="Tracé 268" class="cls-11" d="M233.47,118.86a11.18,11.18,0,0,1-2.78,3.85c-2.61,2.43-5.59,4.69-9.11,5.36a9,9,0,0,0-2.24-3.12c-1.37-1.42-2.82-3.16-4.6-4,0,0,0,0,0,0a21.85,21.85,0,0,0-5.79-1.9,20.06,20.06,0,0,0-3.55-.26c-.49,0-1,.11-1.5.12h-.27a1.77,1.77,0,0,1-.94-.48c-.11-.13-.23-.24-.34-.35a17.59,17.59,0,0,0-6.47-4,16.61,16.61,0,0,0-4.33-1c-1-.06-2.7.14-3.37.89,3.38-3.82,6.89-7.49,10.42-11.16a38.81,38.81,0,0,0,3.3-3.72,19.73,19.73,0,0,0,3.86-10.88c0,.66,1.17,1.58,1.5,2.1a14.76,14.76,0,0,0,.88,1.67,17,17,0,0,0,4.41,3.32,11.26,11.26,0,0,0,6,1,20.39,20.39,0,0,0,7.27-1.87c1.79-.84,3.93-1.62,5.1-3.28a15.82,15.82,0,0,0,1.35-2.62c.27,1.54.54,3.08.77,4.64.74,4.74,1.33,9.5,1.81,14.28A24.7,24.7,0,0,1,233.47,118.86Z" transform="translate(0 0)"/><path id="Tracé_269" data-name="Tracé 269" class="cls-12" d="M211.46,108.19q-3.94,5.22-7.6,10.66l-.27,0a1.61,1.61,0,0,1-.93-.48,11.86,11.86,0,0,1,1.84-2.5,63.42,63.42,0,0,1,4.29-5Q210.08,109.5,211.46,108.19Z" transform="translate(0 0)"/><g id="Groupe_44" data-name="Groupe 44"><path id="Tracé_270" data-name="Tracé 270" class="cls-9" d="M201.31,49.53a22.52,22.52,0,0,0-.39,5.91,3.54,3.54,0,0,1,0,1.17.89.89,0,0,1-1,.75.76.76,0,0,1-.32-.11,1.33,1.33,0,0,1-.52-.48A16,16,0,0,0,197,54.23q-2.65-2.86-5.13-5.9c-.93-1.15-8.2-10.6-9.7-12.81-.86-1.25-1.7-2.52-2.53-3.79q-1.58-2.41-3.09-4.88c-.73-1.18-1.44-2.39-2.13-3.6-.3-.54-.65-1-1-1.56s-.67-1.25-1-1.86c-.45-.77-1.14-1.32-1.58-2.1a9.52,9.52,0,0,1-.93-2.48c-.32-1.28-.57-2.57-.83-3.85a33,33,0,0,0-1.32-3.85,9.24,9.24,0,0,1-.48-1.63,5.88,5.88,0,0,1-.11-.94,1.23,1.23,0,0,1,0-.27.8.8,0,0,1,.24-.55.63.63,0,0,1,.76,0,2.13,2.13,0,0,1,.52.6,10.31,10.31,0,0,1,1.24,2.4,3.79,3.79,0,0,0,.51,1.33,13.12,13.12,0,0,0-.2-3.37,16,16,0,0,1-.52-2.91A1.41,1.41,0,0,1,170,1.13a.68.68,0,0,1,1,0l0,0a1.74,1.74,0,0,1,.79-1,1.21,1.21,0,0,1,1.22,0,.94.94,0,0,1,.37,1.11.7.7,0,0,1,1-.25l.07.05a2.13,2.13,0,0,1,.44,1.4c.17,2.22-.22,4.45,0,6.66a.52.52,0,0,0,.07.22c.11.17.36.1.57.1.49,0,.84.54.88,1s-.07,1.22,0,1.84a16.79,16.79,0,0,0,.35,1.77c.18,1.14-.41,2.24.33,3.26a61.06,61.06,0,0,0,6.22,7.68c1,1,2.07,2,3.1,3a25.25,25.25,0,0,1,3.7,4c.72,1.05,1.4,2.13,2.12,3.17.48.7,1,1.4,1.48,2.09,1.28,1.73,2.66,3.41,4.1,5q1.08,1.22,2.22,2.37a6.16,6.16,0,0,1,1.77,2.42C202,47.81,201.47,48.76,201.31,49.53Z" transform="translate(0 0)"/><path id="Tracé_271" data-name="Tracé 271" class="cls-10" d="M199.67,48c0,2.53,0,5,0,7.57a13,13,0,0,1-.08,1.65,1.33,1.33,0,0,1-.52-.48A16,16,0,0,0,197,54.23q-2.65-2.86-5.13-5.9c-.93-1.15-8.2-10.6-9.7-12.81-.86-1.25-1.7-2.52-2.53-3.79q-1.58-2.41-3.09-4.88-1.09-1.79-2.13-3.6c-.3-.54-.65-1-1-1.56s-.67-1.25-1-1.86c-.45-.78-1.14-1.33-1.58-2.11a9.32,9.32,0,0,1-.93-2.47c-.32-1.28-.57-2.57-.83-3.85a33,33,0,0,0-1.32-3.85,9.24,9.24,0,0,1-.48-1.63,5.88,5.88,0,0,1-.11-.94,1.23,1.23,0,0,1,0-.27,16.76,16.76,0,0,1,2.15,4.16c.86,2.35,1.39,4.83,2.24,7.18,1.72,4.7,4.7,8.81,7.66,12.86l9.61,13.2a51.48,51.48,0,0,0,5.76,7,1.41,1.41,0,0,0,.82.48,1.48,1.48,0,0,0,1.1-.62c.51-.54,2.14-3.18,2.91-2.16A1.91,1.91,0,0,1,199.67,48Z" transform="translate(0 0)"/><path id="Tracé_272" data-name="Tracé 272" class="cls-13" d="M207.4,59.52a11.92,11.92,0,0,1-.9,4,2.66,2.66,0,0,1-1.11,1.3c-.5.22-.94.7-1.47.8a.77.77,0,0,1-.37,0,1.74,1.74,0,0,1-1-.45A11.27,11.27,0,0,1,201.49,64L199,60.71c-.41-.54-.91-1.06-1.26-1.63a4.29,4.29,0,0,1-.55-1.47,17.46,17.46,0,0,1-.47-6.11,9.12,9.12,0,0,1,.23-1.18A9,9,0,0,1,200,45.41a1,1,0,0,1,.61-.3.93.93,0,0,1,.64.29,44,44,0,0,1,3.27,3.28,9.82,9.82,0,0,1,1.05,1.09,7.11,7.11,0,0,1,1.12,2.53,16.3,16.3,0,0,1,.72,3.07A19.19,19.19,0,0,1,207.4,59.52Z" transform="translate(0 0)"/><path id="Tracé_273" data-name="Tracé 273" class="cls-14" d="M206.85,55a2.73,2.73,0,0,1-.39.66,15.24,15.24,0,0,0-2.1,5.4,44.61,44.61,0,0,0-.81,4.62,1.88,1.88,0,0,1-1-.46A12.36,12.36,0,0,1,201.49,64L199,60.7c-.41-.53-.9-1.06-1.26-1.62a4.59,4.59,0,0,1-.55-1.47,17.78,17.78,0,0,1-.47-6.12,9.46,9.46,0,0,1,.23-1.18,15.5,15.5,0,0,0,1.46,3.4,24.36,24.36,0,0,0,3.3,4.34,1.37,1.37,0,0,0,.51.38c.84.35,1.8-1.54,2.3-2.07A4.2,4.2,0,0,1,206.85,55Z" transform="translate(0 0)"/></g><path id="Tracé_274" data-name="Tracé 274" class="cls-11" d="M232.59,99.23a17.79,17.79,0,0,1-5.47,2.39c-.44.13-.88.27-1.32.38a40.34,40.34,0,0,1-7.32,1.27,22.87,22.87,0,0,1-8.52-.54c-2.14-.63-5.44-2.3-6.21-4.62a9.91,9.91,0,0,1-.08-2.93c0-1.15-.08-2.3-.13-3.45-.06-2.39-.15-4.77-.24-7.14q-.27-7.14-.63-14.26c0-.67-.07-1.33-.11-2-.18-3.32-.35-6.75.9-9.82a7.23,7.23,0,0,1,2.34-3.17,7.59,7.59,0,0,1,5.15-1.1c1.68.16,3.55,1,5.21.84,1.13-.14,2.44.16,3.48-.33a3.15,3.15,0,0,1,.77-.35,1.94,1.94,0,0,1,.59,0h0a10,10,0,0,1,2.39.66c.74.29,1.47.65,2.2,1a23.36,23.36,0,0,1,3.16,1.69,7.79,7.79,0,0,1,2,1.87c.19.28.41.53.6.79a5.84,5.84,0,0,1,.43,1.07,7.15,7.15,0,0,1,.78,2.68v0c.14.62.25,1.24.35,1.86a54.47,54.47,0,0,1,.48,9.38c-.11,4.81-.17,17.88,0,19.64C233.55,96.37,233.77,98.31,232.59,99.23Z" transform="translate(0 0)"/><path id="Tracé_275" data-name="Tracé 275" class="cls-14" d="M223.3,58.87a12.15,12.15,0,0,1-1.47,2.45,23.28,23.28,0,0,0-1.32,2.2A1.66,1.66,0,0,0,219,62.19a2.34,2.34,0,0,0-1.52.56,4,4,0,0,0-1,1.41.11.11,0,0,1-.06.07s0,0-.06,0a6.35,6.35,0,0,0-4.83,1l.12-.2a8,8,0,0,1,1.09-1.36c.36-.38.78-.68,1.17-1a15.44,15.44,0,0,1,2.87-1.78,13.88,13.88,0,0,0,3.3-2.33,3.87,3.87,0,0,0,1.27-2.08c0-.35-.2-.62-.28-1a6.61,6.61,0,0,1,0-1.09h0a9.86,9.86,0,0,1,2.39.66,1.55,1.55,0,0,1,0,.21A7.82,7.82,0,0,1,223.3,58.87Z" transform="translate(0 0)"/><path id="Tracé_276" data-name="Tracé 276" class="cls-11" d="M231.15,108.67a17.36,17.36,0,0,1-5.47,2.39c-.44.14-.88.28-1.32.39-.47-4.17-.82-8.36-1.15-12.54-.18-2.32-.36-4.63-.48-7a86.3,86.3,0,0,1,.1-12.14,51.45,51.45,0,0,1,.85-5.92c.29-1.38.41-3.49,2-4a3.24,3.24,0,0,1,2.21.18,6.61,6.61,0,0,1,3.25,3.55s0,0,0,0c.14.62.25,1.23.34,1.85a52.65,52.65,0,0,1,.48,9.39c-.1,4.81-.16,17.88,0,19.64C232.11,105.81,232.33,107.77,231.15,108.67Z" transform="translate(0 0)"/><path id="Tracé_277" data-name="Tracé 277" class="cls-9" d="M221.79,58.36a10,10,0,0,1-1.72,1.72s0,0,0,0a9.06,9.06,0,0,1-1.14.81,14.23,14.23,0,0,1-3.08,1.58,9.63,9.63,0,0,1-1.67.47,3.51,3.51,0,0,1-.79.06.79.79,0,0,0-.62.19,3.42,3.42,0,0,0-.4.52,11.73,11.73,0,0,0-.82,1.47,1.18,1.18,0,0,1-.07-.2v0c0-.2,0-.41-.07-.63a7.25,7.25,0,0,0-.27-.87,7.29,7.29,0,0,1-.3-1.74,10.05,10.05,0,0,1,.2-2c0-.2.07-.41.1-.62s.11-.68.15-1a3.21,3.21,0,0,0,0-1.51c-.12-.32-.55-.41-.67-.78a1.07,1.07,0,0,1,.29-1,3.25,3.25,0,0,1,1.15-.67,23,23,0,0,0,4-2,6.1,6.1,0,0,0,1.62-1.33c.11-.11.21-.24.3-.35a4.75,4.75,0,0,0,.74-1.27c.15-.35.28-.69.43-1.06a10.09,10.09,0,0,1,.21,1.34l.06.59a11.4,11.4,0,0,0,2.4,5.59,4.29,4.29,0,0,1,.36.48,1.28,1.28,0,0,1,.11.2A2.29,2.29,0,0,1,221.79,58.36Z" transform="translate(0 0)"/><path id="Tracé_278" data-name="Tracé 278" class="cls-10" d="M222.21,56.08a5.9,5.9,0,0,1-.33,1.16,9,9,0,0,1-1.81,2.84s0,0,0,0a9.06,9.06,0,0,1-1.14.81,14.46,14.46,0,0,1-3.08,1.58,9.49,9.49,0,0,1-1.68.47,3.38,3.38,0,0,1-.78.06.79.79,0,0,0-.62.19,3.42,3.42,0,0,0-.4.52,11.73,11.73,0,0,0-.82,1.47,1.18,1.18,0,0,1-.07-.2v0a10.28,10.28,0,0,1,.71-1.84l0,0a23.59,23.59,0,0,1,3.33-4.19,8.73,8.73,0,0,0,2.34-4.9,13.61,13.61,0,0,0-.15-3.25c-.11-.65-.24-1.29-.36-1.93a4.8,4.8,0,0,1,1.4.3,4.51,4.51,0,0,1,.63.29c0,.19,0,.4.07.59a11.33,11.33,0,0,0,2.4,5.58A5.6,5.6,0,0,1,222.21,56.08Z" transform="translate(0 0)"/><path id="Tracé_279" data-name="Tracé 279" class="cls-13" d="M211.44,62.65c0,.67.05,1.35.05,2a2.89,2.89,0,0,1-.05.65c0-.14,0-.28,0-.42a2.25,2.25,0,0,0-.06-.36,9,9,0,0,0-.37-1.22,2.52,2.52,0,0,0-.87-1.21,2.78,2.78,0,0,0-.93-.32,2.79,2.79,0,0,0,1.29-1.8,1.76,1.76,0,0,0-1.16-1.63,3,3,0,0,0-2.1.09,8.51,8.51,0,0,1,2-2.49,5.76,5.76,0,0,1,1.88-1,2.49,2.49,0,0,1,.89-.23c.35.06.24.58.18.81a25.44,25.44,0,0,0-.71,4.68C211.41,61,211.42,61.83,211.44,62.65Z" transform="translate(0 0)"/><path id="Tracé_280" data-name="Tracé 280" class="cls-13" d="M222.71,55a4.62,4.62,0,0,0-1.16-1.67,6,6,0,0,0-.8-.6c-.15-.1-.68-.33-.73-.49a12.49,12.49,0,0,1,.73,3.31A3.63,3.63,0,0,1,219.46,58a14,14,0,0,1-3.3,2.35,11.93,11.93,0,0,0-3.25,2.15,6.65,6.65,0,0,0-1.48,2.8,5.19,5.19,0,0,1,4.5-1.72,2.74,2.74,0,0,1,2.47-1.91A1.66,1.66,0,0,1,220,63a21,21,0,0,1,1.3-2.19,12.24,12.24,0,0,0,1.49-2.45A4.72,4.72,0,0,0,222.71,55Z" transform="translate(0 0)"/><path id="Tracé_281" data-name="Tracé 281" class="cls-9" d="M222.5,47.09a3.63,3.63,0,0,1-1.43,2.35,7.33,7.33,0,0,1-2.53,1.22c-.34.1-.46.5-.56.84a6.64,6.64,0,0,1-.76,1.92,6.45,6.45,0,0,1-3.18,2.2,14.62,14.62,0,0,1-4.87,1.06,4.08,4.08,0,0,1-1.66-.23l-.21-.08a1.85,1.85,0,0,1-1.1-1.46,9.8,9.8,0,0,0-1-3.35,1.4,1.4,0,0,0-.56-.75c-.25-.19-.56-.38-.65-.71s.17-.79.3-1.18a4,4,0,0,0,.07-1.65,10.16,10.16,0,0,1,.15-2.34,2.33,2.33,0,0,0-.22-1.22,2.33,2.33,0,0,1,.09-1c.23-1,.49-2,.78-3a6.7,6.7,0,0,1,.8-2.47A10,10,0,0,1,207.53,36a7.31,7.31,0,0,1,4.33-1.35,6.35,6.35,0,0,1,5.42,3.22,9.19,9.19,0,0,1,.67,1.74,9.47,9.47,0,0,0,1.57,3.66,7.37,7.37,0,0,0,1.9,1.42A2.46,2.46,0,0,1,222.5,47.09Z" transform="translate(0 0)"/><path id="Tracé_282" data-name="Tracé 282" class="cls-10" d="M222.5,47.09a3.63,3.63,0,0,1-1.43,2.35,7.33,7.33,0,0,1-2.53,1.22c-.34.1-.46.5-.56.84a6.64,6.64,0,0,1-.76,1.92,6.45,6.45,0,0,1-3.18,2.2,14.62,14.62,0,0,1-4.87,1.06,4.08,4.08,0,0,1-1.66-.23,16.72,16.72,0,0,0,3-1.07,8.11,8.11,0,0,0,3.93-3.76,7.14,7.14,0,0,0-.14-5.71c-.59-1.34-1.51-2.49-2.21-3.77a6.63,6.63,0,0,1-.88-2.87c-.11-3.31,4.64-1,6.77.31a9.47,9.47,0,0,0,1.57,3.66,7.37,7.37,0,0,0,1.9,1.42A2.46,2.46,0,0,1,222.5,47.09Z" transform="translate(0 0)"/><path id="Tracé_283" data-name="Tracé 283" class="cls-6" d="M224.81,43.35a11.79,11.79,0,0,1-2.7,7.06c-.19.21-.53.43-.74.24a.52.52,0,0,1-.05-.5,6.75,6.75,0,0,1,.92-1.74,2.53,2.53,0,0,0,.4-1.89,1.75,1.75,0,0,0-2.25-1l-.1.05A2.4,2.4,0,0,0,219,48a10.1,10.1,0,0,1-1.44-2.11,24.15,24.15,0,0,0-1.33-2.58,9.28,9.28,0,0,0-2.16-2.55,9.7,9.7,0,0,0-1.24-.85c-.55-.36-1.82-.88-1.56-1.78v0c-1.21.59-2.63-.21-3.88-.24a2.82,2.82,0,0,0-.41,0,2.36,2.36,0,0,0-.51.12,2.47,2.47,0,0,0-1.35,1.48c.1-.52.1-1.06.2-1.58.44-2.54,2.81-4.48,5.1-5.4a12.67,12.67,0,0,1,5.62-.82,11.43,11.43,0,0,1,2.16.41,13.67,13.67,0,0,1,1.58.58,8.35,8.35,0,0,1,1.22.64,8.88,8.88,0,0,1,2.16,2.29,7.73,7.73,0,0,1,1.18,2.69A15.74,15.74,0,0,1,224.81,43.35Z" transform="translate(0 0)"/><path id="Tracé_284" data-name="Tracé 284" class="cls-6" d="M224.81,43.35a11.79,11.79,0,0,1-2.7,7.06c-.19.21-.53.43-.74.24a.52.52,0,0,1-.05-.5,6.75,6.75,0,0,1,.92-1.74,2.53,2.53,0,0,0,.4-1.89,1.75,1.75,0,0,0-2.25-1l-.1.05A2.4,2.4,0,0,0,219,48a10.1,10.1,0,0,1-1.44-2.11,24.15,24.15,0,0,0-1.33-2.58,9.28,9.28,0,0,0-2.16-2.55,9.7,9.7,0,0,0-1.24-.85c-.55-.36-1.82-.88-1.56-1.78a3.13,3.13,0,0,1,1,.13,11.61,11.61,0,0,0,1.18,0,7.16,7.16,0,0,0,4.25-1.84,7,7,0,0,0,2.07-3.74,7.44,7.44,0,0,1,1.22.64,8.67,8.67,0,0,1,2.16,2.28,7.5,7.5,0,0,1,1.18,2.7A15.44,15.44,0,0,1,224.81,43.35Z" transform="translate(0 0)"/></g></g><g id="Groupe_57" data-name="Groupe 57"><g id="Groupe_50" data-name="Groupe 50"><g id="Groupe_48" data-name="Groupe 48"><g id="Groupe_47" data-name="Groupe 47"><path id="Tracé_285" data-name="Tracé 285" class="cls-3" d="M132.33,173.61V104.39l48-27.7v69.22Zm1.73-68.22v65.22l44.55-25.7V79.69Z" transform="translate(0 0)"/></g><path id="Tracé_286" data-name="Tracé 286" class="cls-2" d="M132.33,173.61l-5.08-2.92V101.47l5.08,2.92Z" transform="translate(0 0)"/><path id="Tracé_287" data-name="Tracé 287" class="cls-3" d="M132.33,104.39l-5.08-2.92,48-27.7,5.09,2.92Z" transform="translate(0 0)"/><path id="Tracé_288" data-name="Tracé 288" class="cls-2" d="M178.61,144.91,173.53,142l-39.47,22.77v5.85Z" transform="translate(0 0)"/><path id="Tracé_289" data-name="Tracé 289" class="cls-15" d="M178.61,144.91,173.53,142l0-59.35,5.1-3Z" transform="translate(0 0)"/></g><g id="Groupe_49" data-name="Groupe 49"><path id="Tracé_290" data-name="Tracé 290" class="cls-3" d="M134.06,105.39v17.46l39.45-22.76V82.64Z" transform="translate(0 0)"/></g></g><g id="Groupe_51" data-name="Groupe 51"><path id="Tracé_291" data-name="Tracé 291" class="cls-3" d="M177.77,130.8l-44-25.28,49.56-28.61,44,25.28Z" transform="translate(0 0)"/><path id="Tracé_292" data-name="Tracé 292" class="cls-2" d="M227.33,116.69v-14.5L177.77,130.8v14.5Z" transform="translate(0 0)"/><path id="Tracé_293" data-name="Tracé 293" class="cls-2" d="M133.8,120v-14.5l44,25.28v14.5Z" transform="translate(0 0)"/></g><g id="Groupe_55" data-name="Groupe 55"><g id="Groupe_53" data-name="Groupe 53"><g id="Groupe_52" data-name="Groupe 52"><path id="Tracé_294" data-name="Tracé 294" class="cls-3" d="M184.1,203.8V134.57l48-27.7V176.1Zm1.73-68.23V200.8l44.55-25.7V109.88Z" transform="translate(0 0)"/></g><path id="Tracé_295" data-name="Tracé 295" class="cls-2" d="M184.1,203.8,179,200.88V131.65l5.09,2.92Z" transform="translate(0 0)"/><path id="Tracé_296" data-name="Tracé 296" class="cls-2" d="M184.1,134.57,179,131.65,227,104l5.08,2.92Z" transform="translate(0 0)"/><path id="Tracé_297" data-name="Tracé 297" class="cls-2" d="M230.38,175.1l-5.08-2.92L185.83,195v5.85Z" transform="translate(0 0)"/><path id="Tracé_298" data-name="Tracé 298" class="cls-2" d="M230.38,175.1l-5.08-2.92,0-59.36,5.1-2.94Z" transform="translate(0 0)"/></g><g id="Groupe_54" data-name="Groupe 54"><path id="Tracé_299" data-name="Tracé 299" class="cls-2" d="M185.83,135.57V153l39.45-22.75V112.81Z" transform="translate(0 0)"/></g></g><g id="Groupe_56" data-name="Groupe 56"><path id="Tracé_300" data-name="Tracé 300" class="cls-11" d="M232.12,97.56l-49.55,28.61-55.43-31.9,49.55-28.61,13.14,7.56,26.76,15.4Z" transform="translate(0 0)"/><path id="Tracé_301" data-name="Tracé 301" class="cls-16" d="M216.59,88.61a7.45,7.45,0,0,1-2.88.4,14.16,14.16,0,0,1-4.31-1c-7-2.71-12.8-8-20-10.2a17.27,17.27,0,0,1-3.36-1.21c-.76-.4-2.39-1.59-1.93-2.66s2.28-.84,3.13-.86a14.56,14.56,0,0,1,2.55.16Z" transform="translate(0 0)"/><path id="Tracé_302" data-name="Tracé 302" class="cls-17" d="M232.11,102.43V97.54l-49.55,28.61V131Z" transform="translate(0 0)"/><path id="Tracé_303" data-name="Tracé 303" class="cls-17" d="M127.14,99.14V94.25l55.42,31.9V131Z" transform="translate(0 0)"/></g></g><g id="Groupe_67" data-name="Groupe 67"><g id="Groupe_66" data-name="Groupe 66"><path id="Tracé_304" data-name="Tracé 304" class="cls-17" d="M168.12,107.48l21.77-12.57-14.62-8.44L153.5,99Z" transform="translate(0 0)"/><path id="Tracé_305" data-name="Tracé 305" class="cls-18" d="M153.08,105.43l.58-.39-.23.58Z" transform="translate(0 0)"/><path id="Tracé_306" data-name="Tracé 306" class="cls-19" d="M153.31,100v5.6l-.22-.13v.79l13.85,8a.76.76,0,0,0,1-.28.37.37,0,0,0,.05-.11h0a8,8,0,0,0-.31-6.34h0L153.09,99v.78Z" transform="translate(0 0)"/><g id="Groupe_58" data-name="Groupe 58"><path id="Tracé_307" data-name="Tracé 307" class="cls-20" d="M153.3,99.94v5.61l13.57,7.86.09,0a7.62,7.62,0,0,0,.26-.9c0-.13.06-.26.08-.39a7.77,7.77,0,0,0,.1-1c0-.11,0-.23,0-.34v0a7.92,7.92,0,0,0-.21-1.81,6.76,6.76,0,0,0-.39-1.23Z" transform="translate(0 0)"/></g><path id="Tracé_308" data-name="Tracé 308" class="cls-21" d="M153.3,103l.76.6,2.55,1.27-2.67-1.06-.64-.36Z" transform="translate(0 0)"/><path id="Tracé_309" data-name="Tracé 309" class="cls-21" d="M164.73,109.5l2.67,1.69c0-.12,0-.23,0-.34Z" transform="translate(0 0)"/><path id="Tracé_310" data-name="Tracé 310" class="cls-22" d="M163.91,110.46l3.3,2.09c0-.13.06-.26.08-.39Z" transform="translate(0 0)"/><path id="Tracé_311" data-name="Tracé 311" class="cls-23" d="M161.61,109.21l-8.31-4.85v-.76l-1,.47Z" transform="translate(0 0)"/><path id="Tracé_312" data-name="Tracé 312" class="cls-23" d="M161.61,106.82,153.3,102v-.76l-1,.47Z" transform="translate(0 0)"/><path id="Tracé_313" data-name="Tracé 313" class="cls-21" d="M153.3,99.94v1l13.9,8a6.76,6.76,0,0,0-.39-1.23Z" transform="translate(0 0)"/><path id="Tracé_314" data-name="Tracé 314" class="cls-19" d="M168.11,113.24a4.7,4.7,0,0,1-.24.66.63.63,0,0,1-.51.35,1.22,1.22,0,0,1-.53-.1l.1.07.21.12a2.35,2.35,0,0,0,.45.14,1.09,1.09,0,0,0,.59-.1c.18-.09.36-.2.53-.3l19.42-11.22.16-.09a3.48,3.48,0,0,0,1.59-2,8.35,8.35,0,0,0-.33-5.7l-.07-.16-21.77,12.57A8.35,8.35,0,0,1,168.11,113.24Z" transform="translate(0 0)"/><g id="Groupe_65" data-name="Groupe 65"><g id="Groupe_61" data-name="Groupe 61"><g id="Groupe_60" data-name="Groupe 60"><g id="Groupe_59" data-name="Groupe 59"><path id="Tracé_315" data-name="Tracé 315" class="cls-19" d="M187.66,103a3.46,3.46,0,0,0,1.59-2,8.29,8.29,0,0,0-.33-5.7l0-.07.59-.34.07.15a8.35,8.35,0,0,1,.33,5.7,3.51,3.51,0,0,1-1.59,2l-.16.09-.44.25C187.46,103.25,187.61,103.06,187.66,103Z" transform="translate(0 0)"/></g></g></g><path id="Tracé_316" data-name="Tracé 316" class="cls-19" d="M184.57,104.81a3.44,3.44,0,0,0,1.59-2,8.29,8.29,0,0,0-.33-5.7l0-.07.59-.35.07.16a8.35,8.35,0,0,1,.33,5.7,3.5,3.5,0,0,1-1.59,2l-.16.09-.44.25C184.37,105,184.52,104.84,184.57,104.81Z" transform="translate(0 0)"/><path id="Tracé_317" data-name="Tracé 317" class="cls-19" d="M181.48,106.59a3.44,3.44,0,0,0,1.59-2,8.29,8.29,0,0,0-.33-5.7l0-.08.59-.34.07.16a8.29,8.29,0,0,1,.33,5.7,3.48,3.48,0,0,1-1.59,2l-.15.09-.45.26C181.28,106.81,181.43,106.62,181.48,106.59Z" transform="translate(0 0)"/><path id="Tracé_318" data-name="Tracé 318" class="cls-19" d="M178.4,108.37a3.46,3.46,0,0,0,1.58-2,8.29,8.29,0,0,0-.33-5.7l0-.07.59-.35.07.16a8.29,8.29,0,0,1,.33,5.7,3.46,3.46,0,0,1-1.59,2l-.15.09-.45.25C178.19,108.6,178.34,108.4,178.4,108.37Z" transform="translate(0 0)"/><path id="Tracé_319" data-name="Tracé 319" class="cls-19" d="M175.31,110.16a3.48,3.48,0,0,0,1.58-2,8.34,8.34,0,0,0-.32-5.7l0-.07.6-.34.06.15a8.29,8.29,0,0,1,.33,5.7,3.43,3.43,0,0,1-1.59,2l-.15.09-.45.25C175.1,110.38,175.25,110.19,175.31,110.16Z" transform="translate(0 0)"/><path id="Tracé_320" data-name="Tracé 320" class="cls-19" d="M172.22,111.94a3.51,3.51,0,0,0,1.59-2,8.41,8.41,0,0,0-.33-5.7l0-.07.59-.34.06.15a8.3,8.3,0,0,1,.33,5.7,3.43,3.43,0,0,1-1.59,2l-.15.09-.44.26C172,112.16,172.17,112,172.22,111.94Z" transform="translate(0 0)"/><g id="Groupe_64" data-name="Groupe 64"><g id="Groupe_63" data-name="Groupe 63"><g id="Groupe_62" data-name="Groupe 62"><path id="Tracé_321" data-name="Tracé 321" class="cls-19" d="M169.13,113.72a3.52,3.52,0,0,0,1.59-2,8.35,8.35,0,0,0-.33-5.7l0-.08.59-.34.06.16a8.29,8.29,0,0,1,.33,5.7,3.44,3.44,0,0,1-1.59,2l-.15.09-.44.26C168.92,113.94,169.08,113.75,169.13,113.72Z" transform="translate(0 0)"/></g></g></g></g></g></g><g id="Groupe_68" data-name="Groupe 68"><path id="Tracé_322" data-name="Tracé 322" class="cls-24" d="M228.64,78.63s-4.43,2-10.45-6.73l2.58-2.51L227,70.62l3,4.61Z" transform="translate(0 0)"/><path id="Tracé_323" data-name="Tracé 323" class="cls-9" d="M227.67,75.21a4.06,4.06,0,0,1-.94,1.65,36.49,36.49,0,0,1-5.37,5.39c-1,.83-2,1.61-3.05,2.38a24.67,24.67,0,0,1-2.78,2,3.81,3.81,0,0,1-1.69.59,17.93,17.93,0,0,1-2.31-.16,21.62,21.62,0,0,1-7.78-2.79,65.24,65.24,0,0,1-6.84-4.7c-.59-.46-1.2-.9-1.79-1.35a5.1,5.1,0,0,0-1.65-.78,4.31,4.31,0,0,0-1.64-.07,9.31,9.31,0,0,1-2.3,0,6.48,6.48,0,0,1-1.48-.51l-1.36-.59a7.78,7.78,0,0,1-1.57-.81,3.07,3.07,0,0,1-.9-.93,3.11,3.11,0,0,1-.2-.41,1.1,1.1,0,0,1,0-.87c.07-.12.19-.25.17-.39a.39.39,0,0,0-.13-.2,1.25,1.25,0,0,1-.31-.8.64.64,0,0,1,.52-.63.42.42,0,0,1,0-.5.91.91,0,0,1,.45-.27,2,2,0,0,1,1.11,0,.78.78,0,0,1,.47-.6,1.4,1.4,0,0,1,.78-.11c1.6.11,3,1,4.58,1.25.51.07,1,.08,1.54.19a6.4,6.4,0,0,1,2,1,4.6,4.6,0,0,0,1,.58c.42.13.84.25,1.27.34,3.12.92,6.15,2.17,9.33,2.91,1.83.43,3.68,1.07,5.58.84a4.22,4.22,0,0,0,2-.85,18.24,18.24,0,0,0,2.33-2.32c.49-.53.94-1,1.4-1.57l1-1.11a1.81,1.81,0,0,1,.62-.58c.25-.11.43,0,.67-.1.58-.11,1.12-.45,1.72-.57a4.55,4.55,0,0,1,3.37.68,5,5,0,0,1,2,3A4.89,4.89,0,0,1,227.67,75.21Z" transform="translate(0 0)"/><path id="Tracé_324" data-name="Tracé 324" class="cls-10" d="M227.67,75.21a4.06,4.06,0,0,1-.94,1.65,36.49,36.49,0,0,1-5.37,5.39c-1,.83-2,1.61-3.05,2.38a24.67,24.67,0,0,1-2.78,2,3.81,3.81,0,0,1-1.69.59,17.93,17.93,0,0,1-2.31-.16,21.62,21.62,0,0,1-7.78-2.79,65.24,65.24,0,0,1-6.84-4.7c-.59-.46-1.2-.9-1.79-1.35a5.1,5.1,0,0,0-1.65-.78,4.31,4.31,0,0,0-1.64-.07,9.31,9.31,0,0,1-2.3,0,6.48,6.48,0,0,1-1.48-.51l-1.36-.59a7.78,7.78,0,0,1-1.57-.81,3.07,3.07,0,0,1-.9-.93,21.48,21.48,0,0,0,7.6,1.51,10,10,0,0,1,3.13.29,10.72,10.72,0,0,1,3.26,2.28,38.76,38.76,0,0,0,7.87,4.89,15.87,15.87,0,0,0,4.47,1.67,10.63,10.63,0,0,0,7.66-2.26A31.12,31.12,0,0,0,223.85,77a2.73,2.73,0,0,0,.67-1.18,2.31,2.31,0,0,0-.84-1.93,6.38,6.38,0,0,0-4.2-1.8c-.43,0-.9,0-1.34.06l1-1.11a1.81,1.81,0,0,1,.62-.58c.25-.11.43,0,.67-.1.58-.11,1.12-.45,1.72-.57a4.55,4.55,0,0,1,3.37.68,5.07,5.07,0,0,1,2,3A4.88,4.88,0,0,1,227.67,75.21Z" transform="translate(0 0)"/><path id="Tracé_325" data-name="Tracé 325" class="cls-13" d="M229.11,78.33c-.12.17-.27.35-.47.3s-.27-.23-.32-.41a11.62,11.62,0,0,0-2-3.61,8.69,8.69,0,0,0-2.06-1.86,8.39,8.39,0,0,0-3-1.17,4.71,4.71,0,0,0-2.27,0l-.8.33c.5-.85.9-1.76,1.38-2.63s1-1.66,1.51-2.46a38.16,38.16,0,0,1,2.78-3.68,17.1,17.1,0,0,1,2-2A11,11,0,0,1,228,59.76a3.63,3.63,0,0,1,2.2-.33l0,0a2.29,2.29,0,0,1,1.37.94,7.5,7.5,0,0,1,1.06,3.17A20.32,20.32,0,0,1,229.11,78.33Z" transform="translate(0 0)"/><path id="Tracé_326" data-name="Tracé 326" class="cls-14" d="M229.11,78.33c-.12.17-.27.35-.47.3s-.27-.23-.32-.41a11.62,11.62,0,0,0-2-3.61,20.77,20.77,0,0,0,4.84-11c.14-1.19.32-3-.6-3.88a3.45,3.45,0,0,0-.28-.23,2.31,2.31,0,0,1,1.38.94,7.64,7.64,0,0,1,1.06,3.17A20.32,20.32,0,0,1,229.11,78.33Z" transform="translate(0 0)"/></g><g id="Groupe_104" data-name="Groupe 104"><g id="Groupe_77" data-name="Groupe 77"><g id="Groupe_70" data-name="Groupe 70"><g id="Groupe_69" data-name="Groupe 69"><path id="Tracé_327" data-name="Tracé 327" class="cls-3" d="M324.23,236.73l2-1.17,6-30.43,22.92-13.23,6,23.55,2-1.18-6.3-25.64-26.31,15.18Z" transform="translate(0 0)"/></g><path id="Tracé_328" data-name="Tracé 328" class="cls-3" d="M322.5,235.73l1.73,1,6.3-32.92-1.73-1Z" transform="translate(0 0)"/><path id="Tracé_329" data-name="Tracé 329" class="cls-3" d="M361.1,215.45l-1.73-1-5.66-21.68,1.43-.86Z" transform="translate(0 0)"/><path id="Tracé_330" data-name="Tracé 330" class="cls-4" d="M356.83,188.63l-1.72-1L328.8,202.81l1.73,1Z" transform="translate(0 0)"/></g><g id="Groupe_72" data-name="Groupe 72"><g id="Groupe_71" data-name="Groupe 71"><path id="Tracé_331" data-name="Tracé 331" class="cls-3" d="M289.25,216.17l2-1.17,6-30.43,22.93-13.23,6,36.66,2-1.17-6.3-38.76-26.31,15.19Z" transform="translate(0 0)"/></g><path id="Tracé_332" data-name="Tracé 332" class="cls-5" d="M287.53,215.17l1.72,1,6.3-32.92-1.72-1Z" transform="translate(0 0)"/><path id="Tracé_333" data-name="Tracé 333" class="cls-3" d="M326.13,208l-1.73-1-5.66-34.79,1.43-.87Z" transform="translate(0 0)"/><path id="Tracé_334" data-name="Tracé 334" class="cls-4" d="M321.86,168.07l-1.73-1-26.31,15.19,1.73,1Z" transform="translate(0 0)"/></g><g id="Groupe_73" data-name="Groupe 73"><path id="Tracé_335" data-name="Tracé 335" class="cls-2" d="M358.37,187.7l-35.22-20.79,3-33.78,3.79,1.3,33.23,18.46-2.95,33.79Z" transform="translate(0 0)"/><path id="Tracé_336" data-name="Tracé 336" class="cls-3" d="M361.32,153.91l-35.21-20.77,1.6-.9,35.43,20.65Z" transform="translate(0 0)"/><path id="Tracé_337" data-name="Tracé 337" class="cls-25" d="M361.32,153.91l-2.95,33.79,1.81-1,2.95-33.78Z" transform="translate(0 0)"/></g><g id="Groupe_74" data-name="Groupe 74"><path id="Tracé_338" data-name="Tracé 338" class="cls-3" d="M328.6,205l-35.22-20.85v-1.71l29.77-14,35.38,17.43-.17,1.77Z" transform="translate(0 0)"/><path id="Tracé_339" data-name="Tracé 339" class="cls-3" d="M328.6,203.31l-35.22-20.85,29.93-17.4,35.22,20.85Z" transform="translate(0 0)"/><path id="Tracé_340" data-name="Tracé 340" class="cls-26" d="M328.6,203.31V205l29.76-17.36.17-1.77Z" transform="translate(0 0)"/></g><g id="Groupe_75" data-name="Groupe 75"><path id="Tracé_341" data-name="Tracé 341" class="cls-2" d="M361.33,153.91,355.61,182l-6.9,9.6,9.82-5.7Z" transform="translate(0 0)"/><path id="Tracé_342" data-name="Tracé 342" class="cls-2" d="M355.61,182l-1.1-.62,5.72-28.09,1.1.63Z" transform="translate(0 0)"/></g><g id="Groupe_76" data-name="Groupe 76"><path id="Tracé_343" data-name="Tracé 343" class="cls-27" d="M327.21,133.77l-5.71,28-6.89,9.6,9.82-5.7Z" transform="translate(0 0)"/><path id="Tracé_344" data-name="Tracé 344" class="cls-28" d="M314.61,171.4l-1.1-.62,6.9-9.6,1.1.62Z" transform="translate(0 0)"/><path id="Tracé_345" data-name="Tracé 345" class="cls-28" d="M321.5,161.8l-1.1-.63,5.71-28,1.1.62Z" transform="translate(0 0)"/></g></g><g id="Groupe_82" data-name="Groupe 82"><g id="Groupe_81" data-name="Groupe 81"><g id="Groupe_80" data-name="Groupe 80"><g id="Groupe_78" data-name="Groupe 78"><path id="Tracé_346" data-name="Tracé 346" class="cls-29" d="M332.22,115.55a.28.28,0,0,0,0,.22.29.29,0,0,0,.1.12,4.22,4.22,0,0,1,.6,5.2,3.42,3.42,0,0,1,1,1.8,6.84,6.84,0,0,1-.79,5.64c-.55.78-1.05.45-1.65,0a9.16,9.16,0,0,1-1.88-1.85,7,7,0,0,1-1-2.72,1.15,1.15,0,0,0-.31-.71,1.25,1.25,0,0,0-.45-.18,3.19,3.19,0,0,1-1.89-1.69,6.45,6.45,0,0,1-.58-2.52,3.42,3.42,0,0,1,.67-2.6,1.21,1.21,0,0,0,.29-.35.93.93,0,0,0,0-.44,12.64,12.64,0,0,1,.34-3.52,3.66,3.66,0,0,1,.58-1.53,2.51,2.51,0,0,1,1.44-.52,3.56,3.56,0,0,1,2.87,1,4.23,4.23,0,0,1,.68,4.56A.36.36,0,0,0,332.22,115.55Z" transform="translate(0 0)"/></g><path id="Tracé_347" data-name="Tracé 347" class="cls-30" d="M330.77,118.16a2.83,2.83,0,0,1,.41,1.17,3.52,3.52,0,0,1-.1,1.93,1.05,1.05,0,0,1,.63.67,6.9,6.9,0,0,1,.62,3.07,1,1,0,0,1-.39.89,1,1,0,0,1-.59,0,8.51,8.51,0,0,1-4.61-1.59,6,6,0,0,1-1.17-1.48,11.89,11.89,0,0,1-1-8,7.29,7.29,0,0,1,2.07-4.38,1,1,0,0,1,.5-.26.82.82,0,0,1,.46.1c.67.3.94.82,1.43,1.3a4.74,4.74,0,0,1,1.08,1.44,5.45,5.45,0,0,1,.29,3.87.91.91,0,0,0-.06.61,1.18,1.18,0,0,0,.24.31A2.26,2.26,0,0,1,330.77,118.16Z" transform="translate(0 0)"/><path id="Tracé_348" data-name="Tracé 348" class="cls-31" d="M311.35,228.2a14.11,14.11,0,0,1-2.31,2.69,18.82,18.82,0,0,0-3.12,4.44,16.16,16.16,0,0,1-1.31,2.38,7.34,7.34,0,0,1-4,2.53,5.62,5.62,0,0,1-2,.26l-.33,0a2.9,2.9,0,0,1-2-1.12c-1.43-1.94-.73-4.08.4-5.92a14.74,14.74,0,0,1,1.81-2.28c.76-.81,1.55-1.57,2.3-2.48a14,14,0,0,0,2.71-5.32c.37-1.41,1-3.47,2.43-4.13a2.8,2.8,0,0,1,1.59-.15,6,6,0,0,1,.94.19,4.68,4.68,0,0,1,2.18,1,4.35,4.35,0,0,1,1,2A8,8,0,0,1,311.35,228.2Z" transform="translate(0 0)"/><path id="Tracé_349" data-name="Tracé 349" class="cls-12" d="M311.35,228.2a14.11,14.11,0,0,1-2.31,2.69,18.82,18.82,0,0,0-3.12,4.44,16.16,16.16,0,0,1-1.31,2.38,7.34,7.34,0,0,1-4,2.53,5.62,5.62,0,0,1-2,.26,8.42,8.42,0,0,1,1.48-5.19,43,43,0,0,1,3.09-3.64,18.92,18.92,0,0,0,2.17-3.17,14.57,14.57,0,0,0,1.48-5.25,16.3,16.3,0,0,1,.59-4,.84.84,0,0,1,.08-.19,5.9,5.9,0,0,1,.93.19,4.67,4.67,0,0,1,2.19,1,4.33,4.33,0,0,1,1,2A8,8,0,0,1,311.35,228.2Z" transform="translate(0 0)"/><path id="Tracé_350" data-name="Tracé 350" class="cls-31" d="M319.21,231.14a8.43,8.43,0,0,0-1.63,1.09c-1.07,1-1.32,2.57-1.95,3.88a9.42,9.42,0,0,1-1.32,2,13.26,13.26,0,0,1-12.86,4.19,1.93,1.93,0,0,1-.92-.47,2,2,0,0,1-.44-2,6.4,6.4,0,0,1,1-1.92c2.75-3.9,6.33-7.16,9.35-10.86,1.35-1.63,2.24-3.83,4.56-4.27a4.3,4.3,0,0,1,1.6,0,5.42,5.42,0,0,1,2.74,1.3,4.41,4.41,0,0,1,1.41,2.18C321.22,227.92,320.81,230.18,319.21,231.14Z" transform="translate(0 0)"/><path id="Tracé_351" data-name="Tracé 351" class="cls-31" d="M319.21,231.14a8.43,8.43,0,0,0-1.63,1.09c-1.07,1-1.32,2.57-1.95,3.88a9.42,9.42,0,0,1-1.32,2,13.26,13.26,0,0,1-12.86,4.19,1.93,1.93,0,0,1-.92-.47,5.84,5.84,0,0,0,2.46-1.23,24.27,24.27,0,0,0,4-3.87c1.93-2.18,3.8-4.42,5.58-6.72a8.83,8.83,0,0,0,1.39-2.32,23.17,23.17,0,0,1,2.6-4.89,5.42,5.42,0,0,1,2.74,1.3,4.41,4.41,0,0,1,1.41,2.18C321.22,227.92,320.81,230.18,319.21,231.14Z" transform="translate(0 0)"/><path id="Tracé_352" data-name="Tracé 352" class="cls-9" d="M316.82,177.3a10.82,10.82,0,0,1-1.41,5.24,19,19,0,0,1-3.4,4.07,58,58,0,0,1-6.23,5.27,8.22,8.22,0,0,0-2.39,2.31,6.29,6.29,0,0,0-.73,3.12,14.1,14.1,0,0,0,1.6,6.71,23.51,23.51,0,0,1,2.5,6,45.56,45.56,0,0,1,1,7.16c.13,1.61.27,3.2.42,4.8a6.59,6.59,0,0,1-1.68,4.43c-.1.11-.19.23-.28.34a17.6,17.6,0,0,1-3.85,3.66,2.32,2.32,0,0,1-.87.41,1,1,0,0,1-.89-.26c-.4-.44-.1-1.14.2-1.67l1.42-2.39a6.49,6.49,0,0,0,.69-3.21,4.28,4.28,0,0,0-1.42-2.85c-.71-.77-1.4-1.55-2.09-2.35-1.36-1.58-2.68-3.2-3.93-4.86a67.47,67.47,0,0,1-6.58-10.61c-.32-.64-.62-1.28-.9-1.93a15,15,0,0,1-1.11-3.2,8.42,8.42,0,0,1,0-4.4,28,28,0,0,1,1.7-3.2,31.93,31.93,0,0,1,1.95-3.08,42,42,0,0,1,4-4.88c.37-.4.76-.8,1.14-1.18,2-2,3.88-4.1,5.87-6.11a50.45,50.45,0,0,1,4.6-4.17c1.54-1.18,3-2.18,5.07-1.58a7.47,7.47,0,0,1,3.62,2.42A9.3,9.3,0,0,1,316.82,177.3Z" transform="translate(0 0)"/><path id="Tracé_353" data-name="Tracé 353" class="cls-10" d="M316.82,177.3a10.82,10.82,0,0,1-1.41,5.24,19,19,0,0,1-3.4,4.07,58,58,0,0,1-6.23,5.27,8.22,8.22,0,0,0-2.39,2.31,6.29,6.29,0,0,0-.73,3.12,14.1,14.1,0,0,0,1.6,6.71,23.51,23.51,0,0,1,2.5,6,45.56,45.56,0,0,1,1,7.16c.13,1.61.27,3.2.42,4.8a6.59,6.59,0,0,1-1.68,4.43,14.67,14.67,0,0,0-.2-3.44,15.51,15.51,0,0,0-2-5.46c-.49-.81-1.1-1.56-1.66-2.33a38,38,0,0,1-5.82-11.74c-.57-1.94-1.29-3.46-.74-5.5a15.19,15.19,0,0,1,2.94-5.32c1.7-2.12,3.72-4,5.17-6.32a2.54,2.54,0,0,0,.47-1.14c.08-1-.95-1.79-1.9-2.2a13.51,13.51,0,0,0-6.58-1.06,7.77,7.77,0,0,1-1.67,0c.37-.4.76-.8,1.14-1.18,2-2,3.88-4.1,5.87-6.12a53.4,53.4,0,0,1,4.6-4.17c1.54-1.18,3-2.18,5.07-1.58a7.47,7.47,0,0,1,3.62,2.42A9.33,9.33,0,0,1,316.82,177.3Z" transform="translate(0 0)"/><path id="Tracé_354" data-name="Tracé 354" class="cls-9" d="M337.51,183.75c-.2,1.81-1.54,3.28-2.93,4.47a59.49,59.49,0,0,1-9.84,6.4c-2.1,1.18-4.22,2.36-6.34,3.51a10.5,10.5,0,0,0-3.76,2.84c-.82,1.15-.32,2.81,0,4.08.42,1.45,1,2.86,1.56,4.3A30.16,30.16,0,0,1,318,218c0,.79.07,1.57.05,2.35,0,2.78-.08,5.89-1.63,8.29a15.54,15.54,0,0,1-7.22,5.5,2.83,2.83,0,0,1-.41.14,2.21,2.21,0,0,1-1.88-.1c-.85-.58-.3-1.73.1-2.45a14.19,14.19,0,0,1,1.21-1.77c.62-.83,1.2-1.66,1.74-2.52a2.55,2.55,0,0,0,.55-1.23,4.76,4.76,0,0,0-.23-1.25,13.69,13.69,0,0,0-1.3-2.56c-3.06-5.45-7-10.41-9.77-16-1.05-2.16-2.09-5-1.31-7.39.72-2.24,2.3-3.64,3.77-5.38a54.25,54.25,0,0,1,4.7-4.4c1-.94,2-1.86,2.94-2.78l7.42-7a.47.47,0,0,0,.1-.1c3.34-3.15,8.18-2.75,12.74-2.16a12.27,12.27,0,0,1,5.39,1.76A5.41,5.41,0,0,1,337.51,183.75Z" transform="translate(0 0)"/><path id="Tracé_355" data-name="Tracé 355" class="cls-10" d="M337.51,183.75c-.2,1.81-1.54,3.28-2.93,4.47a59.49,59.49,0,0,1-9.84,6.4c-2.1,1.18-4.22,2.36-6.34,3.51a10.5,10.5,0,0,0-3.76,2.84c-.82,1.15-.32,2.81,0,4.08.42,1.45,1,2.86,1.56,4.3A30.16,30.16,0,0,1,318,218c0,.79.07,1.57.05,2.35,0,2.78-.08,5.89-1.63,8.29a15.54,15.54,0,0,1-7.22,5.5,2.83,2.83,0,0,1-.41.14l1.21-1a16.58,16.58,0,0,0,5.17-7.63,17.81,17.81,0,0,0,.38-7c-.48-4.44-1.84-8.73-2.79-13.08-.46-2.2-.81-4.63.29-6.6s3.36-2.94,5.13-4.25a5.53,5.53,0,0,0,2.14-2.28,2.56,2.56,0,0,0-.77-2.67c-2.7-2.73-6.65-2.38-10-3.27l-.2-.07c2.48-2.35,5-4.67,7.43-7l.1-.1c3.34-3.15,8.17-2.75,12.74-2.16a12.31,12.31,0,0,1,5.39,1.76A5.43,5.43,0,0,1,337.51,183.75Z" transform="translate(0 0)"/><path id="Tracé_356" data-name="Tracé 356" class="cls-32" d="M340.39,186.14a11.15,11.15,0,0,1-2.77,3.85c-2.62,2.43-5.6,4.69-9.12,5.36a9,9,0,0,0-2.24-3.12c-1.37-1.42-2.81-3.16-4.6-4l0,0a21.9,21.9,0,0,0-5.78-1.9,20.13,20.13,0,0,0-3.55-.26c-.5,0-1,.11-1.5.12h-.28a1.74,1.74,0,0,1-.93-.48c-.11-.13-.23-.24-.34-.35a17.54,17.54,0,0,0-6.48-4,16.52,16.52,0,0,0-4.33-1c-1-.06-2.69.14-3.36.89,3.38-3.82,6.88-7.49,10.41-11.16a37.5,37.5,0,0,0,3.3-3.72,19.74,19.74,0,0,0,3.87-10.88c0,.66,1.17,1.58,1.5,2.1a13.3,13.3,0,0,0,.88,1.67,17,17,0,0,0,4.41,3.32,11.23,11.23,0,0,0,6,1,20.39,20.39,0,0,0,7.27-1.87c1.79-.84,3.93-1.62,5.1-3.28a15.82,15.82,0,0,0,1.35-2.62c.27,1.54.53,3.08.77,4.64.74,4.74,1.33,9.5,1.81,14.28A24.71,24.71,0,0,1,340.39,186.14Z" transform="translate(0 0)"/><path id="Tracé_357" data-name="Tracé 357" class="cls-12" d="M318.39,175.47q-4,5.22-7.6,10.66l-.28,0a1.61,1.61,0,0,1-.93-.48,11.86,11.86,0,0,1,1.84-2.5c1.35-1.73,2.78-3.4,4.29-5C316.57,177.23,317.47,176.34,318.39,175.47Z" transform="translate(0 0)"/><path id="Tracé_358" data-name="Tracé 358" class="cls-33" d="M340.39,186.14a11.15,11.15,0,0,1-2.77,3.85c-2.62,2.43-5.6,4.69-9.12,5.36a9,9,0,0,0-2.24-3.12c-1.37-1.42-2.81-3.16-4.6-4l0,0c0-.07.1-.12.14-.19,2-2.53,4.1-4.94,6-7.52a43.72,43.72,0,0,0,3.49-5.8,16.29,16.29,0,0,0,1.45-4.87c.24-1.59.16-3,.89-4.56a10.9,10.9,0,0,1,2.35-3.16,5.31,5.31,0,0,1,4-1.7h.05c.75,4.75,1.34,9.5,1.82,14.28A24.69,24.69,0,0,1,340.39,186.14Z" transform="translate(0 0)"/><path id="Tracé_359" data-name="Tracé 359" class="cls-33" d="M339.51,166.51A17.59,17.59,0,0,1,334,168.9c-.44.13-.88.27-1.32.38a40.23,40.23,0,0,1-7.31,1.27,22.86,22.86,0,0,1-8.52-.54c-2.15-.63-5.44-2.3-6.21-4.62a9.93,9.93,0,0,1-.09-2.93c0-1.15-.08-2.3-.12-3.45q-.11-3.58-.25-7.14-.27-7.14-.63-14.26c0-.67-.07-1.33-.11-2-.18-3.31-.34-6.75.91-9.82a7.28,7.28,0,0,1,2.33-3.17,7.62,7.62,0,0,1,5.16-1.1c1.68.16,3.55,1,5.21.84,1.12-.14,2.43.16,3.48-.33a3.08,3.08,0,0,1,.76-.35,2,2,0,0,1,.6,0h0a9.93,9.93,0,0,1,2.4.66c.74.29,1.47.65,2.2,1a24,24,0,0,1,3.16,1.69,7.58,7.58,0,0,1,2,1.87c.19.28.41.53.6.79a5.84,5.84,0,0,1,.43,1.07,7.15,7.15,0,0,1,.78,2.68v0c.14.62.25,1.24.35,1.86a54.47,54.47,0,0,1,.48,9.38c-.11,4.81-.17,17.88,0,19.64C340.47,163.65,340.69,165.6,339.51,166.51Z" transform="translate(0 0)"/><path id="Tracé_360" data-name="Tracé 360" class="cls-14" d="M330.22,126.15a11.71,11.71,0,0,1-1.47,2.45,23.28,23.28,0,0,0-1.32,2.2,1.65,1.65,0,0,0-1.55-1.33,2.38,2.38,0,0,0-1.53.56,4,4,0,0,0-1,1.41.13.13,0,0,1-.05.07s0,0-.07,0a6.35,6.35,0,0,0-4.83,1l.13-.2a7.51,7.51,0,0,1,1.08-1.36c.36-.38.79-.68,1.17-1a15.44,15.44,0,0,1,2.87-1.78,13.88,13.88,0,0,0,3.3-2.33,3.87,3.87,0,0,0,1.27-2.08c0-.35-.19-.62-.28-1a9.73,9.73,0,0,1,0-1.08h0a9,9,0,0,1,2.39.66.65.65,0,0,1,0,.2A7.82,7.82,0,0,1,330.22,126.15Z" transform="translate(0 0)"/><path id="Tracé_361" data-name="Tracé 361" class="cls-14" d="M339.51,166.5a17.59,17.59,0,0,1-5.47,2.39c-.44.14-.88.28-1.32.39-.46-4.17-.82-8.36-1.15-12.54-.18-2.32-.36-4.63-.48-7a86.29,86.29,0,0,1,.1-12.14,51.14,51.14,0,0,1,.85-5.92c.29-1.38.41-3.49,2-4a3.24,3.24,0,0,1,2.21.18,6.62,6.62,0,0,1,3.25,3.54s0,0,0,0c.14.62.25,1.24.34,1.86a53.61,53.61,0,0,1,.49,9.39c-.11,4.81-.17,17.88,0,19.64C340.48,163.64,340.69,165.59,339.51,166.5Z" transform="translate(0 0)"/><path id="Tracé_362" data-name="Tracé 362" class="cls-9" d="M328.71,125.64a9,9,0,0,1-1.72,1.71l0,0a10,10,0,0,1-1.15.81,14.39,14.39,0,0,1-3.07,1.58,10,10,0,0,1-1.68.47,3.42,3.42,0,0,1-.78.06.77.77,0,0,0-.62.19,2.88,2.88,0,0,0-.4.52,11.8,11.8,0,0,0-.83,1.47,1.18,1.18,0,0,1-.07-.2v0a6.12,6.12,0,0,1-.06-.63,6.78,6.78,0,0,0-.28-.87,7.29,7.29,0,0,1-.3-1.74,10.89,10.89,0,0,1,.21-2c0-.2.07-.41.1-.62s.11-.68.15-1a3.5,3.5,0,0,0,0-1.51c-.13-.32-.55-.41-.68-.79a1.06,1.06,0,0,1,.29-1,3.29,3.29,0,0,1,1.16-.67,23.22,23.22,0,0,0,4-2,5.8,5.8,0,0,0,1.62-1.33c.11-.11.21-.24.3-.35a5,5,0,0,0,.75-1.28c.15-.34.27-.68.42-1a7.62,7.62,0,0,1,.21,1.34c0,.2,0,.4.07.59a11.15,11.15,0,0,0,2.4,5.58,5.6,5.6,0,0,1,.36.49c0,.06.07.13.11.2A2.27,2.27,0,0,1,328.71,125.64Z" transform="translate(0 0)"/><path id="Tracé_363" data-name="Tracé 363" class="cls-10" d="M329.14,123.36a7.69,7.69,0,0,1-.33,1.16,9.25,9.25,0,0,1-1.82,2.84l0,0a9.06,9.06,0,0,1-1.14.81,14.23,14.23,0,0,1-3.08,1.58,9.63,9.63,0,0,1-1.67.47,3.46,3.46,0,0,1-.79.06.75.75,0,0,0-.61.19,2.49,2.49,0,0,0-.4.52,11.8,11.8,0,0,0-.83,1.47,1.18,1.18,0,0,1-.07-.2v0a10.33,10.33,0,0,1,.72-1.84l0,0a24.05,24.05,0,0,1,3.33-4.19,8.73,8.73,0,0,0,2.34-4.9,13.11,13.11,0,0,0-.15-3.25c-.11-.65-.24-1.29-.36-1.93a4.8,4.8,0,0,1,1.4.3,4.51,4.51,0,0,1,.63.29c0,.19,0,.4.07.59a11.33,11.33,0,0,0,2.4,5.58C328.9,123,329,123.19,329.14,123.36Z" transform="translate(0 0)"/><path id="Tracé_364" data-name="Tracé 364" class="cls-13" d="M318.36,129.93c0,.67.05,1.35.06,2a3.57,3.57,0,0,1-.06.65,3,3,0,0,0,0-.42c0-.12,0-.24-.05-.36a9,9,0,0,0-.38-1.22,2.46,2.46,0,0,0-.87-1.21,2.8,2.8,0,0,0-.92-.32,2.81,2.81,0,0,0,1.28-1.8,1.72,1.72,0,0,0-1.16-1.62,3,3,0,0,0-2.1.08,8.68,8.68,0,0,1,2-2.49,5.71,5.71,0,0,1,1.89-1,2.49,2.49,0,0,1,.88-.23c.35.06.24.58.19.81a24.63,24.63,0,0,0-.72,4.68C318.33,128.29,318.34,129.11,318.36,129.93Z" transform="translate(0 0)"/><path id="Tracé_365" data-name="Tracé 365" class="cls-13" d="M329.63,122.29a4.62,4.62,0,0,0-1.16-1.67,6,6,0,0,0-.8-.6c-.15-.1-.68-.33-.73-.5a12.65,12.65,0,0,1,.73,3.32,3.63,3.63,0,0,1-1.29,2.47,14,14,0,0,1-3.3,2.35,11.83,11.83,0,0,0-3.26,2.15,6.63,6.63,0,0,0-1.47,2.8,5.18,5.18,0,0,1,4.5-1.72,2.74,2.74,0,0,1,2.47-1.91,1.67,1.67,0,0,1,1.56,1.32,21,21,0,0,1,1.3-2.19,11.75,11.75,0,0,0,1.48-2.45A4.66,4.66,0,0,0,329.63,122.29Z" transform="translate(0 0)"/><path id="Tracé_366" data-name="Tracé 366" class="cls-9" d="M329.42,114.37a3.59,3.59,0,0,1-1.43,2.35,7.37,7.37,0,0,1-2.52,1.22c-.35.1-.47.5-.57.84a6.62,6.62,0,0,1-.75,1.92,6.52,6.52,0,0,1-3.19,2.2,14.81,14.81,0,0,1-4.87,1.06,4.08,4.08,0,0,1-1.66-.23l-.21-.08a1.87,1.87,0,0,1-1.1-1.46,9.8,9.8,0,0,0-1-3.35,1.4,1.4,0,0,0-.56-.75c-.25-.19-.56-.38-.64-.71s.16-.79.3-1.18a4.17,4.17,0,0,0,.06-1.65,10.76,10.76,0,0,1,.16-2.34,2.55,2.55,0,0,0-.22-1.22,2.32,2.32,0,0,1,.08-1c.23-1,.49-2,.78-3.05a6.9,6.9,0,0,1,.8-2.47,10.07,10.07,0,0,1,1.6-1.24,7.31,7.31,0,0,1,4.33-1.35,6.33,6.33,0,0,1,5.42,3.22,9.92,9.92,0,0,1,.67,1.74,9.47,9.47,0,0,0,1.57,3.66,7.37,7.37,0,0,0,1.9,1.42A2.46,2.46,0,0,1,329.42,114.37Z" transform="translate(0 0)"/><path id="Tracé_367" data-name="Tracé 367" class="cls-10" d="M329.42,114.37a3.59,3.59,0,0,1-1.43,2.35,7.37,7.37,0,0,1-2.52,1.22c-.35.1-.47.5-.57.84a6.62,6.62,0,0,1-.75,1.92,6.52,6.52,0,0,1-3.19,2.2,14.81,14.81,0,0,1-4.87,1.06,4.08,4.08,0,0,1-1.66-.23,16.44,16.44,0,0,0,3-1.07,8.11,8.11,0,0,0,3.93-3.76,7.14,7.14,0,0,0-.14-5.71c-.59-1.34-1.51-2.49-2.21-3.77a6.77,6.77,0,0,1-.88-2.87c-.11-3.31,4.64-1,6.77.31a9.62,9.62,0,0,0,1.57,3.66,7.73,7.73,0,0,0,1.9,1.42A2.44,2.44,0,0,1,329.42,114.37Z" transform="translate(0 0)"/><g id="Groupe_79" data-name="Groupe 79"><path id="Tracé_368" data-name="Tracé 368" class="cls-29" d="M331.73,110.63a11.87,11.87,0,0,1-2.69,7.06c-.19.21-.54.43-.74.24a.55.55,0,0,1-.06-.5,7.43,7.43,0,0,1,.92-1.74,2.44,2.44,0,0,0,.4-1.89,1.73,1.73,0,0,0-2.24-1l-.11.05a2.41,2.41,0,0,0-1.25,2.39,9.55,9.55,0,0,1-1.44-2.12,27.14,27.14,0,0,0-1.33-2.57A9.84,9.84,0,0,0,321,108a13,13,0,0,0-1.24-.85c-.55-.36-1.83-.88-1.57-1.77v0c-1.21.59-2.62-.2-3.87-.23h-.41a3.81,3.81,0,0,0-.51.12,2.46,2.46,0,0,0-1.35,1.49c.1-.52.1-1.06.19-1.58.44-2.54,2.82-4.48,5.1-5.4A12.55,12.55,0,0,1,323,99a10.56,10.56,0,0,1,2.16.41,12.38,12.38,0,0,1,1.58.57,8,8,0,0,1,1.23.65,8.64,8.64,0,0,1,2.15,2.28,7.69,7.69,0,0,1,1.19,2.7A16,16,0,0,1,331.73,110.63Z" transform="translate(0 0)"/></g></g></g></g><g id="Groupe_93" data-name="Groupe 93"><g id="Groupe_86" data-name="Groupe 86"><g id="Groupe_84" data-name="Groupe 84"><g id="Groupe_83" data-name="Groupe 83"><path id="Tracé_370" data-name="Tracé 370" class="cls-25" d="M241,241.44V172.21l48-27.7v69.23Zm1.73-68.22v65.22l44.56-25.7V147.52Z" transform="translate(0 0)"/></g><path id="Tracé_371" data-name="Tracé 371" class="cls-2" d="M241,241.44,236,238.52V169.3l5.08,2.92Z" transform="translate(0 0)"/><path id="Tracé_372" data-name="Tracé 372" class="cls-2" d="M241,172.21,236,169.29l48-27.7,5.09,2.92Z" transform="translate(0 0)"/><path id="Tracé_373" data-name="Tracé 373" class="cls-2" d="M287.31,212.75l-5.08-2.92-39.47,22.76v5.85Z" transform="translate(0 0)"/><path id="Tracé_374" data-name="Tracé 374" class="cls-15" d="M287.31,212.75l-5.08-2.92,0-59.36,5.1-2.95Z" transform="translate(0 0)"/></g><g id="Groupe_85" data-name="Groupe 85"><path id="Tracé_375" data-name="Tracé 375" class="cls-34" d="M242.76,173.21v17.46l39.45-22.75V150.46Z" transform="translate(0 0)"/></g></g><g id="Groupe_87" data-name="Groupe 87"><path id="Tracé_376" data-name="Tracé 376" class="cls-3" d="M286.48,198.63l-44-25.28,49.55-28.61L336,170Z" transform="translate(0 0)"/><path id="Tracé_377" data-name="Tracé 377" class="cls-25" d="M336,184.52V170l-49.56,28.61v14.5Z" transform="translate(0 0)"/><path id="Tracé_378" data-name="Tracé 378" class="cls-2" d="M242.51,187.85v-14.5l44,25.28v14.5Z" transform="translate(0 0)"/></g><g id="Groupe_91" data-name="Groupe 91"><g id="Groupe_89" data-name="Groupe 89"><g id="Groupe_88" data-name="Groupe 88"><path id="Tracé_379" data-name="Tracé 379" class="cls-3" d="M292.8,271.63V202.4l48-27.7v69.22Zm1.73-68.23v65.23l44.55-25.7V177.7Z" transform="translate(0 0)"/></g><path id="Tracé_380" data-name="Tracé 380" class="cls-3" d="M292.8,271.63l-5.09-2.93V199.48l5.09,2.92Z" transform="translate(0 0)"/><path id="Tracé_381" data-name="Tracé 381" class="cls-2" d="M292.8,202.4l-5.09-2.92,48-27.7,5.08,2.92Z" transform="translate(0 0)"/><path id="Tracé_382" data-name="Tracé 382" class="cls-25" d="M339.08,242.93,334,240l-39.47,22.77v5.85Z" transform="translate(0 0)"/><path id="Tracé_383" data-name="Tracé 383" class="cls-2" d="M339.08,242.93,334,240l0-59.36,5.1-3Z" transform="translate(0 0)"/></g><g id="Groupe_90" data-name="Groupe 90"><path id="Tracé_384" data-name="Tracé 384" class="cls-2" d="M294.53,203.4v17.46L334,198.1V180.65Z" transform="translate(0 0)"/></g></g><g id="Groupe_92" data-name="Groupe 92"><path id="Tracé_385" data-name="Tracé 385" class="cls-35" d="M291.26,194l-55.42-31.9,49.55-28.61,55.43,31.9Z" transform="translate(0 0)"/><path id="Tracé_386" data-name="Tracé 386" class="cls-36" d="M323.67,155.51a30.29,30.29,0,0,1-10.87,1.33,20.53,20.53,0,0,1-6.41-1c-3.26-1.18-5.91-3.6-9-5.17-1.76-.88-3.66-1.48-5.31-2.52a6.51,6.51,0,0,1-3.31-4.64l.63,1.34a3.81,3.81,0,0,1,1.5-2.76c1.6-1.2,3.85-.94,5.8-.51q2.54.54,5,1.31Z" transform="translate(0 0)"/><path id="Tracé_387" data-name="Tracé 387" class="cls-33" d="M340.81,170.26v-4.89L291.26,194v4.89Z" transform="translate(0 0)"/><path id="Tracé_388" data-name="Tracé 388" class="cls-33" d="M235.84,167v-4.89L291.26,194v4.89Z" transform="translate(0 0)"/></g></g><g id="Groupe_99" data-name="Groupe 99"><g id="Groupe_98" data-name="Groupe 98"><path id="Tracé_389" data-name="Tracé 389" class="cls-33" d="M286.17,177.86,308,165.29l-14.62-8.44-21.78,12.57Z" transform="translate(0 0)"/><path id="Tracé_390" data-name="Tracé 390" class="cls-18" d="M271.55,175.81l.58-.39-.23.58Z" transform="translate(0 0)"/><path id="Tracé_391" data-name="Tracé 391" class="cls-37" d="M271.78,170.33v5.6l-.23-.13v.79l13.86,8a.74.74,0,0,0,1-.28.39.39,0,0,0,.06-.11h0a8,8,0,0,0-.32-6.34h0l-14.62-8.45v.79Z" transform="translate(0 0)"/><g id="Groupe_94" data-name="Groupe 94"><path id="Tracé_392" data-name="Tracé 392" class="cls-20" d="M271.77,170.33v5.6l13.57,7.86.09,0a6.66,6.66,0,0,0,.26-.9c0-.13.06-.26.08-.39a7.81,7.81,0,0,0,.1-1c0-.12,0-.23,0-.35v0a7.86,7.86,0,0,0-.21-1.81,6.62,6.62,0,0,0-.39-1.24Z" transform="translate(0 0)"/></g><path id="Tracé_393" data-name="Tracé 393" class="cls-21" d="M271.77,173.34l.75.6,2.56,1.27-2.67-1.06-.64-.36Z" transform="translate(0 0)"/><path id="Tracé_394" data-name="Tracé 394" class="cls-21" d="M283.2,179.88l2.67,1.69c0-.11,0-.23,0-.34Z" transform="translate(0 0)"/><path id="Tracé_395" data-name="Tracé 395" class="cls-22" d="M282.39,180.84l3.3,2.09a2.66,2.66,0,0,0,.07-.39Z" transform="translate(0 0)"/><path id="Tracé_396" data-name="Tracé 396" class="cls-23" d="M280.08,179.6l-8.3-4.86V174l-1,.47Z" transform="translate(0 0)"/><path id="Tracé_397" data-name="Tracé 397" class="cls-23" d="M280.08,177.21l-8.3-4.86v-.76l-1,.47Z" transform="translate(0 0)"/><path id="Tracé_398" data-name="Tracé 398" class="cls-21" d="M271.77,170.33v1l13.9,8a6.76,6.76,0,0,0-.39-1.23Z" transform="translate(0 0)"/><path id="Tracé_399" data-name="Tracé 399" class="cls-37" d="M286.58,183.63a4.38,4.38,0,0,1-.24.66.64.64,0,0,1-.51.34,1.21,1.21,0,0,1-.53-.09l.1.06.21.12a1.88,1.88,0,0,0,.46.14,1,1,0,0,0,.58-.1c.19-.09.36-.2.54-.3l19.42-11.22.15-.08a3.46,3.46,0,0,0,1.59-2,8.29,8.29,0,0,0-.33-5.7l-.07-.16-21.77,12.57A8.32,8.32,0,0,1,286.58,183.63Z" transform="translate(0 0)"/><g id="Groupe_97" data-name="Groupe 97"><g id="Groupe_95" data-name="Groupe 95"><path id="Tracé_400" data-name="Tracé 400" class="cls-37" d="M306.13,173.41a3.43,3.43,0,0,0,1.59-2,8.29,8.29,0,0,0-.33-5.7l0-.07.59-.34.07.15a8.35,8.35,0,0,1,.33,5.7,3.51,3.51,0,0,1-1.59,2l-.16.09-.44.26C305.93,173.63,306.08,173.44,306.13,173.41Z" transform="translate(0 0)"/></g><path id="Tracé_401" data-name="Tracé 401" class="cls-37" d="M303,175.19a3.44,3.44,0,0,0,1.59-2,8.32,8.32,0,0,0-.33-5.71l0-.07.59-.34.07.16a8.35,8.35,0,0,1,.33,5.7,3.52,3.52,0,0,1-1.59,2l-.16.09-.44.26C302.84,175.41,303,175.22,303,175.19Z" transform="translate(0 0)"/><path id="Tracé_402" data-name="Tracé 402" class="cls-37" d="M300,177a3.44,3.44,0,0,0,1.59-2,8.29,8.29,0,0,0-.33-5.7l0-.07.59-.35.07.16a8.35,8.35,0,0,1,.33,5.7,3.5,3.5,0,0,1-1.59,2l-.16.08-.44.26C299.75,177.2,299.9,177,300,177Z" transform="translate(0 0)"/><path id="Tracé_403" data-name="Tracé 403" class="cls-37" d="M296.87,178.76a3.48,3.48,0,0,0,1.58-2,8.29,8.29,0,0,0-.33-5.7l0-.07.59-.34.07.15a8.29,8.29,0,0,1,.33,5.7,3.43,3.43,0,0,1-1.59,2l-.15.09-.45.25C296.66,179,296.81,178.79,296.87,178.76Z" transform="translate(0 0)"/><path id="Tracé_404" data-name="Tracé 404" class="cls-37" d="M293.77,180.54a3.43,3.43,0,0,0,1.59-2,8.34,8.34,0,0,0-.32-5.7l0-.07.59-.34.07.15a8.29,8.29,0,0,1,.33,5.7,3.43,3.43,0,0,1-1.59,2l-.15.09-.45.26C293.57,180.76,293.72,180.57,293.77,180.54Z" transform="translate(0 0)"/><path id="Tracé_405" data-name="Tracé 405" class="cls-37" d="M290.69,182.32a3.52,3.52,0,0,0,1.59-2,8.41,8.41,0,0,0-.33-5.7l0-.08.59-.34.06.16a8.29,8.29,0,0,1,.33,5.7,3.46,3.46,0,0,1-1.59,2l-.15.08-.45.26C290.48,182.54,290.64,182.35,290.69,182.32Z" transform="translate(0 0)"/><g id="Groupe_96" data-name="Groupe 96"><path id="Tracé_406" data-name="Tracé 406" class="cls-37" d="M287.6,184.1a3.52,3.52,0,0,0,1.59-2,8.35,8.35,0,0,0-.33-5.7l0-.07.59-.35.06.16a8.29,8.29,0,0,1,.33,5.7,3.46,3.46,0,0,1-1.59,2l-.15.09-.44.25C287.39,184.33,287.55,184.13,287.6,184.1Z" transform="translate(0 0)"/></g></g></g></g><g id="Groupe_102" data-name="Groupe 102"><g id="Groupe_100" data-name="Groupe 100"><path id="Tracé_407" data-name="Tracé 407" class="cls-9" d="M306.88,135.91a16.87,16.87,0,0,1-2.95,3,34.66,34.66,0,0,1-3,2,44.1,44.1,0,0,1-5.92,3.34,13.93,13.93,0,0,1-4,1,2.35,2.35,0,0,1-2.14-.7,2.22,2.22,0,0,1,0-2c.84-2.28,2.72-4,4.55-5.58.8-.7,1.59-1.4,2.4-2.09,1.07-.89,2.18-1.73,3.3-2.56l.78-.57a4.11,4.11,0,0,1,3.66-.86,5.55,5.55,0,0,1,2.52,1.94,19.46,19.46,0,0,1,1.17,1.62C307.59,134.88,307.27,135.41,306.88,135.91Z" transform="translate(0 0)"/><path id="Tracé_408" data-name="Tracé 408" class="cls-10" d="M306.88,135.91a16.87,16.87,0,0,1-2.95,3,34.66,34.66,0,0,1-3,2,44.1,44.1,0,0,1-5.92,3.34,2.68,2.68,0,0,1-.5-.51c-.64-.92-.36-2.17-.48-3.3a4.5,4.5,0,0,0-1.43-2.78,7.58,7.58,0,0,1,4.48-.6,12,12,0,0,1,4.27,1.62,2.42,2.42,0,0,0,.8.33,1.33,1.33,0,0,0,1.07-.41,3.3,3.3,0,0,0,.66-1,.73.73,0,0,0,.11-.67.86.86,0,0,0-.29-.28c-1-.63-2-1.14-3-1.87a4.63,4.63,0,0,1-1.58-2.15,2.93,2.93,0,0,1-.1-.37l.78-.58a4.09,4.09,0,0,1,3.65-.85,5.44,5.44,0,0,1,2.53,1.93c.42.53.81,1.08,1.17,1.63S307.27,135.41,306.88,135.91Z" transform="translate(0 0)"/><path id="Tracé_409" data-name="Tracé 409" class="cls-9" d="M316.19,153.49a.56.56,0,0,1-.1.44,1.68,1.68,0,0,1-1.55.43,19.15,19.15,0,0,1-4.25-.9c-.32-.09-.63-.2-.94-.32a2,2,0,0,0,.95.76c.26.11.52.21.79.3s.5.17.5.4a.4.4,0,0,1-.16.35,1.83,1.83,0,0,1-.85.44l-.22,0h-.18a4.41,4.41,0,0,1-1.35-.24,20.88,20.88,0,0,1-4.17-1.74,6.85,6.85,0,0,1-1.14-.76,8.63,8.63,0,0,1-1.09-1.09,6.89,6.89,0,0,0-1.13-1.16,4.56,4.56,0,0,0-1.44-.65c-.69-.14-1.37-.32-2.06-.46a19.48,19.48,0,0,1-6.36-2.29,6.77,6.77,0,0,1-2.5-2.4c-.05-.09-.09-.18-.13-.27v0a2,2,0,0,1-.17-.54c0-.1,0-.19,0-.3v-.05a2.48,2.48,0,0,1,.05-.72A1.8,1.8,0,0,1,289,142a2.25,2.25,0,0,1,1.06-.6,6.86,6.86,0,0,1,4,.19l1.07.35,2.5.94h0a20.41,20.41,0,0,1,2.44,1.09,8.46,8.46,0,0,1,2.5,1.86.42.42,0,0,1,.09.14,9.24,9.24,0,0,1,2.3.63c1.7.6,3.43,1.22,5.06,2,.81.37,1.58.78,2.34,1.22a10.16,10.16,0,0,1,2.09,1.54,14.18,14.18,0,0,1,1.53,1.94A.62.62,0,0,1,316.19,153.49Z" transform="translate(0 0)"/><path id="Tracé_410" data-name="Tracé 410" class="cls-10" d="M310.58,155.39a.82.82,0,0,1-.22,0,.55.55,0,0,1-.18,0,4.42,4.42,0,0,1-1.35-.25,20.31,20.31,0,0,1-4.17-1.74,6.24,6.24,0,0,1-1.14-.75,9.35,9.35,0,0,1-1.09-1.09,6.22,6.22,0,0,0-1.13-1.16,4.37,4.37,0,0,0-1.44-.66c-.69-.14-1.37-.31-2.06-.45a19.72,19.72,0,0,1-6.36-2.29,6.88,6.88,0,0,1-2.5-2.41,2.1,2.1,0,0,1-.13-.26v0a2.07,2.07,0,0,1-.17-.55c0-.1,0-.19,0-.3a2.18,2.18,0,0,0,.49,1.08l.4.4a7.34,7.34,0,0,0,2.46,1.4c2.68,1,5.61,1.08,8.22,2.22,2.86,1.27,5,3.69,7.7,5.36a17.51,17.51,0,0,0,2.46,1.3A1,1,0,0,0,310.58,155.39Z" transform="translate(0 0)"/></g><g id="Groupe_101" data-name="Groupe 101"><path id="Tracé_411" data-name="Tracé 411" class="cls-13" d="M313.17,122.37a4.91,4.91,0,0,0-.44.25,7.2,7.2,0,0,0-2.34,3.18,12.62,12.62,0,0,0-.46,1.35,26.73,26.73,0,0,0-.45,8.46c0,.63.08,1.25.1,1.88a8.31,8.31,0,0,1-2.11-.21,11,11,0,0,1-1.11-.24l-.35-.11a9.14,9.14,0,0,1-1.33-.47,11.54,11.54,0,0,1-4.59-3.56c-.18-.24-.6-.66-.58-1a0,0,0,0,0,0-.05c.07-.21,2.48-2.23,3.27-2.94q2.43-2.1,5-4a23.59,23.59,0,0,1,2.29-1.55,9.7,9.7,0,0,1,1.2-.62,10.12,10.12,0,0,1,1.86-.61v.09A1.54,1.54,0,0,0,313.17,122.37Z" transform="translate(0 0)"/><path id="Tracé_412" data-name="Tracé 412" class="cls-14" d="M309.48,135.61c0,.64.08,1.25.1,1.89a8.8,8.8,0,0,1-2.11-.22,7.34,7.34,0,0,1-1.11-.24,2.25,2.25,0,0,1,.07-.58,6.78,6.78,0,0,1,.16-1c.11-.51.21-1,.35-1.55a28.42,28.42,0,0,1,1.83-4.8,15.66,15.66,0,0,1,1.16-1.93A26.65,26.65,0,0,0,309.48,135.61Z" transform="translate(0 0)"/></g></g><g id="Groupe_103" data-name="Groupe 103"><path id="Tracé_413" data-name="Tracé 413" class="cls-24" d="M335.56,145.91s-4.43,2-10.45-6.73l2.58-2.5,6.18,1.23,3,4.61Z" transform="translate(0 0)"/><path id="Tracé_414" data-name="Tracé 414" class="cls-9" d="M334.59,142.49a4.06,4.06,0,0,1-.94,1.65,35.54,35.54,0,0,1-5.37,5.39c-1,.83-2,1.61-3,2.38a24.67,24.67,0,0,1-2.78,2,3.81,3.81,0,0,1-1.69.59,17.93,17.93,0,0,1-2.31-.16,21.81,21.81,0,0,1-7.78-2.79,66.3,66.3,0,0,1-6.84-4.7c-.59-.46-1.2-.9-1.79-1.35a5,5,0,0,0-1.65-.78,4.26,4.26,0,0,0-1.63-.07,9.32,9.32,0,0,1-2.3,0,6.56,6.56,0,0,1-1.49-.51l-1.36-.59a8.24,8.24,0,0,1-1.56-.81,3,3,0,0,1-.91-.93,2.26,2.26,0,0,1-.19-.42,1,1,0,0,1,0-.86c.07-.13.2-.25.17-.39a.34.34,0,0,0-.13-.2,1.31,1.31,0,0,1-.31-.8.66.66,0,0,1,.52-.64.41.41,0,0,1,0-.49.91.91,0,0,1,.45-.27,2,2,0,0,1,1.11,0,.8.8,0,0,1,.47-.61,1.43,1.43,0,0,1,.79-.11c1.59.11,3,1.05,4.57,1.25.51.07,1,.09,1.54.2a6.43,6.43,0,0,1,2,1,4.16,4.16,0,0,0,1,.58,11.33,11.33,0,0,0,1.27.34c3.12.92,6.16,2.17,9.33,2.92,1.83.42,3.68,1.07,5.58.84a4.15,4.15,0,0,0,2-.86,18.32,18.32,0,0,0,2.34-2.32c.48-.52.93-1,1.4-1.57l.95-1.11a2,2,0,0,1,.61-.58c.25-.11.43,0,.68-.1.57-.11,1.11-.45,1.72-.56a4.53,4.53,0,0,1,3.36.67,5,5,0,0,1,2,3A4.74,4.74,0,0,1,334.59,142.49Z" transform="translate(0 0)"/><path id="Tracé_415" data-name="Tracé 415" class="cls-10" d="M334.59,142.49a4.06,4.06,0,0,1-.94,1.65,35.54,35.54,0,0,1-5.37,5.39c-1,.83-2,1.61-3,2.38a24.67,24.67,0,0,1-2.78,2,3.81,3.81,0,0,1-1.69.59,17.93,17.93,0,0,1-2.31-.16,21.81,21.81,0,0,1-7.78-2.79,66.3,66.3,0,0,1-6.84-4.7c-.59-.46-1.2-.9-1.79-1.35a5,5,0,0,0-1.65-.78,4.26,4.26,0,0,0-1.63-.07,9.32,9.32,0,0,1-2.3,0,6.56,6.56,0,0,1-1.49-.51l-1.36-.59a8.24,8.24,0,0,1-1.56-.81,3,3,0,0,1-.91-.93,21.48,21.48,0,0,0,7.6,1.51,10,10,0,0,1,3.13.29,10.43,10.43,0,0,1,3.26,2.28,38.76,38.76,0,0,0,7.87,4.89,15.66,15.66,0,0,0,4.47,1.66,10.58,10.58,0,0,0,7.66-2.25,31.67,31.67,0,0,0,5.63-5.88,2.86,2.86,0,0,0,.68-1.18,2.34,2.34,0,0,0-.84-1.93,6.38,6.38,0,0,0-4.21-1.8c-.42,0-.89,0-1.33.06l.95-1.12a1.88,1.88,0,0,1,.62-.57,2.53,2.53,0,0,1,.67-.1c.58-.11,1.11-.46,1.72-.57a4.54,4.54,0,0,1,3.36.68,4.93,4.93,0,0,1,2,3A4.66,4.66,0,0,1,334.59,142.49Z" transform="translate(0 0)"/><path id="Tracé_416" data-name="Tracé 416" class="cls-13" d="M336,145.61c-.12.17-.27.35-.47.3s-.27-.23-.32-.41a11.73,11.73,0,0,0-2-3.61,8.69,8.69,0,0,0-2.06-1.86,8.39,8.39,0,0,0-3-1.17,4.71,4.71,0,0,0-2.27,0l-.8.33c.5-.85.9-1.76,1.38-2.63s1-1.66,1.51-2.46a38.16,38.16,0,0,1,2.78-3.68,16.32,16.32,0,0,1,2-1.95,11,11,0,0,1,2.22-1.42,3.63,3.63,0,0,1,2.2-.33l0,0a2.29,2.29,0,0,1,1.37.94,7.5,7.5,0,0,1,1.06,3.17A20.32,20.32,0,0,1,336,145.61Z" transform="translate(0 0)"/><path id="Tracé_417" data-name="Tracé 417" class="cls-14" d="M336,145.61c-.12.17-.27.35-.47.3s-.27-.23-.32-.41a11.73,11.73,0,0,0-2-3.61,20.74,20.74,0,0,0,4.84-11c.14-1.19.32-3-.61-3.88a3.23,3.23,0,0,0-.27-.23,2.29,2.29,0,0,1,1.37.94,7.5,7.5,0,0,1,1.06,3.17A20.32,20.32,0,0,1,336,145.61Z" transform="translate(0 0)"/></g><path id="Tracé_418" data-name="Tracé 418" class="cls-9" d="M311.59,154.6a.39.39,0,0,1-.16.35,1.66,1.66,0,0,1-.85.44.82.82,0,0,1-.22,0v-.14l-.06-1.37a5.82,5.82,0,0,0,.79.3C311.32,154.25,311.59,154.37,311.59,154.6Z" transform="translate(0 0)"/></g></g></g></svg>