<svg id="Layer_1" data-name="Layer 1" xmlns="http://www.w3.org/2000/svg" xmlns:xlink="http://www.w3.org/1999/xlink" viewBox="0 0 1754.2 1666.18"><defs><style>.cls-1{fill:none;}.cls-2{fill:#cfe09b;}.cls-3{fill:#f34761;}.cls-4{fill:#40a5a8;}.cls-5{clip-path:url(#clip-path);}.cls-6{fill:url(#linear-gradient);}.cls-7{fill:#d15f54;}.cls-8{fill:url(#linear-gradient-2);}.cls-9{fill:url(#linear-gradient-3);}.cls-10{fill:url(#linear-gradient-4);}.cls-11{fill:#b23d38;}.cls-12{fill:url(#linear-gradient-5);}.cls-13{fill:url(#linear-gradient-6);}.cls-14{fill:#ffc2c9;}.cls-15{fill:url(#linear-gradient-7);}</style><clipPath id="clip-path" transform="translate(-124.04 -171.02)"><path class="cls-1" d="M1875.8,1339.3c-9.7-122.9-43.9-242.9-48.5-366.3-4.7-124.8,21-248.2,19.8-372.9-.9-94.4-20.7-190.8-72.9-270.9-23.7-36.4-54.1-68.7-91-92-43.7-27.6-95-40.1-146.5-39.6-119.1,1.1-224.2,62.1-334.5,98.6-53,17.5-107.3,27.8-163.3,26.2-51.7-1.5-102.7-11.9-152.4-26C783.2,267,685,222,581.1,194.4c-93.6-24.9-203.1-39.9-292.3,7.9-40.8,21.9-69.6,58.6-95.6,96-13.5,19.5-26.2,39.8-36.5,61.1-10.8,22.3-17,45.4-21.8,69.7-23.8,119.4-4.8,239.5,21.5,356.7,13.4,60,29.5,118.9,46.4,178,16.4,57.1,32.2,115,37.1,174.4,2.4,29.6,2.3,59.6-2.1,89-4,26.7-11.6,52.6-20.8,77.9-18.1,49.6-42.3,96.8-58.4,147.1-15.3,47.9-22,99.1-8.8,148.3,11.7,43.5,37.5,82.4,70,113.2,34,32.2,75.3,56.3,119.3,71.9,53.1,18.8,110.8,23.8,166.8,21.9,123.3-4,242.1-41.7,364.6-52.7q10.05-.9,20.1-1.5c18.8-.5,37.7.1,56.4,1.1,29.5,1.5,58.9,4.4,88.3,7.9l10.3,2.4a10.2,10.2,0,0,0,6.3-.3c9.3,1.2,18.7,2.5,28,3.9,30,4.3,60,9.3,89.9,14.5,28.8,7.7,57.6,15.5,86.5,23,40.4,10.5,80.8,19.4,122.6,22a475.49,475.49,0,0,0,76.4-1.2q8.25.15,16.5,0c51.3-.8,102.8-8.8,151.5-25.2,48-16.2,93-40.6,132-73.1,35.2-29.3,61.9-67.6,80.6-109.2C1874.5,1532.3,1883.3,1433.5,1875.8,1339.3Z"/></clipPath><linearGradient id="linear-gradient" x1="930.8" y1="-455.03" x2="930.8" y2="259.36" gradientTransform="translate(0 1440)" gradientUnits="userSpaceOnUse"><stop offset="0" stop-color="#180b2d"/><stop offset="1" stop-color="#23103d"/></linearGradient><linearGradient id="linear-gradient-2" x1="760" y1="-308.41" x2="820.89" y2="-308.41" gradientTransform="translate(0 1440)" gradientUnits="userSpaceOnUse"><stop offset="0" stop-color="#d15f54"/><stop offset="1" stop-color="#b23d38"/></linearGradient><linearGradient id="linear-gradient-3" x1="1258.04" y1="-283.72" x2="1170.09" y2="-312.35" xlink:href="#linear-gradient-2"/><linearGradient id="linear-gradient-4" x1="1001.1" y1="96.7" x2="1001.1" y2="-96.47" xlink:href="#linear-gradient-2"/><linearGradient id="linear-gradient-5" x1="1001.08" y1="-140.94" x2="1001.08" y2="-594.47" xlink:href="#linear-gradient-2"/><linearGradient id="linear-gradient-6" x1="1001.05" y1="397.2" x2="1001.05" y2="-46" gradientTransform="translate(0 1440)" gradientUnits="userSpaceOnUse"><stop offset="0" stop-color="#d31b59"/><stop offset="1" stop-color="#f34761"/></linearGradient><linearGradient id="linear-gradient-7" x1="958.67" y1="-529.63" x2="958.67" y2="103.89" gradientTransform="translate(0 1440)" gradientUnits="userSpaceOnUse"><stop offset="0" stop-color="#2d184f"/><stop offset="1" stop-color="#23103d"/></linearGradient></defs><path class="cls-2" d="M1875.8,1339.3c-9.7-122.9-43.9-242.9-48.5-366.3-4.7-124.8,21-248.2,19.8-372.9-.9-94.4-20.7-190.8-72.9-270.9-23.7-36.4-54.1-68.7-91-92-43.7-27.6-95-40.1-146.5-39.6-119.1,1.1-224.2,62.1-334.5,98.6-53,17.5-107.3,27.8-163.3,26.2-51.7-1.5-102.7-11.9-152.4-26C783.2,267,685,222,581.1,194.4c-93.6-24.9-203.1-39.9-292.3,7.9-40.8,21.9-69.6,58.6-95.6,96-13.5,19.5-26.2,39.8-36.5,61.1-10.8,22.3-17,45.4-21.8,69.7-23.8,119.4-4.8,239.5,21.5,356.7,13.4,60,29.5,118.9,46.4,178,16.4,57.1,32.2,115,37.1,174.4,2.4,29.6,2.3,59.6-2.1,89-4,26.7-11.6,52.6-20.8,77.9-18.1,49.6-42.3,96.8-58.4,147.1-15.3,47.9-22,99.1-8.8,148.3,11.7,43.5,37.5,82.4,70,113.2,34,32.2,75.3,56.3,119.3,71.9,53.1,18.8,110.8,23.8,166.8,21.9,123.3-4,242.1-41.7,364.6-52.7q10.05-.9,20.1-1.5c18.8-.5,37.7.1,56.4,1.1,29.5,1.5,58.9,4.4,88.3,7.9l10.3,2.4a10.2,10.2,0,0,0,6.3-.3c9.3,1.2,18.7,2.5,28,3.9,86.2,12.4,171.5,29.7,257.2,45,44.6,8,89.1,14.1,134.5,13.4,51.3-.8,102.8-8.8,151.5-25.2,48-16.2,93-40.6,132-73.1,35.2-29.3,61.9-67.6,80.6-109.2C1874.5,1532.3,1883.3,1433.5,1875.8,1339.3Z" transform="translate(-124.04 -171.02)"/><path class="cls-2" d="M1785.2,1409.5c0-113.6-22.7-226.2-18.1-339.9,4.7-114.9,37.2-226.4,45.1-341,6-86.8-5.2-176.7-47.4-254-19.2-35.2-44.7-67-76.9-91.1-38.2-28.5-84.4-43.6-131.7-46.9-109.5-7.6-210.4,40.8-314.3,66.4-50,12.3-100.5,17.8-151.8,12.2-47.4-5.2-93.4-18.4-138-34.9-92.8-34.4-179.8-82.8-273.2-115.6-84.2-29.6-183.6-51.3-269-13.8-39.1,17.2-68.2,48.8-94.7,81.3-13.8,16.9-26.9,34.6-37.9,53.5-11.5,19.7-18.9,40.5-25.1,62.4-30.5,107.9-21.7,219.6-6,329.1,8,56,18.5,111.4,29.8,166.8,10.9,53.6,21.3,108,21.5,162.8.1,27.3-2.2,54.9-8.4,81.5-5.6,24.2-14.4,47.5-24.8,70-20.2,44.2-45.8,85.8-64.3,130.9-17.5,42.8-27.4,89.4-18.8,135.5,7.6,40.8,28.5,78.4,56.1,109,28.9,32,65.1,57.2,104.4,74.7,47.4,21.1,100,29.8,151.5,32.2,113.5,5.2,225.3-20.8,338.6-22.1q9.3-.15,18.6,0c17.3.9,34.6,2.8,51.7,5.1,27,3.5,53.8,8.3,80.5,13.7,3.1.9,6.2,1.9,9.3,2.9a9.66,9.66,0,0,0,5.8.2c8.5,1.8,16.9,3.7,25.4,5.6,78.2,17.6,155.3,39.6,232.9,59.9,40.4,10.5,80.8,19.4,122.6,22,47.2,3,95.1-.6,140.9-12.2,45.3-11.5,88.3-30.6,126.5-57.6,34.4-24.4,61.8-57.6,81.9-94.5C1770,1586.6,1785.2,1496.5,1785.2,1409.5Z" transform="translate(-124.04 -171.02)"/><path class="cls-2" d="M1815,1250.5c-13.2-110.5-48.3-217.4-57-328.5-8.7-112.3,9.9-224.5,4.3-336.9-4.2-85.1-25.5-171.3-75.5-241.6-22.7-32-51.3-60-85.4-79.7-40.4-23.3-87.1-32.7-133.5-30.4-107.4,5.3-199.9,64.1-298,101-47.2,17.7-95.7,29-146.2,29.5-46.7.5-93-7-138.3-18-94.3-22.7-184.5-59.7-279.2-80.8-85.3-19-184.5-28.6-263.2,17.7-36,21.2-60.6,55.3-82.7,90-11.5,18.1-22.2,36.8-30.7,56.4-8.9,20.5-13.7,41.6-17.2,63.6-17.2,108.5,4.4,216.1,32.3,320.8,14.4,53.9,31,106.4,48.4,159.1,16.8,50.9,33.2,102.5,39.8,155.9,3.3,26.6,4.2,53.6,1.3,80.3-2.7,24.2-8.5,47.9-16,71-14.5,45.3-34.6,88.8-47.3,134.7-12.1,43.7-16.3,90.1-2.5,134,12.2,38.8,36.8,73,67.2,99.6,31.8,27.8,69.9,48.1,110.2,60.5,48.6,15,100.7,17.4,151.1,13.7,111-8.1,216.8-46.4,326.8-60.7,6-.8,12.1-1.5,18.1-2.1,17-1.1,34-1.2,50.9-1,26.6.3,53.3,1.8,79.8,4,3.1.6,6.3,1.1,9.4,1.8a9.68,9.68,0,0,0,5.7-.5c8.5.8,16.9,1.6,25.3,2.5,78.1,8.1,155.7,20.5,233.5,31.2,40.5,5.6,80.9,9.5,121.8,7.2,46.2-2.6,92.4-11.6,135.6-28.2,42.7-16.4,82.4-40,116.3-70.7,30.7-27.7,53.4-63.2,68.7-101.4C1820.8,1424.5,1825.1,1335.2,1815,1250.5Z" transform="translate(-124.04 -171.02)"/><path class="cls-3" d="M1246,628.8a5.7,5.7,0,0,1-2.2-.4,7.17,7.17,0,0,1-4.2-4.1l-6.8-22.8a5.78,5.78,0,0,1,.6-4.8l9-14.9-19.8-25.1a6,6,0,0,1,.9-8.3l10.7-8.9-11-10.5a5.88,5.88,0,0,1-1.8-4.5,6.16,6.16,0,0,1,2.1-4.4l16.5-14V492.2c0-31.3,26.1-56.7,58.2-56.7s58.2,25.4,58.2,56.7a55,55,0,0,1-.9,9.8c-4.7,36.5-24.7,70-58,96.8-25,20.1-48.3,29.3-49.3,29.7A8.33,8.33,0,0,1,1246,628.8ZM945.3,661.9Zm263.8-37.6a4.56,4.56,0,0,1-2.3-.5c-9.8-4-95.8-41.8-106.5-126.2a55,55,0,0,1-.9-9.8c0-31.3,26.1-56.7,58.2-56.7s58.2,25.4,58.2,56.7v16.6a6.22,6.22,0,0,1-2.1,4.6l-13.6,11.5,11,10.6a6,6,0,0,1-.4,8.9l-11.3,9.4,18.8,23.8a5.88,5.88,0,0,1,.4,6.8l-9.8,16.2,6,20.2a6,6,0,0,1-1.7,6.2A5.61,5.61,0,0,1,1209.1,624.3Z" transform="translate(-124.04 -171.02)"/><path class="cls-4" d="M1356.4,1057.4c-5.8,0-24.5-2.2-24.5-31,0-10.8,3.9-28.4,22.8-51.4a2.43,2.43,0,0,1,3.6,0c18.8,23,22.8,40.6,22.8,51.4C1380.9,1055.2,1362.1,1057.4,1356.4,1057.4Z" transform="translate(-124.04 -171.02)"/><path class="cls-4" d="M1441.2,1025.2c-20.8,27.4-25.4,48-25.4,60.8,0,22.3,9,34.6,25.4,34.6s25.4-12.3,25.4-34.6C1466.5,1073.3,1462,1052.6,1441.2,1025.2Z" transform="translate(-124.04 -171.02)"/><path class="cls-4" d="M1466.6,723.7h-87.8a30.9,30.9,0,1,1,0-61.8c1,0,2,0,3,.1v-.6a40.6,40.6,0,0,1,80.9-4.9,28.15,28.15,0,0,1,4.1-.2,33.75,33.75,0,0,1,30.7,19.9,21.87,21.87,0,0,1,6.7-1.1,21.4,21.4,0,0,1,0,42.8,21.71,21.71,0,0,1-13.2-4.5A34.54,34.54,0,0,1,1466.6,723.7Z" transform="translate(-124.04 -171.02)"/><path class="cls-4" d="M677.8,746.9H564.5a46.91,46.91,0,0,1-31.7-12.4A30.71,30.71,0,1,1,516.1,678a33.59,33.59,0,0,1,7.1.8,46.71,46.71,0,0,1,41.3-25,24.37,24.37,0,0,1,2.7.1A55.34,55.34,0,0,1,677,661.1h.8a42.9,42.9,0,1,1,0,85.8ZM1721,672.2H1607.7a46.91,46.91,0,0,1-31.7-12.4,30.71,30.71,0,1,1-16.7-56.5,33.59,33.59,0,0,1,7.1.8,46.71,46.71,0,0,1,41.3-25,24.37,24.37,0,0,1,2.7.1,55.34,55.34,0,0,1,109.8,7.2h.8a42.9,42.9,0,1,1,0,85.8Z" transform="translate(-124.04 -171.02)"/><path class="cls-4" d="M539.1,782a6.15,6.15,0,0,1-4.3-1.8l-17.9-17.9a6,6,0,0,1,8.5-8.5l17.9,17.9a6.1,6.1,0,0,1,0,8.5A5.92,5.92,0,0,1,539.1,782Z" transform="translate(-124.04 -171.02)"/><path class="cls-4" d="M566.8,782a6.15,6.15,0,0,1-4.3-1.8l-17.9-17.9a6,6,0,0,1,8.5-8.5L571,771.7a6.1,6.1,0,0,1,0,8.5A5.92,5.92,0,0,1,566.8,782Z" transform="translate(-124.04 -171.02)"/><path class="cls-4" d="M594.5,782a6.15,6.15,0,0,1-4.3-1.8l-17.9-17.9a6,6,0,0,1,8.5-8.5l17.9,17.9a6.1,6.1,0,0,1,0,8.5A5.92,5.92,0,0,1,594.5,782Z" transform="translate(-124.04 -171.02)"/><path class="cls-4" d="M622.2,782a6.15,6.15,0,0,1-4.3-1.8L600,762.3a6,6,0,0,1,8.5-8.5l17.9,17.9a6.1,6.1,0,0,1,0,8.5A5.92,5.92,0,0,1,622.2,782Z" transform="translate(-124.04 -171.02)"/><path class="cls-4" d="M649.8,782a6.15,6.15,0,0,1-4.3-1.8l-17.9-17.9a6,6,0,0,1,8.5-8.5L654,771.7a6.1,6.1,0,0,1,0,8.5A5.6,5.6,0,0,1,649.8,782Z" transform="translate(-124.04 -171.02)"/><path class="cls-4" d="M677.5,782a6.15,6.15,0,0,1-4.3-1.8l-17.9-17.9a6,6,0,0,1,8.5-8.5l17.9,17.9a6.1,6.1,0,0,1,0,8.5A5.6,5.6,0,0,1,677.5,782Z" transform="translate(-124.04 -171.02)"/><path class="cls-4" d="M705.2,782a6.15,6.15,0,0,1-4.3-1.8l-17.8-17.9a6,6,0,0,1,8.5-8.5l17.9,17.9a6.1,6.1,0,0,1,0,8.5A6,6,0,0,1,705.2,782Z" transform="translate(-124.04 -171.02)"/><path class="cls-3" d="M613.2,987.5a5.86,5.86,0,0,1-3.1-.9l-147.4-88a6.13,6.13,0,0,1-2.7-6.8,6,6,0,0,1,5.8-4.4h30.9l-37.2-37.2a6.19,6.19,0,0,1-1.3-6.6,5.88,5.88,0,0,1,5.7-3.6l60.7,1.5a5.94,5.94,0,0,1,4.1,1.8l63.4,63.4a6.16,6.16,0,0,1,1.3,6.6,6,6,0,0,1-5.6,3.7H557l60.3,60.3a6,6,0,0,1,.5,7.9A5.51,5.51,0,0,1,613.2,987.5Z" transform="translate(-124.04 -171.02)"/><path class="cls-3" d="M839.2,700.4a32.44,32.44,0,1,1,22.7-9.5A31.06,31.06,0,0,1,839.2,700.4Zm13.9-82.3H825a6.07,6.07,0,0,1-6-5.5l-9.7-116.8q-.9-10.5-.9-21V464.3a30.6,30.6,0,1,1,61.2,0v10.5q0,10.5-.9,21l-9.6,116.8A6.07,6.07,0,0,1,853.1,618.1Zm-236-112.9H589a6.07,6.07,0,0,1-6-5.5l-9.7-116.8q-.9-10.5-.9-21V351.4a30.6,30.6,0,0,1,61.2,0v10.5q0,10.5-.9,21l-9.6,116.8A6.07,6.07,0,0,1,617.1,505.2Z" transform="translate(-124.04 -171.02)"/><path class="cls-3" d="M1485.8,913.4a15.93,15.93,0,0,1-4.3-.6,15.62,15.62,0,1,1,11.7-1.4A15.52,15.52,0,0,1,1485.8,913.4Zm14.4-38.2a1.27,1.27,0,0,1-.6-.1l-13.5-3.9a2.2,2.2,0,0,1-1.6-2.7l11.5-57.4c.7-3.4,1.5-6.8,2.5-10.1l1.5-5a14.22,14.22,0,0,1,7-8.7,14.83,14.83,0,0,1,11.1-1.3h0a14.22,14.22,0,0,1,8.7,7,14.83,14.83,0,0,1,1.3,11.1l-1.5,5c-1,3.3-2.1,6.7-3.3,9.9l-20.8,54.7A2.57,2.57,0,0,1,1500.2,875.2Z" transform="translate(-124.04 -171.02)"/><path class="cls-4" d="M431.9,497.8a5.76,5.76,0,0,1-5.7-5.7v-2.3a47.23,47.23,0,0,1-19.6-7.6,8.05,8.05,0,0,1-3.6-5.7,8.15,8.15,0,0,1,1.9-6.5,8.34,8.34,0,0,1,11.1-1.5,33.38,33.38,0,0,0,10.3,4.9V457.6c-7.5-1.9-12.9-4.4-16.6-7.5-4.2-3.5-6.4-8.8-6.4-15.5a21.62,21.62,0,0,1,7.1-16.6,27.5,27.5,0,0,1,15.9-6.8,5.7,5.7,0,0,1,11.4.1,43.73,43.73,0,0,1,14.8,4.5,8.44,8.44,0,0,1,4.3,5.3,8,8,0,0,1-1.3,6.7,8.28,8.28,0,0,1-10.5,2.5,31.16,31.16,0,0,0-7.4-2.7v15.2c7.8,2,13.5,4.5,17.3,7.8,4.3,3.7,6.5,9,6.5,15.8a21.72,21.72,0,0,1-7.3,16.8,28,28,0,0,1-16.5,6.7V492A5.78,5.78,0,0,1,431.9,497.8Zm43.2-20.5Z" transform="translate(-124.04 -171.02)"/><path class="cls-4" d="M432.2,501.3h0a5.7,5.7,0,0,1-5.7-5.7V408a5.7,5.7,0,0,1,5.7-5.7h0a5.7,5.7,0,0,1,5.7,5.7v87.6A5.7,5.7,0,0,1,432.2,501.3Z" transform="translate(-124.04 -171.02)"/><path class="cls-3" d="M539.6,1070.7a8.28,8.28,0,0,1-1-16.5,31.39,31.39,0,0,0,11-3.2l-10.5-11.9c-6.9,3.5-12.6,5.2-17.5,5.4-5.5.1-10.6-2.4-15.1-7.4a21.47,21.47,0,0,1-5.7-17.2c.6-5.6,3.1-10.8,7.4-15.6a6.12,6.12,0,0,1-1.3-3.9,5.82,5.82,0,0,1,1.9-3.9,5.57,5.57,0,0,1,4.1-1.4,5.48,5.48,0,0,1,3.8,1.8,44,44,0,0,1,14.1-6.4,8.21,8.21,0,0,1,10.2,7.1,8.12,8.12,0,0,1-6.2,8.8,30.64,30.64,0,0,0-7.3,2.8l10,11.4c7.1-3.7,13.1-5.5,18.2-5.6,5.7-.1,10.8,2.5,15.4,7.6a21.48,21.48,0,0,1,5.6,17.4c-.7,5.7-3.4,11.1-7.9,16l1.4,1.6a5.68,5.68,0,0,1-.5,8,5.57,5.57,0,0,1-4.1,1.4,5.82,5.82,0,0,1-3.9-1.9h0l-1.5-1.7a48,48,0,0,1-19.7,7.3Zm18.9-21h0a2.14,2.14,0,0,1-1.7-.8l-12.6-14.2a2.08,2.08,0,0,1-.5-2,2.33,2.33,0,0,1,1.3-1.6c4.4-2,7.7-3,10.2-2.9a10.09,10.09,0,0,1,7.3,3.6,9.86,9.86,0,0,1,2.4,8.4h0a16.86,16.86,0,0,1-4.6,8.7A2.5,2.5,0,0,1,558.5,1049.7Zm-8.7-15.7,8.6,9.8a12.35,12.35,0,0,0,1.9-4.3,5.12,5.12,0,0,0-1.3-4.6,5.48,5.48,0,0,0-3.9-2.1C554.2,1032.7,552.5,1033,549.8,1034Zm12.8,5.9Zm-39.8-8.7h-.4a9.46,9.46,0,0,1-6.9-3.6,9.77,9.77,0,0,1-2.4-8,14.88,14.88,0,0,1,4.3-8.3,1.9,1.9,0,0,1,1.7-.7,2.29,2.29,0,0,1,1.7.8l12.1,13.7a2.14,2.14,0,0,1,.5,2,2.62,2.62,0,0,1-1.3,1.6C528.1,1030.3,525.1,1031.2,522.8,1031.2Zm-3.7-14.8a8.77,8.77,0,0,0-1.5,3.7,5.41,5.41,0,0,0,1.3,4.4,4.81,4.81,0,0,0,3.7,2,12.74,12.74,0,0,0,4.6-1Z" transform="translate(-124.04 -171.02)"/><path class="cls-3" d="M1195.8,821.4c-10.3-8.5,4.1-18,19.1-23.5,14.5-5.4,31.7-9,45.3-14.9s18.8-13.1,23-21c4.4-8.3,15.6-23.3,42.3-19.3,6.4,1,9.2-3.5,2.8-4.5-20.7-3.1-40,3.9-48,11.8-10.8,10.6-8.7,22.1-29.6,30.6-17,6.9-39.1,10.9-53.8,18.8-12.9,6.9-20,15.9-9.9,24.2,2.6,2.7,11.8.4,8.8-2.2Z" transform="translate(-124.04 -171.02)"/><path class="cls-3" d="M1452.6,962a50,50,0,0,1,28.7-7.7c10.5.4,19.6,5.4,29.6,7.9,16.1,4,32.4-3.6,38.7-19.1,1.1-2.8-3.3-4-4.5-1.2a27.45,27.45,0,0,1-19.2,16.3c-9.6,2.3-18.7-2-27.5-5-16.2-5.6-33.5-4.2-48.2,4.9-2.4,1.5-.1,5.5,2.4,3.9Z" transform="translate(-124.04 -171.02)"/><path class="cls-3" d="M735.9,632.6c4.6-13.3-.3-27.5-11.7-35.7-6.8-4.9-15-7.7-21.5-13.1-6.2-5.2-11.1-15-4.5-21.9,2.1-2.1-1.2-5.4-3.3-3.3-4.5,4.7-5.5,11.4-3.4,17.5,2.3,7,8.3,11.8,14.4,15.5,7.5,4.5,16.3,7.7,21.8,14.8a26.18,26.18,0,0,1,3.7,24.9c-.9,2.8,3.5,4.1,4.5,1.3Z" transform="translate(-124.04 -171.02)"/><path class="cls-4" d="M748.8,852.8a21.3,21.3,0,1,1,21.3-21.3A21.32,21.32,0,0,1,748.8,852.8Z" transform="translate(-124.04 -171.02)"/><path class="cls-4" d="M1000.4,595.8a21.3,21.3,0,1,1,21.3-21.3A21.32,21.32,0,0,1,1000.4,595.8Zm-2.6-113.4a22,22,0,0,0-27.1,27.1,21.34,21.34,0,0,0,15.1,15.1,22,22,0,0,0,27.1-27.1A21,21,0,0,0,997.8,482.4Z" transform="translate(-124.04 -171.02)"/><path class="cls-3" d="M1404.2,581.3a21.3,21.3,0,1,1,21.3-21.3A21.32,21.32,0,0,1,1404.2,581.3Z" transform="translate(-124.04 -171.02)"/><path class="cls-4" d="M1382.1,1207.2a21.3,21.3,0,1,1,21.3-21.3A21.32,21.32,0,0,1,1382.1,1207.2Z" transform="translate(-124.04 -171.02)"/><g class="cls-5"><path class="cls-6" d="M1395.8,1437.8c-6.1-21.3-17.4-40.1-33.9-54.9-17.4-15.6-38.2-26.8-55.9-42.1-18.7-16.1-30.6-36.7-37-60.4s-8-48.2-10.3-72.5c-8.6-92.9-36.6-190.1-105.8-256.5-60.7-58.3-158.2-87.1-237.2-50.1-42.2,19.8-72.4,56.5-101.3,91.7-14.6,17.8-29.2,35.7-45.6,51.9-15.7,15.6-32.9,29.5-49.9,43.6-32.3,26.7-66.4,54.8-85,93.4-19.9,41.2-14.1,87-15.7,131.2-.8,22.1-3.7,44.8-14.5,64.4-11.3,20.4-31.1,32.2-46.2,49.2a72.63,72.63,0,0,0-16,29.8c-3.3,12.5-4,25.5-5.8,38.2-2.8,20.2-10.1,45.5-32.2,51.8-11.8,3.4-38.5,3.8-40.7-13a2,2,0,0,0-2.4-1.8,1.43,1.43,0,0,0-1.3,1.8c1,19.1,8,37.5,22.2,50.6,15.5,14.3,36.4,20.2,57.1,21.2,28.1,1.4,55.8-5.4,83.7-6.5,23.3-1,46.6,1.3,69.5,5.6,92.3,17.2,177.8,66,272.6,70.5a236.5,236.5,0,0,0,69.1-6.5c25.4-6.4,49.6-17.1,73.1-28.5,49.1-23.8,99.7-53,156-52.3,14.4.2,28.2,3,42.1,6.6,12.6,3.3,25.4,6.9,38.4,7.3,20.4.7,41.9-6.7,50.7-26.5,4.6-10.3,5.6-21.7,6.5-32.8,1-11.8,1.8-23.7,2.1-35.6C1403.2,1483.7,1402.2,1460.2,1395.8,1437.8Z" transform="translate(-124.04 -171.02)"/><path class="cls-7" d="M758.7,1140.8a65.42,65.42,0,0,0,74.4,55.1l-19.2-129.5A65.6,65.6,0,0,0,758.7,1140.8Z" transform="translate(-124.04 -171.02)"/><path class="cls-8" d="M769.6,1139.1a53.07,53.07,0,0,0,60.3,44.7l-15.6-105A53.07,53.07,0,0,0,769.6,1139.1Z" transform="translate(-124.04 -171.02)"/><path class="cls-7" d="M1188.3,1066.5,1169.1,1196a65.46,65.46,0,1,0,19.2-129.5Z" transform="translate(-124.04 -171.02)"/><path class="cls-9" d="M1187.9,1078.8l-15.6,105a53.08,53.08,0,1,0,15.6-105Z" transform="translate(-124.04 -171.02)"/><path class="cls-10" d="M1222.2,1476.3c-29,1.5-64.5-4.8-98.5-13.7a42.6,42.6,0,0,1-31.8-41.3v-218H910.3v218a42.71,42.71,0,0,1-31.8,41.3c-34,8.9-69.5,15.2-98.5,13.7-83.6-4.3-194.5-34.6-201.7,167.1l-25.9,193.8h897.4l-25.9-193.8C1416.7,1441.7,1305.8,1472,1222.2,1476.3Z" transform="translate(-124.04 -171.02)"/><path class="cls-11" d="M910.3,1365.2c29.3,26.7,62.9,44.6,97.3,44.6,29.4,0,58.3-13.1,84.3-33.6V1213.1H910.3Z" transform="translate(-124.04 -171.02)"/><path class="cls-12" d="M1201.9,937.3c-25-141.9-200.8-138.3-200.8-138.3s-175.7-3.6-200.8,138.3c-21.3,120.4,17.3,110.3,8.7,190.3-8.1,75,88.4,237.9,192.1,237.9s200.2-162.9,192.1-237.9C1184.6,1047.6,1223.1,1057.7,1201.9,937.3Z" transform="translate(-124.04 -171.02)"/><path class="cls-13" d="M1423.9,1643.4c-7.2-201.7-118.1-171.4-201.7-167.1-29,1.5-64.5-4.8-98.5-13.7a38.94,38.94,0,0,1-10.1-4.1c2.3-12.8,4-25.9,5.7-38.8,1.3-9.7,0-20.8-10.9-24-9.6-2.9-19.4,1.9-26.4,8.3-8.5,7.8-14.7,19-25.9,23.1a16.19,16.19,0,0,1-15.5-1.8c-4.1-2.8-8-6.3-13.3-6.2-8.2.2-12.2,8.1-16,14.1-1.8,2.8-4,6.4-7.5,7.2-6.1,1.4-11.2-5.3-14.8-9.2s-7.5-7.6-12.6-8.9-9.7.4-14,2.7c-4.5,2.4-9.2,5.9-14.6,4.5s-9.4-6.5-12.3-10.9c-5.4-8.2-9.5-18.4-19-22.9-9.1-4.2-18.5-.2-24.1,7.5-6.9,9.5-6.4,21-4.1,32,1.5,6.9,3.6,14,3.9,21a41.54,41.54,0,0,1-13.8,6.4c-34,8.9-69.5,15.2-98.5,13.7-83.6-4.3-194.5-34.6-201.7,167.1l-25.9,193.8h897.5Z" transform="translate(-124.04 -171.02)"/><circle class="cls-14" cx="1129.16" cy="1547.68" r="13.7"/><path class="cls-14" d="M1212.3,1476.5a13.7,13.7,0,0,0,27.4-.2,4.87,4.87,0,0,0-.1-1.2c-5.9.5-11.6.9-17.3,1.2C1219,1476.5,1215.7,1476.5,1212.3,1476.5Z" transform="translate(-124.04 -171.02)"/><circle class="cls-14" cx="816.56" cy="1353.38" r="13.7"/><circle class="cls-14" cx="1007.26" cy="1629.98" r="13.7"/><circle class="cls-14" cx="1027.56" cy="1444.58" r="13.7"/><path class="cls-14" d="M1431.8,1702.6l-3.5-26.4a13.63,13.63,0,0,0,3.5,26.4Z" transform="translate(-124.04 -171.02)"/><circle class="cls-14" cx="1179.66" cy="1378.88" r="13.7"/><circle class="cls-14" cx="959.86" cy="1305.28" r="13.7"/><path class="cls-14" d="M1396.4,1823.5a13.72,13.72,0,0,0-13.7,13.7H1410A13.64,13.64,0,0,0,1396.4,1823.5Z" transform="translate(-124.04 -171.02)"/><path class="cls-14" d="M579.3,1823.5a13.72,13.72,0,0,0-13.7,13.7h27.3A13.51,13.51,0,0,0,579.3,1823.5Z" transform="translate(-124.04 -171.02)"/><path class="cls-14" d="M802.1,1490a13.72,13.72,0,0,0,13.7-13.7,7.57,7.57,0,0,0-.1-1.5,215.1,215.1,0,0,1-27.2,1.6A13.55,13.55,0,0,0,802.1,1490Z" transform="translate(-124.04 -171.02)"/><path class="cls-14" d="M923.9,1823.5a13.72,13.72,0,0,0-13.7,13.7h27.3A13.51,13.51,0,0,0,923.9,1823.5Z" transform="translate(-124.04 -171.02)"/><circle class="cls-14" cx="828.66" cy="1504.28" r="13.7"/><circle class="cls-14" cx="599.56" cy="1582.68" r="13.7"/><path class="cls-14" d="M572,1718.7a13.7,13.7,0,0,0,0-27.4h-.2l-3.6,26.8A12.56,12.56,0,0,0,572,1718.7Z" transform="translate(-124.04 -171.02)"/><circle class="cls-14" cx="613.26" cy="1406.18" r="13.7"/><path class="cls-14" d="M616.9,1524.4a13.72,13.72,0,0,0,13.7-13.7,13.91,13.91,0,0,0-5.9-11.3,101.53,101.53,0,0,0-17.3,21A13.13,13.13,0,0,0,616.9,1524.4Z" transform="translate(-124.04 -171.02)"/><path class="cls-15" d="M1450.6,1639.7a29.22,29.22,0,0,1-3.7-2.4,6.29,6.29,0,0,0,1.9-4.2c0-3.3-2.6-5.3-5.6-5.6a16.56,16.56,0,0,1-11.1-6.3,74.42,74.42,0,0,1-4.4-7.8,30.94,30.94,0,0,1-2.1-10.9c-.1-16,10.1-30.5,16.8-44.4a224,224,0,0,0,22.4-98.9c-.3-31.6-7.4-64-32.7-85.1-21.5-17.9-48.8-25.8-74.9-34.7-1.2-.8-2.5-1.5-3.8-2.3-14.6-8.6-30.9-15.2-43.7-26.6-14.3-12.7-19.5-29.4-20.7-47.1a354,354,0,0,0,10.7-218.9c-19.4-70.5-62.2-133.5-119.6-178.6-9.2-7.2-18.7-14-28.5-20.2-34.7-26.2-75.3-44.3-118.7-51.1q-10.05-1.5-20.1-2.4a.76.76,0,0,1-.4-.1c-72-7.4-141.3,28.2-192.6,76.2-50,46.8-85.7,105.7-121.2,163.7-9.3,9.1-18.8,18.1-28.4,26.9-32.4,29.6-68.5,56.2-95.1,91.5-12.4,16.5-22.4,35.1-27.9,55-5.9,21.1-5.6,42.6-.3,63.8,5.9,23.3,16.5,45.3,20.9,69,2.4,12.9,3,27.1-.4,40.1-.6.6-1.3,1.2-1.9,1.7-10.4,9.1-22.7,15.8-32.5,25.6-10.8,10.8-16.5,24.7-14.8,40,1.8,16.4,9.3,31.2,12.4,47.3,2.9,14.7-.9,28.9-12.6,38.7a35.38,35.38,0,0,1-39.1,4,38,38,0,0,1-11.5-9.1c0-.1-.1-.2-.1-.3a6.14,6.14,0,0,0-2.6-3.4c-.3-.5-.7-1-1-1.5-3.9-6.6-14.2-.6-10.3,6a49.3,49.3,0,0,0,3.6,5.3,37.93,37.93,0,0,0,12.9,16.3c15.5,23.1,43.2,35.9,70.7,37.2,32.9,1.5,64-14.5,87.6-36.4,24.9-23,43-53.3,53.4-85.5,11-33.9,12.7-69.8,6.2-104.7-5.4-29.1-15.4-57.8-19.7-87.1,1.1-17.5,2-35,4.5-52.4,2.1-14.7,5.5-29.6,11.5-43.3a124.61,124.61,0,0,1,25.9-37.5l1.1-1.1c27.6-16.6,59.6-24.5,90.2-33.7,63-18.9,125.6-48.5,167.9-100.6,18.7-23.1,33.2-49.9,40.3-78.7,5.9,20.4,16.7,39.4,30,56.2,21.8,27.7,50.3,48.6,78.9,68.7,29,20.4,58.9,40.4,82.5,67.2,2.3,2.6,4.5,5.2,6.6,7.9,8.8,21.3,15.2,43.4,15.4,66.5.4,39.6-23,73.1-29,111.4-2.8,17.6-2.4,35.9,5.1,52.4,7,15.5,20.3,26.7,35.5,33.6,15.9,7.2,32.9,10.2,50,13.2,18.1,3.1,36.8,6.4,52.7,16.2,12.3,7.6,21.3,18.6,27.4,31.2a56.25,56.25,0,0,1,1.4,6.9c2.7,16,0,32-4.1,47.5-8.5,32.2-22.7,67.4-4.6,99,17.1,29.9,51.8,42.1,84.1,46.8,1.9.3,3.8.5,5.7.8C1459.2,1647.2,1450.6,1639.7,1450.6,1639.7ZM565.2,1291.1c-7.2-20.9-13.2-42-10.8-64.3,2.1-20.3,10.3-39.7,21-56.8,23.5-37.7,60.1-64.7,92.8-93.9,2.5-2.2,5-4.4,7.4-6.7-15.9,25.1-32.4,49.8-51,72.9-21.7,27-47.3,53.7-50.7,89.9-3.5,37.1,15.4,72.3,11.4,109.4a65.35,65.35,0,0,1-4.4,17.4c0-2.3-.1-4.6-.2-6.9C579.3,1330.9,572,1311.1,565.2,1291.1Zm107.1,50.5c4.1,17.1,7.5,34.4,8.1,52.1a200.72,200.72,0,0,1-4.5,48.9c-7,31.7-21.5,62-42.9,86.5-19.9,22.8-46.9,41.9-77.6,45.7-21.7,2.7-45-3.1-62.1-16.6a53.11,53.11,0,0,0,26.5-3.7c30.2-12.9,43.3-45.6,54.2-74.1,6-15.8,12.6-31,22.2-44.9,8.9-12.8,19.3-24.5,29.1-36.7,10-12.4,19.5-25.3,26.1-39.9a171.84,171.84,0,0,0,12.7-43.8c.2-1.5.4-3,.7-4.4C667,1321,669.8,1331.3,672.3,1341.6Zm219.9-287c-29.1,17.2-60.5,29.4-92.8,39.1-15.7,4.7-31.8,9.1-47.5,14.4a402.58,402.58,0,0,1,38.4-19c31.5-13.9,63.9-26,93.2-44.3A345.72,345.72,0,0,0,996,931.3C980,984.1,939.5,1026.6,892.2,1054.6Zm408.6,94.4a342.64,342.64,0,0,1-10.3,73.3c.4-4.2.7-8.3,1-12.3a536.22,536.22,0,0,0-5-117.4c-9.2-59.1-29.4-117.8-62.3-168,4,4.8,7.8,9.6,11.5,14.6C1280.5,999.6,1303.1,1073.8,1300.8,1149ZM1258,1386.1c-15.9-4.2-32.1-11-42.6-24.2s-13.1-30.8-11.8-47.3c1.5-18.9,8.3-36.8,14.9-54.5,7-18.8,13.7-37.7,15.1-57.8a140.5,140.5,0,0,0-2.1-35.5,112.38,112.38,0,0,1,8,37.5c1.1,36.4-21.7,68.8-19.6,105.3.9,15.8,6.7,30.8,18.3,41.9,10.3,9.9,23.6,15.8,36.8,20.7s26.9,8.8,39.6,15.1a90.57,90.57,0,0,1,29.6,23.2C1318.9,1394.3,1286.9,1393.8,1258,1386.1Zm125.8-25.5c11.7,4.4,23.1,9.5,33.5,16.5,12.3,8.3,22.2,19.5,27.9,33.2,6.4,15.2,8.1,32,8.3,48.3a211.82,211.82,0,0,1-23.8,99.7c-3.9,7.6-8.2,15.5-11.2,23.7-2.1-19.1,1.3-38.6,4.6-57.3,3.5-20.3,7.4-40.8,6.5-61.5-1.5-34.4-15.2-67.6-37.5-93.7C1389.4,1366.5,1386.7,1363.5,1383.8,1360.6Z" transform="translate(-124.04 -171.02)"/></g></svg>