<svg id="Layer" xmlns="http://www.w3.org/2000/svg" viewBox="0 0 476.98 238.02"><defs><style>.cls-1{fill:#cfe09b;}.cls-2{fill:#fff;}.cls-3{fill:#563a3a;}.cls-4{fill:#6b4d4d;}.cls-5{fill:#7c6060;}.cls-6{fill:#493030;}.cls-7{fill:#f7bbaa;}.cls-8{fill:#ffc5b3;}.cls-9{fill:#ffa08d;}.cls-10{fill:#352019;}.cls-11{fill:#ff625b;}.cls-12{fill:#e04444;}.cls-13{fill:#3f2720;}.cls-14{fill:#7e97c1;}.cls-15{fill:#f7ebd1;}.cls-16{fill:#e8d9bc;}.cls-17{fill:#ef5050;}.cls-18{fill:#50969b;}.cls-19{fill:#6eaeb7;}.cls-20{fill:#302124;}.cls-21{fill:#438789;}.cls-22{fill:#443236;}.cls-23{fill:#5b494d;}</style></defs><ellipse class="cls-1" cx="238.49" cy="156" rx="238.49" ry="82.02"/><path class="cls-2" d="M127.46,197.44c0,.83,1.26,1.5,2.82,1.5s2.82-.67,2.82-1.5V175.57h-5.64Z" transform="translate(-10.64 -20.39)"/><path class="cls-2" d="M241.38,131.68c0,.83,1.26,1.5,2.82,1.5s2.82-.67,2.82-1.5V109.81h-5.64Z" transform="translate(-10.64 -20.39)"/><path class="cls-2" d="M269.17,115.39c0,.83,1.26,1.5,2.82,1.5s2.82-.67,2.82-1.5V70.06h-5.64Z" transform="translate(-10.64 -20.39)"/><polygon class="cls-2" points="118.62 162.44 118.97 168.02 262 85.44 261.35 80.04 118.62 162.44"/><path class="cls-2" d="M79.91,170.17c0,.83,1.26,1.5,2.82,1.5s2.82-.67,2.82-1.5V148.3H79.91Z" transform="translate(-10.64 -20.39)"/><path class="cls-2" d="M193.84,104.42c0,.83,1.26,1.5,2.82,1.5s2.82-.67,2.82-1.5V82.55h-5.64Z" transform="translate(-10.64 -20.39)"/><path class="cls-2" d="M221.62,88.13c0,.83,1.26,1.5,2.82,1.5s2.82-.67,2.82-1.5V42.8h-5.64Z" transform="translate(-10.64 -20.39)"/><polygon class="cls-2" points="71.07 135.18 71.42 140.76 214.46 58.18 213.8 52.78 71.07 135.18"/><polygon class="cls-3" points="65.97 133.21 115.64 161.88 115.64 155.17 65.97 126.5 65.97 133.21"/><path class="cls-3" d="M199.4,73.46l-.27.37.26.16V74l-1.48,2.09,1.64,5.59,3.81-5.37,46.78,27.74,19-27.41L210.53,42.83C203.94,54.74,199.39,68.06,199.4,73.46Z" transform="translate(-10.64 -20.39)"/><path class="cls-4" d="M221.69,27.44,280,61.09l8-11.55L237.41,20.46S230.36,19.21,221.69,27.44Z" transform="translate(-10.64 -20.39)"/><path class="cls-4" d="M215.36,35c-1.7,2.47-3.31,5.12-4.82,7.85l58.63,33.85,5.38-7.75-59.07-34.1Z" transform="translate(-10.64 -20.39)"/><path class="cls-5" d="M215.48,34.82l59.07,34.1L280,61.09,221.69,27.44A46.13,46.13,0,0,0,215.48,34.82Z" transform="translate(-10.64 -20.39)"/><path class="cls-6" d="M266,64.05c-9.36,13.62-16.38,33-16,39.06l-1.48,2.09,1.64,5.59,39.5-55.66L288,49.54S277.24,47.62,266,64.05Z" transform="translate(-10.64 -20.39)"/><path class="cls-4" d="M199.09,73.81l0,0h0a5.79,5.79,0,0,0-4.41-.31L245,102.55l-11.6,6.7L182.78,80c-6.34,5.3-7.47,10.22-7.47,10.22L225,118.71l23.53-16.58-49.37-28.3Z" transform="translate(-10.64 -20.39)"/><path class="cls-5" d="M188.25,76.22a38.12,38.12,0,0,0-5.47,3.8l50.62,29.23,11.6-6.7L194.64,73.47A24.41,24.41,0,0,0,188.25,76.22Z" transform="translate(-10.64 -20.39)"/><path class="cls-3" d="M174.25,87.65l0,0h0a5.79,5.79,0,0,0-4.41-.31l50.36,29.08-11.6,6.7L157.94,93.87c-6.34,5.3-7.47,10.22-7.47,10.22l49.67,28.47L223.67,116,174.3,87.68Z" transform="translate(-10.64 -20.39)"/><path class="cls-5" d="M163.4,90.07a38.12,38.12,0,0,0-5.47,3.8l50.62,29.23,11.6-6.7L169.79,87.32A24.21,24.21,0,0,0,163.4,90.07Z" transform="translate(-10.64 -20.39)"/><path class="cls-4" d="M149.41,102l0,0h0a5.79,5.79,0,0,0-4.41-.31l50.36,29.08-11.6,6.7L133.1,108.2c-6.34,5.3-7.47,10.22-7.47,10.22l49.67,28.47,23.53-16.58L149.46,102Z" transform="translate(-10.64 -20.39)"/><path class="cls-5" d="M138.57,104.4a38.12,38.12,0,0,0-5.47,3.8l50.62,29.23,11.6-6.7L145,101.65A24.07,24.07,0,0,0,138.57,104.4Z" transform="translate(-10.64 -20.39)"/><path class="cls-3" d="M125.23,116.33l0,0h0a5.79,5.79,0,0,0-4.41-.31l50.36,29.08-11.6,6.7-50.62-29.23c-6.34,5.3-7.47,10.22-7.47,10.22l49.67,28.47,23.53-16.58-49.37-28.3Z" transform="translate(-10.64 -20.39)"/><path class="cls-5" d="M114.39,118.74a38.12,38.12,0,0,0-5.47,3.8l50.62,29.23,11.6-6.7L120.78,116A24.07,24.07,0,0,0,114.39,118.74Z" transform="translate(-10.64 -20.39)"/><path class="cls-4" d="M100.4,130.66l0,0h0a5.79,5.79,0,0,0-4.41-.31l50.36,29.08-11.6,6.7L84.09,136.88c-6.34,5.3-7.47,10.22-7.47,10.22l49.67,28.47L149.82,159l-49.37-28.3Z" transform="translate(-10.64 -20.39)"/><path class="cls-5" d="M89.56,133.08a38.12,38.12,0,0,0-5.47,3.8l50.62,29.23,11.6-6.7L96,130.33A23.61,23.61,0,0,0,89.56,133.08Z" transform="translate(-10.64 -20.39)"/><path class="cls-6" d="M237.92,104.6c-8.66,5-11.65,10.62-12.57,12.93-.72-1.36-3.28-3.78-11.95,1.23-9.32,5.38-12.08,11.48-12.75,13.4-.49-1.23-2.73-4.47-12.09.93C180,138,177,143.61,176,146c-.76-1.37-3.37-3.66-11.93,1.28-9.32,5.38-12.08,11.48-12.75,13.4-.49-1.23-2.73-4.47-12.09.93-11.22,6.48-12.94,14-12.94,14v6.71L250.16,110.8v-6.71S249.14,98.13,237.92,104.6Z" transform="translate(-10.64 -20.39)"/><path class="cls-7" d="M180.45,76.88c-1.76.1-22.71,1.5-24,1.51-1.65-1-7.22-6.77-7.22-6.77l-6.84,6.15s4.23,3.59,7.26,6.86c1.2,1.3,2.9,3,4.48,3.08s3.81-.49,6-.88c4.6-.83,24.52-4.76,24.18-5.45S182.22,76.78,180.45,76.88Z" transform="translate(-10.64 -20.39)"/><path class="cls-8" d="M184.33,73.32c-3.53-5.7-6.38-4.13-6.38-4.13-7.53,2.66,3.15,19.69,3.15,19.69A28.56,28.56,0,0,1,185.63,96c.26,1.16.51,2.28.76,3.36a16.15,16.15,0,0,1,5.48-2.08,46.11,46.11,0,0,1-1-4.81A50.65,50.65,0,0,0,184.33,73.32Z" transform="translate(-10.64 -20.39)"/><path class="cls-9" d="M206.32,149.46c-.18-.55.75-7.92.83-8.61,1-8.36.94-13.52,1.31-18.48-2-3.27-5.68-3.22-9.61-2.86.13,1.75.23,3.48.26,5.06.1,5,.95,17.11.72,24.66-.06,1.85-1,3.31-1.25,4.39-.4,1.84,2.41,2.76,2.41,2.76,1,2,2.44,3.82,4.14,4.18,4.06.88,4.85-3,3.32-6.31C208.46,154.25,207.64,153.46,206.32,149.46Z" transform="translate(-10.64 -20.39)"/><path class="cls-10" d="M207.52,152.6a2,2,0,0,1-1,3.23c-2.19.89-4.12-.32-5.29-1.55a12.93,12.93,0,0,1-1.8-3s-.77,1.66-1.28,3,1.14,3.78,2.53,5.1a68.11,68.11,0,0,0,5.76,5c2.62,2.07,6.92,4.07,8.95,2.52s.33-4.92-1.38-7.3A80.13,80.13,0,0,0,207.52,152.6Z" transform="translate(-10.64 -20.39)"/><path class="cls-11" d="M207.16,151.76s-2.11-.33-5.93,2.52a49.2,49.2,0,0,0,6,5.43c3.41,2.62,5.33,2.63,6.83,1.89C216.51,160.37,207.16,151.76,207.16,151.76Z" transform="translate(-10.64 -20.39)"/><path class="cls-10" d="M203.87,156c-2.14,1.66-2.32,2.2-2.32,2.2l.85.93a13.48,13.48,0,0,1,4.11-3.28,12.18,12.18,0,0,1,3.57-1.17l-.9-.93A14.17,14.17,0,0,0,203.87,156Z" transform="translate(-10.64 -20.39)"/><path class="cls-9" d="M190.88,158.44c-.18-.55.75-7.92.83-8.61,1-8.36.94-13.52,1.31-18.48-2-3.28-5.68-3.22-9.61-2.86.13,1.75.23,3.48.26,5.06.1,4.95,1,17.12.72,24.66,0,1.85-1,3.31-1.25,4.39-.4,1.84,2.41,2.76,2.41,2.76,1,2,2.44,3.82,4.14,4.18,4.06.88,4.85-3,3.32-6.31C193,163.23,192.2,162.43,190.88,158.44Z" transform="translate(-10.64 -20.39)"/><path class="cls-10" d="M192.07,161.57a2,2,0,0,1-1,3.23c-2.19.89-4.12-.32-5.29-1.55a12.93,12.93,0,0,1-1.8-3s-.77,1.66-1.28,3,1.14,3.78,2.53,5.1a68.11,68.11,0,0,0,5.76,5c2.62,2.07,6.92,4.07,8.95,2.52s.33-4.92-1.38-7.3A80.06,80.06,0,0,0,192.07,161.57Z" transform="translate(-10.64 -20.39)"/><path class="cls-11" d="M191.71,160.73s-2.11-.33-5.93,2.52a49.2,49.2,0,0,0,5.95,5.43c3.41,2.62,5.33,2.63,6.83,1.89C201.06,169.34,191.71,160.73,191.71,160.73Z" transform="translate(-10.64 -20.39)"/><path class="cls-10" d="M188.43,165c-2.14,1.66-2.32,2.2-2.32,2.2l.85.93a13.48,13.48,0,0,1,4.11-3.28,12.18,12.18,0,0,1,3.57-1.17l-.9-.93A14.42,14.42,0,0,0,188.43,165Z" transform="translate(-10.64 -20.39)"/><path class="cls-11" d="M197,110.63c-5.93-2.92-9.16-4-10.84-5.6a22.18,22.18,0,0,1,.13-10.15,13.64,13.64,0,0,0-.62-9.91c-1.83-4.5-6.58-13.77-6.58-13.77l-11.86,2.54-6.65,5.78s2.84,17.68,3.5,21.81c.85,5.3-1.48,8.57-1.94,14.45-.54,6.93,4.5,11.2,11.69,15a12.72,12.72,0,0,1,4.54,4c1.21,1.45.08,3.66,1.16,5.32,2.85.9,8.9,3.71,14.82,1.12,9.48-4.16,14.92-7.21,16.27-11.39.64-2-.94-11.47-2.44-12.7C205.91,115.26,202,113.13,197,110.63Z" transform="translate(-10.64 -20.39)"/><path class="cls-9" d="M168.87,65.73l-2.11,10s.48,1.47,4.08,4.74,6.82,1.06,6.82-.83c0-3-.39-7.46-.39-7.46Z" transform="translate(-10.64 -20.39)"/><path class="cls-10" d="M177,67.59s-3.84,3-1.28,4.68c3.64,2.32,6.18,9.33,6.18,9.33a23.72,23.72,0,0,0,2.51-8.66c.95-11.78-.74-16.9-.74-16.9Z" transform="translate(-10.64 -20.39)"/><path class="cls-8" d="M167.89,53c-2.39,2.09-4.15,8.14-2.31,13,1.63,4.3,6.61,7.49,8.92,8.33,4.14,1.49,11-9.43,7.46-17.56C178.61,49,171,50.31,167.89,53Z" transform="translate(-10.64 -20.39)"/><path class="cls-10" d="M172.1,49.85s-4.52-.79-6.8,2.5c-2.5,3.61-2.69,11.25-1.79,20.94a15.29,15.29,0,0,0,9.56,13s-1.84-2-2-8.92c-.09-4,0-7.43,2.48-11.29s2.18-9.23,2.18-9.23,5,2.09,7.18,6.78a10.85,10.85,0,0,0-.14-9.84C178,45.48,172.1,49.85,172.1,49.85Z" transform="translate(-10.64 -20.39)"/><path class="cls-8" d="M196.21,112.55s-3.08-10.58-4.67-16.73a14.68,14.68,0,0,0-3.11,1,10.7,10.7,0,0,0-2.31,1.29c1.57,6.45,5.25,14.36,6.48,17-.49,1.7-2.83,5.11-2.12,6,1,1.13,1.86.69,1.86.69s1.55,1.91,2.65,1.78,3.41-1.37,3.14-3.41S196.21,112.55,196.21,112.55Z" transform="translate(-10.64 -20.39)"/><path class="cls-12" d="M191.72,138.9A22.85,22.85,0,0,1,179,137.67l-.63,5.62s2.53,1.94,4.09,2.18c2.2.34,3.52-1.37,4.8-1.37s2.93,2.28,6.52,1.37c1.49-.38,2.18-2.69,3.11-3.23s4.36,0,6-.82c2.6-1.37,2.6-3,3-4.35s3.15-.4,4.27-1.92.64-6.83.64-6.83S198.37,137.43,191.72,138.9Z" transform="translate(-10.64 -20.39)"/><path class="cls-12" d="M174.44,106.72c-4.88.55-10.27-2-10.27-2l-.27,2s4.19,3.36,11.35,2.18S186.11,105,186.11,105l-.31-2.29S179.4,106.16,174.44,106.72Z" transform="translate(-10.64 -20.39)"/><path class="cls-8" d="M190.29,118.86a43,43,0,0,0-6.61-2.84s-8.93-11.46-10.46-12.92-3.24-7-3.83-9.47c-1.63-6.92-5.21-13.92-8.14-14.74a6.28,6.28,0,0,0-2.68,3.47c-.49,2.15,1.22,11.35,4.56,17.7a40.57,40.57,0,0,0,5.14,8.6,47.52,47.52,0,0,0,12.85,10.19c3.74,2,5.78,4.33,7.81,6s6.1,2,6-.16S192.14,120.07,190.29,118.86Z" transform="translate(-10.64 -20.39)"/><path class="cls-8" d="M191.15,189.48a48.44,48.44,0,0,1-6.87-7.06,10.22,10.22,0,0,1-1.12-4.13s-7.95-4.7-8.6,0-.44,5.63.82,7.24c1.14,1.45,4,4.84,5,6.46a24.34,24.34,0,0,0,4.5,4.66c.78.54,5.65,3.29,7.1,0S193.31,191.1,191.15,189.48Z" transform="translate(-10.64 -20.39)"/><path class="cls-8" d="M165.76,190c0-1.31,0-3.09,0-4.39a11,11,0,0,1-7.88-.31,41.21,41.21,0,0,1-.25,4.38,27.81,27.81,0,0,0,.63,9.55c.67,2.74,1,5.66,4.11,7.07s5.81.94,7.15-.09.82-2.87-.34-5.77S165.78,191.37,165.76,190Z" transform="translate(-10.64 -20.39)"/><path class="cls-10" d="M182.35,131.31c-2-3.86-12.67-10.27-16.8-13.13-3.17-2.2-21.42-11.6-21.42-11.6S136.64,105,135,105c0,0-3.75,12,.81,20.25,2.23,4,9.87,6.51,18.2,10.19,1.51.67,11.89,4.06,15.41,6.87,1,15.1,3.3,39.21,2.08,38.28,0,0,7.69,4.58,13.92-1.48.5-4.81-.06-16.94,0-28C185.4,142.59,185,136.39,182.35,131.31Z" transform="translate(-10.64 -20.39)"/><path class="cls-13" d="M150.08,124.38c-3.17-2.2-18.13-8.2-18.13-8.2s2.68,5.56-13.22-3.59c0,0-3.75,12,.81,20.25,2.23,4,8.63,7.91,17.09,11.29,6.25,2.5,11.59,3.43,16.53,5.77-3.77,16.66,2.09,40,.87,39.08,0,0,7.25,5.27,13.47-.79.5-4.81.49-15.68.51-26.73,0-8.5,1.54-16.23-1.07-21.31C165,136.27,154.21,127.24,150.08,124.38Z" transform="translate(-10.64 -20.39)"/><path class="cls-14" d="M143.71,64.2c-3.37-1.77-7.79,3.55-7.79,3.55l12.27,16.94a51.75,51.75,0,0,0,5.3-4.68,22.09,22.09,0,0,0,2.78-4.41S147.08,66,143.71,64.2Z" transform="translate(-10.64 -20.39)"/><path class="cls-14" d="M147,99.07a14,14,0,0,1,.84-5.71c1.06-3.44,2.69-7.76,1.31-11.24-2.27-5.74-10.27-18.37-10.27-18.37s-10.34,2.1-14.46,7.28c0,0-4.76,4.12-6.22,7.24-2.72,5.82,1.8,16.94.87,28.61-.24,3-2.88,11.9-1.82,14.87,5.68,2.86,11.84,4.32,18.32,2.9,7-1.52,14.63-6.91,17.91-13.48a4.77,4.77,0,0,1-.44-.39C150.54,108.25,147.28,105,147,99.07Z" transform="translate(-10.64 -20.39)"/><path class="cls-15" d="M140.66,72.9a11.81,11.81,0,0,0-3.21,1.21c-1.45.86-7.71,3.45-7.71,3.45s3.11,2.33,5.83,4.57a86.29,86.29,0,0,1,7.26,7.49,35.8,35.8,0,0,0,.43-8.09A28.15,28.15,0,0,0,140.66,72.9Z" transform="translate(-10.64 -20.39)"/><path class="cls-9" d="M128.28,56.59a68.78,68.78,0,0,1-1.89,14.34c1,2.09,5.45,3.52,7.54,5.32.17.15.37.3.57.45.33-.48,2.55-2.17,3-2.6.77-1.19.22-9.19.22-9.19Z" transform="translate(-10.64 -20.39)"/><path class="cls-2" d="M126.74,66.75s-2.55,3.12-3,5.09,13.13,8.45,13.13,8.45l.58-6.19S129.17,70.47,126.74,66.75Z" transform="translate(-10.64 -20.39)"/><path class="cls-2" d="M138.39,68l-1.16.65a16.53,16.53,0,0,1,.31,3.23c-.06,1.38-.08,2.19-.08,2.19l3.81,3.1a18.23,18.23,0,0,0-.91-5.32A9.8,9.8,0,0,0,138.39,68Z" transform="translate(-10.64 -20.39)"/><path class="cls-8" d="M130.54,46.24c-2.72,2.07-5.06,8.44-3.44,13.77,1.44,4.74,6.54,8.53,9,9.6,4.34,1.91,12.48-9.33,9.3-18.32C142.35,42.72,134.05,43.57,130.54,46.24Z" transform="translate(-10.64 -20.39)"/><path class="cls-10" d="M130.06,42.26c-5.62-.88-6.91,6.47-6.91,10.07,0,4.94,2.91,7.7,5.63,10.51.67-1.41-1-2.93,6-6.48,4.35,2.73,12.43.74,12.43.74,0-4.9.61-9-2.24-11.62C140.26,41.14,134.44,38,130.06,42.26Z" transform="translate(-10.64 -20.39)"/><path class="cls-10" d="M145.08,61.24a51.75,51.75,0,0,1-2.7,5,10.58,10.58,0,0,1-2.63,2.59,16.15,16.15,0,0,0,2.9,3.68c1.53,1.49,3.46,1.53,4.18,3.33a3.13,3.13,0,0,1-1.3,3.81A5.43,5.43,0,0,0,149.69,78c1.52-1.67,1.52-5.52.29-7A27.8,27.8,0,0,1,145.08,61.24Z" transform="translate(-10.64 -20.39)"/><path class="cls-8" d="M168.82,112.22c-2.4-1.66-5.07-1.87-6.59-2.7-1.08-.59-.46-1.57.52-2,2.07-.89,2.07-1.76.85-1.83a8.47,8.47,0,0,0-2.25.59,19.28,19.28,0,0,0-2.68,1,5.62,5.62,0,0,1-4.62.63,139.2,139.2,0,0,1-18.11-6.68c-1.22-2.56-3.39-6-3.8-6.76-2.7-4.87-8.1-14.19-8.1-14.19l-8.19,5.89s3.39,8.26,7.3,13.43c1.84,2.43,4.33,7.12,6.61,9.21.55.51,3.11,1.4,6.19,2.34a63.87,63.87,0,0,0,16.45,2.67c1.19,0,11.82,3.78,13.93,3.82,2.56,0,3.93-.2,4-1.65C170.32,115,170.19,113.18,168.82,112.22Z" transform="translate(-10.64 -20.39)"/><path class="cls-14" d="M114.93,75.9c-3.43,4-2,7.6-.45,12.29s5.81,9.69,5.81,9.69a49.63,49.63,0,0,0,7.08-4.68,20.9,20.9,0,0,0,3.22-4s-4-10.76-6.86-13.56C121.27,73.21,117.79,72.54,114.93,75.9Z" transform="translate(-10.64 -20.39)"/><path class="cls-10" d="M132.05,80.18c1.43-3.13.61-6.84-.72-9.44-1.63-3.21-1.21-8.28-.17-12s-7.7-9.74-7.7-9.74-1.58,6-3.57,8.75-4.39,6.83-2.63,9.13,1.85,3.31.73,5.61-.78,6,1.55,6.89c2.87,1.11,6.41,1.47,7,4.33.89,4.14,5.54,4,6.61,2.83C130.7,85.65,130.62,83.31,132.05,80.18Z" transform="translate(-10.64 -20.39)"/><path class="cls-9" d="M185,74.45a13.85,13.85,0,0,0,.64,4.46c.76,2.44,2.69,3,3.42,0S186.05,74.7,185,74.45Z" transform="translate(-10.64 -20.39)"/><path class="cls-16" d="M336.72,115.27l-.7.56c-1-4.1-3-6.34-9.33-2.67l-4.17,2.41-6.44,3.72-4.17,2.41c-8.49,4.9-9.22,11.38-10.07,18.89-.77,6.81-2.52,26.57-2.54,26.76l2.55,1.49s3.32-26,3.62-29.51a38.08,38.08,0,0,1,2.42-8.63l-2.24-.56c1.15-2.39,3-4.31,6.26-6.19l4.17-2.41,6.44-3.72,4.17-2.41c6.75-3.9,7.49-.69,8.4,6.33.77,5.89,2.47,23.23,2.49,23.41l2.55,1.49s-.37-12.11-.83-16.65S336.72,115.27,336.72,115.27Z" transform="translate(-10.64 -20.39)"/><path class="cls-2" d="M329.24,114.64l-4.17,2.41-6.44,3.72-4.17,2.41c-8.49,4.9-9.22,11.38-10.07,18.89-.77,6.82-2.52,26.57-2.54,26.77l1.71-1.06c0-.2,1.73-19.54,2.5-26.31.91-8.08,1.65-12.13,8.4-16l4.17-2.41,6.44-3.72,4.17-2.41c6.75-3.9,7.49-.69,8.4,6.33.77,5.89,2.47,23.23,2.49,23.41l1.72-.9c0-.18-1.77-17.91-2.54-23.83C338.46,115.38,337.73,109.74,329.24,114.64Z" transform="translate(-10.64 -20.39)"/><path class="cls-16" d="M362.06,129.78l-.7.56c-1-4.1-3-6.34-9.33-2.67l-4.17,2.41-6.44,3.72-4.17,2.41c-8.49,4.9-9.22,11.38-10.07,18.89-.77,6.82-2.52,26.57-2.54,26.77l2.55,1.49s3.32-26,3.62-29.51a38.08,38.08,0,0,1,2.42-8.63l-2.24-.56c1.15-2.39,3-4.31,6.26-6.19l4.17-2.41,6.44-3.72,4.17-2.41c6.75-3.9,7.49-.69,8.4,6.33.77,5.89,2.47,23.23,2.49,23.41l2.55,1.49s-.37-12.11-.83-16.65S362.06,129.78,362.06,129.78Z" transform="translate(-10.64 -20.39)"/><path class="cls-2" d="M354.58,129.16l-4.17,2.41L344,135.29l-4.17,2.41c-8.49,4.9-9.22,11.38-10.07,18.89-.77,6.82-2.52,26.57-2.54,26.77l1.71-1.06c0-.2,1.73-19.54,2.5-26.31.91-8.08,1.65-12.13,8.4-16l4.17-2.41,6.44-3.72,4.17-2.41c6.75-3.9,7.49-.69,8.4,6.33.77,5.89,2.47,23.23,2.49,23.41l1.72-.9c0-.18-1.77-17.91-2.54-23.83C363.8,129.89,363.06,124.26,354.58,129.16Z" transform="translate(-10.64 -20.39)"/><path class="cls-11" d="M341.79,59.5,338.93,61s-1.72,21.27-2.75,29.64c-.87,7.14-2.75,15.32-14,22.13l-26,15v3.81l3.35-1.88,28.85,16.52s10.69-4.89,21.11-10.63,16.73-12,18.86-20.33,4.22-35.74,4.22-35.74-24.46-15.56-31-17.64C341.72,60.4,341.79,59.5,341.79,59.5Z" transform="translate(-10.64 -20.39)"/><path class="cls-12" d="M368.39,109.09c-.87,7.14-2.75,15.32-14,22.13-9.62,5.83-22.24,12.92-26,15V150c2.3-1.29,7.78-4.36,13.88-7.89,4-2.32,8.32-4.84,12.14-7.16,12.79-7.75,15.64-17.93,16.73-26.87,1.05-8.6,2.81-30.33,2.81-30.33l-2.87,1.66S369.41,100.72,368.39,109.09Z" transform="translate(-10.64 -20.39)"/><polygon class="cls-17" points="328.24 40.61 360.47 59.14 363.37 57.41 331.13 38.89 328.24 40.61"/><polygon class="cls-17" points="285.6 111.21 317.8 129.65 317.8 125.84 285.6 107.4 285.6 111.21"/><path class="cls-18" d="M323,56.77c-2.81,1.63-4.18,4.47-5.33,5.88a37.07,37.07,0,0,1-7.33,6.45c-3.74,2-6.11,5.91-7.46,6.86-3,2.1-5.07,4.23-5.05,6.39,0,1.48.5,5,3,6.35,2.34,1.25,3.68,1.39,5-.18.85-1,2.45-.89,3.6-1.25a7,7,0,0,0,3.79-2.6c1.46-2.24,3.52-1.56,4.57-3.85.53-1.16,9.8-4.56,9.8-4.56l.18-15.59S325,55.65,323,56.77Z" transform="translate(-10.64 -20.39)"/><path class="cls-10" d="M334.5,48.59l-1.22,9.16s1.76,12.9,4.63,15.38,8-1.57,8-1.57-1.47-6.28-4-13.81S334.5,48.59,334.5,48.59Z" transform="translate(-10.64 -20.39)"/><path class="cls-8" d="M290.81,173.82a20.86,20.86,0,0,1-3.46,4.57c-3.45,3.51-5.43,5.48-6.55,7.19s-.44,4.16,4.32,2.58c4.37-1.44,9.66-5.71,11.25-6.62s3.79-2.06,2.65-6.31S290.81,173.82,290.81,173.82Z" transform="translate(-10.64 -20.39)"/><path class="cls-19" d="M294.94,181.37c-2.33,2.12-6.46,3.83-7.84,3.49a3.07,3.07,0,0,1-2.62-3.46s-4.14,2.44-4.77,4.57c-.94,3.2,2.7,5.62,7.31,3.69,4.34-1.82,6.29-4.44,8.94-6.58s4.77-2.58,4.77-5.13a9.48,9.48,0,0,0-1-3.21A22.39,22.39,0,0,1,294.94,181.37Z" transform="translate(-10.64 -20.39)"/><path class="cls-8" d="M310.21,182.47s-3.09,4.75-5.18,7.88-3.45,4.05-2.36,6.48,5.71,2.84,6.79,1.49a31.7,31.7,0,0,0,4.34-6.69c1.23-2.8,6.18-4.37,5.38-8S310.21,182.47,310.21,182.47Z" transform="translate(-10.64 -20.39)"/><path class="cls-19" d="M318.63,183.09a27.7,27.7,0,0,1-2.08,4.2,42.38,42.38,0,0,1-4,4.82c-.93.86-5,4-7,2.88-2.64-1.48-.54-4.64-.54-4.64a48,48,0,0,0-4,5.5c-1.71,3.66,2.63,5.69,5.68,4.76,4.18-1.28,6.65-5.28,8.25-7.48.83-1.15,3.33-4.59,4.36-5.83s.85-3.2.38-3.45A6.16,6.16,0,0,1,318.63,183.09Z" transform="translate(-10.64 -20.39)"/><path class="cls-20" d="M323.35,102.51c-.61,1.22-25,16.47-29.52,23-2,2.87-3.57,8.55-3.57,16.34,0,13.58-1.37,33.21-1.37,33.21a8,8,0,0,0,7.88,3c5.21-.92,6-2.62,6-2.62a102.71,102.71,0,0,1,1-14.62c1.76-13,2.93-19,1.81-24.5,0,0,17.6-8.14,25.78-15.56S338.11,100,338.11,100,324,101.3,323.35,102.51Z" transform="translate(-10.64 -20.39)"/><path class="cls-6" d="M333.26,105.91c-.61,1.22-24.91,24.51-25.4,32.48s-1.13,44.32-1.13,44.32a11.55,11.55,0,0,0,8.31,4.5c4.7.19,7.52-4.5,7.52-4.5a54.08,54.08,0,0,1,0-15.12,103,103,0,0,0,0-24.32s12.91-8.84,21.08-16.26,6.82-17.8,6.82-17.8S333.86,104.7,333.26,105.91Z" transform="translate(-10.64 -20.39)"/><path class="cls-19" d="M349,95.93c1.45-9.72,1.66-19.29.92-22.75-2.21-10.29-10.58-12.12-10.58-12.12l-6.14-1.74s-8.26-4.07-8.7-2.75c-1.15,3.5-5.17,13.13-7.7,16.85-2.8,4.12-1.2,7.71,2.93,11.8,1.26,1.25,1.16,10.39,1.16,13.46,0,1.37.45,5-1.71,5.37s-2.38,3.27-2.38,3.27,14.91,8.21,18.36,8.64c10.94,1.36,15.3-6.74,15.3-6.74S348.07,102.15,349,95.93Z" transform="translate(-10.64 -20.39)"/><path class="cls-18" d="M326.07,59.6s-2.51,7.29-2.73,12a14,14,0,0,0,1.36,7.33s6.77-5.76,10.69-9.65,6.94-6.93,6.94-6.93a64.65,64.65,0,0,0-6.94-3.52C331.65,57.25,326.07,59.6,326.07,59.6Z" transform="translate(-10.64 -20.39)"/><path class="cls-9" d="M324.49,54.47a12.34,12.34,0,0,1,2.35,7.65c-.27,4.3-1.67,8.79-.74,11.32,2.38-2.75,10-9.28,13.23-12.38-3.93-4.48-6.56-14.75-6.56-14.75Z" transform="translate(-10.64 -20.39)"/><path class="cls-18" d="M323.35,106.05s5.12,4,9.48,4.71a14.29,14.29,0,0,0,7.76-1,47.25,47.25,0,0,1-7.31-1.29C329.23,107.44,323.35,106.05,323.35,106.05Z" transform="translate(-10.64 -20.39)"/><path class="cls-18" d="M326.1,103.67s5.88.78,10.68-1,5.56-3.87,5.56-3.87-6.2,1-9.06,1.73A41.35,41.35,0,0,0,326.1,103.67Z" transform="translate(-10.64 -20.39)"/><path class="cls-18" d="M354.33,78.9c-.65-5-4.51-17-10.09-14.59-3.27,1.4-4.11,12.11-3.65,13.89s1.75,6.55,1,8-2.19,3.53-1.09,5.16,0,4.11-1.15,5.52a5.08,5.08,0,0,0-1.13,4.43c.48,1.42,2.05,2.84,3.65,4.73s4,3,5.34,2.44c2.47-1,5.23-6.72,5.68-9,.65-3.33-1.2-4.2,0-7.48A38.06,38.06,0,0,0,354.33,78.9Z" transform="translate(-10.64 -20.39)"/><path class="cls-8" d="M340.13,101.41c-3.55,3.26-6.3,6.36-9.11,8.9-4,3.62-5.14,4.65-9.17,7-3,1.73-7.47,4.71-7.43,6.41s-.62,2.9,0,3.34,2.61-3.2,3.67-2.78,4.91-.5,6.41-1.57c2-1.42,1.9-2.78,2.69-3.39s7.37-2,12.15-6a33.5,33.5,0,0,0,6.92-7.61S345.05,102.27,340.13,101.41Z" transform="translate(-10.64 -20.39)"/><path class="cls-21" d="M344,98.59s3.17.55,4.46,2.26a8.35,8.35,0,0,1,1.2,3.23s1.54-.63,0-3.32S344,98.59,344,98.59Z" transform="translate(-10.64 -20.39)"/><path class="cls-21" d="M341.85,93.29a32.11,32.11,0,0,1,4.4.5,37.33,37.33,0,0,1,3.7,1,9.26,9.26,0,0,0-4-2.39A5.92,5.92,0,0,0,341.85,93.29Z" transform="translate(-10.64 -20.39)"/><path class="cls-21" d="M343.51,88.69a14.91,14.91,0,0,1,3.67-.3c1.31.06,3.17.3,3.17.3a7.91,7.91,0,0,0-3.17-1.28A5.11,5.11,0,0,0,343.51,88.69Z" transform="translate(-10.64 -20.39)"/><path class="cls-21" d="M305.61,75.36a18.18,18.18,0,0,1,4.19,3.46,20.67,20.67,0,0,1,2.45,3.61,6.67,6.67,0,0,0-1.64-4.55A9.85,9.85,0,0,0,305.61,75.36Z" transform="translate(-10.64 -20.39)"/><path class="cls-21" d="M312.84,72.43a30.64,30.64,0,0,1,.65,3.8,23.93,23.93,0,0,1,0,3.64A7.34,7.34,0,0,0,315,76.15,4.48,4.48,0,0,0,312.84,72.43Z" transform="translate(-10.64 -20.39)"/><path class="cls-8" d="M299.78,76.87c-4.68-3-8.07-4-10.58-6.39-1.8-1.69-2.88-4.09-3.91-5.21-1.41-1.53-.66-4.46-1.79-3.78s-.7,1.87-.68,2.55c.06,1.9-.73,2.07-1.57,1.85a10.42,10.42,0,0,0-5.43-.39,2.53,2.53,0,0,0-1.28,4.28c1.23,1.12,6.28,1.54,8.28,2.48s4.08,3.15,7.44,7.34S299,87.49,302.49,88s3-2.77,2-5.59C304.53,82.43,304.24,79.68,299.78,76.87Z" transform="translate(-10.64 -20.39)"/><path class="cls-21" d="M306,79.53a15,15,0,0,1,1.29,3.83,16.93,16.93,0,0,1-.2,3,5.09,5.09,0,0,0,.8-3.88A4.93,4.93,0,0,0,306,79.53Z" transform="translate(-10.64 -20.39)"/><path class="cls-8" d="M333.39,39.62c-3.32-2.81-11.45-4.08-14.87,4.22-3.59,8.7,3.85,20.18,8.22,18.52,2.45-.93,7.41-3.2,9.07-7.79C337.68,49.4,336,41.81,333.39,39.62Z" transform="translate(-10.64 -20.39)"/><path class="cls-10" d="M332.11,37.23s-4.88-5.44-11.77-.49c-10,7.2-2.35,15.7-2.35,15.7s.35-4.2,6.86-6.51c0,0,5.63,6.51,11.61,8,2.82-6.36,3.37-8.11,2-12.14A6.74,6.74,0,0,0,332.11,37.23Z" transform="translate(-10.64 -20.39)"/><path class="cls-8" d="M332.81,51.49A7.84,7.84,0,0,0,331.42,53l2,3.07a3,3,0,0,0,1.5-3.39C334.61,50.87,333.43,51,332.81,51.49Z" transform="translate(-10.64 -20.39)"/><path class="cls-2" d="M351.88,241.34c0,1,1.52,1.8,3.39,1.8s3.39-.81,3.39-1.8V219.06h-6.78Z" transform="translate(-10.64 -20.39)"/><path class="cls-22" d="M355.26,217.52c-1.87,0-3.39.81-3.39,1.8s1.52,1.8,3.39,1.8,3.39-.81,3.39-1.8S357.13,217.52,355.26,217.52Z" transform="translate(-10.64 -20.39)"/><path class="cls-2" d="M314.08,219.65c0,1,1.52,1.8,3.39,1.8s3.39-.81,3.39-1.8V197.37h-6.78Z" transform="translate(-10.64 -20.39)"/><path class="cls-22" d="M317.46,195.83c-1.87,0-3.39.81-3.39,1.8s1.52,1.8,3.39,1.8,3.39-.81,3.39-1.8S319.33,195.83,317.46,195.83Z" transform="translate(-10.64 -20.39)"/><path class="cls-2" d="M429.88,196.24c0,1,1.52,1.8,3.39,1.8s3.39-.81,3.39-1.8V174h-6.78Z" transform="translate(-10.64 -20.39)"/><path class="cls-22" d="M433.27,172.42c-1.87,0-3.39.81-3.39,1.8s1.52,1.8,3.39,1.8,3.39-.81,3.39-1.8S435.14,172.42,433.27,172.42Z" transform="translate(-10.64 -20.39)"/><path class="cls-10" d="M395.47,172.75c-1.87,0-3.39.81-3.39,1.8s1.52,1.8,3.39,1.8,3.39-.81,3.39-1.8S397.34,172.75,395.47,172.75Z" transform="translate(-10.64 -20.39)"/><rect class="cls-10" x="381.44" y="131.87" width="6.77" height="22.28"/><path class="cls-22" d="M395.47,150.73c-1.87,0-3.39.81-3.39,1.8s1.52,1.8,3.39,1.8,3.39-.81,3.39-1.8S397.34,150.73,395.47,150.73Z" transform="translate(-10.64 -20.39)"/><polygon class="cls-23" points="296.14 176.38 344.62 204.52 433.79 152.89 385.49 124.62 296.14 176.38"/><polygon class="cls-15" points="304.81 175.82 344.62 198.93 424.91 152.53 385.25 129.31 304.81 175.82"/><polygon class="cls-20" points="344.62 208.76 433.79 157.13 433.79 152.89 344.62 204.52 344.62 208.76"/><polygon class="cls-22" points="296.14 180.62 344.62 208.76 344.62 204.52 296.14 176.38 296.14 180.62"/><polygon class="cls-18" points="355.61 156.44 382.5 171.96 401.32 161.09 374.43 145.57 355.61 156.44"/><path class="cls-18" d="M366.6,175.52c-.34.2-1.63.53-.34,1.31.85.51,1.86-.24,1.69-.78C367.83,175.67,366.6,175.52,366.6,175.52Z" transform="translate(-10.64 -20.39)"/><path class="cls-18" d="M411.45,180.08a1.44,1.44,0,0,0-1.32.61,1,1,0,0,0,1.55.95C412.82,180.91,412.12,180.4,411.45,180.08Z" transform="translate(-10.64 -20.39)"/><polygon class="cls-19" points="355.61 155.33 382.5 170.85 401.32 159.98 374.43 144.46 355.61 155.33"/><polygon class="cls-17" points="361.14 146.77 388.03 162.29 406.85 151.42 379.96 135.9 361.14 146.77"/><path class="cls-17" d="M372.13,165.85c-.35.2-1.63.53-.35,1.31.85.51,1.86-.24,1.69-.78C373.36,166,372.13,165.85,372.13,165.85Z" transform="translate(-10.64 -20.39)"/><path class="cls-17" d="M417,170.41a1.44,1.44,0,0,0-1.32.61,1,1,0,0,0,1.55.95C418.35,171.24,417.65,170.73,417,170.41Z" transform="translate(-10.64 -20.39)"/><polygon class="cls-11" points="361.14 145.66 388.03 161.18 406.85 150.31 379.96 134.79 361.14 145.66"/></svg>