<svg id="Layer_1" data-name="Layer 1" xmlns="http://www.w3.org/2000/svg" viewBox="0 0 1265.8 816.6"><defs><style>.cls-1{fill:#cfe09b;}.cls-2{fill:#f34761;}.cls-3{fill:#d83509;}.cls-4{fill:#96250b;}.cls-18,.cls-5{fill:#ff541f;}.cls-20,.cls-6{fill:#fff;}.cls-7{fill:#e8eeef;}.cls-11,.cls-8{fill:#0e7777;}.cls-9{fill:#056865;}.cls-10{fill:#2bb4bc;}.cls-11{opacity:0.46;}.cls-11,.cls-18,.cls-20,.cls-21,.cls-22{isolation:isolate;}.cls-12{fill:#ffae1f;}.cls-13{fill:#054946;}.cls-14{fill:none;}.cls-15{fill:#c96a1b;}.cls-16,.cls-22{fill:#e5bc7f;}.cls-17{fill:#ff931d;}.cls-18{opacity:0.4;}.cls-19{fill:#e6eced;}.cls-20{opacity:0.81;}.cls-22{opacity:0.57;}</style></defs><g id="OBJECT"><path class="cls-1" d="M1153.5,828.7a501.39,501.39,0,0,0,49.9-218.9c0-278.1-225.4-503.5-503.5-503.5S196.5,331.8,196.5,609.8a501.72,501.72,0,0,0,49.9,218.9Z" transform="translate(-61.9 -77.1)"/><polygon class="cls-2" points="173.8 268.6 216 227.3 406.3 421.2 364.2 462.6 173.8 268.6"/><rect class="cls-3" x="368.03" y="267.49" width="5.9" height="271.81" transform="translate(-238.25 298.27) rotate(-44.47)"/><rect class="cls-4" x="257.61" y="320.2" width="30.8" height="2.2" transform="translate(-208.79 206.13) rotate(-44.47)"/><rect class="cls-4" x="272.73" y="324.52" width="21.7" height="2.2" transform="translate(-208.79 214.78) rotate(-44.47)"/><rect class="cls-4" x="279.91" y="331.93" width="21.7" height="2.2" transform="translate(-211.93 221.93) rotate(-44.47)"/><rect class="cls-4" x="287.19" y="339.31" width="21.7" height="2.2" transform="translate(-215.01 229.14) rotate(-44.47)"/><rect class="cls-4" x="286.69" y="349.9" width="30.8" height="2.2" transform="translate(-221.27 235) rotate(-44.47)"/><rect class="cls-4" x="302.49" y="354.61" width="21.7" height="2.2" transform="translate(-221.35 244.24) rotate(-44.47)"/><rect class="cls-4" x="309.81" y="361.99" width="21.7" height="2.2" transform="translate(-224.42 251.47) rotate(-44.47)"/><rect class="cls-4" x="317.13" y="369.5" width="21.7" height="2.2" transform="translate(-227.59 258.76) rotate(-44.47)"/><rect class="cls-4" x="316.64" y="380.1" width="30.8" height="2.2" transform="translate(-233.85 264.64) rotate(-44.47)"/><rect class="cls-4" x="332.52" y="385.39" width="21.7" height="2.2" transform="translate(-234.31 274.09) rotate(-44.47)"/><rect class="cls-4" x="339.85" y="392.9" width="21.7" height="2.2" transform="translate(-237.48 281.37) rotate(-44.47)"/><rect class="cls-4" x="347.13" y="400.31" width="21.7" height="2.2" transform="translate(-240.58 288.59) rotate(-44.47)"/><rect class="cls-4" x="346.63" y="410.9" width="30.8" height="2.2" transform="translate(-246.84 294.46) rotate(-44.47)"/><rect class="cls-4" x="362.43" y="415.58" width="21.7" height="2.2" transform="translate(-246.9 303.68) rotate(-44.47)"/><rect class="cls-4" x="369.75" y="422.99" width="21.7" height="2.2" transform="translate(-249.99 310.93) rotate(-44.47)"/><rect class="cls-4" x="376.89" y="430.4" width="21.7" height="2.2" transform="translate(-253.14 318.05) rotate(-44.47)"/><rect class="cls-4" x="376.55" y="441.11" width="30.8" height="2.2" transform="translate(-259.43 324.07) rotate(-44.47)"/><rect class="cls-4" x="392.13" y="446.22" width="21.7" height="2.2" transform="translate(-259.85 333.26) rotate(-44.47)"/><rect class="cls-4" x="399.45" y="453.62" width="21.7" height="2.2" transform="translate(-262.94 340.5) rotate(-44.47)"/><rect class="cls-4" x="406.73" y="461" width="21.7" height="2.2" transform="translate(-266.02 347.72) rotate(-44.47)"/><rect class="cls-4" x="406.24" y="471.6" width="30.8" height="2.2" transform="translate(-272.29 353.59) rotate(-44.47)"/><rect class="cls-4" x="421.89" y="476.31" width="21.7" height="2.2" transform="translate(-272.41 362.72) rotate(-44.47)"/><rect class="cls-4" x="429.35" y="483.82" width="21.7" height="2.2" transform="translate(-275.53 370.1) rotate(-44.47)"/><rect class="cls-4" x="436.53" y="491.23" width="21.7" height="2.2" transform="translate(-278.67 377.25) rotate(-44.47)"/><rect class="cls-4" x="436.02" y="501.81" width="30.8" height="2.2" transform="translate(-284.92 383.1) rotate(-44.47)"/><polygon class="cls-2" points="247 376.3 221 402.3 401.9 574 418.7 557.2 247 376.3"/><polygon class="cls-2" points="237.8 385.5 412.7 563.2 418.7 557.2 247 376.3 237.8 385.5"/><path class="cls-5" d="M487.5,657.9h0c-4.4,4.4-11.2,5-15.2,1.2l-8.4-8,16.8-16.8,8,8.4C492.4,646.7,491.9,653.5,487.5,657.9Z" transform="translate(-61.9 -77.1)"/><polygon class="cls-6" points="187.9 362 221 402.3 247 376.3 206.8 343.2 187.9 362"/><polygon class="cls-7" points="206.8 343.2 197.7 352.3 237.9 385.4 247 376.3 206.8 343.2"/><path class="cls-5" d="M263.7,391.4c-11.8-11.8-66.5-24.3-66.5-24.3s12.4,54.6,24.3,66.5a29.84,29.84,0,1,0,42.2-42.2Z" transform="translate(-61.9 -77.1)"/><path class="cls-8" d="M263.7,391.4c-11.8-11.8-66.5-24.3-66.5-24.3s12.4,54.6,24.3,66.5a29.84,29.84,0,1,0,42.2-42.2Z" transform="translate(-61.9 -77.1)"/><path class="cls-9" d="M263.7,391.4c-11.8-11.8-66.5-24.3-66.5-24.3s1,4.5,2.8,11.3c17,4.7,40.4,12.2,47.7,19.5,11.8,11.8,12,30.9.3,42.5-.7.7-1.5,1.4-2.2,2a28.93,28.93,0,0,0,18.2-8.5A29.94,29.94,0,0,0,263.7,391.4Z" transform="translate(-61.9 -77.1)"/><path class="cls-7" d="M280.4,429.9a29.13,29.13,0,0,1-21.2,20.6l-7.5-9.1a29.71,29.71,0,0,0,19.6-19Z" transform="translate(-61.9 -77.1)"/><rect class="cls-10" x="298.39" y="440.21" width="36" height="270.3" transform="translate(-376.07 315.14) rotate(-45)"/><rect class="cls-11" x="318.19" y="432.02" width="12.8" height="270.3" transform="translate(-367.88 318.54) rotate(-45)"/><polygon class="cls-12" points="171.7 389.9 146.2 415.4 111.8 356.8 113.1 355.5 171.7 389.9"/><polygon class="cls-8" points="136.4 369.2 113.1 355.5 111.8 356.8 125.5 380.1 136.4 369.2"/><path class="cls-5" d="M438.9,697.8h0a18.11,18.11,0,0,1-25.5,0l-14.2-14.2,25.5-25.5,14.2,14.2A18.11,18.11,0,0,1,438.9,697.8Z" transform="translate(-61.9 -77.1)"/><path class="cls-1" d="M1201.9,826.9H144.4A33.46,33.46,0,0,0,111,860.3h0a33.46,33.46,0,0,0,33.4,33.4H1201.9a33.46,33.46,0,0,0,33.4-33.4h0A33.46,33.46,0,0,0,1201.9,826.9Z" transform="translate(-61.9 -77.1)"/><rect class="cls-9" x="1188.48" y="431.59" width="40.9" height="28.9" transform="matrix(0.56, -0.83, 0.83, 0.56, 97.96, 1117.2)"/><rect class="cls-8" x="1014.69" y="686.93" width="40.9" height="28.9" transform="matrix(0.56, -0.83, 0.83, 0.56, -189.09, 1085.19)"/><path class="cls-10" d="M1243.7,657.5c-1.6,2.4-3.3,4.7-5.1,7a146.12,146.12,0,0,1-69.1,49.5c-3.1,1.1-6.2,2-9.4,2.9a146.49,146.49,0,0,1-121-20.5,152.55,152.55,0,0,1-29.2-26.1,147.44,147.44,0,0,1-34.3-78.9c-.4-3.3-.6-6.5-.8-9.8a146.81,146.81,0,0,1,20.7-82.5c1.5-2.5,3-4.9,4.6-7.3l.6-.9a146.62,146.62,0,0,1,70.4-54.5c3.1-1.1,6.1-2.1,9.3-3A146.51,146.51,0,0,1,1204.6,453a152.55,152.55,0,0,1,29.2,26.1,146.92,146.92,0,0,1,34.6,82.3c.3,3.2.5,6.5.6,9.7a146.58,146.58,0,0,1-24.9,85.5A1.8,1.8,0,0,1,1243.7,657.5Z" transform="translate(-61.9 -77.1)"/><path class="cls-11" d="M1244.2,656.6a146.58,146.58,0,0,0,24.9-85.5c-.1-3.3-.3-6.5-.6-9.7a146.92,146.92,0,0,0-34.6-82.3,143.09,143.09,0,0,0-22.2-21,135.37,135.37,0,0,1,6.6,30.8c.3,2.9.4,5.8.5,8.8a132.22,132.22,0,0,1-22.4,77,3.51,3.51,0,0,0-.5.8c-1.5,2.2-3,4.2-4.5,6.3a131.65,131.65,0,0,1-62.2,44.6c-2.8,1-5.6,1.8-8.4,2.6a132,132,0,0,1-77.4-2.7,134.74,134.74,0,0,1-31.5-15.8A131.32,131.32,0,0,1,985.7,587a126,126,0,0,1-10.8-14.7c-.1,3.1,0,6.3.1,9.4.2,3.3.4,6.5.8,9.8a147.44,147.44,0,0,0,34.3,78.9,149.61,149.61,0,0,0,29.2,26.1,146.49,146.49,0,0,0,121,20.5c3.2-.8,6.3-1.8,9.4-2.9a146.8,146.8,0,0,0,69.1-49.5c1.7-2.3,3.4-4.6,5.1-7A2.93,2.93,0,0,1,1244.2,656.6Z" transform="translate(-61.9 -77.1)"/><path class="cls-6" d="M1190.5,634.8l1.5-2,46.6,31.7c1.7-2.3,3.4-4.6,5.1-7l.6-.9-46.7-31.8,1.4-2.2a251.45,251.45,0,0,0,28.6-57.3l.8-2.4,2.4.7a171.89,171.89,0,0,0,38.3,7.4c-.1-3.3-.3-6.5-.6-9.7a170.62,170.62,0,0,1-34.9-6.9l-2.4-.7.7-2.5a177,177,0,0,0,5.5-30.8c1.3-15.5.1-29.4-3.5-41.3a149.61,149.61,0,0,0-29.2-26.1,147.35,147.35,0,0,0-35-17.6c-12.4,1-25.8,5-39.7,11.9a172.27,172.27,0,0,0-26.6,16.4l-2,1.5-1.6-2a159.3,159.3,0,0,1-19.2-29.9q-4.65,1.35-9.3,3a169.61,169.61,0,0,0,21,32.8l1.6,2-1.9,1.7a253.44,253.44,0,0,0-42.9,47.7l-1.5,2.1-46.7-31.8-.6.9c-1.6,2.4-3.2,4.8-4.6,7.3l46.6,31.7-1.3,2.1a248.7,248.7,0,0,0-25.7,54.4l-.8,2.5-2.5-.8a178.69,178.69,0,0,0-37-7.5c.2,3.3.4,6.5.8,9.8a162.54,162.54,0,0,1,33.6,7.2l2.4.7-.6,2.4a171.14,171.14,0,0,0-4.6,27.3c-1.3,15.5-.1,29.4,3.5,41.3a149.61,149.61,0,0,0,29.2,26.1,147.35,147.35,0,0,0,35,17.6c12.4-1,25.8-5,39.7-11.9a176.52,176.52,0,0,0,23.8-14.3l2-1.4,1.6,1.9a170.44,170.44,0,0,1,18.9,28.7c3.2-.8,6.3-1.8,9.4-2.9a178.86,178.86,0,0,0-20.6-31.6l-1.6-2,2-1.7A253.36,253.36,0,0,0,1190.5,634.8Zm-155.2,58.7-2.3-2.2c-13.3-13-19.1-34.3-16.9-61.5a167.46,167.46,0,0,1,4-24.4l.7-2.9,2.8,1.1a279.57,279.57,0,0,1,51.5,26.5l2.3,1.5Zm47.6-70-2.2-1.4a287.46,287.46,0,0,0-54.8-28.1l-2.3-.9.8-2.4a237.84,237.84,0,0,1,24.5-52l1.5-2.3,62.8,42.8Zm35.7-52.4-63-42.9,1.5-2.2a245.35,245.35,0,0,1,41.1-45.7l2-1.7,1.7,1.9a286.67,286.67,0,0,0,46.9,41.5l2.1,1.5Zm37.8-55.5-2.2-1.6a283.49,283.49,0,0,1-44.5-39.2l-2-2.2,2.4-1.7a162.2,162.2,0,0,1,24.3-14.9c24.5-12.1,46.4-14.5,63.4-6.9l2.9,1.3Zm52.3-59.7,2.3,2.2c13.3,13,19.1,34.3,16.9,61.5a172.76,172.76,0,0,1-4.9,28.1l-.7,2.8-2.7-1a285.94,285.94,0,0,1-52.7-27l-2.3-1.5Zm-77.8,224.7a163.69,163.69,0,0,1-21.3,12.7c-24.5,12.1-46.4,14.5-63.4,6.9l-2.9-1.3,42.2-62,2.2,1.6a286,286,0,0,1,43.6,38.2l2,2.2Zm51.5-51.1a239.58,239.58,0,0,1-39.4,41.9l-1.9,1.6-1.7-1.9a292.46,292.46,0,0,0-46.3-40.7l-2.1-1.5,30.2-44.4,62.9,42.8Zm-55.8-53,32.3-47.5,2.2,1.4a288.59,288.59,0,0,0,55.8,28.5l2.4.9-.8,2.4a247,247,0,0,1-27.4,54.9l-1.5,2.2Z" transform="translate(-61.9 -77.1)"/><rect class="cls-9" x="1051.9" y="659.4" width="18" height="82.9"/><path class="cls-9" d="M1169.3,800h-91.6a13.14,13.14,0,0,0-13.1,13.1v9.6h117.8v-9.6A13.21,13.21,0,0,0,1169.3,800Z" transform="translate(-61.9 -77.1)"/><rect class="cls-13" x="1002.7" y="741.9" width="117.8" height="3.7"/><path class="cls-13" d="M1169.3,800h-24.5a13.14,13.14,0,0,1,13.1,13.1v9.6h24.5v-9.6A13.21,13.21,0,0,0,1169.3,800Z" transform="translate(-61.9 -77.1)"/><path class="cls-9" d="M1198.1,822.6H1048.8a13.29,13.29,0,0,0-13.3,13.3v17.7h175.9V835.9A13.36,13.36,0,0,0,1198.1,822.6Z" transform="translate(-61.9 -77.1)"/><path class="cls-13" d="M1198.1,822.6h-38a13.29,13.29,0,0,1,13.3,13.3v17.7h38V835.9A13.36,13.36,0,0,0,1198.1,822.6Z" transform="translate(-61.9 -77.1)"/><path class="cls-14" d="M1033.5,704.7a156.48,156.48,0,0,0,129.2,21.9c3.4-.9,6.7-1.9,10-3a156.94,156.94,0,0,0,73.9-52.9q2.85-3.6,5.4-7.5l.6-.9a156.45,156.45,0,0,0,26.6-91.4c-.1-3.5-.3-6.9-.6-10.4a157,157,0,0,0-37-87.9c-1-1.2-2-2.3-3.1-3.5a12,12,0,0,1-1.1-1.2c-.7-.7-1.3-1.4-2-2.1l-1.5-1.5-1.7-1.7c-.6-.6-1.2-1.1-1.8-1.7a2.65,2.65,0,0,0-.6-.5c-1.7-1.6-3.4-3.1-5.1-4.6-.2-.2-.4-.3-.6-.5-.9-.8-1.8-1.5-2.7-2.3-.2-.2-.4-.3-.6-.5-3.3-2.7-6.8-5.3-10.4-7.8-.1,0-.1-.1-.2-.1L1030.8,702.9C1031.8,703.5,1032.6,704.1,1033.5,704.7Z" transform="translate(-61.9 -77.1)"/><path class="cls-9" d="M1288.9,570.6q-.15-5.55-.6-11.1a166.7,166.7,0,0,0-39.3-93.3c-1.1-1.2-2.1-2.5-3.3-3.7-.4-.4-.8-.9-1.2-1.3-.7-.8-1.4-1.5-2.1-2.3-.5-.5-1-1.1-1.6-1.6l-1.8-1.8c-.6-.6-1.2-1.2-1.9-1.8l-.6-.6c-1.8-1.7-3.6-3.3-5.4-4.9-.2-.2-.4-.3-.6-.5-1-.8-1.9-1.6-2.9-2.4a1.79,1.79,0,0,0-.7-.5,132.62,132.62,0,0,0-11.1-8.2.1.1,0,0,1-.1-.1l-5.5,8c.1,0,.1.1.2.1,3.6,2.5,7.1,5.1,10.4,7.8.2.2.4.3.6.5.9.8,1.8,1.5,2.7,2.3.2.2.4.3.6.5,1.7,1.5,3.4,3,5.1,4.6a2.65,2.65,0,0,0,.6.5c.6.6,1.2,1.1,1.8,1.7l1.7,1.7,1.5,1.5c.7.7,1.3,1.4,2,2.1a12,12,0,0,1,1.1,1.2c1,1.1,2.1,2.3,3.1,3.5a157.67,157.67,0,0,1,37,87.9c.3,3.5.5,6.9.6,10.4a156.66,156.66,0,0,1-26.6,91.4l-.6.9c-1.7,2.6-3.5,5-5.4,7.5a156.26,156.26,0,0,1-73.9,52.9c-3.3,1.1-6.7,2.2-10,3a157.24,157.24,0,0,1-91.8-3.1,160,160,0,0,1-37.4-18.8c-.9-.6-1.7-1.2-2.6-1.8l-5.5,8c.9.6,1.7,1.2,2.6,1.9a164.09,164.09,0,0,0,39.7,19.9,166.51,166.51,0,0,0,97.5,3.3c3.6-1,7.1-2,10.7-3.2a166.55,166.55,0,0,0,78.4-56.2c2-2.6,3.9-5.2,5.7-7.9.2-.3.5-.7.7-1A165.1,165.1,0,0,0,1288.9,570.6Z" transform="translate(-61.9 -77.1)"/><path class="cls-15" d="M1048.8,354.4H381a30.77,30.77,0,0,0-30.7,30.7V796.6A30.77,30.77,0,0,0,381,827.3h667.8a30.77,30.77,0,0,0,30.7-30.7V385.1A30.77,30.77,0,0,0,1048.8,354.4Z" transform="translate(-61.9 -77.1)"/><path class="cls-16" d="M1048.8,354.4H381a30.77,30.77,0,0,0-30.7,30.7V796.6A30.77,30.77,0,0,0,381,827.3h667.8a30.77,30.77,0,0,0,30.7-30.7V385.1A30.77,30.77,0,0,0,1048.8,354.4Z" transform="translate(-61.9 -77.1)"/><path class="cls-16" d="M1048.8,354.4h-17a30.77,30.77,0,0,1,30.7,30.7V796.6a30.77,30.77,0,0,1-30.7,30.7h17a30.77,30.77,0,0,0,30.7-30.7V385.1A30.77,30.77,0,0,0,1048.8,354.4Z" transform="translate(-61.9 -77.1)"/><path class="cls-9" d="M1037.5,385.5a6.66,6.66,0,0,1,6.6,6.6V789.6a6.66,6.66,0,0,1-6.6,6.6H392.4a6.66,6.66,0,0,1-6.6-6.6V392.1a6.66,6.66,0,0,1,6.6-6.6Z" transform="translate(-61.9 -77.1)"/><path class="cls-13" d="M403,409.4a6.66,6.66,0,0,1,6.6-6.6H1044V392.1a6.66,6.66,0,0,0-6.6-6.6h-645a6.66,6.66,0,0,0-6.6,6.6V789.6a6.66,6.66,0,0,0,6.6,6.6H403Z" transform="translate(-61.9 -77.1)"/><path class="cls-10" d="M450.7,645.5V821.3a46.8,46.8,0,0,1-46.8,46.8H238.5a46.8,46.8,0,0,1-46.8-46.8V645.5a35.4,35.4,0,0,1,35.4-35.4H415.2A35.49,35.49,0,0,1,450.7,645.5Z" transform="translate(-61.9 -77.1)"/><path class="cls-10" d="M415.2,610.1H396.3a35.4,35.4,0,0,1,35.4,35.4V821.3a46.8,46.8,0,0,1-46.8,46.8h18.9a46.8,46.8,0,0,0,46.8-46.8V645.5A35.34,35.34,0,0,0,415.2,610.1Z" transform="translate(-61.9 -77.1)"/><path class="cls-13" d="M417.2,763.9v28.4c0,30.3-41.5,54.9-71.8,54.9H280a54.93,54.93,0,0,1-54.9-54.9V763.9a25.59,25.59,0,0,1,25.6-25.6H391.5A25.54,25.54,0,0,1,417.2,763.9Z" transform="translate(-61.9 -77.1)"/><path class="cls-13" d="M468.2,603.2v71.4a24.11,24.11,0,0,1-24.1,24.1H198.2a24.11,24.11,0,0,1-24.1-24.1V603.2a40.63,40.63,0,0,1,40.6-40.6h213A40.54,40.54,0,0,1,468.2,603.2Z" transform="translate(-61.9 -77.1)"/><path class="cls-3" d="M245.4,608.8H220.7a3.12,3.12,0,0,0-3.1,3.1v98.3a7.41,7.41,0,0,0,2.7,5.7l10.7,8.7a3.31,3.31,0,0,0,4.2,0l10.6-8.7a7.36,7.36,0,0,0,2.7-5.6V612A3.08,3.08,0,0,0,245.4,608.8Z" transform="translate(-61.9 -77.1)"/><path class="cls-2" d="M245.4,555.5H220.7a3.12,3.12,0,0,0-3.1,3.1v139a7.41,7.41,0,0,0,2.7,5.7L231,712a3.31,3.31,0,0,0,4.2,0l10.6-8.7a7.36,7.36,0,0,0,2.7-5.6V558.6A3.05,3.05,0,0,0,245.4,555.5Z" transform="translate(-61.9 -77.1)"/><path class="cls-6" d="M250.4,643H215.8a4.44,4.44,0,0,0-4.4,4.4v26.4a4.44,4.44,0,0,0,4.4,4.4h34.6a4.44,4.44,0,0,0,4.4-4.4V647.4A4.51,4.51,0,0,0,250.4,643Zm-2,29.1H217.8V649h30.6Z" transform="translate(-61.9 -77.1)"/><path class="cls-13" d="M262.3,647.4v26.3a4.44,4.44,0,0,1-4.4,4.4h-1.8v20.3h-7.5V678.1h1.8a4.44,4.44,0,0,0,4.4-4.4V647.4a4.44,4.44,0,0,0-4.4-4.4h-1.8V562.6h7.5V643h1.8A4.44,4.44,0,0,1,262.3,647.4Z" transform="translate(-61.9 -77.1)"/><path class="cls-13" d="M432.5,562.9v-.3H400.4c22.4,0,12.2,18.2,12.2,40.6v71.4c0,13.3,17.5,24.1,4.2,24.1h27.3a24.11,24.11,0,0,0,24.1-24.1V603.2A40.57,40.57,0,0,0,432.5,562.9Z" transform="translate(-61.9 -77.1)"/><path class="cls-3" d="M421.6,608.8H396.9a3.12,3.12,0,0,0-3.1,3.1v98.3a7.41,7.41,0,0,0,2.7,5.7l10.7,8.7a3.31,3.31,0,0,0,4.2,0l10.6-8.7a7.36,7.36,0,0,0,2.7-5.6V612A3.14,3.14,0,0,0,421.6,608.8Z" transform="translate(-61.9 -77.1)"/><path class="cls-2" d="M421.6,555.5H396.9a3.12,3.12,0,0,0-3.1,3.1v139a7.41,7.41,0,0,0,2.7,5.7l10.7,8.7a3.31,3.31,0,0,0,4.2,0l10.6-8.7a7.36,7.36,0,0,0,2.7-5.6V558.6A3.12,3.12,0,0,0,421.6,555.5Z" transform="translate(-61.9 -77.1)"/><path class="cls-6" d="M426.5,643H392a4.44,4.44,0,0,0-4.4,4.4v26.4a4.44,4.44,0,0,0,4.4,4.4h34.6a4.44,4.44,0,0,0,4.4-4.4V647.4A4.6,4.6,0,0,0,426.5,643Zm-2,29.1H393.9V649h30.6Z" transform="translate(-61.9 -77.1)"/><path class="cls-16" d="M375,554.9a48,48,0,0,0-48.1-46.2H315.5a48,48,0,0,0-48.1,46.2l-.3,7.7h21.4l.3-7.1a26.69,26.69,0,0,1,26.6-25.4h11.4a26.48,26.48,0,0,1,26.6,25.4l.3,7.1h21.4Z" transform="translate(-61.9 -77.1)"/><path class="cls-16" d="M267.4,554.6v.3l-.3,7.7h21.4l.3-7.1a2.77,2.77,0,0,1,.1-.9Z" transform="translate(-61.9 -77.1)"/><path class="cls-16" d="M374.9,554.6H353.4c0,.3.1.6.1.9l.3,7.1h21.4l-.3-7.7Z" transform="translate(-61.9 -77.1)"/><path class="cls-2" d="M391.6,738.3h-9.5a25.59,25.59,0,0,1,25.6,25.6V769H225.1v9.1H407.7v14.2c0,30.3-41.5,54.9-71.8,54.9h9.5c30.3,0,71.8-24.6,71.8-54.9V763.9A25.59,25.59,0,0,0,391.6,738.3Z" transform="translate(-61.9 -77.1)"/><path class="cls-2" d="M369.6,773.2v28.5a9.5,9.5,0,0,0,19,0V773.2Zm9.6,32.7a4.9,4.9,0,1,1,4.9-4.9A4.91,4.91,0,0,1,379.2,805.9Z" transform="translate(-61.9 -77.1)"/><path class="cls-6" d="M959.5,678.9l-3.8,2.9a4.78,4.78,0,0,1-6.7-.9l-24-31.4a4.78,4.78,0,0,1,.9-6.7l3.8-2.9a4.78,4.78,0,0,1,6.7.9l24,31.4A4.78,4.78,0,0,1,959.5,678.9Z" transform="translate(-61.9 -77.1)"/><path class="cls-2" d="M963.1,633a7.89,7.89,0,0,0-1.2-13.3c-13.6-7-31.6-5.5-45.7,5.2s-20.2,27.7-17,42.7a7.9,7.9,0,0,0,12.5,4.7Z" transform="translate(-61.9 -77.1)"/><path class="cls-3" d="M961.8,619.6c-13.6-7-31.6-5.5-45.7,5.2a46.72,46.72,0,0,0-8.1,7.9c12.8-6.9,27.6-7.1,39.2-1.1a7.94,7.94,0,0,1,3.4,10.7l12.3-9.4A7.8,7.8,0,0,0,961.8,619.6Z" transform="translate(-61.9 -77.1)"/><rect class="cls-6" x="1054.59" y="653.6" width="49.1" height="14.4" transform="translate(-163.17 1039.6) rotate(-52.6)"/><path class="cls-2" d="M1053.5,628.9a3.16,3.16,0,0,1-.1-4.9c14-11.7,35.8-11.8,52.3.8s22.1,33.7,14.5,50.3a3.11,3.11,0,0,1-4.7,1.2Z" transform="translate(-61.9 -77.1)"/><path class="cls-3" d="M1105.7,624.9a45.44,45.44,0,0,0-7.2-4.5c10.6,12.6,13.5,29.5,7.2,43.3a3.11,3.11,0,0,1-4.7,1.2l-48.4-37a3.13,3.13,0,0,0,.9,1.1l62,47.4a3.11,3.11,0,0,0,4.7-1.2C1127.8,658.6,1122.2,637.5,1105.7,624.9Z" transform="translate(-61.9 -77.1)"/><path class="cls-6" d="M972.1,853l22.4-47a5.52,5.52,0,0,0-2.6-7.3L982,794a5.52,5.52,0,0,0-7.3,2.6L950,848a5.81,5.81,0,0,0,5.2,8.3h11.6A5.9,5.9,0,0,0,972.1,853Z" transform="translate(-61.9 -77.1)"/><path class="cls-6" d="M1055,856.3h11.6a5.76,5.76,0,0,0,5.2-8.3l-24.6-51.5a5.52,5.52,0,0,0-7.3-2.6l-9.9,4.7a5.52,5.52,0,0,0-2.6,7.3l22.4,47A5.57,5.57,0,0,0,1055,856.3Z" transform="translate(-61.9 -77.1)"/><path class="cls-17" d="M994.5,806,979,838.5a96.12,96.12,0,0,1-20.2-8.9l15.8-33.1a5.52,5.52,0,0,1,7.3-2.6l9.9,4.7A5.56,5.56,0,0,1,994.5,806Z" transform="translate(-61.9 -77.1)"/><path class="cls-17" d="M1062.3,828.1a101.1,101.1,0,0,1-19.9,9.5L1027.3,806a5.52,5.52,0,0,1,2.6-7.3l9.9-4.7a5.52,5.52,0,0,1,7.3,2.6Z" transform="translate(-61.9 -77.1)"/><path class="cls-18" d="M994.5,806,979,838.5a96.12,96.12,0,0,1-20.2-8.9l15.8-33.1a5.52,5.52,0,0,1,7.3-2.6l9.9,4.7A5.56,5.56,0,0,1,994.5,806Z" transform="translate(-61.9 -77.1)"/><path class="cls-18" d="M1062.3,828.1a101.1,101.1,0,0,1-19.9,9.5L1027.3,806a5.52,5.52,0,0,1,2.6-7.3l9.9-4.7a5.52,5.52,0,0,1,7.3,2.6Z" transform="translate(-61.9 -77.1)"/><circle class="cls-3" cx="947.4" cy="665.3" r="93.7"/><circle class="cls-6" cx="1009.29" cy="742.4" r="78.9" transform="translate(-291.24 854.02) rotate(-45)"/><path class="cls-19" d="M936.4,745.4a78.93,78.93,0,0,1,111.2-72A78.87,78.87,0,1,0,977,814.3,78.64,78.64,0,0,1,936.4,745.4Z" transform="translate(-61.9 -77.1)"/><circle class="cls-8" cx="947.4" cy="665.3" r="5.5"/><path class="cls-8" d="M1009.3,672.7h0a3.12,3.12,0,0,0-3.1,3.1v10a3.12,3.12,0,0,0,3.1,3.1h0a3.12,3.12,0,0,0,3.1-3.1v-10A3.12,3.12,0,0,0,1009.3,672.7Z" transform="translate(-61.9 -77.1)"/><path class="cls-8" d="M1009.3,795.9h0a3.12,3.12,0,0,0-3.1,3.1v10a3.12,3.12,0,0,0,3.1,3.1h0a3.12,3.12,0,0,0,3.1-3.1V799A3.12,3.12,0,0,0,1009.3,795.9Z" transform="translate(-61.9 -77.1)"/><path class="cls-8" d="M939.6,742.4h0a3.12,3.12,0,0,0,3.1,3.1h10a3.12,3.12,0,0,0,3.1-3.1h0a3.12,3.12,0,0,0-3.1-3.1h-10A3.12,3.12,0,0,0,939.6,742.4Z" transform="translate(-61.9 -77.1)"/><path class="cls-8" d="M1062.8,742.4h0a3.12,3.12,0,0,0,3.1,3.1h10a3.12,3.12,0,0,0,3.1-3.1h0a3.12,3.12,0,0,0-3.1-3.1h-10A3.12,3.12,0,0,0,1062.8,742.4Z" transform="translate(-61.9 -77.1)"/><path class="cls-8" d="M1008.8,744.6h0a2.62,2.62,0,0,1-2-3.1l11.2-49.1a2.62,2.62,0,0,1,3.1-2h0a2.62,2.62,0,0,1,2,3.1l-11.2,49.1A2.44,2.44,0,0,1,1008.8,744.6Z" transform="translate(-61.9 -77.1)"/><path class="cls-8" d="M1007.8,742.2h0a2.78,2.78,0,0,1-3.7.5l-17.6-14.3a2.78,2.78,0,0,1-.5-3.7h0a2.78,2.78,0,0,1,3.7-.5l17.6,14.3A2.79,2.79,0,0,1,1007.8,742.2Z" transform="translate(-61.9 -77.1)"/><path class="cls-16" d="M804.8,465.1C837,497.3,830,556.5,830,556.5s-59.2,7-91.4-25.2-25.2-91.4-25.2-91.4S772.5,432.9,804.8,465.1Z" transform="translate(-61.9 -77.1)"/><path class="cls-16" d="M783.2,470c19.3,19.3,15.1,54.8,15.1,54.8s-35.5,4.2-54.8-15.1-15.1-54.8-15.1-54.8S763.9,450.7,783.2,470Z" transform="translate(-61.9 -77.1)"/><polygon class="cls-13" points="662.1 317.5 607.5 372.1 650.9 402.8 692.8 361 662.1 317.5"/><path class="cls-2" d="M592.8,404.8s-11.5,33.7,25.7,95.2l64.7,64.7,17-17c-10-18.9-45.3-73.3-21.2-110.2l-46.2-24.6Z" transform="translate(-61.9 -77.1)"/><path class="cls-3" d="M632.8,412.9l-40-8.1s-2.9,8.5-1.1,24.6l20.5,4.1,46.2,24.6c-18.9,29.1-1.1,69,12.2,93.9l12.7,12.7,17-17c-10-18.9-45.3-73.3-21.2-110.2Z" transform="translate(-61.9 -77.1)"/><path class="cls-2" d="M672.2,315.3s33.7-11.5,95.2,25.7l64.7,64.7-17,17s-78.6-41.8-110.2-21.2l-24.6-46.2Z" transform="translate(-61.9 -77.1)"/><path class="cls-3" d="M672.2,315.3l2.9,14.5c16,.8,41.7,6.4,76.2,27.3L816,421.8l16-16L767.4,341C705.9,303.8,672.2,315.3,672.2,315.3Z" transform="translate(-61.9 -77.1)"/><path class="cls-10" d="M474.1,200.9l-.1-.1v.1h-.1l.1.1c-1,8.9-22.6,218.9,207.1,269.8l31.3-31.3.2-.2L743.9,408C693,178.3,483,199.9,474.1,200.9Z" transform="translate(-61.9 -77.1)"/><path class="cls-11" d="M474.1,200.9l-.1-.1v.1h-.1l.1.1c-.2,1.5-.9,8.9-1,20.3,55.5-.1,207.3,17.5,249.6,208.1L744,408C693,178.3,483,199.9,474.1,200.9Z" transform="translate(-61.9 -77.1)"/><path class="cls-2" d="M595,218.7c-60.7-24-116.4-18.2-120.9-17.7l-.1-.1v.1h-.1l.1.1c-.5,4.5-6.3,60.2,17.7,120.9Z" transform="translate(-61.9 -77.1)"/><path class="cls-3" d="M474.1,200.9l-.1-.1v.1h-.1l.1.1c-.2,1.5-.9,8.9-1,20.3,22.4,0,60.4,2.8,100.6,18.7L595,218.6C534.3,194.7,478.6,200.4,474.1,200.9Z" transform="translate(-61.9 -77.1)"/><circle class="cls-13" cx="542.2" cy="251.8" r="48.4"/><circle class="cls-6" cx="542.2" cy="251.8" r="34.8"/><path class="cls-10" d="M836.4,599.9A70.26,70.26,0,1,0,887.7,685,70.23,70.23,0,0,0,836.4,599.9Zm34,80.8a52.58,52.58,0,0,1-59.9,39.2c-1.2-.2-2.5-.5-3.7-.8a52.69,52.69,0,0,1-39.5-44.9,51.7,51.7,0,0,1,1.2-18.7,52.58,52.58,0,0,1,57.1-39.6,35.47,35.47,0,0,1,6.5,1.2A52,52,0,0,1,864.4,641a20.13,20.13,0,0,1,1.4,2.5,52.24,52.24,0,0,1,5.4,15.7A50.5,50.5,0,0,1,870.4,680.7Z" transform="translate(-61.9 -77.1)"/><path class="cls-20" d="M865.9,643.5c-.4-.8-.9-1.7-1.4-2.5a52,52,0,0,0-32.3-23.9c-2.2-.5-4.3-.9-6.5-1.2a51.26,51.26,0,0,0-20.6,1.7,52.76,52.76,0,0,0-36.5,37.9,51.7,51.7,0,0,0-1.2,18.7,52.51,52.51,0,0,0,10.7,26.1,53.7,53.7,0,0,0,16.8,14.2,52.36,52.36,0,0,0,12,4.6c1.2.3,2.4.6,3.7.8a51.45,51.45,0,0,0,23.4-1.3,52.68,52.68,0,0,0,37.3-59.5A54.53,54.53,0,0,0,865.9,643.5Z" transform="translate(-61.9 -77.1)"/><path class="cls-3" d="M813.7,731.6l-17.3,68c-1,4.2-3.4,7.3-5.1,6.9l-5.9-1.5-5.9-1.5c-1.8-.4-2.4-4.3-1.3-8.5l17.3-68Z" transform="translate(-61.9 -77.1)"/><path class="cls-3" d="M784.9,768.9a8,8,0,0,0-9.9,5.6l-22.5,81.1c-1.6,5.6,1.9,11.5,7.7,13.2l14.1,3.9a10.83,10.83,0,0,0,13.4-7.3l22.4-81.1a8,8,0,0,0-5.6-9.9Z" transform="translate(-61.9 -77.1)"/><path class="cls-9" d="M719.8,826.6v22.9c0,8.4-9.5,15.1-21.2,15.1H453.9c-11.7,0-21.2-6.8-21.2-15.1V826.6c0-8.4,9.5-15.1,21.2-15.1H698.6C710.3,811.4,719.8,818.2,719.8,826.6Z" transform="translate(-61.9 -77.1)"/><path class="cls-13" d="M698.6,811.4H668c11.7,0,21.2,6.8,21.2,15.1v22.9c0,8.4-9.5,15.1-21.2,15.1h30.7c11.7,0,21.2-6.8,21.2-15.1V826.5C719.8,818.2,710.3,811.4,698.6,811.4Z" transform="translate(-61.9 -77.1)"/><rect class="cls-10" x="486.4" y="734.3" width="38.5" height="53.2"/><rect class="cls-10" x="419.9" y="734.3" width="38.5" height="53.2"/><path class="cls-16" d="M489.9,790.2V770.8A12.76,12.76,0,0,1,502.7,758H698.2a18.15,18.15,0,0,0-16-9.5H471.3a18.22,18.22,0,0,0-18.2,18.3v27.6a18.2,18.2,0,0,0,18.2,18.2H682.2a18.35,18.35,0,0,0,16-9.5H502.7A12.91,12.91,0,0,1,489.9,790.2Z" transform="translate(-61.9 -77.1)"/><path class="cls-6" d="M682.5,758H502.7a12.76,12.76,0,0,0-12.8,12.8v19.4A12.76,12.76,0,0,0,502.7,803H682.5Z" transform="translate(-61.9 -77.1)"/><rect class="cls-7" x="597.3" y="680.9" width="23.3" height="45.1"/><path class="cls-6" d="M485.2,703H603.4a10.84,10.84,0,0,1,10.8,10.9v16.4a10.82,10.82,0,0,1-10.8,10.8H485.2Z" transform="translate(-61.9 -77.1)"/><path class="cls-10" d="M614.3,722.9V720a10.9,10.9,0,0,0-10.8-10.9H471.9c2.6-4.8,7.7-14.3,13.6-14.3H630a15.41,15.41,0,0,1,15.4,15.4v23.4A15.41,15.41,0,0,1,630,749H485.5c-5.9,0-11-10.7-13.6-15.5H603.5A10.41,10.41,0,0,0,614.3,722.9Z" transform="translate(-61.9 -77.1)"/><path class="cls-8" d="M630,694.9H615a15.41,15.41,0,0,1,15.4,15.4v23.4A15.41,15.41,0,0,1,615,749.1h15a15.41,15.41,0,0,0,15.4-15.4V710.3A15.41,15.41,0,0,0,630,694.9Z" transform="translate(-61.9 -77.1)"/><path class="cls-2" d="M605.7,596.2c-18.5-25.4-41.5-14.3-52-4.2-10.5-10.2-28.6-21.2-47,4.2-20.2,27.7-11.5,69.3,3.8,91.2,6.1,8.7,18.6,12,29.2,7.9l16.5-6.4,16.5,6.4c10.6,4.1,23.1.8,29.2-7.9C617.1,665.6,625.8,623.9,605.7,596.2Z" transform="translate(-61.9 -77.1)"/><path class="cls-3" d="M605.7,596.2c-14.2-19.5-31.1-17.5-42.9-10.9a43.66,43.66,0,0,1,11.1,10.9c20.2,27.7,11.5,69.3-3.8,91.2a23.7,23.7,0,0,1-5,5l7.6,2.9c10.6,4.1,23.1.8,29.2-7.9C617.1,665.6,625.8,623.9,605.7,596.2Z" transform="translate(-61.9 -77.1)"/><path class="cls-3" d="M554.4,601.6s-3.1-21.6-8.7-31.9a5.77,5.77,0,0,1,2.9-8h0a5.8,5.8,0,0,1,8,4.6C557.7,575.2,558.7,590.3,554.4,601.6Z" transform="translate(-61.9 -77.1)"/><g class="cls-21"><path class="cls-2" d="M1022.5,457.7c.1,0,.1-.1,0,0a6.42,6.42,0,0,0,2-2.3c10.1-19.6,27-23.9,43.9-35.4,25-17,41.5-42.9,40.3-73.7-1.9-51.4-57.3-80.6-102.8-64.1-23.5,8.5-38.6,29.8-44.8,53.3-5.5,21.3.1,40.4,1.7,61.3.8,10.5-7.3,18.8-7.5,28.4a11.08,11.08,0,0,0,.7,4.3l61.7,30.9C1019.6,459.9,1020.8,458.9,1022.5,457.7Z" transform="translate(-61.9 -77.1)"/></g><path class="cls-3" d="M1108.8,346.4c-1.3-34.5-26.7-59-57-66.4,16.3,12,27.6,30.4,28.5,53.2,1.2,30.8-15.3,56.6-40.3,73.7-16.9,11.5-33.8,15.9-43.9,35.4a6,6,0,0,1-1.9,2.2l-.1.1a41.38,41.38,0,0,1-3.5,2.3l27.4,13.7a21.51,21.51,0,0,0,4.7-2.8l.1-.1a6,6,0,0,0,1.9-2.2c10.1-19.6,27-23.9,43.9-35.4C1093.5,403,1110,377.2,1108.8,346.4Z" transform="translate(-61.9 -77.1)"/><path class="cls-3" d="M966.1,497.7h0a20.47,20.47,0,0,1-11.5-22.1l4-22.4,46.3,21.5-14.5,17.5A20.46,20.46,0,0,1,966.1,497.7Z" transform="translate(-61.9 -77.1)"/><path class="cls-3" d="M1031.3,457l-76-35.3a8.56,8.56,0,0,0-11.3,4.1h0a8.56,8.56,0,0,0,4.1,11.3l76,35.3a8.56,8.56,0,0,0,11.3-4.1h0A8.49,8.49,0,0,0,1031.3,457Z" transform="translate(-61.9 -77.1)"/><path class="cls-2" d="M1024.4,471.8l-76-35.3a8.56,8.56,0,0,0-11.3,4.1h0a8.56,8.56,0,0,0,4.1,11.3l76,35.3a8.56,8.56,0,0,0,11.3-4.1h0A8.41,8.41,0,0,0,1024.4,471.8Z" transform="translate(-61.9 -77.1)"/><path class="cls-22" d="M1206.2,323.9l4.9,8.9a26,26,0,0,0,10.4,10.4l8.9,4.9a3.68,3.68,0,0,1,0,6.5l-8.9,4.9a26,26,0,0,0-10.4,10.4l-4.9,8.9a3.68,3.68,0,0,1-6.5,0l-4.9-8.9a26,26,0,0,0-10.4-10.4l-8.9-4.9a3.68,3.68,0,0,1,0-6.5l8.9-4.9a26,26,0,0,0,10.4-10.4l4.9-8.9A3.68,3.68,0,0,1,1206.2,323.9Z" transform="translate(-61.9 -77.1)"/><path class="cls-22" d="M1295.2,173.4l6.1,11.1a32.67,32.67,0,0,0,12.9,12.9l11.1,6.1a4.62,4.62,0,0,1,0,8.1l-11.1,6.1a32.67,32.67,0,0,0-12.9,12.9l-6.1,11.1a4.62,4.62,0,0,1-8.1,0l-6.1-11.1a32.67,32.67,0,0,0-12.9-12.9l-11.1-6.1a4.62,4.62,0,0,1,0-8.1l11.1-6.1a32.67,32.67,0,0,0,12.9-12.9l6.1-11.1A4.62,4.62,0,0,1,1295.2,173.4Z" transform="translate(-61.9 -77.1)"/><path class="cls-16" d="M1266.4,714l5,9.1a26.38,26.38,0,0,0,10.6,10.6l9.1,5a3.85,3.85,0,0,1,0,6.7l-9.1,5a26.38,26.38,0,0,0-10.6,10.6l-5,9.1a3.85,3.85,0,0,1-6.7,0l-5-9.1a26.38,26.38,0,0,0-10.6-10.6l-9.1-5a3.85,3.85,0,0,1,0-6.7l9.1-5a26.38,26.38,0,0,0,10.6-10.6l5-9.1A3.85,3.85,0,0,1,1266.4,714Z" transform="translate(-61.9 -77.1)"/><path class="cls-22" d="M145.2,734l3.8,7a21,21,0,0,0,8.1,8.1l7,3.8a2.92,2.92,0,0,1,0,5.1l-7,3.8a21,21,0,0,0-8.1,8.1l-3.8,7a2.92,2.92,0,0,1-5.1,0l-3.8-7a21,21,0,0,0-8.1-8.1l-7-3.8a2.92,2.92,0,0,1,0-5.1l7-3.8a21,21,0,0,0,8.1-8.1l3.8-7A2.92,2.92,0,0,1,145.2,734Z" transform="translate(-61.9 -77.1)"/><path class="cls-16" d="M864.3,236.6l6.5,11.8a35.22,35.22,0,0,0,13.8,13.8l11.8,6.5a5,5,0,0,1,0,8.7l-11.8,6.5a35.22,35.22,0,0,0-13.8,13.8l-6.5,11.8a5,5,0,0,1-8.7,0l-6.5-11.8a35.22,35.22,0,0,0-13.8-13.8l-11.8-6.5a5,5,0,0,1,0-8.7l11.8-6.5a35.22,35.22,0,0,0,13.8-13.8l6.5-11.8A4.92,4.92,0,0,1,864.3,236.6Z" transform="translate(-61.9 -77.1)"/><path class="cls-22" d="M761.3,95.3l5.7,10.5A30.48,30.48,0,0,0,779.2,118l10.5,5.7a4.42,4.42,0,0,1,0,7.7l-10.5,5.7A30.48,30.48,0,0,0,767,149.3l-5.7,10.5a4.42,4.42,0,0,1-7.7,0l-5.7-10.5a30.48,30.48,0,0,0-12.2-12.2l-10.5-5.7a4.42,4.42,0,0,1,0-7.7l10.5-5.7a30.48,30.48,0,0,0,12.2-12.2l5.7-10.5A4.35,4.35,0,0,1,761.3,95.3Z" transform="translate(-61.9 -77.1)"/><path class="cls-16" d="M323.5,79.5l6,11a32.67,32.67,0,0,0,12.9,12.9l11,6a4.62,4.62,0,0,1,0,8.1l-11,6a32.67,32.67,0,0,0-12.9,12.9l-6,11a4.62,4.62,0,0,1-8.1,0l-6-11a32.67,32.67,0,0,0-12.9-12.9l-11-6a4.62,4.62,0,0,1,0-8.1l11-6a32.67,32.67,0,0,0,12.9-12.9l6-11A4.62,4.62,0,0,1,323.5,79.5Z" transform="translate(-61.9 -77.1)"/><path class="cls-16" d="M418.2,276.7l4.1,7.4a22.21,22.21,0,0,0,8.6,8.6l7.4,4.1a3,3,0,0,1,0,5.4l-7.4,4.1a22.21,22.21,0,0,0-8.6,8.6l-4.1,7.4a3,3,0,0,1-5.4,0l-4.1-7.4a22.21,22.21,0,0,0-8.6-8.6l-7.4-4.1a3,3,0,0,1,0-5.4l7.4-4.1a22.21,22.21,0,0,0,8.6-8.6l4.1-7.4A3.1,3.1,0,0,1,418.2,276.7Z" transform="translate(-61.9 -77.1)"/><path class="cls-16" d="M97.2,539.7l5.3,9.6a28.72,28.72,0,0,0,11.2,11.2l9.6,5.3a4.05,4.05,0,0,1,0,7.1l-9.6,5.3a28.72,28.72,0,0,0-11.2,11.2L97.2,599a4.05,4.05,0,0,1-7.1,0l-5.3-9.6a28.72,28.72,0,0,0-11.2-11.2L64,572.9a4.05,4.05,0,0,1,0-7.1l9.6-5.3a28.72,28.72,0,0,0,11.2-11.2l5.3-9.6A4.05,4.05,0,0,1,97.2,539.7Z" transform="translate(-61.9 -77.1)"/><path class="cls-22" d="M187.5,274.6l3.9,7.2a20.6,20.6,0,0,0,8.4,8.4l7.2,3.9a3,3,0,0,1,0,5.3l-7.2,3.9a20.6,20.6,0,0,0-8.4,8.4l-3.9,7.2a3,3,0,0,1-5.3,0l-3.9-7.2a20.6,20.6,0,0,0-8.4-8.4l-7.2-3.9a3,3,0,0,1,0-5.3l7.2-3.9a20.6,20.6,0,0,0,8.4-8.4l3.9-7.2A3,3,0,0,1,187.5,274.6Z" transform="translate(-61.9 -77.1)"/><path class="cls-16" d="M1090.8,119.1l2.8,5.2a15.72,15.72,0,0,0,6,6l5.2,2.8a2.17,2.17,0,0,1,0,3.8l-5.2,2.8a15.72,15.72,0,0,0-6,6l-2.8,5.2a2.17,2.17,0,0,1-3.8,0l-2.8-5.2a15.72,15.72,0,0,0-6-6l-5.2-2.8a2.17,2.17,0,0,1,0-3.8l5.2-2.8a15.72,15.72,0,0,0,6-6l2.8-5.2A2.17,2.17,0,0,1,1090.8,119.1Z" transform="translate(-61.9 -77.1)"/></g></svg>